<?xml version="1.0" encoding="UTF-8"?>
<svg id="Capa_2" data-name="Capa 2" xmlns="http://www.w3.org/2000/svg" viewBox="0 0 494.96 116.27">
  <defs>
    <style>
      .cls-1 {
        fill: #e44c49;
      }

      .cls-1, .cls-2, .cls-3 {
        stroke-width: 0px;
      }

      .cls-2 {
        fill: #fff;
      }

      .cls-3 {
        fill: #f8f8f8;
      }
    </style>
  </defs>
  <g id="Capa_1-2" data-name="Capa 1">
    <g>
      <g>
        <ellipse class="cls-3" cx="70.21" cy="57.9" rx="5.37" ry="5.6"/>
        <ellipse class="cls-3" cx="70.28" cy="83.3" rx="5.37" ry="5.6"/>
        <g>
          <path class="cls-3" d="M113.46,41.89c-11.89-7.43-24.22-14.09-36.89-19.94.61-.28,1.2-.55,1.79-.82,12.08,6.19,23.81,13.13,35.1,20.76Z"/>
          <path class="cls-3" d="M111.56,14.64c-.08-.83-.24-1.87-.4-2.69-.52-2.69-1.34-5.3-2.5-7.79-.64-1.37-2.19-2.05-3.6-1.52-11.83,4.12-23.4,8.99-34.65,14.56,0,0,0,0,0,0l-2.13,1.08h-.02s0,0,0,0c-11.72,5.93-23.08,12.63-34,20.07-.54.36-1.26.09-1.44-.55-.57-1.91-1.05-3.85-1.45-5.8-1.74-8.52-1.82-17.4-.24-25.96.11-.58.66-.93,1.21-.77,6.42,1.91,12.79,4.01,19.09,6.31,4.75,1.73,9.46,3.57,14.12,5.53.25.1.53.1.77-.02h0c.74-.37.73-1.47-.02-1.82-4.63-2.14-9.3-4.17-14.01-6.09-7.14-2.91-14.39-5.57-21.71-7.97-.89-.3-1.84.27-2.06,1.21-.77,3.31-1.31,6.67-1.61,10.06-.88,10.21.36,20.7,3.86,30.29.03.08.07.16.12.24.54.75,1.55.97,2.33.46,5.75-3.75,11.62-7.3,17.6-10.64,4.03-2.25,8.11-4.41,12.23-6.46,3.76-1.88,7.55-3.67,11.38-5.38.64-.29,1.28-.57,1.93-.85.78-.34,1.56-.68,2.34-1.01,8.2-3.51,16.55-6.65,25-9.4.47-.15.97.09,1.16.55.64,1.5,1.15,3.07,1.51,4.66.92,4.03.91,8.28,0,12.32-.15.66-.86.98-1.42.64-6.06-3.71-12.32-7.01-18.75-9.89-.29-.12-.56-.11-.79-.02t0,0c-.72.3-.98,1.46-.08,1.97,7.28,3.78,14.23,8.18,20.89,12.99.04.03.09.06.14.08.88.4,1.91-.05,2.28-.97.5-1.06.94-2.15,1.32-3.26,1.55-4.5,2.1-9.38,1.59-14.14Z"/>
        </g>
        <path class="cls-3" d="M123.98,35.16c3.48-5.09,6.61-9.67,9.89-14.47-7.46-6.85-15.96-13.11-24.21-20.69,6.34,12.11,6.7,22.87.53,36.5,6.21,4.59,6.96,10.23,6.96,10.23-.74-.6-2.77-2.22-5.01-3.74-1.53-1.05-2.69-1.73-3.98-2.34h0c-.38.72-.77,1.45-1.18,2.19-4.54-2.59-4.48-2.56-8.87-5.06-8.52,26.05-16.88,51.63-25.66,78.5,23.22-23.08,45.5-45.22,67.98-67.56-5.66-4.67-11.01-9.08-16.44-13.55Z"/>
        <path class="cls-3" d="M67.96,116.27c-3.05-9.32-19.29-59.04-24.78-75.88-4.36,2.43-7.65,4.87-12.38,7.5-2.04-4.46-6.52-15.05-6.93-25.26-.39-9.63,1.61-17.3,3.16-21.86-7.99,7.34-13.11,13.16-20.49,19.95,3.37,4.92,6.52,9.51,9.92,14.46-5.52,4.54-10.91,8.97-16.46,13.54,5.81,5.77,50.73,50.43,67.96,67.55Z"/>
        <path class="cls-3" d="M80.92,10.18c-1.89-3.81-5.7-6.41-10.1-6.41s-8.45,2.77-10.27,6.77c3.33,1.41,6.65,2.91,9.92,4.46,3.44-1.7,6.93-3.31,10.46-4.83Z"/>
      </g>
      <g>
        <path class="cls-2" d="M443.43,62.25c0-1.46-1.18-2.63-2.63-2.63h0c-1.46,0-2.63,1.18-2.63,2.63v13.75l-19.22-50.85c-.34-1.06-1.33-1.82-2.51-1.82h0c-1.42,0-2.58,1.13-2.63,2.53,0,.01,0,.03,0,.04,0,.02,0,.04,0,.06v28.15c0,1.46,1.18,2.63,2.63,2.63h0c1.46,0,2.63-1.18,2.63-2.63v-13.72l19.26,50.97c.51,1.36,2.03,2.05,3.4,1.53h0c1.11-.42,1.77-1.51,1.7-2.63v-28.02Z"/>
        <rect class="cls-2" x="462.52" y="23.35" width="32.44" height="5.27" rx="2.63" ry="2.63"/>
        <rect class="cls-2" x="470.68" y="87.74" width="24.28" height="5.27" rx="2.63" ry="2.63"/>
        <path class="cls-2" d="M492.32,49.5h-24.54v-6.85c0-1.46-1.18-2.63-2.63-2.63h0c-1.46,0-2.63,1.18-2.63,2.63v33.33l-19.22-50.85c-.34-1.06-1.33-1.82-2.51-1.82h0c-1.42,0-2.58,1.13-2.63,2.53,0,.01,0,.03,0,.04,0,.02,0,.04,0,.06v28.15c0,1.46,1.18,2.63,2.63,2.63h0c1.46,0,2.63-1.18,2.63-2.63v-13.72l19.26,50.97c.51,1.36,2.03,2.05,3.4,1.53h0c1.11-.42,1.77-1.51,1.7-2.63v-35.48h24.54c1.46,0,2.63-1.18,2.63-2.63h0c0-1.46-1.18-2.63-2.63-2.63Z"/>
        <path class="cls-2" d="M405.59,87.73h-24.32V25.97c0-1.46-1.18-2.64-2.64-2.64h0c-1.46,0-2.64,1.18-2.64,2.64v63.18c0,.26.02.51.05.75,0,0,0,0,0,0-.03.15-.05.31-.05.47,0,1.13.77,2.1,1.86,2.48.09.04.19.08.29.1.16.04.32.07.48.07.04,0,.07,0,.1,0h.03s.01,0,.02,0c.02,0,.05,0,.07,0h26.74c.79,0,1.5-.3,2.02-.77s.84-1.14.84-1.87c0-1.46-1.28-2.64-2.85-2.64Z"/>
        <path class="cls-2" d="M396.41,24.76c-.39-.87-1.25-1.43-2.2-1.43h0c-1.74,0-2.91,1.79-2.21,3.39l19.5,44.2h-15.85c-1.37,0-2.49,1.11-2.49,2.49h0c0,1.37,1.11,2.49,2.49,2.49h17.94l6.97,15.57c.42.95,1.37,1.56,2.4,1.56h0c1.91,0,3.18-1.97,2.4-3.71l-28.95-64.56Z"/>
        <path class="cls-2" d="M345.99,23.35c-.08,0-.15,0-.23,0h-20.1c-1.46,0-2.64,1.18-2.64,2.64v64.41c0,1.46,1.18,2.64,2.64,2.64s2.64-1.18,2.64-2.64V28.63h17.67c.12,0,.23,0,.34-.02,10.63.18,19.2,9.5,19.2,20.97s-8.73,20.96-19.49,20.97h-5.36c-1.15,0-2.11.75-2.44,1.79h0c-.07.24-.11.49-.11.76,0,.7.28,1.34.75,1.8.46.46,1.1.75,1.8.75h5.36c13.4-.01,24.27-11.71,24.27-26.14s-10.87-26.15-24.29-26.15Z"/>
      </g>
      <g>
        <path class="cls-1" d="M308.37,23.33h0c-1.46,0-2.64,1.18-2.64,2.64v64.41c0,1.46,1.18,2.64,2.64,2.64h0c1.46,0,2.64-1.18,2.64-2.64V25.97c0-1.46-1.18-2.64-2.64-2.64Z"/>
        <path class="cls-1" d="M168.54,24.75c-.39-.87-1.25-1.43-2.2-1.43h0c-1.74,0-2.91,1.79-2.21,3.39l19.5,44.2h-17.2c-1.37,0-2.49,1.11-2.49,2.49h0c0,1.37,1.11,2.49,2.49,2.49h19.29l6.97,15.57c.42.95,1.37,1.56,2.4,1.56h0c1.91,0,3.18-1.97,2.4-3.71l-28.95-64.55Z"/>
        <path class="cls-1" d="M209.18,66.17c13.03-1.33,19.43-10.64,19.33-21.14-.1-10.85-7.77-21.7-22.9-21.7h-23.83c-1.32,0-2.39,1.07-2.39,2.39v.19c0,1.32,1.07,2.39,2.39,2.39h23.83c11.55,0,17.12,8.46,17.02,16.63-.1,9.76-5.48,16.63-17.62,16.63h-2.89c-1.57,0-2.84,1.27-2.84,2.84v1.21c0,.66.25,1.3.69,1.79l22.68,24.78c.49.54,1.19.84,1.92.84h0c2.26,0,3.44-2.69,1.91-4.36l-18.3-19.86c-.88-.95-.29-2.5.99-2.63Z"/>
        <path class="cls-1" d="M291.45,23.33h-.59c-1.32,0-2.39,1.07-2.39,2.39v30.76h-37.36c-1.32,0-2.39,1.07-2.39,2.39v.09c0,1.32,1.07,2.39,2.39,2.39h37.36v29.26c0,1.32,1.07,2.39,2.39,2.39h.59c1.32,0,2.39-1.07,2.39-2.39V25.72c0-1.32-1.07-2.39-2.39-2.39Z"/>
        <path class="cls-1" d="M265.02,35.18c.91.77,2.25.79,3.16.02l.03-.03c1.1-.93,1.11-2.61,0-3.54-6.68-5.6-15.06-8.39-23.36-8.39-7.22,0-13.37,1.56-18.43,4.23.71.57,1.38,1.19,2.01,1.85.53.55,1.03,1.13,1.49,1.72,4.17-2,9.15-3.14,14.92-3.14,7.21,0,14.42,2.37,20.17,7.27Z"/>
        <path class="cls-1" d="M268.38,81.01l-.11-.1c-.88-.82-2.26-.86-3.18-.09-5.76,4.82-13.04,7.26-20.24,7.26-5.21,0-9.76-.93-13.65-2.58l1.03,1.1c1.25,1.33,1.59,3.17.9,4.83,3.53.98,7.43,1.52,11.72,1.52,8.33,0,16.75-2.82,23.45-8.47,1.07-.9,1.11-2.52.08-3.47Z"/>
      </g>
    </g>
  </g>
</svg>