<?xml version="1.0" encoding="UTF-8"?>
<svg id="Capa_2" data-name="Capa 2" xmlns="http://www.w3.org/2000/svg" viewBox="0 0 1062.19 1080">
  <defs>
    <style>
      .cls-1 {
        fill: #fff;
        stroke-width: 0px;
      }
    </style>
  </defs>
  <g id="Capa_1-2" data-name="Capa 1">
    <path class="cls-1" d="M1046.04,690.73h-346.76l-144.6-296.79c41.29-17.82,86.74-27.68,134.46-27.68,86.37,0,165.33,32.32,225.43,85.48,6.37,5.64,16.05,5.26,22.07-.76h0c6.62-6.62,6.23-17.44-.79-23.64-65.79-58.17-152.21-93.49-246.71-93.49-52.79,0-103.08,11.04-148.65,30.92L367.23,9.1c-2.71-5.58-8.35-9.1-14.56-9.1s-11.85,3.52-14.56,9.1L1.63,699.83c-3.91,8.05-.56,17.75,7.48,21.66,8.03,3.91,17.75.58,21.66-7.48L352.67,53.18l158.72,325.83,14.19,29.14,136.45,280.1,1.2,2.48,11.34,23.28c2.8,5.76,8.59,9.12,14.58,9.12h340.25c-4.21,89.59-43.19,170.24-103.75,228.75-61.31,59.22-144.71,95.72-236.5,95.72s-182.97-39.97-244.97-104.14c-55.71-57.7-91.3-134.95-95.3-220.32-.25-5.37-.39-10.76-.39-16.2s.14-10.83.39-16.2c3.75-80.06,35.27-152.96,85.1-209.28,5.58-6.31,5.41-15.83-.55-21.79l-.51-.51c-6.46-6.46-17.02-6.1-23.08.74-54.97,62.08-89.62,142.52-93.41,230.85-.23,5.37-.35,10.76-.35,16.2s.12,10.83.35,16.2c4.05,94.31,43.28,179.66,104.86,243.21,67.86,70.05,162.86,113.66,267.86,113.66s192.23-40.13,259.41-105.21c66.42-64.36,109.05-153.14,113.29-251.66.23-5.3.34-10.63.34-15.99,0-.01,0-.03,0-.04v-.33c0-8.88-7.28-16.04-16.15-16.04Z"/>
  </g>
</svg>