<?xml version="1.0" encoding="UTF-8"?>
<svg id="Capa_2" data-name="Capa 2" xmlns="http://www.w3.org/2000/svg" viewBox="0 0 204.58 57.1">
  <defs>
    <style>
      .cls-1 {
        fill: #fff;
        stroke-width: 0px;
      }
    </style>
  </defs>
  <g id="Capa_1-2" data-name="Capa 1">
    <g id="Capa_1-2" data-name="Capa 1-2">
      <g>
        <g id="Capa_1-2-2" data-name="Capa 1-2">
          <path class="cls-1" d="M55.31,36.52h-18.33l-7.64-15.69c2.18-.94,4.59-1.46,7.11-1.46,4.57,0,8.74,1.71,11.92,4.52.34.3.85.28,1.17-.04h0c.35-.35.33-.92-.04-1.25-3.48-3.08-8.05-4.94-13.04-4.94-2.79,0-5.45.58-7.86,1.63L19.42.48c-.14-.29-.44-.48-.77-.48s-.63.19-.77.48L.09,37c-.21.43-.03.94.4,1.15.42.21.94.03,1.15-.4L18.65,2.81l8.39,17.23.75,1.54,7.21,14.81.06.13.6,1.23c.15.3.45.48.77.48h17.99c-.22,4.74-2.28,9-5.49,12.09-3.24,3.13-7.65,5.06-12.5,5.06s-9.67-2.11-12.95-5.51c-2.95-3.05-4.83-7.13-5.04-11.65-.01-.28-.02-.57-.02-.86s0-.57.02-.86c.2-4.23,1.86-8.09,4.5-11.06.29-.33.29-.84-.03-1.15l-.03-.03c-.34-.34-.9-.32-1.22.04-2.91,3.28-4.74,7.54-4.94,12.21-.01.28-.02.57-.02.86s0,.57.02.86c.21,4.99,2.29,9.5,5.54,12.86,3.59,3.7,8.61,6.01,14.16,6.01s10.16-2.12,13.72-5.56c3.51-3.4,5.77-8.1,5.99-13.31.01-.28.02-.56.02-.85v-.02c0-.47-.38-.85-.85-.85h0s0,0,0,0Z"/>
        </g>
        <g>
          <g>
            <path class="cls-1" d="M62.16,31.2c0-2.44.95-4.4,2.84-5.87s4.62-2.36,8.19-2.67c.21-.02.4-.03.56-.05.39-.02.68-.05.87-.1.19-.05.34-.15.46-.32s.28-.42.48-.78c.08-.16.18-.34.29-.54,2.7-4.7,5.08-8.36,7.14-10.98s3.58-3.93,4.58-3.93h.03s.1,0,.19.03c.1.02.2.06.31.13.11.07.2.19.28.35.08.16.12.38.12.66,0,.65-.31,2.12-.93,4.42-.62,2.29-1.25,4.55-1.9,6.76-.34,1.24-.63,2.27-.87,3.11-.24.84-.35,1.32-.35,1.45,0,.05.03.08.1.1s.15.03.24.05c.16.02.32.06.48.12s.23.2.23.42c0,.05-.01.1-.04.16s-.05.1-.09.13c-.08.1-.17.15-.27.15h-.05c-.24,0-.42-.02-.51-.05-.07-.02-.12-.02-.17-.02-.11,0-.31.44-.6,1.32-.28.88-.58,1.93-.89,3.16s-.57,2.43-.79,3.61-.33,2.07-.33,2.67c0,.29.02.52.06.7s.09.3.13.38c.05.08.1.14.15.17.05.05.09.1.12.15.03.05.05.12.05.22,0,.19-.15.31-.46.34h-.07c-.15,0-.26-.07-.34-.19-.23-.29-.34-.84-.34-1.63,0-1.33.19-2.88.56-4.64.37-1.76.73-3.27,1.07-4.54.28-1.06.42-1.68.42-1.85,0-.03-.25-.08-.76-.15-.5-.07-1.11-.13-1.82-.21-.71-.07-1.39-.13-2.05-.18-.66-.05-1.14-.07-1.45-.07-.94,0-1.6.16-1.96.48s-.74.86-1.13,1.62c-2.23,4.08-3.9,6.92-5.03,8.52-1.12,1.59-2.26,2.39-3.42,2.39-.5,0-1.01-.17-1.53-.52s-.94-.9-1.28-1.63c-.34-.74-.51-1.68-.51-2.82h0ZM62.67,31.28c.02,1.38.3,2.47.84,3.27.54.8,1.19,1.19,1.94,1.19.49,0,1.11-.42,1.85-1.27.75-.85,1.53-1.88,2.35-3.11s1.6-2.46,2.33-3.68,1.33-2.26,1.81-3.11v-.05l.05-.05s0-.03.03-.03v-.02s.03-.06.05-.07v-.03s0-.02.02-.02c.29-.55.46-.88.51-.98.02,0,.03,0,.03-.03,0-.07-.08-.1-.24-.1-1.22,0-2.51.13-3.85.39-1.35.26-2.61.7-3.77,1.32-1.16.62-2.11,1.44-2.84,2.48s-1.1,2.33-1.1,3.89h0ZM75.8,22.17c0,.16.13.26.4.31.27.04.72.06,1.35.06,3.35.11,5.17.23,5.47.34h.15c.07,0,.13-.03.21-.09.07-.06.12-.13.13-.23,1.3-4.86,2.33-8.47,3.1-10.83.39-1.22.69-2.21.9-2.98.21-.76.32-1.36.32-1.78,0-.36-.1-.54-.29-.54h-.03c-.52,0-1.26.51-2.21,1.54-.95,1.02-1.97,2.29-3.05,3.78-1.08,1.5-2.11,3.01-3.09,4.55-.98,1.54-1.78,2.86-2.42,3.98s-.95,1.74-.95,1.89h0Z"/>
            <path class="cls-1" d="M97.59,22.17s.03,0,.03.02v.03h-.03c-.05.08-.2.32-.46.71-.34.49-.77,1.04-1.29,1.66-.52.62-1.07,1.17-1.66,1.65-.59.48-1.12.72-1.61.72-.39,0-.64-.14-.74-.43-.11-.28-.16-.55-.16-.79,0-.76.18-1.65.55-2.65s.71-1.86,1.04-2.57c.26-.57.39-.9.39-1,0-.07-.03-.1-.1-.1-.28,0-.74.32-1.4.95-.66.64-1.35,1.33-2.06,2.07-.59.62-1.11,1.15-1.56,1.6-.46.45-.76.67-.93.67-.29,0-.44-.19-.44-.56v-.12c0-.42.09-.93.28-1.53.19-.59.41-1.12.67-1.57.26-.46.5-.68.73-.68.24,0,.37.09.37.27,0,.08-.05.24-.16.49-.11.24-.22.52-.35.83-.19.41-.37.8-.51,1.17s-.22.64-.22.8v.02s.19-.12.44-.37.55-.55.93-.93c.78-.81,1.62-1.63,2.51-2.46.89-.83,1.53-1.25,1.9-1.25.16.02.3.08.4.18s.16.24.16.4c0,.21-.08.55-.23,1.01s-.35.98-.57,1.55c-.28.75-.54,1.49-.78,2.22s-.37,1.32-.37,1.76c0,.19.03.33.07.4.05.07.1.12.16.15s.1.04.13.04c.47,0,1.04-.33,1.7-1,.66-.67,1.28-1.34,1.87-2.02.33-.39.61-.71.84-.96.24-.25.39-.38.48-.38h0Z"/>
            <path class="cls-1" d="M107.37,22.17s.03,0,.03.02v.03h-.03c-.05.08-.2.32-.46.71-.34.49-.77,1.04-1.29,1.66-.52.62-1.07,1.17-1.66,1.65-.59.48-1.12.72-1.61.72-.39,0-.64-.14-.74-.43-.11-.28-.16-.55-.16-.79,0-.76.18-1.65.55-2.65.37-1,.71-1.86,1.04-2.57.26-.57.39-.9.39-1,0-.07-.03-.1-.1-.1-.28,0-.74.32-1.4.95-.66.64-1.35,1.33-2.06,2.07-.59.62-1.11,1.15-1.56,1.6-.46.45-.76.67-.93.67-.29,0-.44-.19-.44-.56v-.12c0-.42.09-.93.28-1.53.19-.59.41-1.12.67-1.57.26-.46.5-.68.73-.68.24,0,.37.09.37.27,0,.08-.05.24-.16.49-.11.24-.22.52-.35.83-.19.41-.37.8-.51,1.17s-.22.64-.22.8v.02s.19-.12.44-.37.55-.55.93-.93c.78-.81,1.62-1.63,2.51-2.46.89-.83,1.53-1.25,1.9-1.25.16.02.3.08.4.18s.16.24.16.4c0,.21-.08.55-.23,1.01s-.35.98-.57,1.55c-.28.75-.54,1.49-.78,2.22s-.37,1.32-.37,1.76c0,.19.03.33.07.4.05.07.1.12.16.15s.1.04.13.04c.47,0,1.04-.33,1.7-1,.66-.67,1.28-1.34,1.87-2.02.33-.39.61-.71.84-.96.24-.25.39-.38.48-.38h0Z"/>
            <path class="cls-1" d="M117.89,22.17h.04s.01,0,.01.02c0,.05-.12.16-.37.33s-.56.39-.95.67c-.86.57-1.77,1.22-2.71,1.95-.94.73-1.53,1.37-1.76,1.9-.8,2.51-1.58,4.56-2.35,6.16-.77,1.6-1.5,2.85-2.17,3.75-.68.89-1.27,1.54-1.79,1.93s-.94.63-1.26.71-.5.12-.55.12h-.07c-.16,0-.32-.06-.46-.17-.26-.28-.39-.59-.39-.93v-.07c0-1.11.68-2.68,2.04-4.72,1.36-2.04,3.13-4.09,5.31-6.16.29-.26.52-.5.7-.73.17-.23.35-.58.52-1.06s.44-1.24.78-2.28c.29-.88.54-1.63.74-2.26.2-.63.31-.96.31-.99v-.02c-.07,0-.37.33-.93.98-.5.57-1.11,1.22-1.82,1.96-.71.74-1.41,1.4-2.11,1.98-.7.58-1.27.87-1.71.87s-.68-.39-.68-1.17c0-.44.14-1.03.43-1.77s.6-1.41.95-2.01c.35-.6.61-.9.79-.9s.27.08.27.24c0,.13-.07.36-.19.68-.13.33-.28.7-.46,1.12-.23.54-.44,1.07-.65,1.6s-.31.95-.31,1.26c0,.19.07.3.22.32.36,0,.97-.42,1.84-1.26s1.73-1.71,2.57-2.62c.52-.55.97-1.02,1.34-1.4.37-.38.61-.57.71-.57.08,0,.15.02.22.05.02.02.03.02.05.02.15.08.22.2.22.37v.05c0,.13-.07.44-.21.93-.14.49-.3,1.03-.49,1.63s-.37,1.16-.55,1.68c-.11.37-.21.69-.29.94-.08.25-.12.39-.12.4v.02s.21-.15.59-.44c.46-.33,1.02-.73,1.68-1.21s1.3-.92,1.89-1.31c.59-.39.97-.59,1.13-.59h0ZM104.05,39.08c.76-.05,1.55-.62,2.34-1.72.8-1.1,1.55-2.37,2.24-3.82.7-1.45,1.26-2.74,1.68-3.87s.64-1.77.66-1.92h-.03s-.45.38-1.2,1.15c-.75.76-1.59,1.72-2.54,2.85-.94,1.14-1.78,2.31-2.51,3.53s-1.1,2.27-1.1,3.18c0,.39.15.59.44.61h0Z"/>
            <path class="cls-1" d="M139.04,6.75c.94,0,1.72.25,2.32.76.6.5,1.07,1.11,1.39,1.83s.55,1.4.68,2.05c.11.59.17,1.05.17,1.39v.12c0,.88-.15,1.55-.44,2.01s-.56.7-.8.7c-.19,0-.31-.15-.34-.44,0-.19.06-.4.17-.61.08-.18.16-.42.23-.72s.11-.72.11-1.26c0-.26-.04-.68-.12-1.26-.08-.58-.25-1.17-.51-1.78s-.64-1.13-1.13-1.56-1.16-.65-1.99-.65c-1.51,0-3.14.72-4.88,2.15-1.74,1.43-3.38,3.26-4.9,5.49-1.53,2.23-2.78,4.6-3.76,7.12-.98,2.52-1.46,4.88-1.46,7.08,0,2.02.44,3.61,1.33,4.77.89,1.16,2.11,1.74,3.67,1.74,1.25,0,2.53-.32,3.82-.96,1.29-.64,2.53-1.46,3.72-2.46,1.19-1,2.26-2.07,3.23-3.21s1.75-2.22,2.35-3.26.96-1.91,1.07-2.62l-.73-.02c-.5-.02-1.09-.02-1.76-.02-1.16,0-1.96.03-2.43.09s-.79.11-.99.16c-.11.03-.22.06-.33.07s-.23.02-.38.02c-.16,0-.29-.02-.38-.06s-.15-.09-.18-.15-.05-.11-.05-.16c0-.16.39-.3,1.16-.42.77-.11,1.65-.21,2.63-.28.98-.07,1.86-.12,2.62-.15s1.15-.04,1.17-.04c.19,0,.37.04.51.11.15.07.22.18.22.33s-.12.61-.35,1.39c-.24.78-.52,1.71-.84,2.78-.5,1.59-.98,3.15-1.41,4.67s-.66,2.49-.66,2.92c0,.05,0,.08.03.1.02.02.06.03.12.05.1.03.17.09.23.16.06.07.09.17.09.28,0,.18-.06.33-.17.46-.11.13-.27.2-.46.22-.13,0-.22-.05-.28-.16-.06-.11-.09-.23-.1-.37,0-.14-.01-.24-.01-.31,0-.7.16-1.75.48-3.16.32-1.41.6-2.63.87-3.67.21-.78.32-1.2.32-1.27-.02,0-.1.11-.24.32-.24.34-.65.87-1.21,1.6s-1.26,1.53-2.09,2.42-1.77,1.74-2.81,2.55c-1.04.81-2.16,1.49-3.36,2.02-1.19.54-2.44.8-3.72.8-1.02,0-1.96-.25-2.82-.76s-1.54-1.28-2.05-2.32c-.51-1.04-.77-2.37-.77-3.98,0-2.31.53-4.78,1.59-7.42,1.06-2.63,2.41-5.1,4.05-7.4,1.64-2.3,3.4-4.19,5.28-5.65s3.64-2.2,5.28-2.2h0Z"/>
            <path class="cls-1" d="M158.73,22.17h.05s.03,0,.05.02c.02.02.02.04.02.07s-.3.21-.89.52c-.59.32-1.31.63-2.16.93-.85.3-1.66.45-2.44.45-.85,0-1.46-.22-1.83-.65-.37-.43-.56-1.07-.56-1.92,0-.18-.07-.27-.22-.27h-.03c-.18,0-.41.12-.7.35s-.51.53-.67.89c-.21.44-.37.66-.46.66-.02,0-.03,0-.04-.03s-.01-.05-.01-.1c0-.07,0-.12.03-.17v-.13s0-.01-.03-.01c-.03,0-.1.04-.21.12-.11.08-.23.19-.38.32-.31.26-.64.52-1,.78-.36.26-.64.39-.85.39-.16,0-.3-.07-.42-.19-.1-.11-.15-.24-.15-.37v-.07c0-.34.17-.79.5-1.35.33-.56.73-1.07,1.2-1.51s.9-.67,1.31-.67c.28,0,.46.09.56.27s.16.35.19.51c.02.07.03.12.05.16s.03.06.05.06c.05,0,.15-.06.29-.17.15-.1.3-.19.46-.29.16-.1.33-.15.49-.15.26,0,.44.11.52.33.09.22.17.48.23.79.05.29.13.59.24.89s.3.55.55.76.64.31,1.16.31c.67,0,1.35-.13,2.05-.38.7-.25,1.32-.5,1.85-.74.59-.28.98-.42,1.17-.42h0ZM148.14,22.49c.31-.24.53-.43.66-.56.11-.11.17-.23.17-.34v-.05c0-.1,0-.19-.02-.27-.02-.03-.03-.06-.05-.07-.02-.02-.04-.02-.07-.02-.15,0-.33.1-.54.29s-.42.42-.62.68c-.2.26-.37.5-.51.72-.14.22-.21.35-.21.4,0,.02,0,.02.03.02.1,0,.49-.27,1.17-.8Z"/>
            <path class="cls-1" d="M158.41,25.27s0,.02.03.02c.03,0,.17-.16.42-.48.24-.32.54-.73.9-1.23.5-.72,1.05-1.47,1.65-2.27.59-.8,1.15-1.48,1.66-2.06.51-.58.89-.87,1.13-.87.15,0,.24.15.27.44,0,.07,0,.15-.02.24-.02.15-.02.4-.02.76,0,.93.2,1.65.61,2.17.41.52.92.78,1.54.78.42,0,.85-.05,1.27-.16.42-.11.79-.21,1.1-.31.29-.1.49-.15.58-.15.15,0,.23.04.24.12,0,.07-.2.17-.6.31-.4.14-.87.27-1.43.39-.55.12-1.05.18-1.49.18-.67,0-1.2-.15-1.6-.45-.4-.3-.68-.68-.85-1.13-.17-.46-.26-.9-.26-1.34,0-.37.05-.72.15-1.02-.07,0-.31.28-.72.83-.42.55-.9,1.23-1.45,2.02-.8,1.12-1.57,2.18-2.32,3.18-.75,1-1.22,1.5-1.41,1.5-.03,0-.07,0-.12-.02-.05-.02-.09-.04-.12-.07-.1-.1-.15-.28-.15-.54,0-.44.13-1.11.4-2,.27-.9.57-1.72.9-2.46.33-.75.6-1.12.79-1.12h.05c.08.02.15.05.19.11.05.06.07.12.07.18v.05c0,.18-.09.54-.28,1.1s-.39,1.12-.6,1.71c-.15.41-.27.76-.37,1.05s-.15.47-.15.54h0Z"/>
            <path class="cls-1" d="M169.15,25.27s0,.02.03.02c.03,0,.17-.16.42-.48.24-.32.54-.73.9-1.23.5-.72,1.05-1.47,1.65-2.27.59-.8,1.15-1.48,1.66-2.06.51-.58.89-.87,1.13-.87.15,0,.24.15.27.44,0,.07,0,.15-.02.24-.02.15-.02.4-.02.76,0,.93.2,1.65.61,2.17.41.52.92.78,1.54.78.42,0,.85-.05,1.27-.16.42-.11.79-.21,1.1-.31.29-.1.49-.15.58-.15.15,0,.23.04.24.12,0,.07-.2.17-.6.31-.4.14-.87.27-1.43.39-.55.12-1.05.18-1.49.18-.67,0-1.2-.15-1.6-.45-.4-.3-.68-.68-.85-1.13-.17-.46-.26-.9-.26-1.34,0-.37.05-.72.15-1.02-.07,0-.31.28-.72.83-.42.55-.9,1.23-1.45,2.02-.8,1.12-1.57,2.18-2.32,3.18-.75,1-1.22,1.5-1.41,1.5-.03,0-.07,0-.12-.02-.05-.02-.09-.04-.12-.07-.1-.1-.15-.28-.15-.54,0-.44.13-1.11.4-2,.27-.9.57-1.72.9-2.46.33-.75.6-1.12.79-1.12h.05c.08.02.15.05.19.11.05.06.07.12.07.18v.05c0,.18-.09.54-.28,1.1s-.39,1.12-.6,1.71c-.15.41-.27.76-.37,1.05s-.15.47-.15.54h0Z"/>
            <path class="cls-1" d="M186.67,22.17h.06s.01,0,.01.02c0,.03-.2.23-.61.59s-.92.76-1.53,1.21c-.61.45-1.24.85-1.89,1.19s-1.21.52-1.68.52h-.15c-.15,0-.28-.02-.39-.05-.64-.24-.95-.76-.95-1.56,0-.41.08-.87.23-1.39s.35-.98.59-1.38c.24-.4.47-.6.7-.6.1.02.18.06.24.12.07.07.1.15.1.24,0,.18-.11.48-.32.9-.15.33-.29.68-.44,1.06-.15.38-.22.76-.22,1.13s.1.61.31.74c.2.14.47.21.79.21.52,0,1.15-.24,1.89-.72.74-.48,1.41-.96,2.01-1.43.68-.55,1.1-.83,1.25-.83h0ZM181.45,19.56c-.19-.1-.29-.24-.29-.42v-.15c0-.21.1-.38.29-.51.11-.07.23-.1.34-.1.1,0,.19.02.29.07.21.15.32.33.32.56,0,.16-.06.31-.18.43s-.26.18-.43.18c-.11,0-.23-.02-.34-.07Z"/>
            <path class="cls-1" d="M197.52,22.17s.1,0,.15.02c.02.02.02.03.02.04v.04c0,.07-.29.56-.88,1.5-.59.94-1.29,1.99-2.11,3.16-.82,1.17-1.63,2.21-2.42,3.11-.79.9-1.38,1.35-1.77,1.35-.16,0-.32-.03-.46-.1-.33-.24-.49-.76-.49-1.54v-.12c0-1.41.37-3.21,1.11-5.38.74-2.17,1.59-4.34,2.56-6.5s1.85-4.02,2.63-5.56c.79-1.55,1.27-2.45,1.45-2.71-.15.15-.6.8-1.35,1.98s-1.61,2.51-2.56,4.03c-.95,1.51-1.79,2.87-2.51,4.09s-1.09,1.88-1.09,1.99c0,.05.02.12.05.22,0,.07,0,.13.02.19.02.07.03.12.03.17v.05s0,.03-.03.05h-.02s-.03.03-.05.03c-.03,0-.07-.03-.1-.07-.03-.05-.06-.1-.07-.15s-.03-.09-.05-.11-.03-.04-.05-.04-.08.1-.19.29c-.19.34-.48.78-.85,1.33-.37.54-.77,1.05-1.18,1.51s-.78.7-1.09.7c-.29,0-.44-.35-.44-1.05,0-.5.1-1.08.31-1.73.2-.65.52-1.22.94-1.7s.95-.72,1.59-.72h.15c.26,0,.49.13.68.39.03,0,.18-.22.45-.67s.62-1.05,1.06-1.79c.76-1.3,1.63-2.76,2.61-4.37.98-1.61,1.9-3.03,2.76-4.26.86-1.23,1.47-1.84,1.83-1.84.08.02.15.06.21.13.06.07.09.16.09.26,0,.11-.38.98-1.15,2.59-.81,1.68-1.77,3.74-2.85,6.18-1.09,2.45-2.07,4.87-2.93,7.27-.86,2.4-1.29,4.28-1.29,5.65,0,.55.11.83.34.83.36,0,.92-.46,1.68-1.39.76-.93,1.56-1.98,2.38-3.15.82-1.17,1.51-2.18,2.06-3.03.52-.78.8-1.17.83-1.17h0ZM186.72,24.91c.07-.02.22-.17.48-.48.25-.3.52-.67.82-1.1.29-.43.55-.84.77-1.22s.34-.66.35-.84c-.02-.07-.05-.12-.11-.16-.06-.04-.12-.06-.18-.06-.28,0-.59.22-.93.67s-.64.96-.88,1.55-.37,1.1-.37,1.54c0,.07.02.1.05.1h0Z"/>
            <path class="cls-1" d="M204.36,22.13c.15,0,.22.03.22.1,0,.03-.04.08-.12.13-.08.06-.22.11-.42.16-.19.05-.47.07-.83.07-.83,0-1.5-.13-2.01-.38s-.88-.48-1.11-.67c-.13-.11-.22-.17-.27-.17-.02.02-.03.03-.04.04,0,0-.01.02-.01.04.08.23.13.47.15.73,0,.91-.27,1.7-.8,2.38-.54.68-1.06,1.01-1.56,1.01s-.79-.4-.8-1.2c.02-.65.18-1.31.49-1.96s.68-1.15,1.12-1.48c0-.02,0-.03.03-.03.1-.08.17-.14.21-.17.04-.03.06-.07.06-.12v-.02s0-.09.01-.16c0-.07.03-.14.06-.19.03-.06.08-.09.15-.09.18,0,.45.18.8.54.36.33.82.67,1.4,1.04.58.37,1.27.55,2.09.55.39,0,.67-.03.83-.1.13-.03.25-.05.37-.05h0ZM197.79,25.13c.18,0,.4-.14.67-.42.27-.28.51-.65.72-1.12s.32-.99.32-1.56v-.12c0-.08-.02-.17-.05-.28s-.08-.2-.13-.28c-.06-.08-.14-.12-.26-.12-.15,0-.35.21-.6.62-.25.42-.48.89-.67,1.41s-.29.97-.29,1.33.1.52.29.54h0Z"/>
          </g>
          <g>
            <path class="cls-1" d="M79.48,48.41l-.44-2.04-.94-4.02c-.07-.32-.15-.5-.23-.53s-.26-.07-.53-.1l-.04-.04v-.21l.04-.04c.47.03.88.04,1.25.04.27,0,.66-.01,1.18-.04l.04.04v.21l-.04.04c-.36.01-.58.03-.65.05s-.11.08-.11.16c0,.07.03.28.1.65s.12.66.18.89l.77,3.38,1.21-3c.32-.79.63-1.63.93-2.5h.31c.26.82.53,1.61.81,2.38l1.15,3.18.83-2.92c.08-.31.19-.71.31-1.21s.19-.79.19-.86c0-.09-.04-.14-.12-.16s-.32-.04-.7-.05l-.04-.04v-.21l.04-.04c.55.03.89.04,1,.04.1,0,.44-.01,1.02-.04l.04.04v.22l-.04.03c-.19,0-.31.02-.37.05s-.12.07-.16.13-.11.22-.2.5l-.28.91-.5,1.65c-.07.24-.2.72-.4,1.45l-.54,2.02h-.5c-.34-1.01-.62-1.82-.84-2.42l-1.11-3.01-.97,2.41-.52,1.37c-.14.36-.25.66-.33.88l-.27.77h-.49Z"/>
            <path class="cls-1" d="M90.84,47.6l-.16.35c-.34.22-.64.36-.91.42s-.5.1-.71.1c-.39,0-.76-.08-1.11-.23s-.63-.41-.85-.78-.33-.8-.33-1.32c0-.34.04-.65.13-.93s.17-.48.27-.61.25-.28.47-.44.46-.29.7-.39.51-.15.8-.15c.39,0,.73.09,1.03.28s.51.42.63.71.18.59.18.91c0,.1,0,.2-.01.29l-.05.05c-.22.05-.52.08-.89.1s-.62.02-.74.02h-1.57c0,.67.18,1.17.51,1.49s.74.48,1.22.48c.23,0,.45-.04.66-.12s.43-.19.67-.33l.08.08ZM87.71,45.6c.06,0,.28.02.68.03s.68.02.87.02c.45,0,.73,0,.83-.02,0-.08,0-.14,0-.18,0-.5-.1-.88-.31-1.13s-.48-.37-.84-.37c-.39,0-.69.14-.91.42s-.32.69-.32,1.23Z"/>
            <path class="cls-1" d="M94.6,41.7v-.21l.04-.04c.62-.07,1.15-.19,1.57-.36l.09.06c-.04.37-.05,1.12-.05,2.25v3.2c0,.33,0,.62.02.86s.03.39.06.44.08.08.14.11.26.06.57.08l.04.04v.19l-.04.04c-.35-.02-.62-.03-.82-.03-.18,0-.43.01-.75.03l-.05-.05c0-.32.01-.54.01-.67,0-.02,0-.08,0-.19-.18.13-.36.27-.54.43-.26.23-.44.38-.52.44-.15.07-.36.11-.64.11-.45,0-.83-.11-1.15-.33s-.54-.5-.67-.85-.2-.7-.2-1.06.07-.72.21-1.06.34-.59.59-.74.53-.32.83-.49.6-.25.9-.25c.41,0,.81.1,1.18.31l-.02-1.09c0-.38-.02-.64-.03-.79s-.03-.24-.05-.26-.05-.05-.1-.06-.25-.02-.59-.02l-.04-.04ZM95.43,44.8c-.2-.23-.43-.4-.67-.52s-.49-.18-.74-.18c-.27,0-.53.07-.76.22s-.41.37-.51.66-.16.61-.16.95c0,.57.14,1.03.43,1.37s.65.52,1.09.52c.24,0,.45-.05.63-.16s.34-.26.45-.44.19-.37.21-.56.03-.53.03-1.02v-.83Z"/>
            <path class="cls-1" d="M100.71,41.7v-.21l.04-.04c.62-.07,1.15-.19,1.57-.36l.09.06c-.04.37-.05,1.12-.05,2.25v3.2c0,.33,0,.62.02.86s.03.39.06.44.08.08.14.11.26.06.57.08l.04.04v.19l-.04.04c-.35-.02-.62-.03-.82-.03-.18,0-.43.01-.75.03l-.05-.05c0-.32.01-.54.01-.67,0-.02,0-.08,0-.19-.18.13-.36.27-.54.43-.26.23-.44.38-.52.44-.15.07-.36.11-.64.11-.45,0-.83-.11-1.15-.33s-.54-.5-.67-.85-.2-.7-.2-1.06.07-.72.21-1.06.34-.59.59-.74.53-.32.83-.49.6-.25.9-.25c.41,0,.81.1,1.18.31l-.02-1.09c0-.38-.02-.64-.03-.79s-.03-.24-.05-.26-.05-.05-.1-.06-.25-.02-.59-.02l-.04-.04ZM101.54,44.8c-.2-.23-.43-.4-.67-.52s-.49-.18-.74-.18c-.27,0-.53.07-.76.22s-.41.37-.51.66-.16.61-.16.95c0,.57.14,1.03.43,1.37s.65.52,1.09.52c.24,0,.45-.05.63-.16s.34-.26.45-.44.19-.37.21-.56.03-.53.03-1.02v-.83Z"/>
            <path class="cls-1" d="M105.35,43.66l.09.06c-.04.43-.05.97-.05,1.63v1.1c0,.07,0,.3.02.69s.03.62.04.68.04.11.07.14.06.05.11.06.22.02.53.04l.04.04v.21l-.04.04c-.41-.03-.8-.04-1.18-.04s-.77.01-1.17.04l-.04-.04v-.21l.04-.04c.32-.02.49-.03.53-.04s.08-.03.11-.06.05-.08.06-.14.02-.27.04-.63.02-.63.02-.81v-.96c0-.13,0-.31-.02-.53s-.02-.36-.03-.42-.03-.09-.08-.11-.13-.04-.25-.04h-.41s-.04-.04-.04-.04v-.21l.04-.04c.62-.07,1.15-.2,1.57-.37ZM104.94,41.48c.15,0,.28.05.39.16s.16.24.16.39-.05.28-.16.39-.24.16-.39.16-.28-.05-.39-.16-.16-.24-.16-.39.05-.28.16-.39.24-.16.39-.16Z"/>
            <path class="cls-1" d="M108.11,43.66l.09.06c-.02.22-.03.5-.04.86.26-.21.51-.43.74-.65.07-.06.13-.11.19-.14s.16-.06.3-.09.28-.05.43-.05c.25,0,.49.05.72.15s.41.22.53.36.2.3.25.49.07.42.07.7v.86c0,.06,0,.46.02,1.22,0,.31.04.49.1.55s.26.09.61.09l.04.04v.21l-.04.04c-.41-.03-.69-.04-.84-.04-.08,0-.32.01-.71.04l-.06-.05c.04-.42.06-.98.06-1.66v-.64c0-.38,0-.66-.03-.83s-.07-.32-.16-.46-.21-.25-.37-.32-.34-.11-.55-.11c-.17,0-.31.02-.43.05s-.26.1-.41.21-.26.21-.33.3-.11.18-.13.26-.02.25-.02.51v.85c0,.07,0,.3.02.69s.03.62.04.68.04.11.07.14.06.05.11.06.22.02.53.04l.04.04v.21l-.04.04c-.41-.03-.8-.04-1.18-.04s-.77.01-1.17.04l-.04-.04v-.21l.04-.04c.32-.02.49-.03.53-.04s.08-.03.11-.06.05-.08.06-.14.02-.27.04-.63.02-.63.02-.81v-.96c0-.13,0-.31-.02-.53s-.02-.36-.03-.42-.03-.09-.08-.11-.13-.04-.25-.04h-.41s-.04-.04-.04-.04v-.21l.04-.04c.62-.07,1.15-.2,1.57-.37Z"/>
            <path class="cls-1" d="M117.65,44l.04.09c-.13.21-.22.34-.25.4h-.91c.09.18.14.37.14.56,0,.23-.05.46-.16.67s-.25.4-.44.56-.4.27-.64.37-.51.14-.82.14h-.22c-.19.15-.32.27-.37.34s-.08.15-.08.23c0,.14.07.24.2.3s.4.09.82.09h1.09c.35-.01.61.03.79.11s.33.23.45.44.17.43.17.67c0,.36-.12.72-.35,1.07s-.57.63-1.01.81-.91.28-1.41.28c-.28,0-.55-.03-.8-.09s-.47-.16-.65-.28-.34-.29-.45-.49-.17-.41-.17-.63c0-.12.02-.25.05-.38s.1-.27.21-.43l.88-.49c-.28-.09-.46-.17-.53-.26s-.11-.19-.11-.31.04-.27.12-.44l.79-.57c-.46-.12-.77-.3-.94-.54s-.24-.5-.24-.79c0-.26.06-.52.17-.75s.29-.43.52-.57.49-.26.77-.34.54-.12.78-.12c.41,0,.79.13,1.16.4.59,0,1.06,0,1.41-.02ZM115.11,48.41c-.52,0-.83,0-.91.02s-.19.07-.34.17-.27.23-.36.4-.14.36-.14.56c0,.37.14.67.41.9s.64.35,1.09.35c.34,0,.66-.07.95-.21s.5-.34.64-.58.21-.47.21-.69-.06-.41-.17-.57-.27-.25-.45-.29-.5-.05-.94-.05ZM113.68,45.13c0,.2.04.41.12.64s.2.4.38.52.37.18.59.18c.29,0,.54-.09.75-.28s.31-.48.31-.88c0-.34-.1-.64-.29-.91s-.46-.41-.82-.41c-.3,0-.54.1-.74.29s-.3.48-.3.86Z"/>
            <path class="cls-1" d="M120.54,50.97c.11-.27.19-.52.25-.75h.12c.16.17.33.26.52.26.23,0,.43-.11.6-.34s.41-.74.73-1.52c-.12-.35-.25-.68-.38-.99l-.78-1.92c-.08-.2-.2-.48-.36-.85s-.25-.57-.29-.61-.07-.07-.12-.1-.18-.06-.4-.09l-.04-.04v-.2l.04-.04c.37.02.76.03,1.15.03.46,0,.82-.01,1.07-.03l.04.04v.2l-.03.04s-.14.01-.3.02-.27.04-.31.08-.06.09-.06.14c0,.06.05.24.15.54s.2.57.29.81l.31.76c.2.5.36.87.47,1.11l.26-.57c.09-.21.22-.52.39-.95l.41-1.04c.1-.27.16-.43.18-.5s.02-.11.02-.14c0-.07-.03-.12-.08-.15s-.17-.05-.35-.07l-.21-.03-.03-.04v-.21l.04-.04c.27.02.6.03.97.03.34,0,.62-.01.82-.03l.04.04v.21l-.04.04c-.12,0-.22.02-.29.05s-.14.08-.21.16-.18.29-.35.63-.34.71-.51,1.08l-.48,1.05-1.13,2.64c-.1.23-.22.47-.36.73s-.32.45-.53.56-.43.17-.67.17c-.21,0-.4-.05-.58-.16Z"/>
            <path class="cls-1" d="M128.74,41.45l.04-.03c1.12.02,1.83.03,2.14.03,1.07,0,2.02,0,2.85-.03l.02.03c-.08.31-.14.8-.18,1.47l-.03.04h-.24l-.04-.04s0-.06,0-.08c0-.28-.02-.54-.06-.79-.21-.09-.49-.15-.85-.18s-.64-.04-.82-.04c-.26,0-.59.02-.99.05l-.02.78v.89s-.03.99-.03.99c.35.02.68.03.97.03s.55,0,.75-.03.32-.04.35-.06.06-.06.08-.12.03-.17.05-.32l.02-.3.04-.04h.22l.04.04c0,.35-.01.71-.02,1.07l.02,1.1-.04.04h-.22l-.04-.04-.03-.29c-.03-.23-.05-.36-.06-.41s-.04-.08-.09-.11-.17-.06-.36-.08-.46-.03-.81-.03c-.19,0-.48,0-.86.02-.02.27-.02.73-.02,1.37,0,.68,0,1.19.02,1.51h.9c.79,0,1.29,0,1.48-.03s.39-.07.57-.14c.03-.07.08-.25.14-.52s.1-.44.11-.51l.05-.03h.23l.04.03c-.03.14-.06.38-.09.73s-.04.65-.04.89l-.03.04c-.62-.02-1.44-.03-2.44-.03h-1.33c-.31,0-.63,0-.97.03l-.04-.04v-.16l.04-.05c.19-.1.3-.16.33-.18s.05-.31.07-.85.03-.96.03-1.25v-2.9c0-.24,0-.44-.01-.59s-.02-.26-.03-.32-.04-.11-.06-.14-.06-.05-.1-.07-.13-.03-.24-.05l-.37-.03-.04-.03v-.24Z"/>
            <path class="cls-1" d="M136.98,48.41l-.3-.77-.36-.83-1-2.33c-.06-.15-.12-.25-.17-.3s-.1-.08-.15-.09-.16-.02-.31-.02l-.04-.04v-.21l.04-.04c.46.02.82.03,1.08.03.38,0,.76-.01,1.14-.03l.04.04v.21l-.04.04c-.34,0-.54.03-.59.07s-.08.09-.08.14c0,.1.06.31.2.63l.6,1.48.47,1.11.49-1.11.41-1.01c.16-.38.26-.65.3-.81s.07-.27.07-.32c0-.06-.04-.11-.11-.13s-.25-.05-.54-.06l-.04-.04v-.21l.04-.04c.4.02.71.03.91.03.17,0,.46-.01.87-.03l.04.04v.21l-.04.04c-.19.02-.32.04-.38.08s-.13.11-.19.23-.23.46-.52,1.05l-.47,1c-.08.17-.36.83-.84,1.99h-.51Z"/>
            <path class="cls-1" d="M144.29,47.6l-.16.35c-.34.22-.64.36-.91.42s-.5.1-.71.1c-.39,0-.76-.08-1.11-.23s-.63-.41-.85-.78-.33-.8-.33-1.32c0-.34.04-.65.13-.93s.17-.48.27-.61.25-.28.47-.44.46-.29.7-.39.51-.15.8-.15c.39,0,.73.09,1.03.28s.51.42.63.71.18.59.18.91c0,.1,0,.2-.01.29l-.05.05c-.22.05-.52.08-.89.1s-.62.02-.74.02h-1.57c0,.67.18,1.17.51,1.49s.74.48,1.22.48c.23,0,.45-.04.66-.12s.43-.19.67-.33l.08.08ZM141.16,45.6c.06,0,.28.02.68.03s.68.02.87.02c.45,0,.73,0,.83-.02,0-.08,0-.14,0-.18,0-.5-.1-.88-.31-1.13s-.48-.37-.84-.37c-.39,0-.69.14-.91.42s-.32.69-.32,1.23Z"/>
            <path class="cls-1" d="M146.43,43.66l.09.06c-.02.22-.03.5-.04.86.26-.21.51-.43.74-.65.07-.06.13-.11.19-.14s.16-.06.3-.09.28-.05.43-.05c.25,0,.49.05.72.15s.41.22.53.36.2.3.25.49.07.42.07.7v.86c0,.06,0,.46.02,1.22,0,.31.04.49.1.55s.26.09.61.09l.04.04v.21l-.04.04c-.41-.03-.69-.04-.84-.04-.08,0-.32.01-.71.04l-.06-.05c.04-.42.06-.98.06-1.66v-.64c0-.38,0-.66-.03-.83s-.07-.32-.16-.46-.21-.25-.37-.32-.34-.11-.55-.11c-.17,0-.31.02-.43.05s-.26.1-.41.21-.26.21-.33.3-.11.18-.13.26-.02.25-.02.51v.85c0,.07,0,.3.02.69s.03.62.04.68.04.11.07.14.06.05.11.06.22.02.53.04l.04.04v.21l-.04.04c-.41-.03-.8-.04-1.18-.04s-.77.01-1.17.04l-.04-.04v-.21l.04-.04c.32-.02.49-.03.53-.04s.08-.03.11-.06.05-.08.06-.14.02-.27.04-.63.02-.63.02-.81v-.96c0-.13,0-.31-.02-.53s-.02-.36-.03-.42-.03-.09-.08-.11-.13-.04-.25-.04h-.41s-.04-.04-.04-.04v-.21l.04-.04c.62-.07,1.15-.2,1.57-.37Z"/>
            <path class="cls-1" d="M150.8,44.48v-.13l.03-.05c.31-.11.55-.22.74-.32,0-.85,0-1.34-.03-1.48.34-.12.61-.24.83-.38l.12.1c-.03.21-.07.8-.12,1.79.16,0,.34,0,.53,0,.38,0,.66,0,.83-.03l.03.03-.09.41-.04.04c-.17,0-.35,0-.55,0-.18,0-.42,0-.7,0l-.03,1.99c0,.46.01.76.03.9s.08.25.18.33.24.12.43.12c.22,0,.42-.06.61-.17l.12.18c-.08.06-.27.22-.56.49-.17.08-.34.12-.52.12-.73,0-1.1-.35-1.1-1.06,0-.26,0-.48.02-.66,0-.06,0-.11,0-.17v-2.03h-.2c-.15,0-.31,0-.5.02l-.04-.04Z"/>
            <path class="cls-1" d="M156.63,41.42c.82.03,1.34.04,1.57.04.31,0,.65,0,1.03-.02.4-.01.65-.02.75-.02.46,0,.83.05,1.13.14s.54.27.74.52.29.55.29.91c0,.29-.07.58-.21.85s-.33.51-.57.7-.49.33-.74.41-.51.12-.78.12c-.2,0-.43-.02-.67-.07l-.08-.3.04-.05c.24.06.44.08.6.08.43,0,.77-.14,1.03-.42s.39-.64.39-1.08-.13-.8-.4-1.06-.67-.4-1.22-.4c-.3,0-.62.06-.98.17-.03.25-.04.86-.04,1.82v3.21c0,.37.02.61.03.71s.04.18.07.21.09.07.18.09.3.04.65.06l.04.03v.24l-.04.04c-.83-.03-1.3-.04-1.4-.04-.11,0-.58.01-1.4.04l-.04-.04v-.24l.04-.03c.3-.01.5-.03.61-.05s.17-.04.2-.08.06-.1.08-.2.03-.33.04-.67v-1.03s0-2.26,0-2.26v-.95c-.01-.37-.02-.61-.04-.72s-.04-.18-.07-.21-.09-.06-.18-.09-.3-.04-.65-.05l-.04-.03v-.24l.04-.03Z"/>
            <path class="cls-1" d="M163.89,41.09l.09.06c-.04.37-.05,1.12-.05,2.25v3.06c0,.07,0,.3.02.69s.03.62.04.68.04.11.07.14.06.05.11.06.22.02.53.04l.04.04v.21l-.04.04c-.41-.03-.8-.04-1.18-.04s-.77.01-1.17.04l-.04-.04v-.21l.04-.04c.32-.02.49-.03.53-.04s.08-.03.11-.06.05-.08.06-.14.02-.27.04-.63.02-.63.02-.81v-2.53l-.02-1.04c0-.36-.02-.61-.03-.75s-.03-.22-.05-.25-.05-.05-.1-.06-.25-.02-.59-.02l-.04-.04v-.21l.04-.04c.62-.07,1.15-.19,1.57-.36Z"/>
            <path class="cls-1" d="M166.01,45.01l-.19-.05-.04-.05v-.61c.58-.43,1.14-.64,1.69-.64.37,0,.69.07.93.21s.43.31.54.52.17.46.17.73l-.02.98v1.46c0,.2.01.32.04.36s.06.07.1.09.1.03.2.04l.28.02.04.04v.2l-.04.04c-.24-.02-.46-.03-.66-.03s-.43,0-.7.03l-.07-.07.02-.79-1.06.83c-.18.07-.37.11-.59.11-.26,0-.48-.05-.67-.14s-.33-.23-.43-.4-.15-.37-.15-.62c0-.48.15-.85.45-1.12s1.12-.5,2.45-.69c0-.48-.11-.82-.32-1.02s-.5-.3-.86-.3c-.19,0-.36.03-.52.08s-.24.1-.27.13-.11.23-.26.6l-.03.02ZM168.28,45.78c-.91.15-1.48.32-1.7.49s-.34.45-.34.82c0,.51.25.76.76.76.43,0,.86-.25,1.28-.75v-1.32Z"/>
            <path class="cls-1" d="M171.64,43.66l.09.06c-.02.22-.03.5-.04.86.26-.21.51-.43.74-.65.07-.06.13-.11.19-.14s.16-.06.3-.09.28-.05.43-.05c.25,0,.49.05.72.15s.41.22.53.36.2.3.25.49.07.42.07.7v.86c0,.06,0,.46.02,1.22,0,.31.04.49.1.55s.26.09.61.09l.04.04v.21l-.04.04c-.41-.03-.69-.04-.84-.04-.08,0-.32.01-.71.04l-.06-.05c.04-.42.06-.98.06-1.66v-.64c0-.38,0-.66-.03-.83s-.07-.32-.16-.46-.21-.25-.37-.32-.34-.11-.55-.11c-.17,0-.31.02-.43.05s-.26.1-.41.21-.26.21-.33.3-.11.18-.13.26-.02.25-.02.51v.85c0,.07,0,.3.02.69s.03.62.04.68.04.11.07.14.06.05.11.06.22.02.53.04l.04.04v.21l-.04.04c-.41-.03-.8-.04-1.18-.04s-.77.01-1.17.04l-.04-.04v-.21l.04-.04c.32-.02.49-.03.53-.04s.08-.03.11-.06.05-.08.06-.14.02-.27.04-.63.02-.63.02-.81v-.96c0-.13,0-.31-.02-.53s-.02-.36-.03-.42-.03-.09-.08-.11-.13-.04-.25-.04h-.41s-.04-.04-.04-.04v-.21l.04-.04c.62-.07,1.15-.2,1.57-.37Z"/>
            <path class="cls-1" d="M177.46,43.66l.09.06c-.02.22-.03.5-.04.86.26-.21.51-.43.74-.65.07-.06.13-.11.19-.14s.16-.06.3-.09.28-.05.43-.05c.25,0,.49.05.72.15s.41.22.53.36.2.3.25.49.07.42.07.7v.86c0,.06,0,.46.02,1.22,0,.31.04.49.1.55s.26.09.61.09l.04.04v.21l-.04.04c-.41-.03-.69-.04-.84-.04-.08,0-.32.01-.71.04l-.06-.05c.04-.42.06-.98.06-1.66v-.64c0-.38,0-.66-.03-.83s-.07-.32-.16-.46-.21-.25-.37-.32-.34-.11-.55-.11c-.17,0-.31.02-.43.05s-.26.1-.41.21-.26.21-.33.3-.11.18-.13.26-.02.25-.02.51v.85c0,.07,0,.3.02.69s.03.62.04.68.04.11.07.14.06.05.11.06.22.02.53.04l.04.04v.21l-.04.04c-.41-.03-.8-.04-1.18-.04s-.77.01-1.17.04l-.04-.04v-.21l.04-.04c.32-.02.49-.03.53-.04s.08-.03.11-.06.05-.08.06-.14.02-.27.04-.63.02-.63.02-.81v-.96c0-.13,0-.31-.02-.53s-.02-.36-.03-.42-.03-.09-.08-.11-.13-.04-.25-.04h-.41s-.04-.04-.04-.04v-.21l.04-.04c.62-.07,1.15-.2,1.57-.37Z"/>
            <path class="cls-1" d="M185.93,47.6l-.16.35c-.34.22-.64.36-.91.42s-.5.1-.71.1c-.39,0-.76-.08-1.11-.23s-.63-.41-.85-.78-.33-.8-.33-1.32c0-.34.04-.65.13-.93s.17-.48.27-.61.25-.28.47-.44.46-.29.7-.39.51-.15.8-.15c.39,0,.73.09,1.03.28s.51.42.63.71.18.59.18.91c0,.1,0,.2-.01.29l-.05.05c-.22.05-.52.08-.89.1s-.62.02-.74.02h-1.57c0,.67.18,1.17.51,1.49s.74.48,1.22.48c.23,0,.45-.04.66-.12s.43-.19.67-.33l.08.08ZM182.8,45.6c.06,0,.28.02.68.03s.68.02.87.02c.45,0,.73,0,.83-.02,0-.08,0-.14,0-.18,0-.5-.1-.88-.31-1.13s-.48-.37-.84-.37c-.39,0-.69.14-.91.42s-.32.69-.32,1.23Z"/>
            <path class="cls-1" d="M188.28,43.66l.09.06c-.02.19-.03.52-.04,1.01l.37-.46c.12-.15.23-.27.32-.35s.2-.15.32-.19.25-.07.38-.07c.14,0,.28.03.41.09l.03.07c-.05.43-.08.81-.09,1.14h-.22c-.13-.3-.34-.45-.63-.45-.2,0-.38.06-.53.19s-.25.29-.3.48-.08.44-.08.73v.54c0,.1,0,.34.02.72s.03.6.04.66.04.1.07.13.07.05.12.06.28.03.7.05l.04.04v.21l-.04.04c-.43-.03-.89-.04-1.36-.04-.37,0-.77.01-1.17.04l-.04-.04v-.21l.04-.04c.32-.02.49-.03.53-.04s.08-.03.11-.06.05-.08.06-.14.02-.27.04-.63.02-.63.02-.81v-.96c0-.13,0-.31-.02-.53s-.02-.36-.03-.42-.03-.09-.08-.11-.13-.04-.25-.04h-.41s-.04-.04-.04-.04v-.21l.04-.04c.62-.07,1.15-.2,1.57-.37Z"/>
          </g>
        </g>
      </g>
    </g>
  </g>
</svg>