<?xml version="1.0" encoding="UTF-8"?>
<svg id="Capa_2" data-name="Capa 2" xmlns="http://www.w3.org/2000/svg" viewBox="0 0 300 221.96">
  <defs>
    <style>
      .cls-1 {
        fill: #030303;
        stroke-width: 0px;
      }
    </style>
  </defs>
  <g id="Capa_1-2" data-name="Capa 1">
    <g>
      <path class="cls-1" d="M92.41,199.96c-28.33.12-49.86-12.27-62.8-37.24-12.85-24.8-10.67-49.69,6.11-72.06,16.97-22.63,40.45-31.37,68.17-26.08,32.11,6.13,54.28,33.34,54.74,66.14.17,11.99,6.23,30.02,15.22,35.42,8.45-22.05,9.45-44.13.93-66.16-12.79-33.07-37.73-51.67-72.04-58.3.27-.81.29-1.05.41-1.22,4.2-5.72,8.41-11.43,12.61-17.15,2.57-3.51-.6-20.92-4.23-23.04-.52-.3-1.28-.27-1.93-.27C95.9,0,82.19,0,68.61,0c-1.65,4.85-2.78,9.17-4.58,13.19-1.97,4.4-1.23,7.73,1.82,11.41,4.44,5.37,8.27,11.24,12.46,17.04C39.89,49.51,14.59,70.84,3.19,107.92c-1.07,3.47-.51,7.45-3.19,10.42v26.67c2.36,1.33,1.74,3.91,2.18,5.87,5.02,22.42,16.94,40.3,35.32,53.83,28.26,20.79,70.43,22.95,97.16,5.14-4.69-5.54-9.38-11.07-14.15-16.7-8.89,4.17-18.22,6.76-28.1,6.81Z"/>
      <path class="cls-1" d="M298.84,118.34c-4.39-36.47-35.79-72.78-81.61-76.74-18.53-1.6-35.9,2.16-52.13,11.5,4.98,5.82,9.58,11.19,14.4,16.82,14.87-6.93,30.46-8.65,46.49-4.83,35.5,8.47,58.75,45.41,50.76,80.42-8.59,37.65-44.45,61.05-81.14,52.94-32.25-7.13-53.61-33.3-54.38-66.53-.31-13.45-4.65-25.26-14.24-35.33-7.26,13.79-9.39,33.73-5.88,52.45,7.74,41.21,42.94,70.83,86.57,72.84,39.21,1.81,77.25-26.03,88.51-64.55,1.2-4.11.83-8.74,3.78-12.31v-25.34c-.4-.44-1.11-.85-1.16-1.33Z"/>
    </g>
  </g>
</svg>