<?xml version="1.0" encoding="UTF-8"?>
<svg id="Capa_2" data-name="Capa 2" xmlns="http://www.w3.org/2000/svg" viewBox="0 0 300 298.17">
  <defs>
    <style>
      .cls-1 {
        fill: #090909;
        stroke-width: 0px;
      }
    </style>
  </defs>
  <g id="Capa_1-2" data-name="Capa 1">
    <g>
      <path class="cls-1" d="M136.53,71.94l.11.46.23-.38-.34-.08ZM159.93,60.14h.08s.04-.11.04-.15l-.11.15ZM167.42,69.73l-.04.38.34-.15-.3-.23ZM183.36,35.8c-2.85-1.48-5.82-1.98-8.98-1.45-.99.91-2.05.42-3.39.15.87-.53,1.56-.95,2.28-1.37,1.9-3.08,3.92-6.12,5.67-9.28,2.51-4.41,5.06-8.83,5.74-14,.38-2.78-.34-5.02-3.58-4.53-10.77,1.64-20.77,5.29-29.03,12.59-2.32,2.02-4.34,4.57-3.84,8.6-6.62-11.41-15.37-19.55-26.63-26.52-.57,13.77-3.54,26.59,3.69,38.92-10.16-.68-19.71.87-29.86,4.53l3.77,5.17c2.82,1.64,5.52,3.23,8.18,4.76,4.49-1.71,9.43-.46,13.73,3.77,1.18,1.18,2.24,2.47,3.16,3.8,2.21.3,4.53.15,7-.76-1.48,2.59-2.66,5.17-3.58,7.84.3.84.53,1.71.72,2.63,1.33,5.82-.19,10.35-4.07,12.9-.34,3.16-.53,6.35-.65,9.62,0,.34-.04.65-.04.99.23-.08.46-.19.68-.3,12.33-5.17,26.36-19.29,29.29-29.18,1.29,12.48,13.05,24.5,28.53,28.53-2.24-12.02-1.22-24.58-10.46-34.24,7.3.34,14.38,0,20.58-.95.11-.19.3-.34.46-.53,3.23-3.27,6.96-3.99,10.73-2.32,1.52-.61,2.93-1.26,4.15-1.98-7.42-6.89-15.41-12.74-24.27-17.39ZM131.62,26.93c.19-1.52.23-3.61,2.51-3.27,1.94.27,2.17,2.05,2.17,3.27-.23,2.13-.5,3.96-2.63,3.73-1.94-.23-2.24-2.09-2.05-3.73ZM120.56,48.05c4.03.38,8.18-2.17,13.2.99-5.21-.42-9.21-.68-13.2-.99ZM131.93,59.23c.38-1.07,4.49-2.85,5.21-2.85.49,0,.99.15,1.56.23-.61,1.33-5.74,2.97-6.77,2.63ZM138.13,70.11c-.99-.68.08-1.37-.08-2.05.72.61.8,1.26.08,2.05ZM144.94,62.27c-.08.15-.99.99-1.45,1.22-2.02,1.26-2.02,4.98-5.36,4.49,2.36-.8,4.83-5.06,5.55-5.55.72-.42.84-.38.95-.46.46-.38.57-.23.3.3ZM153.99,48.16c.72,2.36-1.03,3.84-3.35,3.96-2.36.11-4.3-1.48-3.69-3.65,2.09-7.72-2.78-12.06-7.38-16.66-.91-.95-2.78-1.33-1.71-4.11,5.86,2.89,9.05,7.87,12.17,14,2.55-6.92,4.41-13.35,8.6-18.56,1.1-1.33,1.48-4.03,4.26-3.12.49,2.55-1.86,3.65-2.78,5.48-3.65,7.15-8.94,13.73-6.13,22.67ZM160.84,61.25c.76.27,1.6.49.91,1.52-.3-.49-.61-1.03-.91-1.52ZM162.55,64.03c-.27-.38-.5-.76-.72-1.14.49-.3.99-.53,1.29.27.08.19-.34.53-.57.87ZM162.63,64.1c2.43.49,2.47.57,4.11,4.45-1.52-1.64-2.82-3.04-4.11-4.45ZM163.2,19.67c.76-1.56-1.86-2.7-.68-4.34,4.49-1.29,5.55-.53,5.63,4.18-1.52,2.05-3.35-.91-4.95.15Z"/>
      <path class="cls-1" d="M202.57,255.03c-1.1-1.6-1.83-3.58-2.17-5.9-1.9-1.1-3.73-2.13-5.55-3.16-3.77,2.66-7,2.82-11.18.91-3.61-1.64-6.96-5.36-9.24-9.74-1.9-.11-3.88.15-5.97.95,1.45-2.59,2.59-5.17,3.5-7.84-.38-1.67-.53-3.35-.42-4.91.27-3.27,1.03-5.48,3.12-7.23.65-4.6.84-9.32.91-14.08-12.4,5.1-26.7,19.74-29.56,29.86-1.37-11.68-11.87-22.79-25.98-27.31-.95-.3-1.94-.61-2.93-.84.8,3.88,1.22,7.87,1.79,11.75,1.14,8.1,2.82,15.9,9.17,22.33-6.24-.19-12.29.08-17.73.84-.38,1.9-1.18,3.88-2.55,5.78-1.94,2.78-4.26,5.02-6.92,6.81,5.02,3.77,10.27,7.08,15.86,9.93,2.82,1.45,5.82,1.86,8.98,1.29.99-.87,2.05-.42,3.39-.19-.87.57-1.56.99-2.24,1.41-1.86,3.12-3.84,6.16-5.59,9.36-2.43,4.45-4.91,8.9-5.55,14.08-.34,2.78.42,5.02,3.65,4.49,10.77-1.79,20.7-5.59,28.87-13.01,2.24-2.05,4.26-4.6,3.69-8.6,6.77,11.3,15.67,19.33,27.01,26.13.38-13.77,3.16-26.67-4.22-38.84,9.51.53,18.49-.99,27.89-4.3ZM162.93,226.01l.08.42-.34-.08.27-.34ZM161.49,228.29c.99.65-.08,1.37.08,2.02-.72-.57-.84-1.22-.08-2.02ZM154.75,236.2c.08-.15.99-.99,1.45-1.26,1.98-1.22,1.9-4.98,5.29-4.53-2.36.84-4.76,5.14-5.52,5.59-.68.46-.8.42-.91.49-.42.38-.57.23-.3-.3ZM138.85,237.46c-.76-.27-1.56-.49-.91-1.52.3.49.61,1.03.91,1.52ZM137.86,235.86c-.49.27-.99.49-1.29-.27-.08-.19.3-.57.57-.87.23.38.49.76.72,1.14ZM137.03,234.61c-2.4-.42-2.47-.49-4.15-4.37,1.52,1.64,2.85,3.01,4.15,4.37ZM132.2,228.67l-.04.38-.27-.23.3-.15ZM137.83,283.41c-4.49,1.33-5.55.57-5.71-4.15,1.52-2.09,3.35.87,4.95-.23-.76,1.6,1.9,2.7.76,4.37ZM162.29,270.71c-5.9-2.82-9.17-7.76-12.36-13.89-2.43,7-4.22,13.47-8.37,18.72-1.03,1.37-1.41,4.03-4.18,3.16-.53-2.51,1.79-3.69,2.7-5.52,3.58-7.15,8.75-13.85,5.82-22.75-.76-2.32.99-3.84,3.31-3.96,2.36-.15,4.3,1.41,3.73,3.58-1.98,7.76,2.93,12.02,7.61,16.59.91.91,2.78,1.29,1.75,4.07ZM162.67,242.02c-.49,0-1.03-.15-1.6-.23.61-1.33,5.71-3.04,6.73-2.74-.38,1.1-4.45,2.93-5.14,2.97ZM168.53,271.39c-.15,1.48-.15,3.58-2.47,3.27-1.9-.23-2.17-2.02-2.17-3.23.15-2.09.42-3.96,2.55-3.77,1.94.23,2.28,2.05,2.09,3.73ZM166.13,249.33c5.21.3,9.21.53,13.2.8-4.03-.34-8.14,2.24-13.2-.8Z"/>
      <path class="cls-1" d="M282.08,152.09c-2.02-2.28-4.56-4.34-8.6-3.84,11.45-6.58,19.55-15.37,26.52-26.63-13.77-.57-26.59-3.54-38.92,3.69.8-11.15-1.22-21.61-5.71-32.94-.61,1.03-1.18,2.05-1.79,3.04,1.22,3.2.69,6.77-1.75,10.27-2.21,3.12-4.98,5.55-8.25,7.27-2.97,5.71-6.35,11.37-3.77,18.34-10.77-6.16-22.14-7.19-33.97-7.61,4.94,12.48,19.4,27.01,29.48,29.98-12.48,1.29-24.5,13.05-28.53,28.53,2.51-.46,5.06-.8,7.57-1.06,2.89-2.82,7.19-3.88,12.29-2.85.61.11,1.22.27,1.83.42,4.49-1.26,8.75-3.35,12.55-6.96-.27,5.14-.15,10.12.23,14.8,3.84,4.22,4.56,8.83,2.28,12.97.76,2.78,1.71,5.25,2.82,7.3.15.3.3.57.46.84.23-.23.46-.5.65-.72,6.62-7.23,12.25-14.95,16.74-23.55,1.48-2.82,1.98-5.82,1.45-8.98-.88-.99-.42-2.05-.15-3.39.53.87.95,1.6,1.37,2.28,3.08,1.9,6.13,3.92,9.28,5.67,4.41,2.51,8.83,5.06,14,5.78,2.78.38,5.02-.38,4.53-3.61-1.64-10.77-5.29-20.77-12.59-29.03ZM227.99,136.91l-.38-.27.46-.11-.08.38ZM229.89,138.13c.69-.99,1.37.08,2.05-.08-.61.72-1.26.8-2.05.08ZM230.04,167.73l-.15-.34.38.08-.23.27ZM231.49,166.74c1.6-1.52,3.01-2.82,4.41-4.11-.46,2.43-.57,2.47-4.41,4.11ZM232.02,138.13c.8,2.36,5.1,4.83,5.55,5.59.42.68.38.8.46.91.38.46.23.61-.3.3-.15-.08-.99-.99-1.22-1.45-1.22-2.02-4.98-1.98-4.49-5.36ZM236.85,163.12c-.19.08-.53-.34-.84-.57.38-.23.76-.49,1.14-.72.27.49.49.99-.3,1.29ZM237.23,161.75c.49-.3,1.03-.57,1.52-.87-.27.72-.49,1.56-1.52.87ZM239.86,160.01v-.08l.15.15s-.11-.04-.15-.08ZM243.39,138.7c-1.33-.61-2.97-5.71-2.62-6.77,1.07.42,2.85,4.53,2.85,5.21.04.49-.15.99-.23,1.56ZM273.07,131.63c1.52.19,3.61.23,3.27,2.51-.27,1.94-2.05,2.17-3.27,2.17-2.09-.23-3.96-.5-3.73-2.63.23-1.94,2.09-2.24,3.73-2.05ZM251.95,120.56c-.38,4.03,2.17,8.18-.99,13.2.42-5.21.68-9.21.99-13.2ZM274.51,160.12c-7.11-3.65-13.73-8.94-22.67-6.13-2.36.72-3.84-1.03-3.96-3.35-.11-2.36,1.48-4.3,3.65-3.69,7.72,2.09,12.1-2.78,16.66-7.38.95-.91,1.37-2.78,4.11-1.71-2.85,5.86-7.87,9.05-14,12.17,6.92,2.55,13.35,4.41,18.57,8.64,1.33,1.07,4.03,1.45,3.12,4.22-2.55.49-3.65-1.86-5.48-2.78ZM280.48,168.15c-2.05-1.52.91-3.35-.15-4.95,1.56.8,2.74-1.86,4.34-.68,1.33,4.49.53,5.55-4.18,5.63Z"/>
      <path class="cls-1" d="M66.31,147.18c12.52-.61,25.15-11.68,30.02-26.93-2.55.3-5.1.49-7.61.65-2.28,1.94-5.36,2.85-9.05,2.59-1.79-.11-3.54-.42-5.21-.91-4.57,1.03-8.9,2.85-12.9,6.28.5-4.87.69-9.62.57-14.11-3.2-3.92-3.61-8.29-1.41-13.09-.46-2.13-1.03-4.11-1.67-5.86-1.64.15-3.04.11-4.3-.15-6.01,6.24-11.3,12.93-15.71,20.35-1.6,2.74-2.24,5.71-1.9,8.9.84,1.03.3,2.05-.04,3.39-.5-.91-.84-1.64-1.22-2.36-3.01-2.05-5.9-4.22-8.98-6.16-4.26-2.74-8.56-5.52-13.7-6.51-2.74-.53-5.02.08-4.72,3.35,1.07,10.84,4.18,21,11.03,29.67,1.9,2.4,4.34,4.53,8.37,4.26-11.76,6.01-20.35,14.3-27.89,25.18,13.69,1.29,26.36,4.95,39.03-1.6-.84,6.7-.65,13.16.53,19.78.5-.61,1.03-1.22,1.6-1.79,3.92-3.99,8.56-4.64,13.12-2.13.46-.76.95-1.56,1.41-2.32,3.31-5.59,7.15-11.15,4.91-18.34,3.12,2.02,6.32,3.54,9.55,4.76.23-.08.5-.11.72-.19,5.4-1.37,10.77-1.03,15.98.68,2.89.95,5.1,2.32,6.66,4.07.23.04.42.04.65.08-4.3-12.74-17.96-28-27.85-31.54ZM17.5,135.73c-1.06-4.6-.23-5.59,4.49-5.44,1.98,1.64-1.1,3.31-.11,4.95-1.52-.84-2.82,1.75-4.38.49ZM27.43,167.16c-1.52-.27-3.58-.42-3.12-2.66.38-1.94,2.17-2.05,3.39-1.98,2.09.3,3.92.68,3.58,2.78-.34,1.94-2.21,2.17-3.84,1.86ZM47.9,179.37c.61-3.99-1.67-8.29,1.71-13.12-.68,5.17-1.18,9.13-1.71,13.12ZM49.76,153.04c-7.61-2.51-12.21,2.09-17.04,6.43-.99.91-1.48,2.7-4.18,1.48,3.16-5.67,8.33-8.6,14.65-11.37-6.81-2.93-13.12-5.1-18.11-9.59-1.26-1.18-3.96-1.71-2.85-4.41,2.55-.34,3.54,2.05,5.29,3.08,6.92,3.99,13.24,9.62,22.33,7.34,2.4-.61,3.77,1.22,3.73,3.54,0,2.36-1.71,4.18-3.8,3.5ZM59.73,168.6c-1.07-.46-2.62-4.64-2.62-5.33.04-.49.23-.99.34-1.56,1.29.68,2.66,5.86,2.28,6.89ZM72.32,133.45l.11.3-.34-.04.23-.27ZM70.83,134.33c-1.71,1.45-3.16,2.66-4.6,3.88.57-2.4.69-2.44,4.6-3.88ZM65.28,137.67c.19-.08.53.34.84.61-.42.23-.8.46-1.18.65-.27-.49-.46-1.03.34-1.26ZM64.82,139.01c-.53.27-1.07.53-1.56.8.3-.72.57-1.52,1.56-.8ZM62.12,140.68l-.15-.11s.08.04.15.04v.08ZM68.78,162.9c-.69-2.44-4.83-5.1-5.25-5.9-.38-.72-.34-.84-.42-.95-.34-.46-.19-.57.3-.27.15.08.95,1.03,1.18,1.48,1.1,2.09,4.83,2.28,4.18,5.63ZM68.86,162.97c.61-.72,1.29-.76,2.02.04-.72.95-1.37-.19-2.02-.04ZM72.62,164.68l.11-.34.34.27-.46.08Z"/>
      <path class="cls-1" d="M103.27,165.5c2.95.78,5.71-2.36,8.94-.81-1.53,3.15-4.93,4.47-5.59,7.72,1.63,1.81,4.44-.15,5.89,2.38-.56,1.22-1.22,2.67-2.08,4.54,7.71-.35,3.18,5.23,3.87,8.88,4.29-2.24,8.14-3.55,8.2,3.18,2.15-1.21,3.26-3.75,5.55-2.39,2.39,2.33-1.24,4.98,1.22,7.61,2.41-4,4.68-7.76,6.95-11.53.38.15.77.31,1.15.46-.32,4.28-.63,8.55-1.04,14.05,3.33-2.98,6.18-6.65,8.58-.82,4.63-1.69,5.67,2.65,7.66,5.32,4.9-7.38,10.65-9.34,15.86-5.59.68-4.26-2.24-8.38-.56-12.93,3.39,2.47,3.57,6.77,6.86,8.52,1.6-1.65-.1-4.41,2.15-5.69,2.5-.76,3.36,2.45,5.74,2.26-.45-8.32,5.37-2.32,8.54-3.36-1.66-3.69-2.59-7.11,2.3-8.66-4.13-6.17,1.55-5.21,5.43-5.74-3.73-3.75-6.79-6.81-10.13-10.16,5.37-.77,9.18,3.06,13.94,2.97-3.28-5.48-1.1-9.94,7.19-15.03-6.54-5.69-7.51-11.41-2.69-16.01-4.35-1.67-9.45-.45-13.89-3.2,3.24-2.39,6.04-4.45,9.23-6.8-7.03-2.13-7.13-2.43-2.98-6.9h.03c-4.98-.74-7.54-3.05-4.86-8.64-3.58-.15-8.08,4.33-8.85-2.76-6.14,6.15-5.78-.42-6.93-3.66-4.06,3.27-6.01,8.04-11.47,10.64.4-5.42.73-9.94,1.21-16.35-3.58,5.34-5.44,3.18-8.82,2.38-4.65-1.11-5.31-3.98-7.36-6.59-3.74,7.18-9.26,9.8-16.11,7.58.16,4.16,2.26,8.2.94,13.64-3.45-4.03-6.07-7.08-8.8-10.27-1.81,6.82-2.08,6.94-7.19,3.74-.49.89-.76,2.11-1.51,2.63-2.47,1.69-4.48-1.53-7.4-.98.7,3.85,2.8,8.88-4.71,6.82.33,2.61,2.78,4.23.9,6.62-2.49,1.32-4.73-2.34-8.03-.65,4.73,3.44,9.01,6.56,14.24,10.36-3.99.47-6.66.77-9.32,1.09-2.65.32-5.29.65-7.93.98.11,2.77,8.83,4,1.13,7.67,2.44,4.52-1.26,6.51-4.07,8.84,6.62,3.34,9.78,8.84,8.63,14.63ZM130.23,163.31c.43.31,1.13,2.6-.59,3.12-1.26.38-3.09.7-2.62-1.94.67-3.76-4.97-5.16-3.29-10.43,1.94,3.1,4.24,2.82,7.21,1.15-.63,3.25-4.38,5.51-.7,8.1ZM166.76,185.16c-.08.01-.26-.52-.4-.81.3-.13.61-.26.91-.4.26.24.51.49.75.74-.42.17-.83.39-1.26.47ZM180.31,138.94c6.15,1.83-1.51,9.08,4.31,10.28-1.44,2.41-2.99,2.7-4.66,2.9,3.24-4.39-2.57-8.53.35-13.18ZM162.1,124.2c4.76-2.7,8.73-2.87,10.44,3.8-2.5-.98-5.18-.82-7.03-3.2-1.5,1.43-2.99,2.85-4.76,4.53-1.8-1.95-.08-4.19-1.02-6.06-2.66-.74-5.89-.82-7.01-4.55,2.48,3.02,8.99-2.23,9.38,5.48ZM166.84,152.06c-.69,3.22-2.32,5.54-4.3,7.49,1.02-2.7-.38-6.62,4.3-7.49ZM161.31,160.54c-2.67,2.12-4.86,4.23-8.24,2.7,2.35-1.54,4.45-3.82,8.24-2.7ZM147.01,160.18c1.58,1.66,3.02,3.58,5.7,3.15-2.72,2.63-4.99-.35-7.73-.57.82-1.03,1.42-1.81,2.03-2.58ZM159.9,172.88c-.1-.99-.28-2.8-.46-4.61.3-.19.59-.38.89-.57.76,1.51,1.52,3.03,2.32,4.62,2.89-3.19,8.35-2.3,8.81-4.44.79-3.64,6.56-6.86,1.6-11.45.48.04.64.07.8.06,6.49-.33,6.9.02,3.6,6.27-3.98,7.53-10.31,11.85-18.74,14.27-8.68,2.49-15.73-.09-23.03-3.79-.73-.37-1.41-.54-1.83-1.28-.5-.87-1.01-1.73-2.27-3.88,3.71,1.25,6.15,2.07,8.97,3.02.59-.89,1.44-2.17,3.08-4.63-.01,3.19-.02,5.1-.03,6.44,5.33,4.55,10.68,3.99,16.27-.05ZM140.92,158.9c.81.32,1.91.39,1.57,1.83-1.33-.02-1.55-.85-1.57-1.83ZM138.11,139.98c.53-.72,1.28-1.27,1.93-.51-1.09-1.94.38-2.12,2.75-2.32-1.1,1.21-1.8,1.98-2.48,2.73.03.06.07.11.1.18-.04-.06-.07-.11-.11-.17-.03.04-.07.07-.1.11-1.59,1.59-.71,4.15-2.61,5.87-1.56,1.41-1.68,4.13.23,5.65,2.41,1.91,2.48,4.48,2.9,7.01-5.83-5.31-6.92-12.7-2.61-18.54ZM120.54,140.45c1.13-1.89,3.61-.83,5.39-2.78-1.35-1.44-2.44-2.6-3.94-4.2,3.04-1.47,6-3.42,6.76-6.04,1.04-3.58,4.46-.76,5.7-3.07.28-.52,1.02.85,1.31,1.59.51,1.27-.72,1.31-1.17,1.31-4.36-.07-5.02,3.32-6.21,6.34-1.57,3.98-3.6,7.81-4.81,11.89-.61,2.05-1.67,3.13-3.41,4.56,1.2-3.48.71-6.54.38-9.59Z"/>
      <path class="cls-1" d="M212.98,61.52c.21.59.94,1.17.2,1.99-1.24-.97-2.43-1.95-3.67-2.86-3.72-2.74-7.61-2.58-10.84.7-3.63,3.69-5.61,8.22-5.66,13.41-.05,6.12,3.68,9.62,9.74,9.47.54-.01,1.2-.3,1.48.5-6.71,5.8-7.79,8.1-5.96,12.72,2.18,5.5,9.54,10.67,15.04,10.54,4.71-.1,6.95-2.21,8.91-8.37-.18-.3-.34-.68.12-.77.17-.04.44.39.67.61,2.56,7.41,6.96,10.34,13.19,8.5,4.3-1.27,7.88-3.78,10.47-7.48,3.3-4.71,2.33-9.65-2.37-12.97-1.34-.95-2.99-1.49-4.12-3.09,4.89.94,9.87,2.57,13.35-2.47,2.95-4.27,2.67-13.57-.53-17.72-5.71-7.41-11.58-3.08-18.13,1.08,1.11-1.9,1.56-2.62,1.95-3.37,3.11-6.03,1.17-11.14-5.24-13.25-3.73-1.23-7.62-1.48-11.5-.5-6.61,1.66-9.41,6.92-7.1,13.31ZM236.16,75.66c-1.18,1.21-2.44,1.51-3.86.83,1.29-.28,2.57-.56,3.86-.83ZM223.86,65.75c.19.07.52.11.54.21.04.2-.09.44-.16.66-.19-.08-.51-.12-.53-.23-.05-.19.09-.42.15-.63ZM223.74,67.49c.84.58.61,1.17.23,1.75-1.29-.52-.02-1.18-.23-1.75ZM223.99,69.47c.51,1.58,2,2.8,1.03,4.95-.48,1.06,1.28,1.51,2.36,1.01,1.94-.9,3.8-1.97,5.23-3.65q.46,1.17-2.77,3.51c0,.47,0,.95,0,1.42.55.04,1.1.08,1.88.14-.93,1.2-2.16.68-3.09,1.11-.31.77.65.81.81,1.51-.78.41-1.7-.67-2.6.28,1.04,3.05,4.36,3.6,6.58,5.42-1.33.96-1.28.91-2.87-.6-1.02-.97-2.2-1.76-3.58-2.4.99,3.48,2.9,6.36,5,9.2-3.12-1.66-3.72-5.37-6.11-7.66-1.02-.17-.59,1.18-1.44,1.35-.67-.87.18-2.46-1.33-3.01-4.17,2.04-6.27,6.16-8.99,9.74.5-2.7,2.49-4.44,3.87-6.55.75-1.14,1.36-1.99,1.05-3.73-.68-3.83-.9-7.61-5.36-9.12-.41-.14-.73-.62-.18-1.48,2.8.78,4.18,4.12,7.18,4.56,1.21-2.01,2.89-3.65,3.3-5.97Z"/>
      <path class="cls-1" d="M63.51,196c.25.69,1.1,1.36.23,2.33-1.45-1.13-2.84-2.28-4.29-3.35-4.35-3.2-8.89-3.01-12.66.82-4.24,4.31-6.56,9.61-6.61,15.67-.06,7.15,4.29,11.23,11.37,11.06.64-.02,1.4-.36,1.73.58-7.84,6.77-9.1,9.46-6.97,14.85,2.54,6.43,11.14,12.46,17.57,12.32,5.5-.12,8.12-2.58,10.41-9.77-.21-.35-.39-.79.14-.9.2-.04.52.46.78.71,2.98,8.66,8.13,12.08,15.4,9.93,5.02-1.48,9.21-4.42,12.24-8.73,3.86-5.5,2.72-11.28-2.77-15.15-1.57-1.11-3.49-1.74-4.82-3.61,5.71,1.1,11.53,3,15.6-2.88,3.45-4.99,3.11-15.85-.61-20.69-6.67-8.66-13.53-3.6-21.17,1.27,1.29-2.22,1.82-3.06,2.27-3.93,3.63-7.05,1.36-13.02-6.12-15.48-4.36-1.44-8.9-1.73-13.43-.59-7.72,1.94-10.99,8.09-8.3,15.54ZM90.58,212.52c-1.38,1.41-2.85,1.77-4.51.97,1.5-.32,3-.65,4.51-.97ZM76.21,200.95c.22.08.61.13.63.25.05.24-.11.51-.18.77-.23-.09-.59-.14-.62-.27-.06-.22.1-.49.17-.74ZM76.07,202.98c.98.68.71,1.36.27,2.05-1.51-.61-.02-1.38-.27-2.05ZM76.36,205.29c.59,1.84,2.34,3.26,1.2,5.78-.56,1.24,1.49,1.77,2.76,1.18,2.26-1.05,4.44-2.3,6.11-4.27q.54,1.36-3.24,4.1c0,.55,0,1.11.01,1.66.64.05,1.28.09,2.2.16-1.09,1.4-2.53.8-3.61,1.29-.36.9.76.95.95,1.76-.91.48-1.99-.78-3.04.33,1.22,3.56,5.1,4.21,7.69,6.33-1.55,1.13-1.5,1.07-3.35-.7-1.19-1.13-2.57-2.05-4.18-2.81,1.15,4.07,3.39,7.43,5.85,10.74-3.64-1.94-4.35-6.27-7.14-8.94-1.19-.2-.69,1.38-1.68,1.57-.78-1.02.21-2.87-1.55-3.52-4.88,2.38-7.33,7.19-10.5,11.38.58-3.16,2.91-5.19,4.52-7.66.87-1.33,1.59-2.33,1.23-4.36-.8-4.47-1.05-8.89-6.26-10.66-.48-.16-.86-.72-.21-1.73,3.27.92,4.88,4.81,8.38,5.32,1.41-2.34,3.38-4.26,3.86-6.98Z"/>
      <path class="cls-1" d="M120.02,206.61c-.95-.3-1.94-.61-2.93-.84.8,3.88,1.22,7.87,1.79,11.75,1.1-3.16,1.48-7.11,1.14-10.92Z"/>
      <path class="cls-1" d="M211.35,197.14c-.06.63.34,1.46-.68,1.88-.7-1.41-1.35-2.81-2.07-4.17-2.17-4.08-5.75-5.61-10.08-4.05-4.87,1.76-8.61,5-10.89,9.66-2.68,5.5-.83,10.26,4.69,12.75.5.22,1.22.24,1.12,1.09-8.55,2.33-10.52,3.94-10.87,8.9-.41,5.9,4,13.74,9.01,16,4.29,1.94,7.23,1.01,11.65-3.7-.03-.35-.01-.75.44-.64.17.04.23.55.34.84-.89,7.79,1.81,12.33,8.23,13.36,4.43.71,8.75,0,12.68-2.22,5.01-2.82,6.27-7.7,3.46-12.73-.8-1.43-2.05-2.63-2.39-4.57,4,2.96,7.8,6.58,13.11,3.54,4.51-2.58,8.26-11.09,7.17-16.21-1.95-9.15-9.12-7.77-16.82-6.85,1.82-1.24,2.54-1.69,3.21-2.2,5.41-4.1,5.86-9.55.99-14.22-2.84-2.72-6.23-4.62-10.15-5.41-6.68-1.35-11.47,2.19-12.15,8.94ZM226.16,219.89c-1.58.58-2.85.31-3.84-.91,1.28.3,2.56.61,3.84.91ZM219.33,205.65c.14.14.42.32.4.42-.05.2-.27.35-.42.53-.14-.15-.4-.33-.38-.44.04-.19.26-.34.41-.51ZM218.48,207.16c.51.89.04,1.32-.55,1.68-.94-1.03.49-1.07.55-1.68ZM217.85,209.06c-.22,1.64.6,3.39-1.21,4.91-.89.75.5,1.92,1.69,1.93,2.14.02,4.28-.13,6.3-1.04q-.09,1.25-4.01,1.97c-.2.43-.4.86-.6,1.29.48.27.96.55,1.64.94-1.36.68-2.25-.32-3.26-.33-.61.56.24,1.02.08,1.71-.88.03-1.25-1.34-2.47-.87-.38,3.2,2.38,5.13,3.6,7.73-1.62.29-1.55.27-2.33-1.77-.5-1.31-1.23-2.54-2.19-3.71-.61,3.57-.13,6.99.54,10.46-2.09-2.85-1.04-6.45-2.21-9.55-.85-.59-1.05.81-1.88.59-.23-1.08,1.22-2.14.1-3.29-4.64.04-8.32,2.85-12.31,4.9,1.61-2.23,4.16-2.94,6.32-4.24,1.17-.71,2.09-1.21,2.56-2.91,1.03-3.75,2.47-7.25-.9-10.54-.31-.3-.39-.87.48-1.41,2.18,1.91,1.99,5.52,4.51,7.21,1.96-1.29,4.18-2.04,5.56-3.96Z"/>
      <path class="cls-1" d="M246.36,206.8c.15.3.3.57.46.84.23-.23.46-.5.65-.72-.34-.08-.72-.11-1.1-.11Z"/>
      <path class="cls-1" d="M98.24,64.27c-.4.49-.52,1.41-1.61,1.2.19-1.56.42-3.09.56-4.62.43-4.6-1.72-7.85-6.19-8.92-5.03-1.21-9.94-.57-14.41,2.07-5.27,3.11-6.34,8.11-3.09,13.23.29.46.88.87.33,1.52-8.43-2.76-10.96-2.5-13.97,1.45-3.59,4.7-4.22,13.67-1.28,18.32,2.52,3.98,5.48,4.82,11.76,3.32.16-.31.41-.64.72-.29.12.13-.11.58-.18.89-5.03,6.01-5.27,11.29-.48,15.68,3.3,3.03,7.31,4.8,11.81,5.12,5.74.4,9.47-2.98,9.89-8.72.12-1.64-.26-3.33.52-5.13,1.71,4.68,2.89,9.78,9,10.17,5.19.32,13-4.72,14.9-9.59,3.41-8.72-3.34-11.51-10.28-14.97,2.2-.04,3.05-.01,3.89-.07,6.77-.45,10.15-4.75,8.65-11.32-.87-3.83-2.66-7.29-5.5-10.11-4.84-4.81-10.78-4.49-15.06.78ZM98.08,91.42c-1.64-.39-2.55-1.31-2.7-2.87.9.96,1.8,1.92,2.7,2.87ZM100.22,75.77c.04.2.18.5.1.57-.15.14-.42.15-.64.21-.03-.21-.16-.49-.07-.58.14-.14.41-.14.62-.2ZM98.67,76.56c-.06,1.02-.69,1.12-1.39,1.1-.22-1.38,1-.62,1.39-1.1ZM97.1,77.8c-1.09,1.25-1.36,3.16-3.71,3.43-1.16.14-.64,1.88.35,2.54,1.77,1.2,3.64,2.24,5.83,2.6q-.76,1-4.43-.57c-.4.25-.81.49-1.21.74.25.49.5.98.85,1.68-1.51-.18-1.7-1.5-2.54-2.07-.82.13-.36.98-.87,1.48-.75-.46-.3-1.81-1.58-2.09-2.08,2.47-.83,5.6-1.24,8.43-1.51-.64-1.44-.63-.97-2.76.31-1.37.37-2.79.21-4.3-2.47,2.64-3.96,5.77-5.3,9.03-.18-3.53,2.68-5.96,3.41-9.19-.38-.96-1.32.1-1.89-.54.4-1.02,2.2-1.12,1.9-2.69-3.9-2.52-8.51-2.2-12.98-2.68,2.57-.97,5.09-.16,7.61-.07,1.36.05,2.41.14,3.74-1.02,2.92-2.56,6.05-4.7,5.05-9.3-.09-.42.15-.95,1.18-.92.77,2.8-1.37,5.7-.2,8.5,2.34,0,4.62.6,6.82-.25Z"/>
      <path class="cls-1" d="M95.45,43.44l3.77,5.17c-.61-2.17-1.86-3.92-3.77-5.17ZM123.71,93.16c0,.34-.04.65-.04.99.23-.08.46-.19.68-.3-.19-.23-.42-.46-.65-.68Z"/>
    </g>
  </g>
</svg>