<?xml version="1.0" encoding="UTF-8"?>
<svg id="Capa_2" data-name="Capa 2" xmlns="http://www.w3.org/2000/svg" viewBox="0 0 300 299">
  <defs>
    <style>
      .cls-1 {
        fill: #070707;
        stroke-width: 0px;
      }
    </style>
  </defs>
  <g id="Capa_1-2" data-name="Capa 1">
    <g>
      <path class="cls-1" d="M119.33,145.97c1.98,0,3.55,0,5.12,0,56.25,0,112.5,0,168.75,0,6.35,0,6.79.43,6.79,6.66,0,46.62,0,93.25,0,139.87,0,5.98-.45,6.43-6.55,6.43-35.21,0-70.42.01-105.63.01-1.17,0-2.34.03-3.5-.1-1.85-.21-2.89-1.37-3.02-3.19-.15-2.07.98-3.36,2.92-3.75,1.27-.26,2.61-.17,3.92-.17,33.17,0,66.33,0,99.5,0,1.58,0,3.16,0,4.97,0v-115.42H7.44v115.05c4.08.79,8.28.25,12.44.34,2.83.06,5.69.3,5.55,3.92-.12,3.43-3.03,3.34-5.59,3.33-4.82-.01-9.65-.14-14.46.03-4,.15-5.4-1.58-5.38-5.5.11-18.71.05-37.42.05-56.12,0-28.35,0-56.71,0-85.06,0-5.7.6-6.31,6.26-6.32,18.41-.02,36.82-.01,55.23-.01,1.58,0,3.16,0,5.23,0,0-4.35-.07-8.4.03-12.44.04-1.6-.96-2.34-1.95-3.19-3.43-2.95-6.86-5.92-10.31-8.84-1.43-1.21-2.49-2.55-1.85-4.53.71-2.2,2.47-2.59,4.53-2.58,8.77.04,17.53.03,26.3,0,2.04,0,3.81.36,4.53,2.59.66,2.03-.5,3.33-1.87,4.52-1.1.96-2.11,2.09-3.34,2.82-8.15,4.86-10.99,11.85-8.29,21.33h18.5c0-9.37.08-18.69-.03-28-.06-5.75.62-11.34,2.36-16.83,2.13-6.72,3.44-13.59,2.87-20.7-.31-3.9,1.31-5.54,5.34-5.48,11.16.16,10.68-.91,10.51,10.34-.04,2.81.05,5.67,1.02,8.22,5.2,13.65,4.22,27.88,4.22,42.03,0,3.36,0,6.72,0,10.75ZM7.3,168.49h285.3v-15.05H7.3v15.05ZM106.17,81.99c.76,11.8-6.24,22.24-5.92,34.02h11.94c.17-11.81-6.68-22.24-6.02-34.02ZM112,123.6h-11.48v8.91c4.01-.27,7.74.42,11.48-.39v-8.52ZM111.68,145.83c1.01-1.82.37-3.76.47-5.99-4.11-.18-7.92-.41-11.78.17-.11,2.08-.52,3.91.3,5.82h11ZM74.11,121.82h-7.79c1.53,1.55,2.56,2.93,4.35,3.38,1.21-1.03,2.65-1.73,3.44-3.38Z"/>
      <path class="cls-1" d="M63.39,222.16v33.93c4.85,0,9.5.03,14.14-.01,2.45-.02,4.61.64,4.71,3.39.1,2.97-2.05,3.88-4.72,3.86-4.64-.02-9.27,0-14.33,0,0,6.01.07,11.66-.04,17.32-.04,2.02,1.43,2.31,2.68,2.91,5.51,2.66,11.04,5.3,16.58,7.91,1.94.91,3.83,1.95,3.4,4.46-.47,2.74-2.67,3.09-5.03,3.08-14.02-.03-28.03-.03-42.05-.02-2.26,0-4.63,0-5.27-2.76-.63-2.71,1.31-3.84,3.44-4.83,5.42-2.52,10.74-5.26,16.21-7.67,2.18-.96,3.1-2.07,3-4.54-.21-5.08-.06-10.17-.06-15.86-4.74,0-9.21-.03-13.67.01-2.66.02-5.33-.22-5.38-3.6-.05-3.44,2.66-3.66,5.3-3.64,4.48.02,8.96,0,13.58,0v-33.94c-6.26,0-12.49-.12-18.71.04-3.9.1-5.68-1.39-5.48-5.4.18-3.64.09-7.3.02-10.95-.06-3.07,1.27-4.62,4.42-4.62,15.62.02,31.25.03,46.87,0,3.14,0,4.56,1.52,4.57,4.54.02,3.8-.07,7.6.02,11.39.09,3.52-1.53,5.07-5.01,5.03-6.27-.07-12.53-.02-19.17-.02ZM38.9,214.76h41.13v-6.07h-41.13v6.07ZM65.14,291.58c-4.04-3.03-7.21-3.57-10.41,0h10.41Z"/>
      <path class="cls-1" d="M142.46,263.32c-4.8,0-9.15-.02-13.5,0-2.63.02-5.32-.14-5.42-3.55-.11-3.48,2.55-3.71,5.21-3.69,4.36.03,8.73,0,13.4,0v-33.94c-6.08,0-12.31-.12-18.54.04-3.96.1-5.61-1.53-5.42-5.48.17-3.64.07-7.3.03-10.96-.03-3.08,1.38-4.56,4.5-4.56,15.63.03,31.25.03,46.88,0,3.19,0,4.44,1.65,4.41,4.66-.04,3.8-.08,7.6.01,11.4.09,3.57-1.62,4.97-5.09,4.92-6.25-.1-12.5-.03-18.96-.03v33.94c4.76,0,9.38.02,14.01,0,2.39-.01,4.57.42,4.69,3.34.13,3.09-1.98,3.9-4.63,3.89-4.63-.01-9.27,0-14.29,0,0,5.93.11,11.45-.05,16.96-.06,2.17,1.29,2.67,2.74,3.35,5.54,2.62,11.06,5.28,16.6,7.88,1.97.92,3.69,2.03,3.2,4.56-.5,2.56-2.5,2.9-4.7,2.9-14.31-.01-28.63,0-42.94,0-2.18,0-4.18-.35-4.65-2.95-.47-2.57,1.31-3.6,3.25-4.52,5.41-2.55,10.74-5.27,16.21-7.67,2.37-1.04,3.2-2.39,3.09-4.96-.21-4.96-.06-9.93-.06-15.55ZM166.67,208.62h-40.92v6.08h40.92v-6.08ZM141.04,291.42h10.32c-3.71-2.94-6.96-3.21-10.32,0Z"/>
      <path class="cls-1" d="M233.48,35.49c-.07,19.3-16.04,35.08-35.33,34.94-19.39-.14-35.04-15.95-34.97-35.32C163.24,15.67,178.9.03,198.33,0c19.61-.03,35.23,15.74,35.15,35.49ZM198.57,7.22c-15.58-.1-28.21,12.4-28.26,27.96-.05,15.23,12.44,27.86,27.8,28.11,15.28.25,28.18-12.59,28.22-28.09.04-15.37-12.38-27.88-27.76-27.97Z"/>
      <path class="cls-1" d="M147.54,118.75c0-4.09.09-8.19-.02-12.28-.5-19.22,13.78-30.47,25.35-35.51,2.2-.96,4.17-.63,5.14,1.65.95,2.24-.06,3.97-2.27,4.95-3.62,1.6-7.01,3.59-10.07,6.13-7.28,6.04-11.21,13.6-11,23.26.19,8.91,0,17.83.05,26.75.01,2.54-.24,5.03-3.35,5.12-3.33.11-3.87-2.43-3.85-5.17.03-4.97,0-9.94,0-14.91Z"/>
      <path class="cls-1" d="M249.91,118.54c0,5.26-.03,10.52.02,15.78.02,2.54-.84,4.48-3.58,4.51-2.79.03-3.59-1.95-3.58-4.47.03-8.62-.29-17.26.09-25.87.59-13.44-5.92-22.43-16.97-28.86-1.51-.88-3.15-1.52-4.67-2.38-1.93-1.1-2.61-2.81-1.64-4.83.89-1.85,2.53-2.22,4.46-1.73,12.9,3.28,25.5,19.26,25.84,32.93.13,4.97.02,9.94.02,14.91Z"/>
      <path class="cls-1" d="M211.47,86.65c0,1.31.11,2.64-.03,3.94-.34,3.23-2.22,4.21-5.21,3.28-.69-.21-1.39-.5-1.98-.91-3.61-2.5-7.02-2.21-10.87-.14-5.42,2.9-7.17,1.48-7.45-4.66-.46-10.18,1.41-12.27,10.5-7.04,3.78,2.17,6.22-1.24,9.23-2.15,3.79-1.14,5.6-.16,5.8,3.76.07,1.31.01,2.62,0,3.94Z"/>
      <path class="cls-1" d="M178.35,119.65c0,4.95,0,9.9,0,14.86,0,2.5-.84,4.45-3.67,4.34-2.47-.1-3.47-1.83-3.47-4.18,0-9.9,0-19.81,0-29.71,0-2.36,1.12-4.12,3.54-4.14,2.72-.03,3.63,1.88,3.61,4.42-.05,4.81-.02,9.61-.02,14.42Z"/>
      <path class="cls-1" d="M219.17,119.82c0-4.8.04-9.61-.02-14.41-.03-2.5.71-4.51,3.47-4.56,2.72-.05,3.68,1.89,3.68,4.4,0,9.75,0,19.51,0,29.26,0,2.51-.97,4.43-3.73,4.33-2.78-.1-3.45-2.13-3.42-4.61.06-4.8.02-9.61.02-14.41Z"/>
      <path class="cls-1" d="M103.82,298.95c-1.61,0-3.22.09-4.82-.03-2.17-.15-3.6-1.24-3.57-3.58.03-2.32,1.51-3.46,3.64-3.55,3.06-.13,6.13-.13,9.19,0,2.34.1,3.97,1.39,3.82,3.85-.13,2.19-1.67,3.3-3.89,3.31-1.46.01-2.92,0-4.38,0Z"/>
    </g>
  </g>
</svg>