<?xml version="1.0" encoding="UTF-8"?>
<svg id="Capa_2" data-name="Capa 2" xmlns="http://www.w3.org/2000/svg" viewBox="0 0 275.22 301.21">
  <defs>
    <style>
      .cls-1 {
        fill: #020202;
        stroke-width: 0px;
      }
    </style>
  </defs>
  <g id="Capa_1-2" data-name="Capa 1">
    <g>
      <path class="cls-1" d="M275.18,180.18c-7.05,10.94-16.03,19.4-27.91,25.05-1.47-7.53-2.38-14.93-4.42-22.12-1.39,7.74-2.64,15.45-3.72,23.18-.24,1.69-.87,2.45-2.5,2.85-2.95.72-5.93,1.19-8.93,1.63-2.7.4-5.46.23-8.09.51.24,2.73,9.47,66.21,12.89,89.93,7.23-.01,14.45-.03,21.68-.04,1.9-10.84,22.02-119.49,21.01-120.99Z"/>
      <path class="cls-1" d="M251.33,170.66c2.49-2.19,4.24-5,5.51-8.06,4.77-11.43,5.05-23.22,2.66-35.19-1.94-9.71-5.83-18.41-13.23-25.27-.84-.78-1.6-1.77-3.31-1.73,1.01,2.21,1.13,4.26,1.16,6.35.13,7.57-2.5,14.31-6.25,20.68-2.85,4.85-6.44,9.25-8.61,14.52-3.1,7.54-4.52,15.13-1.28,23.01,4.13,10.03,15.26,12.79,23.33,5.69Z"/>
      <path class="cls-1" d="M137.47,104.83c-1.47-7.53-2.38-14.93-4.42-22.12-1.39,7.74-2.64,15.45-3.72,23.18-.24,1.69-.87,2.45-2.5,2.85-2.95.72-5.93,1.19-8.93,1.63-2.7.4-5.46.23-8.09.51.24,2.73,9.47,164.01,12.89,187.73,7.23-.01,14.45-.03,21.68-.04,1.9-10.84,22.02-217.29,21.01-218.79-7.05,10.94-16.03,19.4-27.91,25.05Z"/>
      <path class="cls-1" d="M141.53,70.26c2.49-2.19,4.24-5,5.51-8.06,4.77-11.43,5.05-23.22,2.66-35.19-1.94-9.71-5.83-18.41-13.23-25.27-.84-.78-1.6-1.77-3.31-1.73,1.01,2.21,1.13,4.26,1.16,6.35.13,7.57-2.5,14.31-6.25,20.68-2.85,4.85-6.44,9.25-8.61,14.52-3.1,7.54-4.52,15.13-1.28,23.01,4.13,10.03,15.26,12.79,23.33,5.69Z"/>
      <path class="cls-1" d="M27.67,156.01c-1.47-7.53-2.38-14.93-4.42-22.12-1.39,7.74-2.64,15.45-3.72,23.18-.24,1.69-.87,2.45-2.5,2.85-2.95.72-5.93,1.19-8.93,1.63-2.7.4-5.46.23-8.09.51.24,2.73,13.55,112.29,16.97,136.01,7.23-.01,14.45-.03,21.68-.04,1.9-10.84,17.94-165.57,16.93-167.07-7.05,10.94-16.03,19.4-27.91,25.05Z"/>
      <path class="cls-1" d="M31.72,121.44c2.49-2.19,4.24-5,5.51-8.06,4.77-11.43,5.05-23.22,2.66-35.19-1.94-9.71-5.83-18.41-13.23-25.27-.84-.78-1.6-1.77-3.31-1.73,1.01,2.21,1.13,4.26,1.16,6.35.13,7.57-2.5,14.31-6.25,20.68-2.85,4.85-6.44,9.25-8.61,14.52-3.1,7.54-4.52,15.13-1.28,23.01,4.13,10.03,15.26,12.79,23.33,5.69Z"/>
    </g>
  </g>
</svg>