<?xml version="1.0" encoding="UTF-8"?>
<svg id="Capa_2" data-name="Capa 2" xmlns="http://www.w3.org/2000/svg" viewBox="0 0 535.09 300">
  <defs>
    <style>
      .cls-1 {
        fill: #030303;
        stroke-width: 0px;
      }
    </style>
  </defs>
  <g id="Capa_1-2" data-name="Capa 1">
    <g>
      <path class="cls-1" d="M515.71,219.53c-14.21-20.49-35.43-26.29-59.4-24.82-4.52.28-10.38,2.48-11.56-5.99-2.72-19.47-6.24-38.83-9.41-58.09,1.09-.61,1.76-1.32,2.39-1.29,7.95.41,12.65-1.73,12.23-11.26-.46-10.37-7.55-8.19-13.51-8.47-5.01-.23-10.04-.05-15.42-.05,3.85-13.66,2.17-20.47-5.86-23.07-9.65-3.12-15.9.45-18.38,10.68-1.28,5.29-5.56,3.77-9.64,3.59-9.14-.4-15.17-10.76-23.37-9.2-11.18,2.12-23.36,5.57-32.39,11.31-7.26,4.62-13.27,6.36-20.9,6.48-6.34.1-12.67.26-19.01.27-6.73,0-8.42,3.58-8.62,9.87-.42,13.06,11.18,7.65,17.08,11.12-3.63,21.41-7.17,42.34-10.88,64.22-16.72,0-32.89-.08-49.05.05-4.46.04-6.13-1.78-6.8-6.15-2.96-19.44-6.27-38.83-9.61-59.22,8.02-.09,15.78.14,14.83-11.45-.99-12.14-9.91-8.38-15.96-8.43-45.15-.34-90.31-.3-135.46,0-6.24.04-15.21-3.28-15.76,8.71-.55,11.97,7.64,10.73,15.16,11.05.53.02,1.03,1.05,1.84,1.94-3.57,21.01-7.19,42.28-10.78,63.42-24.66,3.6-42.73,15.54-56.76,34.74-6.14,8.4-11.66,17.67-20.7,23.67v11.89c.58.45,1.58.83,1.68,1.37,5.33,29.41,46.76,45.38,73.83,21.04,12.89-11.59,13.41-11.03,27.86.38,20.06,15.83,42.15,15.58,61.45-.69,12.51-10.54,13.88-10.58,26.08-.63,21.39,17.44,42.1,17.91,62.97.03,9.69-8.31,16.72-8.28,26.48.18,20.61,17.85,42.46,17.66,62.91-.3,9.31-8.18,16.14-8.19,25.5-.24,21.69,18.41,42.37,18.33,63.76-.15,9.38-8.1,16.3-7.55,25.5.5,22.74,19.89,53.86,16.36,69.01-7.18,3.32-5.15,5.41-11.09,8.06-16.66v-7.13c-6.38-12.06-11.66-24.88-19.38-36.01ZM92.46,193.8c2.79-16.78,5.43-32.67,8.05-48.41,36.89,22.34,73.24,22.45,110.58-1.82,2.71,16.16,5.5,32.82,8.42,50.23h-127.04ZM303.98,193.86c2.86-17.02,5.52-32.89,8.16-48.58,37.1,22.41,73.46,22.71,110.52-1.93,2.72,16.38,5.49,33.1,8.38,50.51h-127.06Z"/>
      <path class="cls-1" d="M430.94,59.85c-12.27-30.42-37.63-42.72-81.13-39.46-2.09-6.93,6.06-15.19-3.84-19.46-3.9-1.68-7.81-1.22-10.62,2.47-8.22,10.82,7.71,12.15,8.16,19.55-40.48,20.01-48.1,61.22-38.07,80.46,41.8-14.51,83.63-29.03,125.5-43.56Z"/>
      <path class="cls-1" d="M157.74,40.33c1.13-7.47,11.84-12.92,2.72-20.47-3.07-2.54-6.45-3.13-9.83-.84-11.3,7.63,2.17,14.17,1.41,21.3-39.74,8.28-63.21,31.34-63.75,62.62h134.28c-5.97-37.88-29.1-56.73-64.83-62.61Z"/>
    </g>
  </g>
</svg>