<?xml version="1.0" encoding="UTF-8"?>
<svg id="Capa_2" data-name="Capa 2" xmlns="http://www.w3.org/2000/svg" viewBox="0 0 299.99 300">
  <defs>
    <style>
      .cls-1 {
        fill: #080a09;
        stroke-width: 0px;
      }
    </style>
  </defs>
  <g id="Capa_1-2" data-name="Capa 1">
    <g>
      <path class="cls-1" d="M299.92.35c0,2.35,0,4.46,0,6.58,0,70.89-.02,141.77.07,212.66,0,3.48-.95,5.99-3.42,8.44-23.05,22.9-46.02,45.89-68.96,68.89-1.83,1.83-3.57,3.09-6.42,3.08-72.85-.08-145.7-.07-218.55-.09-.53,0-1.05-.14-1.6-.22-1.58-1.68-.88-3.74-.88-5.6-.03-71.06,0-142.13-.1-213.19,0-3.88,1.06-6.63,3.83-9.38C26.83,48.76,49.66,25.88,72.44,2.96,74.47.92,76.5,0,79.42,0c71.96.07,143.91.05,215.87.06,1.39,0,2.78.17,4.63.28ZM217.19,82.7H10.5v207.09h206.7V82.7ZM281.42,10.59c-1.41-1.16-3.07-.66-4.59-.66-64.23-.03-128.46,0-192.7-.09-3.33,0-5.64,1.04-7.94,3.36-18.59,18.75-37.29,37.39-55.92,56.09-.77.78-2.23,1.32-1.68,3.21.63.03,1.29.1,1.96.1,65.48,0,130.96-.02,196.44.06,2.85,0,4.58-1.22,6.41-3.06,18.38-18.45,36.82-36.85,55.21-55.29,1.07-1.07,2.63-1.86,2.81-3.72ZM227.36,282.68c1.86-1.59,2.68-2.2,3.39-2.91,19.06-19.05,38.07-38.15,57.19-57.14,1.9-1.89,2.14-3.87,2.14-6.25-.02-64.97,0-129.94-.05-194.92,0-1.06.76-2.54-2.1-3.63-1,1.32-2.11,3.2-3.61,4.71-17.74,17.85-35.48,35.7-53.38,53.39-2.65,2.62-3.66,5.22-3.65,8.9.1,63.72.07,127.45.06,191.17,0,1.77,0,3.54,0,6.66Z"/>
      <path class="cls-1" d="M80.03,219.17c2.65,1.35,4.82.85,6.91.86,37.5.04,74.99.04,112.49.04,1.25,0,2.5-.04,3.75.02,1.49.07,3.04.39,3.17,2.2.15,2.13-1.42,2.63-3.19,2.67-1.25.03-2.5.02-3.75.02-38.57,0-77.13.06-115.7-.08-3.71-.01-6.27,1.07-8.85,3.69-15.53,15.77-31.23,31.38-46.88,47.03-1.13,1.13-2.29,2.25-3.54,3.26-.94.75-2.04.65-2.93-.16-.9-.82-1.07-2.05-.39-2.92,1.3-1.69,2.81-3.22,4.32-4.73,15.26-15.28,30.46-30.64,45.89-45.75,2.86-2.8,3.69-5.65,3.68-9.42-.1-38.21-.08-76.42-.09-114.63,0-.71-.04-1.43,0-2.14.15-2.21-.66-5.47,2.59-5.49,3.4-.01,2.47,3.32,2.47,5.46.05,38.21.04,76.42.04,114.63,0,1.91,0,3.82,0,5.45Z"/>
      <path class="cls-1" d="M80.01,42.86c0,5.15.01,10.31,0,15.46,0,1.74-.46,3.42-2.5,3.39-1.95-.03-2.57-1.62-2.57-3.4,0-10.66,0-21.33.04-31.99,0-1.79.72-3.23,2.79-3.07,1.78.13,2.23,1.52,2.23,3.08,0,5.51,0,11.02,0,16.53Z"/>
      <path class="cls-1" d="M257.76,224.97c-5.34,0-10.67,0-16.01.01-1.75,0-3.41-.37-3.49-2.4-.09-2.11,1.61-2.52,3.33-2.52,10.67-.01,21.34,0,32.01,0,1.79,0,3.35.56,3.2,2.64-.15,2.08-1.87,2.27-3.58,2.27-5.16-.02-10.32,0-15.47,0Z"/>
    </g>
  </g>
</svg>