<?xml version="1.0" encoding="UTF-8"?>
<svg id="Capa_2" data-name="Capa 2" xmlns="http://www.w3.org/2000/svg" viewBox="0 0 300.01 300">
  <defs>
    <style>
      .cls-1 {
        fill: #040404;
        stroke-width: 0px;
      }
    </style>
  </defs>
  <g id="Capa_1-2" data-name="Capa 1">
    <g>
      <path class="cls-1" d="M300,148.64c.72,82.75-65.6,150.51-148.5,151.35C68.43,300.83.66,234.13,0,151.19-.65,68.61,65.39,1.26,147.71.02c83.42-1.25,151.51,65.55,152.29,148.63ZM293.27,149.94c-.09-79.22-64.24-143.26-143.45-143.21C70.86,6.78,6.74,70.97,6.74,149.98c0,79.16,64.26,143.38,143.37,143.29,79.12-.1,143.25-64.3,143.17-143.32Z"/>
      <path class="cls-1" d="M85.46,186.33c2.35,0,4.49.01,6.63,0,3.31-.03,5.26-1.96,5.26-5.28.01-16.09.01-32.18,0-48.27,0-3.29-1.97-5.23-5.29-5.26-2.14-.02-4.27,0-6.57,0,0-2.74-.08-5.39.03-8.03.06-1.41,1.14-2.17,2.75-2.19,2.82-.03,5.64-.01,8.46-.01,9.77,0,19.54,0,29.31,0,3.7,0,4.72-.82,5.5-4.38.59-2.7,1.23-5.4,1.78-8.11.15-.74.39-1.07,1.2-1.06,10.44.02,20.89.01,31.43.01.73,3.26,1.45,6.46,2.17,9.66.63,2.84,1.88,3.87,4.79,3.87,12.69,0,25.39,0,38.08,0,2.78,0,3.53.75,3.54,3.52,0,2.18,0,4.36,0,6.72-2.22,0-4.29,0-6.36,0-3.63,0-5.55,1.88-5.55,5.46,0,15.93,0,31.87,0,47.8,0,3.73,1.86,5.54,5.61,5.55,2.03,0,4.06,0,6.25,0,0,2.78.09,5.48-.04,8.16-.06,1.19-1.02,1.9-2.23,2.07-.46.07-.94.03-1.41.03-40.43,0-80.87,0-121.3,0-3.44,0-4.04-.59-4.04-3.99,0-2.03,0-4.05,0-6.28ZM120.59,156.79c-.04,16.21,13.13,29.5,29.27,29.53,16.23.03,29.48-13.09,29.55-29.26.07-16.23-13.18-29.53-29.43-29.54-16.08-.01-29.35,13.21-29.39,29.27ZM109.44,132.45c.94,0,1.88.05,2.81-.01,1.37-.09,2.31-1.04,2.32-2.27,0-1.23-.9-2.3-2.23-2.35-1.92-.08-3.85-.08-5.77.01-1.38.06-2.27,1.1-2.25,2.33.02,1.22.97,2.19,2.32,2.28.93.06,1.87.01,2.81.01ZM190.6,127.79c-.88,0-1.77-.03-2.65,0-1.46.07-2.47.99-2.51,2.25-.04,1.35.96,2.36,2.51,2.4,1.77.05,3.54.05,5.31,0,1.44-.04,2.43-1.03,2.44-2.32,0-1.25-1-2.25-2.44-2.33-.88-.05-1.77,0-2.65,0Z"/>
      <path class="cls-1" d="M80.17,172.58c0,2.62-.03,5.12.01,7.62.01.85-.61.87-1.11,1.04-5.1,1.72-10.1,3.67-14.76,6.39-3.12,1.82-6.09,3.86-8.28,6.83-2.33,3.16-2.37,6.01-.12,9.23,1.73,2.49,4.1,4.29,6.62,5.9,6.77,4.3,14.25,6.9,21.9,9.07,14.68,4.17,29.72,6.18,44.91,7.22,3.43.24,6.86.38,10.31.57.12-.76-.47-.97-.79-1.31-1.34-1.4-2.77-2.7-4.07-4.12-1.44-1.57-1.37-3.91.04-5.41,1.47-1.56,3.94-1.81,5.5-.3,4.27,4.14,8.48,8.35,12.64,12.61,1.53,1.57,1.51,3.82-.02,5.39-4.09,4.18-8.22,8.32-12.4,12.4-1.7,1.66-4.21,1.5-5.75-.16-1.48-1.6-1.42-3.95.24-5.64,1.7-1.73,3.47-3.39,5.21-5.08-.08-.12-.15-.24-.23-.35-2.95-.15-5.91-.27-8.86-.45-16.03-.97-31.9-3.01-47.44-7.23-8.07-2.19-15.97-4.9-23.25-9.11-4.18-2.42-8.05-5.24-10.95-9.2-4.51-6.15-4.39-13.23.34-19.23,1.59-2.02,3.44-3.78,5.48-5.34,5.77-4.41,17.26-9.68,24.83-11.34Z"/>
      <path class="cls-1" d="M219.84,172.43c9.89,3.16,19.37,6.55,27.09,13.41,4.21,3.74,7.17,8.21,6.81,14.16-.34,5.49-3.37,9.54-7.39,12.96-5.65,4.81-12.28,7.86-19.18,10.38-13.01,4.75-26.52,7.38-40.22,9.11-7,.88-14.03,1.43-21.07,1.77-.42.02-.83.05-1.25.05-2.53.05-4.38-1.49-4.53-3.78-.15-2.29,1.62-4.09,4.23-4.26,3.54-.23,7.09-.38,10.63-.68,15.85-1.33,31.52-3.66,46.66-8.75,5.55-1.87,10.94-4.12,15.89-7.29,2.07-1.33,3.99-2.85,5.64-4.7,3.38-3.8,3.47-7.36.16-11.18-3.54-4.09-8.23-6.52-13.03-8.76-2.98-1.39-6.05-2.57-9.2-3.54-.93-.29-1.3-.73-1.26-1.75.09-2.29.03-4.58.03-7.14Z"/>
      <path class="cls-1" d="M164.04,72.29c0-2.56-.02-5.12,0-7.67.06-6.24,4.9-10.98,11.23-11.03,6.45-.05,11.41,4.6,11.5,10.91.08,5.27.08,10.54,0,15.82-.1,6.3-5.01,10.86-11.54,10.84-6.26-.01-11.06-4.66-11.19-10.88-.06-2.66,0-5.32,0-7.99ZM178.8,72.42h0c0-2.45.02-4.91,0-7.36-.02-2.2-1.25-3.43-3.37-3.43-2.14,0-3.36,1.2-3.37,3.42-.02,4.86-.02,9.71,0,14.57.01,2.28,1.31,3.58,3.45,3.54,2.07-.04,3.29-1.32,3.31-3.53.02-2.4,0-4.8,0-7.21Z"/>
      <path class="cls-1" d="M134.99,72.4c2.64,3.56,3.39,7.39,1.83,11.55-1.87,4.99-7.29,7.98-12.63,7.04-5.26-.93-9.24-5.55-9.35-10.84-.05-2.43,1.49-4.25,3.72-4.4,2.24-.15,3.97,1.42,4.27,3.87.25,2.09,1.39,3.37,3.13,3.52,1.54.13,3.07-.98,3.5-2.57.58-2.09-.9-3.91-3.41-4.19-2.86-.32-4.54-2.78-3.61-5.34.64-1.77,2-2.53,3.84-2.69,2.23-.2,3.63-1.97,3.25-3.93-.32-1.61-1.73-2.8-3.32-2.8-1.54,0-2.9,1.1-3.26,2.66-.09.4-.11.83-.17,1.24-.32,2.12-2.07,3.6-4.13,3.49-2.15-.11-3.74-1.78-3.81-4-.14-4.62,2.97-9.08,7.47-10.72,4.63-1.68,9.83-.21,12.83,3.61,3.33,4.24,3.3,9.25-.15,14.49Z"/>
      <path class="cls-1" d="M150.67,68.34c1.71.12,3.14.32,4.49.89,5.26,2.23,8.08,7.85,6.71,13.35-1.36,5.45-6.55,9.05-12.27,8.52-5.49-.51-10.15-5.1-10.12-10.76.05-10.22,3.95-18.77,12.16-25.12,1.83-1.42,4.27-1.07,5.61.62,1.43,1.81,1.19,4.17-.7,5.7-2.29,1.85-4.3,3.92-5.88,6.79ZM154.15,79.73c-.02-1.85-1.6-3.37-3.44-3.32-1.78.05-3.24,1.56-3.25,3.35,0,1.85,1.56,3.44,3.36,3.41,1.84-.03,3.35-1.59,3.33-3.44Z"/>
      <path class="cls-1" d="M92.6,181.6h-7.04v-49.29h7.04v49.29Z"/>
      <path class="cls-1" d="M207.38,132.26h7.03v49.31h-7.03v-49.31Z"/>
      <path class="cls-1" d="M203.79,62.8c-.02,2.9-2.53,5.37-5.43,5.37-2.91,0-5.39-2.5-5.39-5.4,0-2.96,2.42-5.42,5.34-5.43,3-.02,5.5,2.48,5.48,5.47Z"/>
      <path class="cls-1" d="M193.23,112.52v-4.5h8.32v4.5h-8.32Z"/>
      <path class="cls-1" d="M98.47,112.55v-4.54h8.26c.19,1.5.11,2.98.04,4.54h-8.3Z"/>
      <path class="cls-1" d="M125.25,156.87c.08-13.72,11.26-24.8,24.92-24.69,13.69.11,24.69,11.32,24.57,25.04-.12,13.57-11.34,24.54-25,24.44-13.52-.1-24.57-11.29-24.5-24.79ZM149.69,173.59c9.21.03,16.71-7.38,16.76-16.55.04-9.21-7.35-16.73-16.51-16.78-9.28-.06-16.8,7.37-16.85,16.62-.05,9.13,7.46,16.68,16.61,16.71Z"/>
      <path class="cls-1" d="M149.77,144.92c6.66-.03,12.02,5.32,12.04,12.03.03,6.52-5.38,11.95-11.94,12.01-6.63.06-12.08-5.34-12.11-11.99-.03-6.66,5.31-12.02,12.01-12.05Z"/>
    </g>
  </g>
</svg>