<?xml version="1.0" encoding="UTF-8"?>
<svg id="Capa_2" data-name="Capa 2" xmlns="http://www.w3.org/2000/svg" viewBox="0 0 300 149.02">
  <defs>
    <style>
      .cls-1 {
        fill: #030303;
        stroke-width: 0px;
      }
    </style>
  </defs>
  <g id="Capa_1-2" data-name="Capa 1">
    <g>
      <path class="cls-1" d="M183.75,0c36.07,0,72.14,0,108.21,0,4.38,0,7.21,2.12,7.91,5.91.5,2.72-.52,4.9-2.43,6.81-8.95,8.91-17.87,17.86-26.81,26.8-10.82,10.82-21.67,21.61-32.43,32.48-2.02,2.04-4.25,2.91-7.11,2.91-38.19-.05-76.38-.05-114.56,0-3.47,0-5.9-1.2-7.87-4.12-13.13-19.54-26.34-39.03-39.58-58.51-1.83-2.7-2.67-5.4-1.09-8.42C69.62.76,72.48,0,75.75,0c36,.01,72,0,108,0ZM87.86,14.33c.25.51.34.76.48.97,9.98,14.76,19.97,29.51,29.92,44.29.65.97,1.44,1.05,2.43,1.05,35.66-.01,71.33-.01,106.99.01,1.1,0,1.9-.3,2.69-1.09,14.56-14.61,29.15-29.19,43.72-43.79.39-.39,1.08-.64.97-1.44H87.86Z"/>
      <path class="cls-1" d="M156.66,95.96c-2.09,7.78-4.15,15.42-6.2,23.06-2.1,7.84-4.16,15.69-6.28,23.53-1.46,5.43-5.75,7.78-10.3,5.72-1.22-.55-2.13-1.43-2.87-2.53-7-10.34-14.02-20.67-21.02-31.01-17.06-25.21-34.12-50.42-51.18-75.63-4.74-7.01-9.52-13.99-14.21-21.03-.74-1.11-1.52-1.47-2.82-1.46-11.27.06-22.54.05-33.81.03-5.84,0-9.21-4.33-7.52-9.6.85-2.65,3.42-4.65,6.35-4.66,13.66-.04,27.32-.04,40.99,0,2.41,0,4.26,1.26,5.61,3.26,11.39,16.85,22.79,33.69,34.19,50.54,15.18,22.44,30.37,44.88,45.55,67.32.22.33.5.61.99,1.2.68-2.44,1.32-4.63,1.91-6.82,2.63-9.82,5.23-19.64,7.87-29.46,1.36-5.07,3.55-6.73,8.78-6.73,14.55,0,29.1.03,43.65-.02,3.62-.01,6.29,1.28,7.98,4.59,1.27,2.49,2.84,4.82,4.14,7.3.64,1.21,1.25,1.54,2.69,1.28,15-2.71,28.81,6.32,32.05,20.84,3.51,15.77-7.65,31.46-23.38,33.13-12.15,1.29-22.74-5.1-27.7-14.67-5.17-9.98-3.57-22.02,4.11-30.93.22-.26.45-.51.83-.93-1.08-1.9-2.19-3.83-3.29-5.76-.33-.57-.85-.58-1.42-.58-11.81,0-23.63,0-35.68,0ZM217.48,108.73c-.08.53.3.87.52,1.27,1.58,2.79,3.26,5.52,4.75,8.36,1.8,3.43.54,7.57-2.71,9.44-3.28,1.88-7.59.93-9.55-2.3-1.81-2.99-3.51-6.04-5.53-8.9-1.88,1.15-2.17,6.31-.54,10.12,2.61,6.08,9.18,9.29,15.49,7.56,6.19-1.69,10.27-7.73,9.57-14.17-.66-6.14-6.03-11.23-12.01-11.38Z"/>
    </g>
  </g>
</svg>