<?xml version="1.0" encoding="UTF-8"?>
<svg id="Capa_2" data-name="Capa 2" xmlns="http://www.w3.org/2000/svg" viewBox="0 0 231.04 300">
  <defs>
    <style>
      .cls-1 {
        fill: #0c0c0c;
        stroke-width: 0px;
      }
    </style>
  </defs>
  <g id="Capa_1-2" data-name="Capa 1">
    <g>
      <path class="cls-1" d="M75.79,245.84c-1.2-39.63-2.24-79.26-3.62-118.88-.52-14.61-1.77-29.2-9.49-42.25-.94-1.59-.61-3.05-.15-4.67,2.88-10.22,3.99-20.76,5.43-31.24.49-3.55.31-6.72-2.71-9.42-4.81-4.31-9.43-8.83-4.19-15.99,1.17-1.59.01-3.24-1.72-3.9-1.66-.63-2.82.35-3.49,1.82-.91,1.99-1.6,4.08-2.6,6.01-3.83,7.4-14.83,13.52-23.41,6.77-3.56-2.81-6.31-5.81-7.74-10.13-.75-2.27-1.34-5.75-4.91-4.24-3.18,1.34-1.61,4.24-.44,6.11,2.67,4.24,1.36,7.15-2.01,10.29-3.67,3.43-7.12,6.9-5.92,13.13,1.93,10.01,2.58,20.26,5.36,30.13.54,1.93.95,3.76-.22,5.76-7.19,12.2-8.7,25.86-9.17,39.55C3.06,174.88,1.78,225.11.02,275.32c-.22,6.09,1.26,9.04,7.55,9.75,2.37.27,6.09-.36,7.1,2.88.92,2.98,2.88,3.33,5.31,3.7,4.16.63,8.3,1.26,12.4,2.14,2.59.56,5.86.03,6.22,4.43.18,2.16,2.59,1.99,4.52,1.37,4.51-1.45,8.99-3.02,13.59-4.13,4.45-1.09,7.5-2.9,6.08-8.59l-.05-.03c2.99-.68,5.28-1.54,7.59-1.67,5.36-.3,7.03-2.77,6.65-8.12-.75-10.38-.86-20.81-1.17-31.21ZM22.48,35.54h.01c10.73,9.66,21.07,9.77,31.35.48,5.65,4.72,9.83,9.26,7.82,17.48-1.89,7.74-2.36,15.82-4.27,23.62-.63,2.54-1.67,3.53-4.24,3.94-10,1.56-19.94,1.57-29.92-.1-2.13-.36-2.99-1.2-3.55-3.29-2.71-10.07-3.98-20.39-4.92-30.7-.46-5.07,5.37-6.84,7.73-11.44ZM61.84,280.54c0-14.31.18-28.33-.03-42.35-.38-26.5-1-53-1.51-79.49-.02-1.28.01-2.57-.09-3.84-.18-2.28.38-5.39-3.06-5.36-3.47.02-2.98,3.03-2.93,5.36.41,18.63.87,37.28,1.28,55.91.59,25.95,1.16,51.89,1.74,78.22-4.22,1.33-8.34,2.62-13.06,4.11-.12-2.37-.29-4.26-.31-6.15-.41-32.9-.79-65.8-1.18-98.7-.02-1.46-.04-2.93-.07-4.39-.03-1.99-.63-3.94-2.8-4.05-2.59-.13-3.22,1.95-3.19,4.16.14,8.23.35,16.45.45,24.68.29,25.22.54,50.44.8,75.67.01,1.25,0,2.5,0,4.21-5.98-.56-11.42-1.38-16.52-2.73,0-10.95-.2-21.53.03-32.1.82-38.92,1.8-77.84,2.71-116.76.03-1.27.11-2.57-.04-3.83-.19-1.6-1.18-2.77-2.84-2.79-1.7-.02-2.65,1.16-2.77,2.81-.21,2.73-.34,5.47-.39,8.21-.92,42.94-1.83,85.88-2.72,128.83-.05,3.26,0,6.53,0,9.74-3.62.92-6.11-1.15-8.25-1.07,0-13.03-.26-25.59.05-38.14.83-33.07,1.93-66.14,2.9-99.2.37-12.95.45-25.94,3.28-38.69,1.27-5.74,3.31-11.15,6.71-16.39,12.06,2.18,24.22,2.48,36.79-.12,6.54,10.19,8.59,21.31,9.03,32.65,1.33,34.34,2.27,68.69,3.37,103.03.6,18.81,1.23,37.61,1.85,56.53-2.41,1.49-5.09,1.72-9.22,2.03Z"/>
      <path class="cls-1" d="M129.35,241.5c-1.2-39.63-2.24-79.26-3.62-118.88-.52-14.61-1.77-29.2-9.49-42.25-.94-1.59-.61-3.05-.15-4.67,2.88-10.22,3.99-20.76,5.43-31.24.49-3.55.31-6.72-2.71-9.42-4.81-4.31-9.43-8.83-4.19-15.99,1.17-1.59.01-3.24-1.72-3.9-1.66-.63-2.82.35-3.49,1.82-.91,1.99-1.6,4.08-2.6,6.01-3.83,7.4-14.83,13.52-23.41,6.77-3.56-2.81-6.31-5.81-7.74-10.13-.75-2.27-1.34-5.75-4.91-4.24-3.18,1.34-1.61,4.24-.44,6.11,2.67,4.24,1.36,7.15-2.01,10.29-.36.34-.72.68-1.07,1.02.68.71,1.55,1.54,2.64,2.51.49.44.94.9,1.34,1.36,1.68-1.61,3.67-3.19,4.84-5.45h.01c10.73,9.66,21.07,9.77,31.35.48,5.65,4.72,9.83,9.26,7.82,17.48-1.89,7.74-2.36,15.82-4.27,23.62-.63,2.54-1.67,3.53-4.24,3.94-10,1.56-19.94,1.57-29.92-.1-2.13-.36-2.99-1.2-3.55-3.29-.52-1.94-.99-3.89-1.41-5.86-.78,4.68-1.74,9.39-3.05,14.04-.09.32-.15.57-.2.75.86,1.48,1.65,2.96,2.36,4.46.78-1.57,1.66-3.11,2.65-4.65,12.06,2.18,24.22,2.48,36.79-.12,6.54,10.19,8.59,21.31,9.03,32.65,1.33,34.34,2.27,68.69,3.37,103.03.6,18.81,1.23,37.61,1.85,56.53-2.41,1.49-5.09,1.72-9.22,2.03,0-14.31.18-28.33-.03-42.35-.38-26.5-1-53-1.51-79.49-.02-1.28.01-2.57-.09-3.84-.18-2.28.38-5.39-3.06-5.36-3.47.02-2.98,3.03-2.93,5.36.41,18.63.87,37.28,1.28,55.91.59,25.95,1.16,51.89,1.74,78.22-4.22,1.33-8.34,2.62-13.06,4.11-.12-2.37-.29-4.26-.31-6.15-.41-32.9-.79-65.8-1.18-98.7-.02-1.46-.04-2.93-.07-4.39-.03-1.99-.63-3.94-2.8-4.05-2.59-.13-3.22,1.95-3.19,4.16.14,8.23.35,16.45.45,24.68.29,25.22.54,50.44.8,75.67.01,1.25,0,2.5,0,4.21-3.01-.29-5.88-.63-8.63-1.09-.42,1.28-1.09,2.56-2.09,3.71-.46.52-.95.98-1.5,1.38,2.25.37,4.5.78,6.72,1.25,2.59.56,5.86.03,6.22,4.43.18,2.16,2.59,1.99,4.52,1.37,4.51-1.45,8.99-3.02,13.59-4.13,4.45-1.09,7.5-2.9,6.08-8.59l-.05-.03c2.99-.68,5.28-1.54,7.59-1.67,5.36-.3,7.03-2.77,6.65-8.12-.75-10.38-.86-20.81-1.17-31.21Z"/>
      <path class="cls-1" d="M180.68,232.67c-1.2-39.63-2.24-79.26-3.62-118.88-.52-14.61-1.77-29.2-9.49-42.25-.94-1.59-.61-3.05-.15-4.67,2.88-10.22,3.99-20.76,5.43-31.24.49-3.55.31-6.72-2.71-9.42-4.82-4.31-9.43-8.83-4.19-15.99,1.17-1.59.01-3.24-1.72-3.9-1.66-.63-2.82.35-3.49,1.82-.91,1.99-1.6,4.08-2.6,6.01-3.83,7.4-14.83,13.52-23.41,6.77-3.56-2.81-6.31-5.81-7.74-10.13-.75-2.27-1.34-5.75-4.91-4.24-3.18,1.34-1.61,4.24-.44,6.11,2.67,4.24,1.36,7.15-2.01,10.29-.5.47-1,.94-1.48,1.43.53,1.01,1.69,2.27,3.73,4.13,1.78-1.88,4.18-3.55,5.49-6.12h.01c10.73,9.66,21.07,9.77,31.35.48,5.65,4.72,9.83,9.26,7.82,17.48-1.89,7.74-2.36,15.82-4.27,23.62-.63,2.54-1.67,3.53-4.24,3.94-10,1.56-19.94,1.57-29.92-.1-2.13-.36-2.99-1.2-3.55-3.29-.15-.56-.3-1.11-.44-1.67-.72,4.15-1.6,8.29-2.76,12.4-.09.32-.15.56-.2.75.37.65.73,1.29,1.09,1.94.78-1.58,1.66-3.14,2.67-4.68,12.06,2.18,24.22,2.48,36.79-.12,6.54,10.19,8.59,21.31,9.03,32.65,1.33,34.34,2.27,68.69,3.37,103.03.6,18.81,1.23,37.61,1.85,56.53-2.41,1.49-5.09,1.72-9.22,2.03,0-14.31.18-28.33-.03-42.35-.38-26.5-1-53-1.51-79.49-.02-1.28.01-2.57-.09-3.84-.18-2.28.38-5.39-3.06-5.36-3.47.02-2.98,3.03-2.93,5.36.41,18.63.87,37.28,1.28,55.91.59,25.95,1.16,51.89,1.74,78.22-4.22,1.33-8.34,2.62-13.06,4.11-.12-2.37-.29-4.26-.31-6.15-.41-32.9-.79-65.8-1.18-98.7-.02-1.46-.04-2.93-.07-4.39-.03-1.99-.63-3.94-2.8-4.05-2.59-.13-3.22,1.95-3.19,4.16.14,8.23.35,16.45.45,24.68.29,25.22.54,50.44.8,75.67.01,1.25,0,2.5,0,4.21-2.37-.22-4.65-.48-6.87-.81-.24,1.8-.83,3.69-2.11,5.37,1.15.22,2.31.45,3.47.69,2.59.56,5.86.03,6.22,4.43.18,2.16,2.59,1.99,4.52,1.37,4.51-1.45,8.99-3.02,13.59-4.13,4.45-1.09,7.5-2.9,6.08-8.59l-.05-.03c2.99-.68,5.28-1.54,7.59-1.67,5.36-.3,7.03-2.77,6.65-8.12-.75-10.38-.86-20.81-1.17-31.21Z"/>
      <path class="cls-1" d="M230.99,257.76c-.75-10.38-.86-20.81-1.17-31.21-1.2-39.63-2.24-79.26-3.62-118.88-.52-14.61-1.77-29.2-9.49-42.25-.94-1.59-.61-3.05-.15-4.67,2.88-10.22,3.99-20.76,5.43-31.24.49-3.55.31-6.72-2.71-9.42-4.82-4.31-9.43-8.83-4.19-15.99,1.17-1.59.01-3.24-1.72-3.9-1.66-.63-2.82.35-3.49,1.82-.91,1.99-1.6,4.08-2.6,6.01-3.83,7.4-14.83,13.52-23.41,6.77-3.56-2.81-6.31-5.81-7.74-10.13-.75-2.27-1.34-5.75-4.91-4.24-3.18,1.34-1.61,4.24-.44,6.11,2.67,4.24,1.36,7.15-2.01,10.29-.5.47-1,.94-1.48,1.43.53,1.01,1.69,2.27,3.73,4.13,1.78-1.88,4.18-3.55,5.49-6.12h.01c10.73,9.66,21.07,9.77,31.35.48,5.65,4.72,9.83,9.26,7.82,17.48-1.89,7.74-2.36,15.82-4.27,23.62-.63,2.54-1.67,3.53-4.24,3.94-10,1.56-19.94,1.57-29.92-.1-2.13-.36-2.99-1.2-3.55-3.29-.15-.56-.3-1.11-.44-1.67-.72,4.15-1.6,8.29-2.76,12.4-.09.32-.15.56-.2.75.37.65.73,1.29,1.09,1.94.78-1.58,1.66-3.14,2.67-4.68,12.06,2.18,24.22,2.48,36.79-.12,6.54,10.19,8.59,21.31,9.03,32.65,1.33,34.34,2.27,68.69,3.37,103.03.6,18.81,1.23,37.61,1.85,56.53-2.41,1.49-5.09,1.72-9.22,2.03,0-14.31.18-28.33-.03-42.35-.38-26.5-1-53-1.51-79.49-.02-1.28.01-2.57-.09-3.84-.18-2.28.38-5.39-3.06-5.36-3.47.02-2.98,3.03-2.93,5.36.41,18.63.87,37.28,1.28,55.91.59,25.95,1.16,51.89,1.74,78.22-4.22,1.33-8.34,2.62-13.06,4.11-.12-2.37-.29-4.26-.31-6.15-.41-32.9-.79-65.8-1.18-98.7-.02-1.46-.04-2.93-.07-4.39-.03-1.99-.63-3.94-2.8-4.05-2.59-.13-3.22,1.95-3.19,4.16.14,8.23.35,16.45.45,24.68.29,25.22.54,50.44.8,75.67.01,1.25,0,2.5,0,4.21-2.37-.22-4.65-.48-6.87-.81-.24,1.8-.83,3.69-2.11,5.37,1.15.22,2.31.45,3.47.69,2.59.56,5.86.03,6.22,4.43.18,2.16,2.59,1.99,4.52,1.37,4.51-1.45,8.99-3.02,13.59-4.13,4.45-1.09,7.5-2.9,6.08-8.59l-.05-.03c2.99-.68,5.28-1.54,7.59-1.67,5.36-.3,7.03-2.77,6.65-8.12Z"/>
    </g>
  </g>
</svg>