<?xml version="1.0" encoding="UTF-8"?>
<svg id="Capa_2" data-name="Capa 2" xmlns="http://www.w3.org/2000/svg" viewBox="0 0 300 159">
  <defs>
    <style>
      .cls-1 {
        fill: #010101;
        stroke-width: 0px;
      }
    </style>
  </defs>
  <g id="Capa_1-2" data-name="Capa 1">
    <g>
      <path class="cls-1" d="M41.41,96.97c-3.58-20.77-8.87-40.63-19.95-58.8,7.82-3.24,15.72-2.48,23.62-.98,5.25,1,10.47,2.39,15.3,4.65,14.8,6.92,29.8,6.09,45.01,1.82,19.27-5.41,36.95-14.58,54.93-23.04,13.89-6.54,27.87-12.78,42.5-17.6,19.48-6.41,36.83-2.35,52.88,9.55,9.32,6.91,17.08,15.33,24,24.66-6.98,7.85-9.49,17.78-12.52,27.39-2.97,9.42-5.37,19.02-8.02,28.53-.35,1.26-.72,2.51-1.09,3.82H41.41Z"/>
      <path class="cls-1" d="M47.06,143.3c-3.69,0-7.37.03-11.06,0-6.55-.06-10.67-3.62-10.93-10.23-.96-23.8-7.3-46.33-15.56-68.46-.91-2.44-2.02-4.3-4.55-5.62-3.85-2.01-5.66-6.97-4.72-11.05,1.05-4.58,4.91-7.99,9.55-8.47,4.96-.5,8.68,1.59,10.84,5.85,8.49,16.73,13.17,34.62,16.21,53.01.15.9.38,1.79.6,2.85h223.8c1.3-1.16.99-2.76,1.28-4.14,3.77-17.84,10.25-34.8,16.64-51.79,1.61-4.29,6.06-6.39,11.24-5.77,4.61.56,8.46,4.11,9.39,8.66.88,4.27-1.2,9.34-5.31,11.13-2.94,1.28-4.08,3.28-5.06,6.04-7.56,21.12-11.09,43.14-14.93,65.11-.34,1.96-.87,3.92-1.62,5.76-2.39,5.86-4.35,7.11-10.58,7.11-3.14,0-6.27,0-10.46,0,3.09,3.05,5.42,5.37,7.77,7.66,2.14,2.09,2.73,4.43.51,6.66-2.24,2.24-4.59,1.56-6.67-.53-3.87-3.88-7.79-7.71-11.6-11.66-1.38-1.43-2.76-2.17-4.85-2.17-58.03.06-116.06.06-174.09.01-1.89,0-3.24.54-4.55,1.92-3.79,3.96-7.74,7.76-11.59,11.66-2.16,2.18-4.56,3.17-6.95.72-2.38-2.45-1.38-4.84.88-6.93,2.25-2.08,4.43-4.24,6.65-6.36-.1-.32-.2-.64-.29-.97Z"/>
    </g>
  </g>
</svg>