<?xml version="1.0" encoding="UTF-8"?>
<svg id="Capa_2" data-name="Capa 2" xmlns="http://www.w3.org/2000/svg" viewBox="0 0 195.06 300">
  <defs>
    <style>
      .cls-1 {
        fill: #030303;
        stroke-width: 0px;
      }
    </style>
  </defs>
  <g id="Capa_1-2" data-name="Capa 1">
    <g>
      <path class="cls-1" d="M185.25,281.22c-1.19-.67-2.27-.42-3.3-.42-16.66-.02-33.32,0-49.98-.03-1.61,0-3.08.25-4.58.9-12.48,5.38-25.51,7.13-38.96,5.59-7.2-.83-14.19-2.66-20.83-5.62-1.17-.52-2.33-.86-3.63-.86-17.5.02-35.01.01-52.51.01-.41,0-.82.07-1.64.15,0,4.22,0,8.39,0,12.55,0,4.21-1.61,6.42-4.72,6.52-3.27.1-5.1-2.21-5.1-6.53C0,247.07,0,200.68,0,154.28c0-16.66,0-33.32,0-49.98,0-1.05-.06-2.14.2-3.14.67-2.56,2.41-3.98,5.08-3.79,2.84.2,4.29,2.1,4.46,4.76.2,3.05.07,6.11.08,9.17,0,12.96,0,25.92,0,39.05h11.46c.61-1.11.29-2.29.29-3.41.02-23.62-.06-47.24.04-70.85.14-33.71,21.19-62.56,53.06-72.6,5.53-1.74,11.24-3.11,17.11-3.39,18.18-.86,35.05,3.13,49.93,13.95,15.04,10.93,24.98,25.41,29.42,43.52,1.55,6.31,2.34,12.74,2.33,19.26-.04,23.3-.01,46.6-.01,69.91v3.59h11.5c.57-1.09.29-2.26.29-3.38.02-14.44.01-28.89.02-43.34,0-4.08,1.77-6.33,4.93-6.29,3.15.04,4.86,2.26,4.86,6.43,0,63.37,0,126.74,0,190.1,0,3.89-1.75,6.06-4.84,6.13-3.13.07-4.95-2.23-4.96-6.27,0-4.2,0-8.4,0-12.5ZM163.65,143.62c0-22.25,0-44.5,0-66.74,0-4.01-.3-7.99-.94-11.96-7.14-44.22-56.75-68.92-96.03-47.43-22.96,12.56-34.96,32.46-35.14,58.69-.3,45.13-.11,90.26-.07,135.38.02,17.27,5.93,32.3,17.55,45.11,9.77,10.78,22.19,16.89,35.99,20.56,2.97.79,6.06.67,9.15.74,5.97.13,11.84-.23,17.64-1.58,30.96-7.22,51.85-33.57,51.85-65.39,0-22.46,0-44.92,0-67.38ZM185.04,270.83v-110.3h-11.57c0,16.54,0,32.87,0,49.2,0,5.28-.35,10.52-1.3,15.73-2.56,14.13-8.5,26.65-18.31,37.11-2.57,2.73-5.08,5.55-8.2,8.27h39.38ZM10,160.48v110.22h39.31c-.45-.49-.64-.73-.87-.93-18.28-15.91-26.93-36.1-26.85-60.2.04-12.96,0-25.92,0-38.87v-10.21h-11.6Z"/>
      <path class="cls-1" d="M38.59,143.74c0-24.14-.79-48.31.21-72.41,1.11-26.83,21.5-48.13,46.11-53.2,5.46-1.12,11-1.74,16.6-1.26,25.92,2.24,48.45,19.22,54.08,48.2.68,3.49,1.03,7.16,1.03,10.82-.06,45.54.08,91.08-.08,136.62-.13,36.18-32.53,63.58-68.48,57.67-24.83-4.09-43.22-21.94-48.59-46.84-.77-3.57-1.01-7.27-1-10.97.06-22.88.03-45.75.03-68.63.03,0,.06,0,.09,0ZM146.77,143.89c0-22.77,0-45.54,0-68.31,0-2.43-.17-4.83-.53-7.24-3.88-25.63-26.73-43.51-53.32-41.69-24.31,1.66-44.58,23.68-44.62,48.66-.07,45.44-.02,90.87-.05,136.31,0,4.03.45,7.98,1.37,11.89,5.52,23.49,29.22,40.35,52.67,37.49,25.67-3.13,44.47-23.76,44.48-48.8,0-22.77,0-45.54,0-68.31Z"/>
      <path class="cls-1" d="M130.53,117.99c.36,1.92-.57,3.12-1.71,4.26-17.65,17.64-35.28,35.3-52.94,52.93-2.63,2.62-5.66,2.75-7.76.5-1.96-2.1-1.71-5.02.82-7.56,17.63-17.66,35.29-35.29,52.93-52.95,1.78-1.78,3.73-2.73,6.22-1.56,1.93.91,2.89,2.34,2.44,4.38Z"/>
      <path class="cls-1" d="M71.83,150.59c-2.14.47-3.62-.52-4.43-2.49-.95-2.31-.27-4.28,1.46-6,5.67-5.64,11.31-11.31,16.96-16.97,3.27-3.28,6.52-6.58,9.83-9.82,2.61-2.56,5.36-2.77,7.54-.7,2.16,2.06,1.96,5.17-.62,7.77-8.83,8.87-17.7,17.71-26.56,26.56-1.14,1.14-2.29,2.23-4.19,1.64Z"/>
    </g>
  </g>
</svg>