<?xml version="1.0" encoding="UTF-8"?>
<svg id="Capa_2" data-name="Capa 2" xmlns="http://www.w3.org/2000/svg" viewBox="0 0 300 291.37">
  <defs>
    <style>
      .cls-1 {
        fill: #060606;
        stroke-width: 0px;
      }
    </style>
  </defs>
  <g id="Capa_1-2" data-name="Capa 1">
    <path class="cls-1" d="M266.18,66.5c-2.58,1.43-3.43,3.36-3.42,6.17.12,33.74.11,67.47.13,101.21q0,3.62,3.52,3.74c3,.11,6.06-.05,9,.43,7.86,1.26,12.92,7.08,13.26,15.21.22,5.22.09,10.45.1,15.67.04,14.17.1,28.33.09,42.5,0,9.27-4.19,15.74-12.27,18-3.02.84-4.01,2.36-5.03,5.03-4,10.47-12.02,16.1-23.04,16.68-10.62.56-18.46-4.65-23.49-13.89-.98-1.81-2.18-1.7-3.66-1.7-44.08,0-88.17,0-132.25,0-3.81,0-7.61,0-11.41-.1-1.49-.04-2.33.38-3.04,1.86-4.29,8.85-14.29,14.61-24.05,14.02-9.34-.56-19.4-8.16-22.36-17.16-.68-2.07-1.63-3.04-3.75-3.7-6.79-2.12-11.91-6.14-13.48-13.54-.22-1.03-.27-2.11-.27-3.16-.03-20.01-.04-40.02-.04-60.04,0-9.13,5.83-15.31,15.01-15.87,2.74-.17,5.49-.31,8.22-.19,2.06.09,2.54-.67,2.51-2.6-.09-8.06-.04-16.12-.04-24.17,0-26.03-.05-52.07.08-78.1.02-3.3-2.48-4.41-4.07-6.61-2.63,2.75-5.5,4.94-8.97,6.15-7.42,2.57-15.69-.91-20.12-8.36-5.26-8.84-4.35-18.66,2.66-26.17,9.36-10.03,18.84-19.94,28.29-29.89C39.45,2.51,45.54.06,53.22.08,117.04.25,180.87.29,244.69,0c9.01-.04,15.92,2.93,21.87,9.22,9.19,9.71,18.45,19.34,27.6,29.09,5.55,5.92,7.32,12.94,4.57,20.6-2.68,7.49-8,12.47-16.03,13.89-6.61,1.17-11.87-1.7-16.51-6.3ZM77.61,265.43h144.58c1.26-14.33,9.85-21.75,18.98-23.64,15.71-3.25,25.79,3.97,31.36,18.33,4.87-1.2,6.32-2.72,6.39-7.53.13-8.05,0-16.11,0-24.17,0-11.33.06-22.66-.01-33.99-.02-3.65-1.94-5.62-5.53-6.32-2.1-.41-4.22-.46-6.34-.46-78.42.01-156.83.02-235.25.06-2.03,0-4.07.18-6.07.49-3.81.59-5.21,2.22-5.21,6.07,0,19.21.05,38.42.1,57.64,0,1.87.15,3.73,1.24,5.35,1.18,1.75,2.95,2.69,4.94,2.63,1.69-.05,1.52-1.98,1.97-3.09,6.96-17.01,28.03-21.33,41.11-8.4,4.74,4.69,6.91,10.53,7.73,17.04ZM237.32,141.16v36.28h15.39v-104.07c-6.61.17-12.12-1.85-16.23-7.04-4.15,4.35-8.81,6.94-14.69,6.87-5.91-.06-10.37-2.98-14.19-7.5-4.29,4.6-8.8,8.29-15.33,8.2-6.43-.09-11.51-2.87-15.66-7.71-3.77,3.97-8.05,6.5-13.35,6.79-5.32.29-9.73-2-13.56-5.47-6.26,7.08-17.73,7.65-26.16-1.05-9.79,11.04-22.74,8.17-30.27.42-8.93,8.78-22.39,9.35-31.03-.61-4.27,4.28-8.92,7.84-15.66,7.1v104.2h16.04v-36.35c-3.88-.33-7.61-1.4-7.49-5.87.12-4.47,4.36-3.98,7.37-4.5.45-1.09.24-2.07.22-3.03-.05-2.66-.22-5.31-.16-7.96.07-3.4,2.13-5.65,5.02-5.71,2.64-.06,4.44,1.91,4.75,5.3.14,1.49.11,3.01.12,4.51.02,2.28,0,4.57,0,6.97h9.54c.29-3.36-.03-6.18-2.42-8.76-2.22-2.39-.61-7.11,2.37-7.43,3.58-.38,7.25-.68,10.84-.09,3.57.59,5.07,4.33,2.72,7.03-2.45,2.81-2.31,5.91-2.13,9.32h19.83c.34-5.06-.03-6.9-2.23-11.38-1-2.04.65-5.01,2.9-5.11,3.18-.13,6.37-.22,9.55-.22,2.26,0,3.48,1.46,4.22,3.42.59,1.57,1.01,3.39-.44,4.44-3.22,2.33-2.4,5.66-3,8.84h102.86c.05-.73.1-1.33.12-1.93.09-3.71-.35-7.44.41-11.13.48-2.34,1.77-3.76,4.35-3.81,2.49-.05,4,1.12,4.7,3.44.46,1.54.54,3.13.53,4.73-.02,2.71,0,5.42,0,8.05,5.49,1,6.71,2.11,6.69,5.87-.02,3.27-.86,3.92-6.51,4.95ZM280.17,38.78c-7.07-7.7-13.73-14.68-20.07-21.93-4.38-5.01-9.36-6.98-16.21-6.95-63.45.26-126.9.19-190.35.08-5.6,0-9.92,1.93-13.59,5.9-5.77,6.24-11.55,12.46-17.31,18.7-1.15,1.25-2.2,2.61-3.54,4.2h261.06ZM227.23,141.1H72.56c-.14.35-.26.51-.26.67.06,11.15.16,22.31.18,33.46,0,2.3,1.28,2.42,3.09,2.42,49.65-.03,99.3-.02,148.95-.04.93,0,1.96.34,2.72-.39v-36.12ZM247.78,251.15c-8.82.04-15.51,6.52-15.52,15.03-.01,8.49,6.57,14.97,15.21,14.98,8.48.01,15.45-6.69,15.47-14.86.01-8.3-6.88-15.19-15.15-15.15ZM53.39,251.11c-9.11-.04-16.26,6.66-16.28,15.27-.02,8.38,6.46,14.77,15.03,14.81,8.4.04,14.94-6.29,15.03-14.55.09-8.44-6.16-15.49-13.77-15.52ZM181.05,49.17c-.41,5.41.84,9.97,5.47,13.04,3.07,2.03,6.36,2.12,9.5.26,4.98-2.95,5.94-7.9,6.45-13.3h-21.42ZM88.17,49.24h-21.41c.24,8.73,4.29,14.2,10.49,14.36,6.61.17,10.3-4.6,10.92-14.36ZM97.68,49.13c.01,5.64,1.27,10.41,6.4,13.28,3.35,1.87,6.64,1.56,9.74-.59,4.43-3.06,4.99-7.73,5.37-12.69h-21.51ZM36.24,49.19c-.79,7.83,3.49,13.79,10.11,14.15,6.58.36,10.83-5.07,10.92-14.15h-21.02ZM261.53,49.19h-20.69c-.14,8.84,3.98,14.43,10.44,14.31,6.66-.13,10.46-5.31,10.25-14.31ZM211.93,49.18c-.25,6.4,2.16,10.89,6.87,13.01,3.96,1.78,7.79.66,10.08-3.03,1.86-2.99,2.39-6.35,2.66-9.98h-19.61ZM289.39,49.15h-18.53c.41,4.84.68,9.52,5.24,12.4,3.1,1.96,6.49,1.8,9.38-.55,3.72-3.02,4.53-7.1,3.91-11.86ZM171.82,49.19h-17.05c0,2.26-.17,4.37.04,6.44.38,3.71,3.12,6.67,6.39,7.2,3.4.56,6.74-1.25,8.52-4.53,1.52-2.8,1.43-5.93,2.1-9.12ZM26.43,49.02c-4.55,0-8.69,0-12.82,0-3.66,0-3.85.21-3.76,3.91.02.62.05,1.24.15,1.84.69,4.21,4.16,7.71,7.97,8.06,3.38.31,6.72-1.95,7.99-5.69.88-2.61.41-5.36.47-8.13ZM128.86,49.16c-.3,3.16-.09,6.13,1.16,8.92,2.37,5.29,8.85,6.52,12.3,2.25,2.62-3.25,3.01-7.14,2.82-11.18h-16.28Z"/>
  </g>
</svg>