<?xml version="1.0" encoding="UTF-8"?>
<svg id="Capa_2" data-name="Capa 2" xmlns="http://www.w3.org/2000/svg" viewBox="0 0 300 299.84">
  <defs>
    <style>
      .cls-1 {
        fill: #080808;
        stroke-width: 0px;
      }
    </style>
  </defs>
  <g id="Capa_1-2" data-name="Capa 1">
    <g>
      <path class="cls-1" d="M226.5,114.8c13.88-2.55,21.4,4.2,25.84,15.27,2.14,5.34,5.49,7.12,11.06,6.5,4.55-.51,9.2-.19,13.81-.07,12.64.33,22.33,9.33,22.53,21.9.35,21.93.34,43.88,0,65.81-.19,12.58-9.87,21.72-22.45,21.97-8.75.18-17.51.03-26.16.03-1.81,2.11-.9,4.39-1.03,6.47-.32,5.11-1.95,10.27-6.28,12.42-6.82,3.39-6.71,8.66-6.43,14.64.2,4.38.02,8.77.06,13.16.04,4.55-2.02,6.97-6.73,6.94-5.7-.04-11.41,0-17.11,0-4.66,0-6.74-2.53-6.76-7.01-.01-3.95-.18-7.91.03-11.84.35-6.58.34-12.22-6.77-16.42-6.07-3.58-6.16-11.08-5.55-18.35-7.69,0-14.65,0-21.61,0-17.33,0-22.4-3.44-28.75-19.74-2.22,0-4.6,0-6.98,0-39.05,0-78.1.03-117.15,0-12.75-.01-20.05-7.25-20.06-19.95C0,144.43-.01,82.35.03,20.26.03,7.62,7.43.06,19.96.04c62.3-.06,124.61-.06,186.91,0,12.28.01,19.58,7.45,19.61,19.72.05,29.18.02,58.35.02,87.53,0,2.15,0,4.31,0,7.5ZM134.56,116.93c-14.34-14.08-15.65-31.8-3.82-44.46,11.24-12.04,29.77-12.92,42.04-2.01,13.67,12.16,13.25,29.91-1.37,46.6,7.27,4.53,12.68,10.9,17.42,17.99,5.67-7.34,7.93-15,7.74-24.07-.52-24.56-.15-49.14-.22-73.71,0-2.29.85-4.82-.79-6.66H30.44v120.93c4.93-14,12.01-26.23,24.79-34.39-14.35-16.71-14.96-33.85-1.89-46.2,11.5-10.86,29.59-10.84,41.11.08,5.66,5.36,8.8,11.99,9.32,19.73.71,10.5-3.65,18.97-11.72,26.2,10.05,6.12,16.31,14.96,21.4,25.33,4.81-10.77,11.28-19.14,21.11-25.36ZM215.81,114.18c0-30.7,0-60.74,0-90.78,0-10.85-1.79-12.67-12.46-12.67-60.12,0-120.24,0-180.37,0-10.25,0-12.24,1.99-12.24,12.37,0,60.34,0,120.68,0,181.02,0,9.59,2.04,11.68,11.46,11.68,38.84.01,77.68.02,116.51-.03,1.87,0,3.93.7,5.61-.71v-39.16c-2.68,0-5.04,0-7.4,0-34.01,0-68.02.02-102.03-.01-11.27,0-15.49-4.25-15.49-15.5-.02-41.91-.02-83.82,0-125.73,0-11.21,4.16-15.26,15.6-15.26,52.22-.01,104.45-.01,156.67,0,11.64,0,15.6,4.03,15.61,15.97.03,23.92-.02,47.83.04,71.75,0,2.31-.66,4.76.65,7.05h7.85ZM221.98,235.52c17.77,0,35.54.06,53.32-.02,8.88-.04,13.68-4.44,13.76-13.14.18-20.62.17-41.25,0-61.87-.07-8.82-4.75-13.24-13.6-13.26-35.32-.06-70.65-.06-105.97,0-9.71.01-14.02,4.37-14.05,14.11-.06,19.97-.05,39.93,0,59.9.02,9.97,4.39,14.26,14.55,14.28,17.33.04,34.67.01,52,.02ZM107.23,164.62c-.46-11.77-5.02-23.58-12.17-31.4-7.85-8.59-17.36-12.68-28.91-9.18-14.37,4.35-27.11,25.38-25.01,40.59h66.09ZM175.24,135.82c-4.19-6.68-10.18-10.94-17.42-12.4-19.54-3.93-41.39,20.07-37.65,41.22h23.96c2.38-22.51,5.39-25.26,31.11-28.82ZM54.76,92.8c0,10.71,8.43,19.15,19.1,19.15,10.55,0,19.27-8.67,19.25-19.14-.01-10.47-8.73-19.15-19.26-19.17-10.61-.03-19.1,8.5-19.09,19.17ZM152.46,111.91c10.63.13,19.37-8.25,19.58-18.79.21-10.38-8.47-19.31-18.94-19.5-10.6-.19-19.24,8.2-19.43,18.85-.18,10.7,8.13,19.3,18.79,19.43ZM243.01,136.33c-4.91-11.22-4.99-11.27-16.25-11.26-3.5,0-7,0-10.49,0-9.78,0-11.63,1.46-14.31,11.25h41.05ZM205.74,246.52c-1.21,10.17.79,12.54,10.47,12.58,3.95.01,7.9,0,11.85,0,9.7-.02,11.8-2.38,10.93-12.58h-33.25ZM226.29,288.69c.47-6.24.54-12.41-.05-18.57h-8.17v18.39c2.79.93,5.29.77,8.22.18Z"/>
      <path class="cls-1" d="M75.57,267.35c0,5.29,0,9.87,0,14.45,0,3.45-1.15,6.25-5.02,6.41-4.16.18-5.76-2.58-5.82-6.35-.08-4.58-.02-9.17-.02-14.51-5.16,0-9.91-.07-14.66.02-3.74.07-6.03-1.73-6.04-5.33,0-3.65,2.46-5.4,6.08-5.4,4.58,0,9.15,0,14.59,0,0-4.76-.02-9.26,0-13.76.02-3.94,1.31-7.28,5.82-7.07,4.11.19,5.12,3.46,5.1,7.11-.03,4.36,0,8.72,0,13.72,5.1,0,9.87-.02,14.64,0,3.57.02,6.03,1.58,6.06,5.37.04,3.8-2.31,5.38-5.96,5.35-4.58-.04-9.15,0-14.76,0Z"/>
      <path class="cls-1" d="M269.15,49.83c0-3.14-.11-5.55.02-7.94.25-4.33-1.5-10.49,5.54-10.37,6.36.1,5.15,5.84,5.28,10.09.08,2.57.01,5.14.01,8.23,3.97,0,7.43.11,10.88-.03,3.96-.16,7.39.87,7.52,5.3.13,4.48-3.22,5.66-7.22,5.53-3.47-.11-6.94-.02-11.19-.02,0,4.25.05,8.12-.01,11.99-.06,3.72-1.42,6.57-5.68,6.48-3.96-.08-5.07-2.88-5.12-6.29-.06-3.89-.01-7.78-.01-12.21-4.59,0-8.49-.07-12.39.02-3.71.08-6.1-1.75-6.16-5.28-.05-3.55,2.36-5.48,6.02-5.5,3.92-.02,7.83,0,12.52,0Z"/>
      <path class="cls-1" d="M222.63,156.25c19.45.17,34.92,15.85,34.87,35.32-.05,19.51-16.16,35.12-36.01,34.89-19.24-.22-34.85-16.35-34.54-35.7.31-19.36,16.16-34.69,35.68-34.51ZM222.49,166.98c-13.62-.11-24.82,10.92-24.81,24.41.01,13.16,11.03,24.23,24.26,24.36,13.38.13,24.35-10.48,24.63-23.81.28-13.75-10.44-24.86-24.08-24.97Z"/>
      <path class="cls-1" d="M174.14,167.48c-1.53,0-3.06.06-4.58-.01-3.34-.15-5.38-1.83-5.35-5.28.03-3.45,2.21-5.14,5.42-5.35,3.04-.2,6.11-.18,9.16-.02,3.55.18,5.81,2.01,5.66,5.77-.14,3.52-2.48,4.85-5.73,4.92-1.53.03-3.06,0-4.58,0,0,0,0-.02,0-.03Z"/>
    </g>
  </g>
</svg>