<?xml version="1.0" encoding="UTF-8"?>
<svg id="Capa_2" data-name="Capa 2" xmlns="http://www.w3.org/2000/svg" viewBox="0 0 155.19 300">
  <defs>
    <style>
      .cls-1 {
        fill: #050505;
        stroke-width: 0px;
      }
    </style>
  </defs>
  <g id="Capa_1-2" data-name="Capa 1">
    <g>
      <path class="cls-1" d="M147.33,240.9c-7.65.33-15.32.09-23.18.09v-111.81h17.96c13.06,0,14.24-1.5,12.39-14.75-.35-2.48-1.16-4.18-3.65-4.31-8.54-.44-12.69-8.28-19.54-11.37-9.89-4.46-6.61-13.14-7.39-20.6-.05-.51-.35-.99-.63-1.74-.85-.23-1.85-.73-2.85-.74-28-.06-55.99-.02-83.98-.14-4.94-.02-5.4,2.66-5.56,6.65-.16,3.8,2.21,8.65-1.61,11.29-8.21,5.67-15.1,13.19-24.87,16.76-7.51,2.74-2.91,9.71-3.6,14.7-.66,4.77,3.6,4.24,6.76,4.25,7.44.02,14.89,0,23,0v111.81c-8.01,0-15.45-.02-22.89,0-3.4.01-8.08-.68-7,4.7.99,4.92-4.27,11.27,4.31,14.81,10.47,4.31,18.63,12.32,27.92,20.39-9.12,4.96-7.35,12.06-6.58,19.12h102.12c.04-6.72,2.71-13.29-4.72-17.54-1.92-1.1-1.49-3.53.12-4.8,7.3-5.77,14.02-14.21,22.3-16.27,9.8-2.44,7.83-7.68,8.21-13.69.34-5.33-1.91-7.02-7.05-6.8ZM148.1,119.88c-.42.83-.83,1.67-1.25,2.5h-22.22c-1.79-3.99-.86-6.42,3.64-5.61,6.54,1.18,14.72-3.53,19.83,3.1ZM134.27,108.58c-13.99,5.58-17.18-5.57-22.65-12.74,9.47.69,14.24,8.87,22.65,12.74ZM94.63,240.77h-36.55c-2.46-10.77-9.82-16.62-20.32-19v-65.2c6.76-1.14,12.33-3.82,14.15-11.03.41-1.62,1.44-2,2.83-2.2,8.13-1.17,12.35-6.35,13.64-14.04h17.24c1.16,7.71,5.41,12.96,13.6,14.06,1.58.21,2.35.93,2.77,2.31,2.23,7.32,7.72,10.35,15.07,10.68v65.06c-11.25,1.96-19.52,7.72-22.44,19.37ZM116.72,228.9v11.9h-14.74c2.23-7.51,7.16-10.84,14.74-11.9ZM51.15,240.51h-12.83c-1.35-3.27-.48-6.89-.46-10.76,7.09.2,10.28,4.53,13.29,10.76ZM38.31,149.12v-19.62h22.87c-1.72,7.94-7.83,6.98-13.25,7.39-3.43,3.72-.97,11.91-9.62,12.22ZM93.04,129.49c8.02-.26,15.51-1.29,23.53.06v19.22c-1.03.27-1.53.54-2.01.5-7.68-.66-4.31-10.1-9.23-12.09-4.44-1.8-10.82.36-12.29-7.69ZM116.73,122.54c-21.69,0-43.11-.01-64.52.02-3.16,0-6.34.02-9.47.37-4.95.56-5.72-1.7-4.35-6.25,19.68,0,39.31.03,58.94-.02,4.77-.01,9.55-.31,14.32-.4,3.64-.07,6.54.71,5.07,6.28ZM43.28,109.92c4.52-11.52,8.82-14.6,20.32-14.6,7.44,0,14.98.78,22.3-.18,12.28-1.6,21.03,2.19,25.96,14.78H43.28ZM38.25,82.6h78.62c1.36,3.97.88,6.14-4.27,6.11-23.42-.14-46.85-.12-70.27,0-4.66.02-5.33-2.02-4.07-6.1ZM30.34,122.3H8.34c-2.61-5.23.44-5.52,4.4-5.67,17.67-.67,17.66-.74,17.59,5.67ZM20.52,109.08c7.6-4.48,12.65-12.97,22.79-14.22-6.62,14.01-9.15,15.63-22.79,14.22ZM18.55,261.13c11.2-2.79,18.41-.3,21.65,10.08-9.57,2.63-13.77-6.03-21.65-10.08ZM116.81,281.72H36.18c7.93-4.73,75.73-4.35,80.63,0ZM41.85,260.38h70.24c-3.18,8.03-7.8,12.34-17.22,11.47-10.55-.98-21.33-.95-31.89-.02-9.99.88-17.24-1.62-21.13-11.45ZM121.87,293.51H32.76c-.88-4.57,1.65-4.39,4.16-4.39,26.83.02,53.67.01,80.5,0,2.7,0,5.7-.35,4.44,4.38ZM114.09,271.4c3.85-9.07,9.25-13.75,19.69-10.2-6.43,3.86-10.15,11.43-19.69,10.2ZM140.99,253.58c-29.5.02-59.01.01-88.51.01-13.33,0-26.67-.05-40,.04-3.67.03-6.75-.11-4.79-5.75h139.27c2.17,6.75-2.46,5.7-5.97,5.71Z"/>
      <path class="cls-1" d="M40.51,69.34c3.19,1.23,4.01-1.73,4.77-3.94,2.18-6.32,6.08-9.95,11.23-11.66,4.31-.75,8.65-1.09,13-1.23,2.66-.02,5.33-.07,8-.08,2.66.02,5.33.06,8,.08,4.35.14,8.69.48,13,1.23,5.15,1.71,9.05,5.34,11.23,11.66.76,2.21,1.58,5.17,4.77,3.94,2.81-1.09,2.28-3.81,1.53-6.21-1.72-5.53-5.06-9.8-9.83-13.1-3.32-2.29-7.13-3.07-10.98-3.93-.33-.08-.66-.15-.99-.23-1.27-.29-2.54-.6-3.8-1,.77-5.01-.93-9.03-3.95-12.47,10.18-10.24,11.13-20.14,2.86-27.87C86.08,1.49,81.91,0,77.73,0c-.08,0-.16,0-.24,0-.08,0-.16,0-.24,0-4.17,0-8.34,1.49-11.6,4.53-8.27,7.73-7.33,17.63,2.86,27.87-3.02,3.44-4.72,7.47-3.95,12.47-1.25.4-2.53.71-3.8,1-.33.07-.66.15-.99.23-3.85.86-7.67,1.64-10.98,3.93-4.77,3.3-8.11,7.57-9.83,13.1-.75,2.4-1.28,5.12,1.53,6.21ZM83.47,45.23c-.02.08-.03.15-.05.23h-11.85c-.02-.08-.03-.15-.05-.23-.71-5.05.91-8.61,5.97-8.66,5.07.05,6.68,3.61,5.97,8.66ZM67.43,16.76c.43-5.94,3.78-9.53,9.94-10.02.04,0,.08,0,.13,0,.04,0,.08,0,.13,0,6.16.49,9.51,4.08,9.94,10.02,0,5.72-4.48,10.57-9.73,10.86-.11,0-.22,0-.33,0-.11,0-.22,0-.33,0-5.26-.28-9.74-5.14-9.73-10.86Z"/>
      <path class="cls-1" d="M14.27,232.94c3.8.22,3.83-2.93,3.83-5.64.02-29.3.01-58.59,0-87.89,0-2.77-.12-5.81-3.91-5.57-3.54.23-2.73,3.4-2.74,5.61-.08,14.38-.04,28.77-.04,43.15,0,14.92-.03,29.83.03,44.75.01,2.24-.65,5.4,2.81,5.6Z"/>
      <path class="cls-1" d="M140.57,133.88c-4.39-.35-3.87,3.37-3.87,6.26,0,28.76-.01,57.53,0,86.29,0,2.83-.68,6.65,3.7,6.44,3.84-.18,2.91-3.82,2.93-6.3.07-14.12.03-28.23.03-42.35,0-14.65.05-29.3-.05-43.95-.02-2.43,1.13-6.1-2.75-6.41Z"/>
      <path class="cls-1" d="M68.17,199.41c2.03,1.55,4.09,2.96,6.29.78,2.58-2.56.41-4.24-1.59-5.7-5.55-4.05-4.64-8.99-1.9-14.07,1.84-3.41,3.95-6.68,5.94-10.01,8.03,7.89,9.37,14.09,4.35,22.27-1.39,2.27-2.75,4.22-.12,6.05,2.82,1.97,4.33-.66,5.8-2.42,1.88-2.25,3.19-4.77,3.66-7.8,1.42-9.17-5.7-24.5-13.71-28.94-2.8-1.55-5.63-1.46-5.75,2.35-.21,6.26-3.65,10.9-6.46,16-4.51,8.19-2.94,16.59,3.49,21.48Z"/>
      <path class="cls-1" d="M84.94,206.21c-21.8-.32-22.89-1.58-22.03,19.53.13,3.09-1.82,8.42,3.04,8.43,5.51.01,3.19-5.58,3.46-8.88.32-3.91.08-7.88.08-12.44,5.86.33,11.06-.78,17.12.87,0,5.52-.04,11.04.02,16.56.02,1.93.48,4.05,2.78,4.16,2.56.11,3.7-1.79,3.71-4.21.03-5.58.25-11.19-.15-16.74-.33-4.63-3.5-7.2-8.03-7.27Z"/>
    </g>
  </g>
</svg>