<?xml version="1.0" encoding="UTF-8"?>
<svg id="Capa_2" data-name="Capa 2" xmlns="http://www.w3.org/2000/svg" viewBox="0 0 300 299.71">
  <defs>
    <style>
      .cls-1 {
        fill: #040404;
        stroke-width: 0px;
      }
    </style>
  </defs>
  <g id="Capa_1-2" data-name="Capa 1">
    <g>
      <path class="cls-1" d="M91.41,91.91c32.04-16.59,83.37-17.28,117.39.04,0-5.37-.04-10.11.02-14.84.02-1.71-1.36-2.2-2.33-3.08-11.36-10.23-10.46-25.49,2.23-33.57,2.43-1.55,3.44-3.48,4.3-5.84,2.86-7.88,6.15-15.55,10.64-22.65,1.78-2.82,3.87-5.38,6.38-7.58,6.68-5.85,12.6-5.91,19.18.15,8.61,7.93,12.42,18.69,16.56,29.17,1.25,3.17,2.78,5.51,5.77,7.5,11.05,7.32,12.19,22.99,2.21,31.73-2.94,2.57-3.68,4.99-3.32,8.47.32,3.1.27,6.23.37,9.35.11,3.6-1.3,6.17-5.13,6.51-4.14.37-6.12-2.17-6.48-5.92-.4-4.04-.42-8.12-.62-12.53h-38c-2.67,48.18-2.59,96.4,1.01,144.97h35.87c1.36-16.58,2.24-33.09,2.59-49.63.2-9.36.26-18.72.35-28.08.04-4.27.87-8.14,6.18-8.03,5.02.11,5.59,3.86,5.57,7.9-.12,23.41-.58,46.8-2.38,70.15-.21,2.71-.28,5.43-.42,8.39,1.18.46,2.21.93,3.28,1.26,18.28,5.74,29.75,23.31,26.97,41.32-2.93,18.94-18.45,32.56-37.66,32.58-74.52.08-149.04.07-223.56,0-19.33-.02-34.8-13.36-37.91-32.31-2.94-17.95,8.4-35.61,26.65-41.53,1.1-.36,2.18-.79,3.52-1.28-.45-8.39-.89-16.74-1.34-25.1-2.11-39.38-1.76-78.76.29-118.12.18-3.51-.45-5.9-3.39-8.44-9.96-8.6-8.76-24.43,2.32-31.7,3.03-1.99,4.52-4.36,5.72-7.54,3.3-8.74,6.77-17.44,12.61-24.89,9.05-11.55,18.13-11.57,27.15-.06,5.83,7.45,9.36,16.14,12.6,24.89,1.28,3.44,3.08,5.76,6.2,7.87,10.27,6.96,11.78,22.09,2.74,30.54-3.61,3.38-4.74,6.51-4.18,11.02.33,2.63.06,5.34.06,8.89ZM149.82,287.97c36.87,0,73.73-.04,110.6.03,6.46.01,12.34-1.49,17.48-5.45,8.86-6.82,12.37-18.2,8.93-28.78-3.5-10.77-13-17.79-25.47-17.81-74.32-.12-148.63-.06-222.95-.03-3.92,0-7.74.68-11.35,2.36-10.81,5.02-17.13,17.1-14.8,28.4,2.58,12.5,12.89,21.19,25.79,21.23,37.25.11,74.51.04,111.77.05ZM41.43,78.64c-2.56,48.84-2.6,97.05,1.09,145.32h35.85c3.65-48.53,3.69-96.88,1.05-145.32h-37.99ZM109.02,223.9c0-15.36-.13-30.52.03-45.68.21-20.3,16.06-38.02,35.56-40.06,22.06-2.3,41.39,11.05,45.27,32.33,2.81,15.4.53,31.12,1.12,46.69.08,2.23-.69,4.6.84,7.08,5.84-.45,11.78.54,17.99-.63-2.62-33.56-3.14-66.83-2.69-100.27h-114.34c.49,33.72-.08,67.01-2.65,100.55h18.87ZM179.17,223.95c0-16.18.49-31.98-.14-47.74-.59-14.56-13.25-26.08-27.73-26.53-15.35-.48-29.04,10.02-30.09,25.13-1.12,16.24-.25,32.61-.25,49.14h58.21ZM207.03,111.07c1.26-3.98-.47-6-3.2-7.71-3.31-2.07-6.74-3.83-10.4-5.2-19.96-7.51-40.58-8.67-61.5-6.17-12.42,1.48-24.47,4.42-35.3,11.11-2.94,1.82-5.41,3.85-3.47,7.97h113.87ZM60.44,66.75c6.43,0,12.86.08,19.29-.02,6.2-.09,10.05-3.71,9.88-9.05-.17-5.07-3.92-8.41-9.88-8.45-12.86-.08-25.72-.08-38.57,0-5.96.04-9.71,3.38-9.88,8.45-.17,5.33,3.69,8.95,9.88,9.04,6.43.1,12.86.02,19.29.02ZM239.22,66.75c6.62,0,13.25.09,19.87-.03,5.82-.1,9.62-3.64,9.65-8.7.03-5.09-3.74-8.73-9.56-8.78-13.05-.1-26.11-.1-39.16,0-5.82.04-9.63,3.63-9.66,8.69-.02,5.09,3.75,8.68,9.56,8.79,6.43.12,12.86.03,19.29.03ZM75.55,37.25c-4.22-9.38-6.84-18.97-15.29-25.51-7.89,6.97-11,16.15-14.84,25.51h30.14ZM224.53,37.12h30.05c-4.03-9.37-6.96-18.69-14.93-25.42-8.2,6.59-10.99,16-15.11,25.42Z"/>
      <path class="cls-1" d="M266.04,123.87c-3.54-.61-5.95-2.5-5.78-6.13.17-3.53,2.41-5.66,6.13-5.47,3.42.18,5.32,2.22,5.37,5.6.06,3.78-2.4,5.39-5.73,6Z"/>
    </g>
  </g>
</svg>