<?xml version="1.0" encoding="UTF-8"?>
<svg id="Capa_2" data-name="Capa 2" xmlns="http://www.w3.org/2000/svg" viewBox="0 0 117.37 329.89">
  <defs>
    <style>
      .cls-1 {
        fill: #090909;
        stroke-width: 0px;
      }
    </style>
  </defs>
  <g id="Capa_1-2" data-name="Capa 1">
    <g>
      <path class="cls-1" d="M26.16,278.83c.19,1.75.64,3.16,1.29,4.5,1.46,3.01,2.96,3.35,5.52,1.22,1.06-.89,2.17-1.41,3.61-1.38,2.18.04,3.41-1.47,2.57-3.49-.62-1.5-2.18-2.89-3.57-3.3-2.17-.64-4.51.2-7.06.98,1.24.58,2.4.48,3.17,1.34-.91.34-1.68-.34-2.49-.09.04.59.63.64.82,1.03-.11.1-.21.21-.32.31-.39-.04-.7-.51-1.2-.19.09.23.18.47.26.7-.13.09-.26.19-.39.28-.68-.59-1.35-1.17-2.21-1.91Z"/>
      <path class="cls-1" d="M11.73,281.16c-.15,1.68.96,2.25,2.5,1.51,2.78-1.34,5.34-3.19,8.65-3.57-.9-.8-1.93-.48-2.9-.92.58-.23,1.02-.41,1.57-.63-.66-.29-1.19-.52-2-.88.92-.08,1.51-.13,2.16-.18-1.66-2.22-6.76-3.86-9.06-2.97-.35.14-.85.37-.92.65-.38,1.58-1.61,2.37-3.14,3.21.51.36.67.56.86.59,1.92.25,2.44,1.29,2.27,3.19Z"/>
      <path class="cls-1" d="M22.86,273.15c.12-.13-.45-.53-.26-.89.37-.22.54.48.9.11.26-.8-.33-1.67.13-2.52.8.71.16,1.84.89,2.37.4.17.2-.76.72-.31.14.53-.42,1.06.04,1.58,1.34-1.2,2.8-4.17,3.16-6.4.4-2.48-.29-3.06-2.59-2.2-.09.03-.21-.03-.39-.07-.81-1.14-.14-3.67-2.54-3.38-2.6.31-1.12,2.8-1.76,4.15-2.43-.06-3.08.92-2.15,3.14.52,1.24,1.34,2.3,2.08,3.41.23.34.91.57.65,1.17.3-.17.62.37,1.13-.17Z"/>
      <path class="cls-1" d="M17.22,283.25c-1.32.71-1.31,1.54.08,2.05,1.23.46,1.47,1.22,1.59,2.37.23,2.18,1.46,2.75,3.32,1.6.88-.54,1.74-.84,2.8-.83,1.99.01,2.42-.69,1.8-2.64-.58-1.79-1.32-3.54-1.45-5.45,0-.08-.12-.16-.25-.31-.18.34-.35.65-.57,1.05-.38-.8-.87-.69-1.45-.08.04-.59.07-.97.13-1.78-1.83,2.16-4,2.94-5.99,4.02Z"/>
      <path class="cls-1" d="M32.42,267.93c-.98-.46-1.82.14-2.56.76-1.69,1.44-2.42,3.43-3.39,5.69,1.23-.59,2.08-.76,2.29.67.05.36.52.41.85.36,2.69-.34,5.44-.11,8.09-.84.78-.22,1.68-.49,1.72-1.54.04-1.02-1.13-.41-1.56-1.15.15-.26.28-.5.43-.72.45-.64.67-1.3.08-1.96-.64-.71-1.4-.59-2.11-.15-.56.35-1.08.77-1.61,1.17-.49.37-.98.76-1.64.29-.03-.16-.09-.32-.1-.48-.03-.74.41-1.68-.48-2.1ZM29.25,273.27h0s.02,0,.03,0h-.03Z"/>
      <path class="cls-1" d="M12.99,269.87c-.43.05-.76.25-.82.69-.06.5.19,1.02.68.94.76-.12,1.54.33,2,.28,3.52-.39,5.5,1.78,7.51,4.04.33.37.4,1.09,1.14,1,.06-.12.16-.22.15-.3-.25-1.31-1.59-1.89-2.03-3.08-1.41-.72-2.56-1.88-4.12-2.31-.93-.25-1.66-.63-1.58-1.72-.83.03,0,1.06-.54,1.03-.89-.18-.11-1.09-.87-1.18-.58.17.1.71-.23.9-.56.27-.84-.33-1.29-.29Z"/>
      <path class="cls-1" d="M21.64,273.46s.06-.1.08-.14c-.04.02-.07.05-.11.1,0,0,0,.02.01.03,0,0,.02,0,.02.01h0Z"/>
      <path class="cls-1" d="M32.22,241.34c1.43.19,2.45.87,3.37,1.9,2.22,2.48,3.75,2.36,5.64-.4.84-1.23,1.49-2.56,1.94-4.26-.96.61-1.71,1.09-2.46,1.57-.12-.11-.23-.22-.35-.33.12-.22.24-.44.36-.66-.45-.39-.82.03-1.21.01-.09-.12-.18-.24-.27-.36.24-.36.84-.32.96-.9-.77-.36-1.63.19-2.48-.27.89-.73,2.02-.47,3.33-.86-2.41-1.14-4.61-2.32-6.84-2.01-1.44.2-3.18,1.34-4.01,2.74-1.13,1.88-.14,3.55,2.03,3.83Z"/>
      <path class="cls-1" d="M57.09,243c.11-1.91.78-2.85,2.72-2.82.19,0,.38-.17.94-.46-1.39-1.06-2.5-2.02-2.64-3.64-.02-.28-.49-.59-.81-.78-2.14-1.22-7.43-.35-9.39,1.6.64.15,1.21.29,2.11.5-.84.23-1.41.39-2.1.57.51.3.92.53,1.46.85-1.03.29-2-.17-3.01.49,3.22.87,5.48,3.07,8.03,4.8,1.42.97,2.6.56,2.7-1.12Z"/>
      <path class="cls-1" d="M48.94,221.86c-2.34-.64-2.05,1.97-3.01,2.97-.18,0-.31.05-.4,0-2.15-1.19-2.91-.71-2.89,1.79.02,2.26,1.03,5.41,2.18,6.79.53-.45.05-1.05.27-1.56.58-.37.25.52.67.41.8-.42.34-1.63,1.23-2.22.33.91-.39,1.68-.24,2.51.3.41.57-.25.9.02.13.39-.49.7-.39.85.42.61.82.12,1.1.33-.18-.63.53-.75.81-1.06.9-.99,1.87-1.91,2.56-3.06,1.24-2.07.75-3.13-1.67-3.43-.43-1.43,1.41-3.68-1.13-4.37Z"/>
      <path class="cls-1" d="M42.9,248.25c1.05.15,1.86.57,2.65,1.23,1.67,1.41,2.97,1.03,3.51-1.09.29-1.11.64-1.84,1.92-2.11,1.45-.31,1.58-1.12.38-2.02-1.81-1.36-3.84-2.44-5.33-4.85-.06.81-.09,1.19-.13,1.78-.49-.68-.95-.87-1.45-.13-.16-.43-.28-.76-.41-1.13-.15.13-.28.19-.29.27-.41,1.87-1.4,3.49-2.23,5.18-.91,1.83-.58,2.6,1.39,2.87Z"/>
      <path class="cls-1" d="M30.9,230.89c-.12,1.05.73,1.45,1.48,1.78,2.51,1.11,5.26,1.29,7.87,2.02.32.09.79.11.89-.24.41-1.38,1.23-1.09,2.36-.32-.62-2.37-1.05-4.45-2.51-6.12-.64-.73-1.39-1.44-2.42-1.13-.95.28-.64,1.28-.78,2-.03.16-.11.31-.17.46-.72.37-1.15-.09-1.58-.53-.47-.47-.91-.97-1.42-1.4-.65-.54-1.38-.77-2.11-.16-.68.57-.56,1.25-.21,1.95.12.24.21.5.32.78-.54.67-1.6-.11-1.72.91Z"/>
      <path class="cls-1" d="M45.98,236.66c-.03.08.06.2.1.32.72.2.9-.5,1.28-.82,2.32-1.94,4.6-3.79,8.02-2.89.45.12,1.29-.22,2.02.01.47.15.8-.33.81-.84,0-.44-.29-.7-.7-.8-.44-.11-.8.45-1.32.1-.29-.23.45-.67-.09-.92-.76-.02-.12.99-1.03,1.04-.53-.05.44-.95-.38-1.1-.08,1.1-.87,1.36-1.82,1.47-1.6.19-2.92,1.18-4.42,1.68-.61,1.11-2.02,1.49-2.46,2.75Z"/>
      <path class="cls-1" d="M48.44,233.91s-.02.02-.02.02c0,0,.02,0,.03,0,0,0,.01-.02.02-.03-.03-.05-.06-.09-.1-.12.01.05.03.1.05.15l.02-.02Z"/>
      <path class="cls-1" d="M58.28,260.22c-.86-.45-1.78-.6-2.75-.44-.3.27-.62.12-1.04.04.27-.16.49-.29.7-.42.58-.94,1.2-1.87,1.74-2.84.76-1.35,1.54-2.71,1.76-4.29.12-.85-.11-1.54-1.1-1.39-3.29.5-6.35,1.62-8.88,3.86-.7.62-1.32,1.39-1.17,2.62-2.02-3.49-4.71-5.98-8.14-8.11-.17,4.21-1.08,8.14,1.13,11.9-3.42-.23-6.61.38-10.08,1.74,2.29,1.32,4.22,2.51,6.22,3.56,1.76.93,3.52,2.01,5.68,1.2-1.88,3.29-2.19,6.77-2.32,10.39,3.81-1.52,8.25-5.94,9.16-9.02.39,3.82,3.99,7.49,8.73,8.73-.68-3.68-.37-7.52-3.21-10.47,4.5.22,8.71-.44,10.99-1.77-2.27-2.11-4.71-3.91-7.43-5.32ZM42.47,257.51c.06-.46.07-1.1.77-1,.59.09.66.63.66,1-.06.65-.15,1.21-.8,1.14-.6-.07-.69-.63-.63-1.14ZM39.08,263.97c1.23.12,2.5-.66,4.04.3-1.59-.12-2.81-.21-4.04-.3ZM42.55,267.39c.12-.33,1.38-.88,1.59-.88.15,0,.3.04.48.07-.19.41-1.75.91-2.07.81ZM43.99,271.41l-.03-.14.11.02-.08.11ZM44.45,270.71c-.3-.2.03-.42-.02-.62.22.18.25.38.02.62ZM46.54,268.32s-.31.3-.44.38c-.61.37-.61,1.52-1.64,1.37.73-.25,1.48-1.56,1.71-1.7.22-.13.25-.12.28-.15.14-.11.18-.07.1.1ZM51.14,267.66h-.02s.04-.04.04-.04c0,.02-.01.03-.02.04ZM49.3,264.01c.22.71-.32,1.17-1.02,1.2-.72.04-1.31-.45-1.13-1.11.64-2.36-.84-3.69-2.25-5.1-.29-.28-.85-.41-.52-1.25,1.79.88,2.77,2.41,3.72,4.29.78-2.12,1.35-4.09,2.63-5.68.33-.41.45-1.23,1.3-.95.14.77-.57,1.12-.86,1.68-1.12,2.18-2.73,4.2-1.87,6.94ZM51.4,268c.23.08.48.16.28.47-.09-.15-.19-.31-.28-.47ZM51.92,268.85c-.07-.12-.15-.23-.22-.35.15-.08.31-.16.4.08.02.06-.1.17-.18.27ZM51.95,268.88c.74.14.75.17,1.25,1.35-.46-.5-.86-.93-1.25-1.35ZM53.4,270.71v-.11s.1.07.1.07l-.1.04ZM52.12,255.29c.23-.48-.58-.83-.22-1.33,1.38-.4,1.7-.16,1.73,1.29-.47.63-1.03-.28-1.51.05Z"/>
      <path class="cls-1" d="M15.89,253.16c-3.15,2.64-3.98,5.82-3.14,9.68,1.42-.96,2.26-.64,2.38,1.01,4.23-1.29,5.56-3.52,6.11-10,2.13,6.53,3.88,8.32,8.04,8.19-.26-1.59.42-2.16,1.94-1.54.46-4.14-1.25-6.84-5.56-8.95-.19-.03-.39-.05-.62-.08.25-.46.52-.27.78-.15,4.58.02,7.11-1.65,8.05-5.39-1.68-.17-1.73-1.13-.91-2.4-3.82-1.34-6.98-.62-9.69,2.42,1.05-3.91-.01-6.89-3.09-9.2-.56.46-.55,1.26-1.17,1.36-.76.04-.97-.87-1.71-.75-2.25,2.89-2.16,5.91-.49,9.02.32.27.36.6.27.99-.43.02-.37-.42-.58-.6-3.61-2.25-6.31-2.2-9.71.2.14.59.9.84.86,1.55-.16.64-1.01.61-1.24,1.2,2.27,3.48,5.61,4.12,9.49,3.44ZM25.48,254.35c.06.4-.11.81-.57.83-1.08.06-.8-.93-1.2-1.66.84.14,1.64-.12,1.78.82ZM23.19,245.94s.13.11.23.19c-.13.08-.25.17-.38.21-.06.01-.15-.1-.22-.16.12-.08.24-.19.37-.24ZM13.9,249.72c.41-.47.8-.24,1.31,0,1.9.86,3.47.52,4.47-1.17.6-1.03.24-2.24-.41-3.23-.29-.43-.44-.78-.09-1.18.23-.27.55-.37.89-.15.46.29.34.67.3,1.14-.1,1.25-.4,2.47.88,3.55,1.65,1.37,2.85.24,4.15-.38.46-.22.72-.91,1.37-.43.29.22.37.58.22.9-.32.7-.86.36-1.41.31-2.22-.17-3.53,1.2-3.24,3.27-1.68-.76-3.43.6-3.57,2.85-.03.6.09,1.13-.66,1.27-.36.07-.66-.12-.8-.47-.25-.65.31-.82.67-1.16,1.42-1.33,1.76-3.17.6-3.89-1.01-.62-2.28-.68-3.45-.27-.46.16-.84.35-1.2-.05-.23-.26-.28-.64-.04-.92Z"/>
      <path class="cls-1" d="M20.64,251.42c.75-.1.98-.59.92-1.3-.16-.61-.59-.94-1.19-.85-.68.1-1.06.57-.91,1.29.12.62.53.94,1.18.86Z"/>
      <path class="cls-1" d="M55.02,289.19c4.02.02,6.25-1.45,7.07-4.74-1.48-.15-1.52-.99-.8-2.11-3.36-1.17-6.13-.55-8.51,2.13.92-3.43-.01-6.05-2.72-8.08-.49.41-.48,1.11-1.03,1.2-.67.04-.85-.76-1.5-.66-1.98,2.54-1.89,5.19-.43,7.93.28.23.31.53.24.87-.38.02-.32-.37-.51-.53-3.17-1.98-5.54-1.93-8.53.18.12.52.79.74.76,1.36-.14.56-.88.54-1.09,1.05,2,3.06,4.93,3.62,8.34,3.02-2.77,2.32-3.49,5.11-2.76,8.51,1.24-.84,1.99-.57,2.09.89,3.72-1.13,4.89-3.09,5.37-8.79,1.88,5.73,3.41,7.31,7.07,7.19-.23-1.39.37-1.9,1.7-1.36.41-3.63-1.1-6.01-4.89-7.86-.17-.02-.34-.05-.55-.07.22-.4.45-.24.68-.13ZM52.72,284.48s.12.09.2.17c-.12.07-.22.15-.33.18-.05.01-.13-.09-.19-.14.11-.07.21-.16.33-.21ZM54.74,291.86c.05.35-.1.71-.5.73-.95.05-.7-.82-1.06-1.46.74.12,1.44-.1,1.56.72ZM51.97,290.1c-1.47-.67-3.02.52-3.13,2.5-.03.52.08.99-.58,1.12-.32.06-.58-.11-.7-.41-.22-.57.27-.72.59-1.02,1.25-1.16,1.55-2.79.53-3.41-.89-.55-2-.59-3.03-.24-.4.14-.74.31-1.05-.05-.2-.23-.25-.56-.03-.81.36-.42.71-.21,1.15,0,1.67.76,3.05.45,3.92-1.03.53-.9.21-1.97-.36-2.84-.25-.38-.39-.68-.08-1.04.2-.23.49-.32.78-.13.41.26.3.59.26,1.01-.09,1.1-.36,2.17.78,3.12,1.45,1.2,2.51.21,3.65-.33.4-.19.63-.8,1.2-.38.26.19.32.51.19.79-.29.62-.76.31-1.24.28-1.95-.15-3.1,1.05-2.85,2.87Z"/>
      <path class="cls-1" d="M33.9,306.16c-2.17-.76-3.96-.35-5.49,1.37.6-2.22,0-3.91-1.76-5.22-.32.26-.31.71-.66.77-.43.02-.55-.49-.97-.42-1.28,1.64-1.22,3.35-.28,5.12.18.15.2.34.15.56-.24,0-.21-.24-.33-.34-2.05-1.28-3.58-1.25-5.51.11.08.34.51.48.49.88-.09.36-.57.35-.7.68,1.29,1.97,3.18,2.34,5.38,1.95-1.79,1.5-2.25,3.3-1.78,5.49.8-.54,1.28-.37,1.35.57,2.4-.73,3.16-2,3.46-5.67,1.21,3.7,2.2,4.72,4.56,4.64-.15-.9.24-1.23,1.1-.88.26-2.35-.71-3.88-3.16-5.08-.11-.01-.22-.03-.35-.05.14-.26.29-.15.44-.08,2.6.01,4.03-.94,4.57-3.06-.96-.1-.98-.64-.52-1.36ZM28.36,307.54s.07.06.13.11c-.08.04-.14.1-.22.12-.03,0-.08-.06-.13-.09.07-.05.14-.11.21-.14ZM29.67,312.31c.03.23-.06.46-.33.47-.61.03-.45-.53-.68-.94.48.08.93-.07,1.01.47ZM30.52,309.14c-.18.4-.49.2-.8.18-1.26-.1-2,.68-1.84,1.86-.95-.43-1.95.34-2.02,1.62-.02.34.05.64-.37.72-.21.04-.38-.07-.45-.26-.14-.37.17-.47.38-.66.81-.75,1-1.8.34-2.2-.57-.35-1.29-.38-1.95-.15-.26.09-.48.2-.68-.03-.13-.15-.16-.36-.02-.52.23-.27.46-.13.74,0,1.08.49,1.97.29,2.53-.66.34-.58.14-1.27-.23-1.83-.16-.24-.25-.44-.05-.67.13-.15.31-.21.51-.09.26.16.19.38.17.65-.06.71-.23,1.4.5,2.01.93.78,1.62.14,2.35-.22.26-.13.41-.51.78-.24.17.12.21.33.12.51Z"/>
      <path class="cls-1" d="M23.17,302.61c-.23-.88.12-1.24,1.01-.97.04-2.36-1.07-3.8-3.61-4.76-.11,0-.22,0-.36-.01.12-.27.28-.18.43-.12,2.59-.23,3.93-1.31,4.26-3.47-.96,0-1.04-.55-.64-1.31-2.23-.55-3.97.02-5.34,1.88.39-2.26-.37-3.89-2.23-5.03-.29.29-.24.74-.59.83-.43.06-.59-.44-1-.33-1.12,1.75-.91,3.45.2,5.12.19.13.23.32.21.54-.24.03-.23-.22-.36-.31-2.16-1.08-3.68-.91-5.47.62.11.33.55.43.57.83-.06.37-.54.4-.64.74,1.47,1.85,3.38,2.03,5.54,1.44-1.64,1.66-1.94,3.49-1.26,5.63.75-.62,1.24-.48,1.39.44,2.32-.95,2.96-2.28,2.92-5.97,1.55,3.57,2.63,4.5,4.97,4.2ZM18.89,293.84s.08.05.14.1c-.07.05-.13.11-.2.14-.03.01-.09-.05-.13-.08.06-.05.12-.12.2-.16ZM18.74,297.5c-.99-.34-1.91.52-1.86,1.8.01.34.11.63-.3.75-.2.06-.38-.03-.47-.22-.18-.35.13-.48.31-.69.73-.82.83-1.88.14-2.23-.6-.3-1.32-.26-1.96.03-.25.11-.46.24-.68.03-.14-.13-.19-.35-.07-.52.21-.29.44-.18.74-.07,1.12.39,1.99.11,2.46-.9.29-.61.02-1.28-.4-1.8-.18-.23-.29-.42-.11-.66.12-.16.29-.24.5-.13.28.14.23.36.23.63,0,.71-.1,1.42.69,1.96,1,.69,1.62-.01,2.32-.43.25-.15.36-.55.75-.31.18.11.24.31.17.5-.15.41-.47.25-.78.25-1.26.02-1.93.86-1.66,2.02ZM19.58,298.1c.48.03.92-.15,1.05.37.05.22-.02.46-.28.5-.61.09-.5-.48-.77-.87Z"/>
      <path class="cls-1" d="M50.25,287.4c-.6.09-.93.5-.8,1.13.11.54.47.83,1.04.75.65-.09.86-.52.81-1.14-.14-.54-.51-.83-1.05-.75Z"/>
      <path class="cls-1" d="M8.75,225.37c-.4.83-1.3,1.18-1.47,2.03.43.48,1.17-.04,1.55.63-.15.32-.32.7-.55,1.19,2.03-.09.83,1.37,1.02,2.33,1.13-.59,2.14-.93,2.16.84.57-.32.86-.99,1.46-.63.63.61-.32,1.31.32,2,.63-1.05,1.23-2.04,1.83-3.03.1.04.2.08.3.12-.08,1.12-.17,2.25-.27,3.69.88-.78,1.62-1.75,2.25-.22,1.22-.44,1.49.7,2.01,1.4,1.29-1.94,2.8-2.46,4.17-1.47.18-1.12-.59-2.2-.15-3.4.89.65.94,1.78,1.8,2.24.42-.43-.03-1.16.56-1.5.66-.2.88.64,1.51.59-.12-2.19,1.41-.61,2.24-.88-.44-.97-.68-1.87.6-2.28-1.09-1.62.41-1.37,1.43-1.51-.98-.98-1.79-1.79-2.66-2.67,1.41-.2,2.41.8,3.67.78-.86-1.44-.29-2.61,1.89-3.95-1.72-1.5-1.97-3-.71-4.21-1.14-.44-2.48-.12-3.65-.84.85-.63,1.59-1.17,2.43-1.79-1.85-.56-1.87-.64-.78-1.81h0c-1.31-.19-1.98-.8-1.28-2.27-.94-.04-2.12,1.14-2.33-.73-1.61,1.62-1.52-.11-1.82-.96-1.07.86-1.58,2.11-3.02,2.8.11-1.42.19-2.61.32-4.3-.94,1.4-1.43.84-2.32.62-1.22-.29-1.4-1.05-1.93-1.73-.98,1.89-2.43,2.58-4.23,1.99.04,1.09.59,2.15.25,3.58-.91-1.06-1.6-1.86-2.31-2.7-.48,1.79-.55,1.82-1.89.98-.13.23-.2.56-.4.69-.65.44-1.18-.4-1.94-.26.18,1.01.74,2.33-1.24,1.79.09.69.73,1.11.24,1.74-.66.35-1.24-.62-2.11-.17,1.24.9,2.37,1.72,3.74,2.72-1.05.12-1.75.2-2.45.29-.7.08-1.39.17-2.08.26.03.73,2.32,1.05.3,2.02.64,1.19-.33,1.71-1.07,2.32,1.74.88,2.57,2.32,2.27,3.85.78.21,1.5-.62,2.35-.21ZM13.49,225c.11.08.3.68-.16.82-.33.1-.81.18-.69-.51.18-.99-1.31-1.36-.87-2.74.51.81,1.11.74,1.89.3-.17.85-1.15,1.45-.18,2.13ZM23.09,230.75s-.07-.14-.1-.21c.08-.03.16-.07.24-.1.07.06.13.13.2.19-.11.04-.22.1-.33.12ZM26.65,218.6c1.62.48-.4,2.39,1.13,2.7-.38.63-.78.71-1.23.76.85-1.15-.68-2.24.09-3.46ZM21.87,214.72c1.25-.71,2.3-.75,2.74,1-.66-.26-1.36-.22-1.85-.84-.4.38-.79.75-1.25,1.19-.47-.51-.02-1.1-.27-1.59-.7-.2-1.55-.21-1.84-1.2.65.79,2.36-.59,2.47,1.44ZM23.11,222.04c-.18.85-.61,1.46-1.13,1.97.27-.71-.1-1.74,1.13-1.97ZM21.66,224.27c-.7.56-1.28,1.11-2.17.71.62-.41,1.17-1,2.17-.71ZM17.9,224.18c.42.44.8.94,1.5.83-.71.69-1.31-.09-2.03-.15.21-.27.37-.47.53-.68ZM21.29,227.52c-.03-.26-.07-.74-.12-1.21.08-.05.16-.1.23-.15.2.4.4.8.61,1.22.76-.84,2.19-.6,2.32-1.17.21-.96,1.72-1.8.42-3.01.13,0,.17.02.21.01,1.71-.09,1.81,0,.95,1.65-1.04,1.98-2.71,3.12-4.93,3.75-2.28.66-4.14-.02-6.05-1-.19-.1-.37-.14-.48-.34-.13-.23-.27-.46-.6-1.02.98.33,1.62.54,2.36.79.15-.23.38-.57.81-1.22,0,.84,0,1.34,0,1.69,1.4,1.19,2.81,1.05,4.28-.01ZM16.3,223.84c.21.08.5.1.41.48-.35,0-.41-.22-.41-.48ZM15.56,218.87c.14-.19.34-.33.51-.13-.29-.51.1-.56.72-.61-.29.32-.47.52-.65.72,0,.02.02.03.03.05-.01-.02-.02-.03-.03-.04,0,0-.02.02-.03.03-.42.42-.19,1.09-.69,1.54-.41.37-.44,1.09.06,1.48.63.5.65,1.18.76,1.84-1.53-1.4-1.82-3.34-.69-4.87ZM10.94,218.99c.3-.5.95-.22,1.42-.73-.35-.38-.64-.68-1.04-1.1.8-.39,1.58-.9,1.78-1.59.27-.94,1.17-.2,1.5-.81.07-.14.27.22.34.42.13.33-.19.35-.31.34-1.15-.02-1.32.87-1.63,1.67-.41,1.05-.95,2.05-1.27,3.12-.16.54-.44.82-.9,1.2.32-.92.19-1.72.1-2.52Z"/>
      <path class="cls-1" d="M16.14,218.84s-.05-.08-.07-.11c.02.03.04.07.07.11,0,0,0,0,0,0Z"/>
      <path class="cls-1" d="M41.72,296.38c-.97-.85-1.12-1.7-.4-2.38-.65-.25-1.41-.07-2.07-.48.48-.36.9-.66,1.37-1.01-1.05-.32-1.06-.36-.44-1.03h0c-.74-.11-1.12-.45-.72-1.29-.53-.02-1.2.65-1.32-.41-.91.92-.86-.06-1.03-.55-.61.49-.89,1.2-1.71,1.58.06-.81.11-1.48.18-2.43-.53.79-.81.47-1.31.35-.69-.17-.79-.59-1.1-.98-.56,1.07-1.38,1.46-2.4,1.13.02.62.34,1.22.14,2.03-.51-.6-.9-1.05-1.31-1.53-.27,1.02-.31,1.03-1.07.56-.07.13-.11.31-.23.39-.37.25-.67-.23-1.1-.15.1.57.42,1.32-.7,1.02.05.39.41.63.13.99-.37.2-.7-.35-1.2-.1.7.51,1.34.98,2.12,1.54-.59.07-.99.11-1.39.16-.39.05-.79.1-1.18.15.02.41,1.31.6.17,1.14.36.67-.19.97-.61,1.32.99.5,1.46,1.32,1.29,2.18.44.12.85-.35,1.33-.12-.23.47-.73.67-.83,1.15.24.27.66-.02.88.35-.08.18-.18.4-.31.68,1.15-.05.47.78.58,1.32.64-.33,1.21-.53,1.22.47.32-.18.49-.56.83-.36.36.35-.18.74.18,1.13.36-.59.7-1.16,1.03-1.72.06.02.11.05.17.07-.05.64-.09,1.27-.15,2.09.5-.44.92-.99,1.28-.12.69-.25.84.39,1.14.79.73-1.1,1.59-1.39,2.36-.83.1-.63-.33-1.25-.08-1.93.51.37.53,1.01,1.02,1.27.24-.25-.01-.66.32-.85.37-.11.5.36.85.34-.07-1.24.8-.35,1.27-.5-.25-.55-.39-1.06.34-1.29-.62-.92.23-.78.81-.85-.56-.56-1.01-1.01-1.51-1.51.8-.11,1.37.45,2.08.44-.49-.82-.16-1.48,1.07-2.24ZM34.6,292.44c.71-.4,1.3-.43,1.55.57-.37-.15-.77-.12-1.05-.48-.22.21-.45.42-.71.67-.27-.29-.01-.62-.15-.9-.4-.11-.88-.12-1.04-.68.37.45,1.34-.33,1.4.82ZM35.31,296.58c-.1.48-.35.82-.64,1.12.15-.4-.06-.99.64-1.12ZM34.49,297.85c-.4.32-.72.63-1.23.4.35-.23.66-.57,1.23-.4ZM32.36,297.79c.24.25.45.53.85.47-.4.39-.74-.05-1.15-.08.12-.15.21-.27.3-.38ZM31.03,294.78c.08-.11.2-.19.29-.07-.17-.29.05-.32.4-.35-.16.18-.27.29-.37.41,0,0,.01.02.02.03,0,0,0-.02-.02-.03,0,0-.01.01-.02.02-.24.24-.11.62-.39.87-.23.21-.25.62.03.84.36.28.37.67.43,1.04-.87-.79-1.03-1.89-.39-2.76ZM31.68,297.87c-.2,0-.23-.13-.23-.27.12.05.28.06.23.27ZM28.36,296.28c.18-.52.11-.97.06-1.43.17-.28.54-.12.8-.41-.2-.21-.36-.39-.59-.63.45-.22.89-.51,1.01-.9.15-.53.66-.11.85-.46.04-.08.15.13.2.24.08.19-.11.2-.17.19-.65-.01-.75.49-.92.94-.23.59-.54,1.16-.72,1.77-.09.3-.25.47-.51.68ZM29.86,298.26c.06.05.17.39-.09.46-.19.06-.46.1-.39-.29.1-.56-.74-.77-.49-1.55.29.46.63.42,1.07.17-.09.48-.65.82-.1,1.21ZM35.3,301.51s-.04-.08-.06-.12c.05-.02.09-.04.14-.06.04.04.07.07.11.11-.06.03-.12.06-.19.07ZM36.89,298.18c-.59,1.12-1.54,1.76-2.79,2.12-1.29.37-2.34-.01-3.43-.56-.11-.05-.21-.08-.27-.19-.07-.13-.15-.26-.34-.58.55.19.92.31,1.34.45.09-.13.21-.32.46-.69,0,.48,0,.76,0,.96.79.68,1.59.59,2.42,0-.01-.15-.04-.42-.07-.69.04-.03.09-.06.13-.08.11.23.23.45.35.69.43-.47,1.24-.34,1.31-.66.12-.54.98-1.02.24-1.7.07,0,.1,0,.12,0,.97-.05,1.03,0,.54.93ZM37.26,296.59c.48-.65-.38-1.27.05-1.96.92.27-.22,1.35.64,1.53-.21.36-.44.4-.69.43Z"/>
      <path class="cls-1" d="M37.94,209.15c.25,0,.55-.14.68.23-3.07,2.65-3.57,3.71-2.73,5.82,1,2.52,4.37,4.88,6.88,4.83,2.15-.05,3.18-1.01,4.08-3.83-.08-.14-.15-.31.06-.35.08-.02.2.18.31.28,1.17,3.39,3.19,4.73,6.04,3.89,1.97-.58,3.61-1.73,4.8-3.42,1.51-2.16,1.07-4.42-1.09-5.94-.61-.43-1.37-.68-1.89-1.41,2.24.43,4.52,1.18,6.11-1.13,1.35-1.96,1.22-6.21-.24-8.11-2.61-3.39-5.3-1.41-8.3.5.51-.87.71-1.2.89-1.54,1.42-2.76.53-5.1-2.4-6.07-1.71-.56-3.49-.68-5.26-.23-3.03.76-4.31,3.17-3.25,6.09.1.27.43.53.09.91-.57-.44-1.11-.89-1.68-1.31-1.7-1.25-3.48-1.18-4.96.32-1.66,1.69-2.57,3.77-2.59,6.14-.02,2.8,1.68,4.4,4.46,4.34ZM53.23,205.22c-.54.55-1.12.69-1.77.38.59-.13,1.18-.25,1.77-.38ZM47.6,200.69c.09.03.24.05.25.1.02.09-.04.2-.07.3-.09-.03-.23-.05-.24-.11-.02-.09.04-.19.07-.29ZM47.54,201.48c.39.27.28.53.1.8-.59-.24,0-.54-.1-.8ZM42.86,203.04c1.28.36,1.91,1.89,3.29,2.09.55-.92,1.32-1.67,1.51-2.73.23.72.92,1.28.47,2.27-.22.49.58.69,1.08.46.89-.41,1.74-.9,2.4-1.67q.21.53-1.27,1.61c0,.22,0,.43,0,.65.25.02.5.04.86.06-.43.55-.99.31-1.41.51-.14.35.3.37.37.69-.36.19-.78-.31-1.19.13.48,1.4,2,1.65,3.01,2.48-.61.44-.59.42-1.31-.27-.47-.44-1.01-.8-1.64-1.1.45,1.59,1.33,2.91,2.29,4.21-1.43-.76-1.7-2.46-2.8-3.51-.47-.08-.27.54-.66.62-.31-.4.08-1.13-.61-1.38-1.91.93-2.87,2.82-4.12,4.46.23-1.24,1.14-2.03,1.77-3,.34-.52.62-.91.48-1.71-.31-1.75-.41-3.48-2.45-4.18-.19-.06-.34-.28-.08-.68Z"/>
      <path class="cls-1" d="M30.9,198.91c1.06-.89,2.17-1.41,3.61-1.38,2.18.04,3.41-1.47,2.57-3.49-.62-1.5-2.18-2.89-3.57-3.3-2.17-.64-4.51.2-7.06.98,1.24.58,2.4.48,3.17,1.34-.91.34-1.68-.34-2.49-.09.04.59.63.64.82,1.03-.11.1-.21.21-.32.31-.39-.04-.7-.51-1.2-.19.09.23.18.47.26.7-.13.09-.26.19-.39.28-.68-.59-1.35-1.17-2.21-1.91.19,1.75.64,3.16,1.29,4.5,1.46,3.01,2.96,3.35,5.52,1.22Z"/>
      <path class="cls-1" d="M12.17,197.02c2.78-1.34,5.34-3.19,8.65-3.57-.9-.8-1.93-.48-2.9-.92.58-.23,1.02-.41,1.57-.63-.66-.29-1.19-.52-2-.88.92-.08,1.51-.13,2.16-.18-1.66-2.22-6.76-3.86-9.06-2.97-.35.14-.85.37-.92.65-.38,1.58-1.61,2.37-3.14,3.21.51.36.67.56.86.59,1.92.25,2.44,1.29,2.27,3.19-.15,1.68.96,2.25,2.5,1.51Z"/>
      <path class="cls-1" d="M23.2,187.85c1.34-1.2,2.8-4.17,3.16-6.4.4-2.48-.29-3.06-2.59-2.2-.09.03-.21-.03-.39-.07-.81-1.14-.14-3.67-2.54-3.38-2.6.31-1.12,2.8-1.76,4.15-2.43-.06-3.08.92-2.15,3.14.52,1.24,1.34,2.3,2.08,3.41.23.34.91.57.65,1.17.3-.17.62.37,1.13-.17.12-.13-.45-.53-.26-.89.37-.22.54.48.9.11.26-.8-.33-1.67.13-2.52.8.71.16,1.84.89,2.37.4.17.2-.76.72-.31.14.53-.42,1.06.04,1.58Z"/>
      <path class="cls-1" d="M15.22,199.66c1.23.46,1.47,1.22,1.59,2.37.23,2.18,1.46,2.75,3.32,1.6.88-.54,1.74-.84,2.8-.83,1.99.02,2.42-.69,1.8-2.64-.58-1.79-1.32-3.54-1.45-5.45,0-.08-.12-.16-.25-.31-.18.34-.35.65-.57,1.05-.38-.8-.87-.69-1.45-.08.04-.59.07-.97.13-1.78-1.83,2.16-4,2.94-5.99,4.02-1.32.71-1.31,1.54.08,2.06Z"/>
      <path class="cls-1" d="M26.7,189.41c.05.36.51.41.85.36,2.69-.34,5.44-.11,8.08-.84.78-.22,1.68-.49,1.72-1.54.04-1.02-1.13-.41-1.56-1.15.15-.26.28-.5.43-.72.45-.64.67-1.3.08-1.96-.64-.71-1.4-.59-2.11-.15-.56.35-1.08.77-1.61,1.17-.49.37-.98.76-1.64.29-.03-.16-.09-.32-.1-.48-.03-.74.41-1.68-.48-2.1-.98-.46-1.82.14-2.56.76-1.69,1.44-2.42,3.43-3.39,5.69,1.23-.59,2.08-.76,2.29.67ZM27.18,187.62s.02,0,.03,0h-.03Z"/>
      <path class="cls-1" d="M13.85,183.76c-.83.03,0,1.06-.54,1.03-.89-.18-.11-1.09-.87-1.18-.58.17.1.71-.23.9-.56.27-.84-.33-1.29-.29-.43.05-.76.25-.82.69-.06.5.19,1.02.68.94.76-.12,1.54.33,2,.28,3.52-.39,5.5,1.78,7.51,4.04.33.37.4,1.09,1.14,1,.06-.12.16-.22.15-.3-.25-1.31-1.59-1.89-2.03-3.08-1.41-.72-2.56-1.88-4.12-2.31-.93-.25-1.66-.63-1.58-1.72Z"/>
      <path class="cls-1" d="M19.55,187.8s.02,0,.02.01c0,0,0-.01-.02-.02l.02.02s.06-.1.08-.14c-.04.02-.07.05-.11.1,0,0,0,.02.01.03Z"/>
      <path class="cls-1" d="M30.16,155.69c1.43.19,2.45.87,3.37,1.9,2.22,2.48,3.75,2.36,5.64-.4.84-1.23,1.49-2.56,1.94-4.26-.96.61-1.71,1.09-2.46,1.57-.12-.11-.23-.22-.35-.33.12-.22.24-.44.36-.66-.45-.39-.82.03-1.21.01-.09-.12-.18-.24-.27-.36.24-.36.84-.32.96-.9-.77-.36-1.63.19-2.48-.27.89-.73,2.02-.47,3.33-.86-2.41-1.14-4.61-2.32-6.84-2.01-1.44.2-3.18,1.34-4.02,2.74-1.13,1.88-.14,3.55,2.03,3.83Z"/>
      <path class="cls-1" d="M44.29,153.67c3.22.87,5.48,3.07,8.03,4.8,1.42.97,2.6.56,2.7-1.12.11-1.91.78-2.85,2.72-2.82.19,0,.38-.17.94-.46-1.39-1.06-2.5-2.02-2.64-3.64-.02-.28-.49-.59-.81-.78-2.14-1.22-7.43-.35-9.39,1.6.64.15,1.21.29,2.11.5-.84.23-1.41.39-2.1.57.51.3.92.53,1.46.85-1.03.29-2-.17-3.01.49Z"/>
      <path class="cls-1" d="M46.87,136.21c-2.34-.64-2.05,1.97-3.01,2.97-.18,0-.31.05-.4,0-2.15-1.19-2.91-.71-2.89,1.79.02,2.26,1.03,5.41,2.18,6.79.53-.44.05-1.05.27-1.56.58-.37.25.52.67.41.8-.42.34-1.63,1.23-2.22.33.91-.39,1.68-.24,2.51.3.41.57-.25.91.02.13.39-.49.7-.39.85.42.61.82.12,1.1.33-.18-.63.53-.75.81-1.06.9-.99,1.87-1.91,2.56-3.06,1.24-2.07.75-3.13-1.67-3.43-.43-1.43,1.41-3.68-1.13-4.37Z"/>
      <path class="cls-1" d="M40.83,162.6c1.05.15,1.86.57,2.65,1.23,1.67,1.41,2.96,1.03,3.51-1.09.29-1.11.64-1.84,1.92-2.11,1.45-.31,1.58-1.12.38-2.02-1.81-1.36-3.84-2.44-5.33-4.85-.06.81-.09,1.19-.13,1.78-.49-.68-.95-.87-1.45-.13-.16-.43-.28-.76-.41-1.13-.15.13-.28.19-.29.27-.41,1.87-1.4,3.49-2.23,5.18-.91,1.83-.58,2.6,1.39,2.87Z"/>
      <path class="cls-1" d="M28.83,145.24c-.12,1.05.73,1.45,1.47,1.78,2.51,1.11,5.26,1.29,7.87,2.02.32.09.79.11.89-.24.41-1.38,1.23-1.09,2.36-.32-.62-2.37-1.05-4.45-2.51-6.12-.64-.73-1.39-1.44-2.42-1.13-.95.28-.64,1.28-.78,2-.03.16-.11.31-.17.46-.72.37-1.15-.09-1.58-.53-.46-.47-.91-.97-1.42-1.4-.65-.54-1.38-.77-2.11-.16-.68.57-.56,1.25-.21,1.95.12.24.21.5.32.78-.54.67-1.6-.11-1.72.91Z"/>
      <path class="cls-1" d="M43.91,151.01c-.03.08.06.2.1.32.72.2.9-.5,1.28-.82,2.32-1.94,4.6-3.79,8.02-2.89.45.12,1.29-.22,2.02.01.47.15.8-.33.81-.84,0-.44-.29-.7-.7-.8-.44-.11-.8.45-1.32.1-.29-.23.45-.67-.09-.92-.76-.02-.12.99-1.03,1.04-.53-.05.44-.95-.38-1.1-.08,1.1-.87,1.36-1.82,1.47-1.6.19-2.92,1.18-4.42,1.68-.61,1.11-2.02,1.49-2.46,2.75Z"/>
      <path class="cls-1" d="M46.37,148.26s-.02.02-.02.02c0,0,.02,0,.03,0,0,0,.01-.02.02-.03-.03-.05-.06-.09-.1-.12.01.05.03.1.05.15l.02-.02Z"/>
      <path class="cls-1" d="M63.64,179.89c-2.27-2.11-4.71-3.91-7.43-5.32-.86-.45-1.78-.6-2.75-.44-.3.27-.62.12-1.04.04.27-.16.49-.29.7-.42.58-.94,1.2-1.87,1.74-2.84.76-1.35,1.54-2.71,1.76-4.29.12-.85-.11-1.54-1.1-1.39-3.29.5-6.35,1.62-8.88,3.86-.7.62-1.32,1.39-1.17,2.62-2.02-3.49-4.71-5.98-8.14-8.11-.17,4.21-1.08,8.14,1.13,11.9-3.42-.23-6.61.38-10.08,1.74,2.29,1.32,4.22,2.51,6.22,3.56,1.76.93,3.52,2.01,5.68,1.2-1.88,3.29-2.19,6.77-2.32,10.39,3.81-1.52,8.25-5.94,9.16-9.02.39,3.82,3.99,7.49,8.73,8.73-.68-3.68-.37-7.52-3.21-10.47,4.5.22,8.71-.44,10.99-1.77ZM40.4,171.86c.06-.46.07-1.1.77-1,.59.09.66.63.66,1-.06.65-.15,1.21-.8,1.14-.6-.07-.69-.63-.63-1.14ZM37.01,178.32c1.23.12,2.5-.66,4.04.3-1.59-.12-2.81-.21-4.04-.3ZM40.49,181.74c.12-.33,1.38-.88,1.59-.88.15,0,.3.04.48.07-.19.41-1.75.91-2.07.81ZM41.93,185.76l-.03-.13.11.02-.08.11ZM42.38,185.06c-.3-.2.03-.42-.02-.62.22.18.25.38.02.62ZM44.47,182.67s-.31.3-.44.38c-.61.37-.61,1.52-1.64,1.37.73-.25,1.48-1.56,1.71-1.7.22-.13.25-.12.28-.15.14-.11.18-.07.1.1ZM49.07,182.02h-.02s.04-.05.04-.05c0,.02-.01.03-.02.05ZM47.23,178.36c.22.71-.32,1.17-1.02,1.2-.72.04-1.31-.45-1.13-1.11.64-2.36-.84-3.69-2.25-5.1-.29-.28-.85-.41-.52-1.25,1.79.88,2.77,2.41,3.72,4.29.78-2.12,1.35-4.09,2.63-5.68.33-.41.45-1.23,1.3-.95.14.77-.57,1.12-.86,1.68-1.11,2.18-2.73,4.2-1.87,6.94ZM49.34,182.35c.23.08.48.16.28.47-.09-.15-.19-.31-.28-.47ZM49.85,183.2c-.07-.12-.15-.23-.22-.35.15-.08.31-.16.4.08.02.06-.1.17-.18.27ZM49.88,183.23c.74.14.75.17,1.25,1.35-.46-.5-.86-.93-1.25-1.35ZM51.33,185.06v-.11s.1.07.1.07l-.1.04ZM50.06,169.64c.23-.48-.58-.83-.22-1.33,1.38-.4,1.7-.16,1.73,1.29-.47.63-1.03-.28-1.51.05Z"/>
      <path class="cls-1" d="M5.49,164.24c2.27,3.48,5.61,4.12,9.49,3.44-3.15,2.64-3.98,5.82-3.14,9.68,1.42-.96,2.26-.64,2.38,1.01,4.23-1.29,5.56-3.52,6.11-10,2.13,6.53,3.88,8.32,8.04,8.19-.26-1.59.42-2.16,1.94-1.54.46-4.14-1.25-6.84-5.56-8.95-.19-.03-.39-.05-.62-.08.25-.46.52-.27.78-.15,4.58.02,7.11-1.65,8.05-5.39-1.68-.17-1.73-1.13-.91-2.4-3.82-1.34-6.98-.62-9.69,2.42,1.05-3.91-.01-6.89-3.09-9.2-.56.46-.55,1.26-1.17,1.36-.76.04-.97-.87-1.71-.75-2.25,2.89-2.16,5.91-.49,9.02.32.27.36.6.27.99-.43.02-.37-.42-.58-.6-3.61-2.25-6.31-2.2-9.71.2.14.59.9.84.86,1.55-.16.64-1.01.61-1.24,1.2ZM24.56,168.87c.06.4-.11.81-.57.83-1.08.06-.8-.93-1.2-1.66.84.14,1.64-.12,1.78.82ZM22.27,160.46s.13.11.23.19c-.13.08-.25.17-.38.21-.06.01-.15-.1-.22-.16.12-.08.24-.19.37-.24ZM12.98,164.23c.41-.47.8-.24,1.31,0,1.9.86,3.47.52,4.47-1.17.6-1.03.24-2.24-.41-3.23-.29-.43-.44-.78-.09-1.18.23-.27.55-.37.89-.15.46.29.34.67.3,1.14-.1,1.25-.4,2.47.89,3.55,1.65,1.37,2.85.24,4.15-.38.46-.22.72-.91,1.37-.43.29.22.37.58.22.9-.33.7-.86.36-1.41.31-2.22-.17-3.53,1.2-3.24,3.27-1.68-.76-3.43.6-3.57,2.85-.04.6.09,1.13-.66,1.27-.36.07-.66-.12-.8-.47-.25-.65.31-.82.67-1.16,1.42-1.32,1.76-3.17.6-3.89-1.01-.62-2.28-.68-3.45-.27-.46.16-.84.35-1.2-.05-.23-.26-.28-.64-.04-.92Z"/>
      <path class="cls-1" d="M19.73,165.94c.75-.1.98-.59.92-1.3-.15-.61-.59-.94-1.19-.85-.68.1-1.06.57-.91,1.29.12.62.53.94,1.18.86Z"/>
      <path class="cls-1" d="M4.34,139.93c.78.21,1.5-.62,2.35-.21-.4.83-1.3,1.18-1.47,2.03.43.48,1.17-.04,1.55.63-.15.32-.32.7-.55,1.19,2.03-.09.83,1.37,1.02,2.33,1.13-.59,2.14-.93,2.16.84.57-.32.86-.99,1.46-.63.63.61-.32,1.31.32,2,.63-1.05,1.23-2.04,1.83-3.03.1.04.2.08.3.12-.08,1.12-.17,2.25-.27,3.69.88-.78,1.62-1.75,2.25-.22,1.22-.44,1.49.7,2.01,1.4,1.29-1.94,2.8-2.46,4.17-1.47.18-1.12-.59-2.2-.15-3.4.89.65.94,1.78,1.8,2.24.42-.43-.03-1.16.56-1.5.66-.2.88.64,1.51.59-.12-2.19,1.41-.61,2.24-.88-.44-.97-.68-1.87.6-2.28-1.09-1.62.41-1.37,1.43-1.51-.98-.98-1.79-1.79-2.66-2.67,1.41-.2,2.41.8,3.67.78-.86-1.44-.29-2.61,1.89-3.95-1.72-1.5-1.97-3-.71-4.21-1.14-.44-2.48-.12-3.65-.84.85-.63,1.59-1.17,2.43-1.79-1.85-.56-1.87-.64-.78-1.81h0c-1.31-.19-1.98-.8-1.28-2.27-.94-.04-2.12,1.14-2.33-.73-1.61,1.62-1.52-.11-1.82-.96-1.07.86-1.58,2.11-3.02,2.8.11-1.42.19-2.61.32-4.3-.94,1.4-1.43.84-2.32.62-1.22-.29-1.4-1.04-1.93-1.73-.98,1.89-2.43,2.58-4.23,1.99.04,1.09.59,2.15.25,3.58-.91-1.06-1.6-1.86-2.31-2.7-.48,1.79-.55,1.82-1.89.98-.13.23-.2.56-.4.69-.65.44-1.18-.4-1.94-.26.18,1.01.74,2.33-1.24,1.79.09.69.73,1.11.24,1.74-.66.35-1.24-.62-2.11-.17,1.24.9,2.37,1.72,3.74,2.72-1.05.12-1.75.2-2.45.29-.7.08-1.39.17-2.08.26.03.73,2.32,1.05.3,2.02.64,1.19-.33,1.71-1.07,2.32,1.74.88,2.57,2.32,2.27,3.85ZM11.42,139.35c.11.08.3.68-.16.82-.33.1-.81.18-.69-.51.18-.99-1.31-1.36-.87-2.74.51.81,1.11.74,1.89.3-.17.85-1.15,1.45-.18,2.13ZM21.02,145.1s-.07-.14-.1-.21c.08-.03.16-.07.24-.1.07.06.13.13.2.19-.11.04-.22.1-.33.12ZM24.59,132.95c1.62.48-.4,2.39,1.13,2.7-.38.63-.78.71-1.23.76.85-1.15-.68-2.24.09-3.46ZM19.8,129.07c1.25-.71,2.3-.75,2.74,1-.66-.26-1.36-.22-1.85-.84-.4.38-.79.75-1.25,1.19-.47-.51-.02-1.1-.27-1.59-.7-.2-1.55-.21-1.84-1.2.65.79,2.36-.59,2.47,1.44ZM21.05,136.39c-.18.85-.61,1.46-1.13,1.97.27-.71-.1-1.74,1.13-1.97ZM19.59,138.62c-.7.56-1.28,1.11-2.17.71.62-.41,1.17-1,2.17-.71ZM15.83,138.53c.42.44.8.94,1.5.83-.71.69-1.31-.09-2.03-.15.21-.27.37-.47.53-.68ZM19.22,141.87c-.03-.26-.07-.74-.12-1.21.08-.05.16-.1.23-.15.2.4.4.8.61,1.22.76-.84,2.19-.6,2.32-1.17.21-.96,1.72-1.8.42-3.01.13,0,.17.02.21.01,1.71-.09,1.81,0,.95,1.65-1.04,1.98-2.71,3.12-4.93,3.75-2.28.66-4.14-.02-6.05-1-.19-.1-.37-.14-.48-.34-.13-.23-.27-.46-.6-1.02.98.33,1.62.54,2.36.79.15-.23.38-.57.81-1.22,0,.84,0,1.34,0,1.69,1.4,1.19,2.81,1.05,4.28-.01ZM14.23,138.19c.21.08.5.1.41.48-.35,0-.41-.22-.41-.48ZM13.49,133.22c.14-.19.34-.33.51-.13-.29-.51.1-.56.72-.61-.29.32-.47.52-.65.72,0,.02.02.03.03.05-.01-.02-.02-.03-.03-.04,0,0-.02.02-.03.03-.42.42-.19,1.09-.69,1.54-.41.37-.44,1.09.06,1.48.63.5.65,1.18.76,1.84-1.53-1.4-1.82-3.34-.69-4.87ZM8.88,133.34c.3-.5.95-.22,1.42-.73-.35-.38-.64-.68-1.04-1.1.8-.39,1.58-.9,1.78-1.59.27-.94,1.17-.2,1.5-.81.07-.14.27.22.34.42.13.33-.19.35-.31.34-1.15-.02-1.32.87-1.63,1.67-.41,1.05-.95,2.05-1.27,3.12-.16.54-.44.82-.9,1.2.32-.92.19-1.72.1-2.52Z"/>
      <path class="cls-1" d="M14.07,133.19s-.05-.08-.07-.11c.02.03.04.07.07.11,0,0,0,0,0,0Z"/>
      <path class="cls-1" d="M35.87,123.5c.25,0,.55-.14.68.23-3.07,2.65-3.57,3.71-2.73,5.82,1,2.52,4.37,4.88,6.88,4.83,2.15-.05,3.18-1.01,4.08-3.83-.08-.14-.15-.31.06-.35.08-.02.2.18.31.28,1.17,3.39,3.19,4.73,6.04,3.89,1.97-.58,3.61-1.73,4.8-3.42,1.51-2.16,1.07-4.42-1.09-5.94-.61-.43-1.37-.68-1.89-1.41,2.24.43,4.52,1.18,6.11-1.13,1.35-1.96,1.22-6.21-.24-8.11-2.61-3.39-5.3-1.41-8.3.5.51-.87.71-1.2.89-1.54,1.42-2.76.53-5.1-2.4-6.07-1.71-.56-3.49-.68-5.26-.23-3.03.76-4.31,3.17-3.25,6.09.1.27.43.53.09.91-.57-.44-1.11-.89-1.68-1.31-1.7-1.25-3.48-1.18-4.96.32-1.66,1.69-2.57,3.77-2.59,6.14-.02,2.8,1.68,4.4,4.46,4.34ZM51.16,119.57c-.54.55-1.12.69-1.77.38.59-.13,1.18-.25,1.77-.38ZM45.53,115.04c.09.03.24.05.25.1.02.09-.04.2-.07.3-.09-.03-.23-.05-.24-.11-.02-.09.04-.19.07-.29ZM45.47,115.83c.39.27.28.53.1.8-.59-.24,0-.54-.1-.8ZM40.79,117.39c1.28.36,1.91,1.89,3.29,2.09.55-.92,1.33-1.67,1.51-2.73.23.72.92,1.28.47,2.27-.22.49.59.69,1.08.46.89-.41,1.74-.9,2.4-1.67q.21.53-1.27,1.61c0,.22,0,.43,0,.65.25.02.5.04.86.06-.43.55-.99.31-1.41.51-.14.35.3.37.37.69-.36.19-.78-.31-1.19.13.48,1.4,2,1.65,3.01,2.48-.61.44-.59.42-1.31-.27-.47-.44-1.01-.8-1.64-1.1.45,1.59,1.33,2.91,2.29,4.21-1.43-.76-1.7-2.46-2.8-3.51-.47-.08-.27.54-.66.62-.31-.4.08-1.13-.61-1.38-1.91.93-2.87,2.82-4.12,4.46.23-1.24,1.14-2.03,1.77-3,.34-.52.62-.91.48-1.71-.31-1.75-.41-3.48-2.45-4.18-.19-.06-.34-.28-.08-.68Z"/>
      <path class="cls-1" d="M28.83,113.26c1.06-.89,2.17-1.41,3.61-1.38,2.18.04,3.41-1.47,2.57-3.49-.62-1.5-2.18-2.89-3.57-3.3-2.17-.64-4.51.2-7.06.98,1.24.58,2.4.48,3.17,1.34-.91.34-1.68-.34-2.49-.09.04.59.63.64.82,1.03-.11.1-.21.21-.32.31-.39-.04-.7-.51-1.2-.19.09.23.18.47.26.7-.13.09-.26.19-.39.28-.68-.59-1.35-1.17-2.21-1.91.19,1.75.64,3.16,1.29,4.5,1.46,3.01,2.96,3.35,5.52,1.22Z"/>
      <path class="cls-1" d="M10.1,111.37c2.78-1.34,5.34-3.19,8.65-3.57-.9-.8-1.93-.48-2.9-.92.58-.23,1.02-.41,1.57-.63-.66-.29-1.19-.52-2-.88.92-.08,1.51-.13,2.16-.18-1.66-2.22-6.76-3.86-9.06-2.97-.35.14-.85.37-.92.65-.38,1.58-1.61,2.37-3.14,3.21.51.36.67.56.86.59,1.92.25,2.44,1.29,2.27,3.19-.15,1.68.96,2.25,2.5,1.51Z"/>
      <path class="cls-1" d="M21.14,102.2c1.34-1.2,2.8-4.17,3.16-6.4.4-2.48-.29-3.06-2.59-2.2-.09.03-.21-.03-.39-.07-.81-1.14-.14-3.67-2.54-3.38-2.6.31-1.12,2.8-1.75,4.15-2.43-.06-3.08.92-2.15,3.14.52,1.24,1.34,2.3,2.08,3.41.23.34.91.57.65,1.17.3-.17.63.37,1.13-.17.12-.13-.45-.53-.26-.89.37-.22.54.48.9.11.26-.8-.33-1.67.13-2.52.8.71.16,1.84.89,2.37.4.17.2-.76.72-.31.14.53-.42,1.06.04,1.58Z"/>
      <path class="cls-1" d="M13.16,114.01c1.23.46,1.47,1.22,1.59,2.37.23,2.18,1.46,2.75,3.32,1.6.88-.54,1.74-.84,2.8-.83,1.99.02,2.42-.69,1.8-2.64-.58-1.79-1.32-3.54-1.45-5.45,0-.08-.12-.16-.25-.31-.18.34-.35.65-.57,1.05-.38-.8-.87-.69-1.45-.08.04-.59.07-.97.13-1.78-1.83,2.16-4,2.94-5.99,4.02-1.32.71-1.31,1.54.08,2.06Z"/>
      <path class="cls-1" d="M24.63,103.76c.05.36.51.41.85.36,2.69-.34,5.44-.11,8.08-.84.78-.22,1.68-.49,1.72-1.54.04-1.02-1.13-.41-1.56-1.15.15-.26.28-.5.43-.72.45-.64.67-1.3.08-1.96-.64-.71-1.4-.59-2.11-.15-.56.35-1.08.77-1.61,1.17-.49.37-.98.76-1.64.29-.03-.16-.09-.32-.1-.48-.03-.74.41-1.68-.48-2.1-.98-.46-1.82.14-2.56.76-1.69,1.44-2.42,3.43-3.39,5.69,1.23-.59,2.08-.76,2.29.67ZM25.16,101.98h-.04s0,0,0,0h.04Z"/>
      <path class="cls-1" d="M11.78,98.11c-.83.03,0,1.06-.54,1.03-.89-.18-.11-1.09-.87-1.18-.58.17.1.71-.23.9-.56.27-.84-.33-1.29-.29-.43.05-.76.25-.82.69-.06.5.19,1.02.68.94.76-.12,1.54.33,2,.28,3.52-.39,5.5,1.78,7.51,4.04.33.37.4,1.09,1.14,1,.06-.12.16-.22.15-.3-.25-1.31-1.59-1.89-2.03-3.08-1.41-.72-2.56-1.89-4.12-2.31-.93-.25-1.66-.63-1.58-1.72Z"/>
      <path class="cls-1" d="M17.49,102.15s.02,0,.02.01h0s.06-.1.08-.14c-.04.02-.07.05-.11.1,0,0,0,.02.01.03Z"/>
      <path class="cls-1" d="M28.09,70.04c1.42.19,2.45.87,3.37,1.9,2.22,2.48,3.75,2.36,5.64-.4.84-1.23,1.49-2.56,1.94-4.26-.96.61-1.71,1.09-2.46,1.57-.12-.11-.23-.22-.35-.33.12-.22.24-.44.36-.66-.45-.39-.82.03-1.21.01-.09-.12-.18-.24-.27-.36.24-.36.84-.32.96-.9-.77-.36-1.63.19-2.48-.27.89-.73,2.02-.47,3.33-.86-2.41-1.14-4.61-2.32-6.84-2.01-1.44.2-3.18,1.34-4.01,2.74-1.13,1.88-.14,3.55,2.03,3.83Z"/>
      <path class="cls-1" d="M42.23,68.02c3.22.87,5.48,3.07,8.03,4.8,1.42.97,2.6.56,2.7-1.12.11-1.91.78-2.85,2.72-2.82.19,0,.38-.17.94-.46-1.39-1.06-2.5-2.02-2.64-3.64-.02-.28-.49-.59-.81-.78-2.14-1.22-7.43-.35-9.39,1.6.64.15,1.21.29,2.11.5-.84.23-1.41.39-2.1.57.51.3.92.53,1.46.85-1.03.29-2-.17-3.01.49Z"/>
      <path class="cls-1" d="M44.8,50.56c-2.34-.64-2.05,1.97-3.01,2.97-.18,0-.31.05-.4,0-2.15-1.19-2.91-.71-2.89,1.79.02,2.26,1.03,5.41,2.18,6.79.53-.44.05-1.05.27-1.56.58-.37.25.52.67.41.8-.42.34-1.63,1.23-2.22.33.91-.39,1.68-.24,2.51.3.41.57-.25.9.02.13.39-.49.7-.39.85.42.61.82.12,1.1.33-.18-.63.53-.75.81-1.06.9-.99,1.87-1.91,2.56-3.06,1.24-2.07.75-3.13-1.67-3.43-.43-1.43,1.41-3.68-1.13-4.37Z"/>
      <path class="cls-1" d="M38.76,76.95c1.05.15,1.86.57,2.65,1.23,1.67,1.41,2.97,1.03,3.51-1.09.29-1.11.64-1.84,1.92-2.11,1.45-.31,1.58-1.12.38-2.02-1.81-1.36-3.84-2.44-5.33-4.85-.06.81-.09,1.19-.13,1.78-.49-.68-.95-.87-1.45-.13-.16-.43-.28-.76-.41-1.13-.15.13-.28.19-.29.27-.41,1.87-1.4,3.49-2.23,5.18-.91,1.83-.58,2.6,1.39,2.87Z"/>
      <path class="cls-1" d="M26.77,59.59c-.12,1.05.73,1.45,1.48,1.78,2.51,1.11,5.26,1.29,7.87,2.02.32.09.79.11.89-.24.41-1.38,1.23-1.09,2.36-.32-.62-2.37-1.05-4.45-2.51-6.12-.64-.73-1.38-1.44-2.42-1.13-.95.28-.64,1.28-.78,2-.03.16-.11.31-.17.46-.72.37-1.15-.09-1.58-.53-.47-.47-.91-.97-1.42-1.4-.65-.54-1.38-.77-2.11-.16-.68.57-.56,1.25-.21,1.95.12.24.21.5.32.78-.54.67-1.6-.11-1.72.91ZM36.79,61.32h0s-.04,0-.04,0c0,0,.02,0,.04,0Z"/>
      <path class="cls-1" d="M41.85,65.36c-.03.08.06.2.1.32.72.2.9-.5,1.28-.82,2.32-1.94,4.6-3.79,8.02-2.89.45.12,1.29-.22,2.02.01.47.15.8-.33.81-.84,0-.44-.28-.7-.7-.8-.44-.11-.8.45-1.32.1-.29-.23.45-.67-.09-.92-.76-.02-.12.99-1.03,1.04-.53-.05.44-.95-.38-1.1-.08,1.1-.87,1.36-1.82,1.47-1.6.19-2.92,1.18-4.42,1.68-.61,1.11-2.02,1.49-2.46,2.75Z"/>
      <path class="cls-1" d="M44.3,62.61s-.02.02-.02.02c0,0,.02,0,.03,0,0,0,.01-.02.02-.03-.03-.05-.06-.09-.1-.12.01.05.03.1.05.15l.02-.02Z"/>
      <path class="cls-1" d="M61.57,94.24c-2.27-2.11-4.71-3.91-7.43-5.32-.86-.45-1.78-.6-2.75-.44-.3.27-.62.12-1.04.04.27-.16.49-.29.7-.42.58-.94,1.2-1.87,1.74-2.84.76-1.35,1.54-2.71,1.76-4.29.12-.85-.11-1.54-1.1-1.39-3.29.5-6.35,1.62-8.88,3.86-.7.62-1.32,1.39-1.17,2.62-2.02-3.49-4.71-5.98-8.14-8.11-.17,4.21-1.08,8.14,1.13,11.9-3.42-.23-6.61.38-10.08,1.74,2.29,1.32,4.22,2.51,6.22,3.56,1.76.93,3.52,2.01,5.68,1.2-1.88,3.29-2.19,6.77-2.32,10.39,3.81-1.52,8.25-5.94,9.16-9.02.39,3.82,3.99,7.49,8.73,8.73-.68-3.68-.37-7.52-3.21-10.47,4.5.22,8.71-.44,10.99-1.77ZM38.33,86.21c.06-.46.07-1.1.77-1,.59.09.66.63.66,1-.06.65-.15,1.21-.8,1.14-.6-.07-.69-.63-.63-1.14ZM34.94,92.67c1.23.12,2.5-.66,4.04.3-1.59-.12-2.81-.21-4.04-.3ZM38.42,96.09c.12-.33,1.38-.88,1.59-.88.15,0,.3.04.48.07-.19.41-1.75.91-2.07.81ZM39.86,100.11l-.03-.14.11.02-.08.11ZM40.32,99.41c-.3-.2.03-.42-.02-.62.22.18.25.38.02.62ZM42.4,97.02s-.31.3-.44.38c-.61.37-.61,1.52-1.64,1.37.73-.25,1.48-1.56,1.71-1.7.22-.13.25-.12.28-.15.14-.11.18-.07.1.1ZM47.01,96.37h-.02s.04-.05.04-.05c0,.02-.01.03-.02.05ZM45.17,92.71c.22.71-.32,1.17-1.02,1.2-.72.04-1.31-.45-1.13-1.11.64-2.36-.84-3.69-2.25-5.1-.29-.28-.85-.41-.52-1.25,1.79.88,2.77,2.41,3.72,4.29.78-2.12,1.35-4.09,2.63-5.68.33-.41.45-1.23,1.3-.95.14.77-.57,1.12-.86,1.68-1.11,2.18-2.73,4.2-1.87,6.94ZM47.27,96.7c.23.08.48.16.28.47-.09-.15-.19-.31-.28-.47ZM47.79,97.55c-.07-.12-.15-.23-.22-.35.15-.08.31-.16.4.08.02.06-.1.17-.18.27ZM47.81,97.58c.74.14.75.17,1.25,1.35-.46-.5-.86-.93-1.25-1.35ZM49.27,99.41v-.11s.1.07.1.07l-.1.04ZM47.99,83.99c.23-.48-.58-.83-.22-1.33,1.38-.4,1.7-.16,1.73,1.29-.47.63-1.03-.28-1.51.05Z"/>
      <path class="cls-1" d="M2.08,20.96c1.97,1.14,3.63,2.15,5.34,3.06,1.51.8,3.03,1.73,4.88,1.04-1.61,2.83-1.88,5.82-1.99,8.93,3.28-1.3,7.09-5.1,7.88-7.75.34,3.28,3.43,6.44,7.5,7.5-.59-3.16-.32-6.46-2.76-9,3.87.19,7.48-.38,9.44-1.52-1.95-1.81-4.05-3.36-6.38-4.57-.74-.39-1.53-.52-2.36-.38-.26.23-.54.11-.89.04.24-.14.42-.25.6-.36.5-.81,1.03-1.61,1.5-2.44.65-1.16,1.33-2.33,1.51-3.69.1-.73-.09-1.32-.95-1.19-2.83.43-5.46,1.39-7.63,3.32-.6.53-1.13,1.2-1,2.26-1.74-3-4.04-5.14-7-6.97-.15,3.62-.93,6.99.97,10.23-2.94-.2-5.68.33-8.66,1.5ZM13.72,28.26l-.02-.12.09.02-.07.1ZM14.11,27.66c-.26-.17.02-.36-.02-.53.19.16.21.33.02.53ZM15.91,25.6s-.26.26-.38.32c-.53.32-.53,1.31-1.41,1.18.62-.21,1.27-1.34,1.47-1.46.19-.12.22-.1.24-.13.12-.1.16-.06.08.08ZM19.86,25.04h-.02s.03-.04.03-.04c0,.01,0,.03-.01.04ZM20.09,25.33c.2.07.41.13.24.4-.08-.13-.16-.27-.24-.4ZM20.53,26.06c-.06-.1-.13-.2-.19-.3.13-.07.26-.14.34.07.02.05-.09.15-.15.23ZM20.56,26.08c.64.12.65.14,1.08,1.16-.4-.43-.74-.8-1.08-1.16ZM21.81,27.66v-.09s.08.06.08.06l-.08.04ZM20.52,13.26c1.19-.34,1.46-.13,1.49,1.11-.4.54-.88-.24-1.3.04.2-.41-.5-.72-.19-1.15ZM14.05,16.51c1.54.75,2.38,2.07,3.2,3.68.67-1.82,1.16-3.52,2.26-4.89.28-.35.39-1.06,1.12-.82.12.66-.49.96-.74,1.44-.96,1.87-2.35,3.61-1.61,5.96.19.61-.27,1-.88,1.03-.62.03-1.13-.39-.97-.96.55-2.03-.72-3.17-1.94-4.38-.25-.24-.73-.35-.45-1.08ZM13.85,24.05c.13,0,.26.04.41.06-.16.35-1.5.78-1.78.69.11-.28,1.19-.75,1.37-.76ZM12.41,16.31c.05-.4.06-.95.66-.86.51.07.57.54.56.86-.06.56-.13,1.04-.68.98-.51-.06-.6-.54-.54-.98ZM12.96,22.12c-1.37-.1-2.42-.18-3.47-.26,1.06.1,2.15-.56,3.47.26Z"/>
      <path class="cls-1" d="M3.42,78.59c2.27,3.48,5.61,4.12,9.49,3.44-3.15,2.64-3.98,5.82-3.14,9.68,1.42-.96,2.26-.64,2.38,1.01,4.23-1.29,5.56-3.52,6.11-10,2.13,6.53,3.88,8.32,8.04,8.19-.26-1.59.42-2.16,1.94-1.54.46-4.14-1.25-6.84-5.56-8.95-.19-.03-.39-.05-.62-.08.25-.46.52-.27.78-.15,4.58.02,7.11-1.65,8.05-5.39-1.68-.17-1.73-1.13-.91-2.4-3.82-1.34-6.98-.62-9.68,2.42,1.05-3.91-.01-6.89-3.1-9.2-.56.46-.55,1.26-1.17,1.36-.76.04-.97-.87-1.71-.75-2.25,2.89-2.16,5.91-.49,9.02.32.27.36.6.27.99-.43.02-.37-.42-.58-.6-3.61-2.25-6.31-2.2-9.71.2.14.59.9.84.86,1.55-.16.64-1.01.61-1.24,1.2ZM22.5,83.22c.06.4-.11.81-.57.83-1.08.06-.8-.93-1.2-1.66.84.14,1.64-.12,1.78.82ZM20.2,74.81s.13.11.23.19c-.13.08-.25.17-.38.21-.06.01-.15-.1-.22-.16.12-.08.24-.19.37-.24ZM10.91,78.58c.41-.47.8-.24,1.31,0,1.9.86,3.47.52,4.47-1.17.6-1.03.24-2.24-.41-3.23-.29-.43-.44-.78-.09-1.18.23-.27.55-.37.89-.15.46.29.34.67.3,1.14-.1,1.25-.4,2.47.89,3.55,1.65,1.37,2.85.24,4.15-.38.46-.22.72-.91,1.37-.43.29.22.37.58.22.9-.33.7-.86.36-1.41.31-2.22-.17-3.53,1.2-3.24,3.27-1.68-.76-3.43.6-3.57,2.85-.03.6.09,1.13-.66,1.27-.36.07-.66-.12-.8-.47-.25-.65.31-.82.67-1.16,1.42-1.32,1.76-3.17.6-3.89-1.01-.62-2.28-.68-3.45-.27-.46.16-.84.35-1.2-.05-.23-.26-.28-.64-.04-.92Z"/>
      <path class="cls-1" d="M17.66,80.29c.75-.1.98-.59.92-1.3-.15-.61-.58-.94-1.19-.85-.68.1-1.06.57-.91,1.29.12.62.53.94,1.18.86Z"/>
      <path class="cls-1" d="M2.27,54.28c.78.21,1.5-.62,2.35-.21-.4.83-1.3,1.18-1.47,2.03.43.48,1.17-.04,1.55.63-.15.32-.32.7-.55,1.19,2.03-.09.83,1.37,1.02,2.33,1.13-.59,2.14-.93,2.16.84.57-.32.86-.99,1.46-.63.63.61-.32,1.31.32,2,.63-1.05,1.23-2.04,1.83-3.03.1.04.2.08.3.12-.08,1.12-.17,2.25-.27,3.69.88-.78,1.62-1.75,2.25-.21,1.22-.45,1.49.7,2.01,1.4,1.29-1.94,2.8-2.46,4.17-1.47.18-1.12-.59-2.2-.15-3.4.89.65.94,1.78,1.8,2.24.42-.43-.03-1.16.56-1.5.66-.2.88.64,1.51.59-.12-2.19,1.41-.61,2.24-.88-.44-.97-.68-1.87.6-2.28-1.09-1.62.41-1.37,1.43-1.51-.98-.98-1.79-1.79-2.66-2.67,1.41-.2,2.41.8,3.67.78-.86-1.44-.29-2.61,1.89-3.95-1.72-1.5-1.97-3-.71-4.21-1.14-.44-2.48-.12-3.65-.84.85-.63,1.59-1.17,2.43-1.79-1.85-.56-1.87-.64-.78-1.81h0c-1.31-.19-1.98-.8-1.28-2.27-.94-.04-2.12,1.14-2.33-.73-1.61,1.62-1.52-.11-1.82-.96-1.07.86-1.58,2.11-3.02,2.8.11-1.42.19-2.61.32-4.3-.94,1.4-1.43.84-2.32.62-1.22-.29-1.4-1.04-1.93-1.73-.98,1.89-2.43,2.58-4.23,1.99.04,1.09.59,2.15.25,3.58-.91-1.06-1.6-1.86-2.31-2.7-.48,1.79-.55,1.82-1.89.98-.13.23-.2.56-.4.69-.65.44-1.18-.4-1.94-.26.18,1.01.74,2.33-1.24,1.79.09.69.73,1.11.24,1.74-.66.35-1.24-.62-2.11-.17,1.24.9,2.37,1.72,3.74,2.72-1.05.12-1.75.2-2.45.29-.7.08-1.39.17-2.08.26.03.73,2.32,1.05.3,2.02.64,1.19-.33,1.71-1.07,2.32,1.74.88,2.57,2.32,2.27,3.85ZM9.35,53.7c.11.08.3.68-.16.82-.33.1-.81.18-.69-.51.18-.99-1.31-1.36-.87-2.74.51.81,1.11.74,1.89.3-.17.85-1.15,1.45-.18,2.13ZM18.96,59.45s-.07-.14-.1-.21c.08-.03.16-.07.24-.1.07.06.13.13.2.19-.11.04-.22.1-.33.12ZM22.52,47.3c1.62.48-.4,2.39,1.13,2.7-.38.63-.78.71-1.23.76.85-1.15-.68-2.24.09-3.46ZM17.73,43.42c1.25-.71,2.3-.75,2.74,1-.66-.26-1.36-.22-1.85-.84-.4.38-.79.75-1.25,1.19-.47-.51-.02-1.1-.27-1.59-.7-.2-1.55-.21-1.84-1.2.65.79,2.36-.59,2.47,1.44ZM18.98,50.75c-.18.85-.61,1.46-1.13,1.97.27-.71-.1-1.74,1.13-1.97ZM17.53,52.98c-.7.56-1.28,1.11-2.17.71.62-.41,1.17-1,2.17-.71ZM13.77,52.88c.42.44.8.94,1.5.83-.71.69-1.31-.09-2.03-.15.21-.27.37-.47.53-.68ZM17.16,56.22c-.03-.26-.07-.74-.12-1.21.08-.05.16-.1.23-.15.2.4.4.8.61,1.22.76-.84,2.19-.6,2.32-1.17.21-.96,1.72-1.8.42-3.01.12,0,.17.02.21.01,1.71-.09,1.81,0,.95,1.65-1.04,1.98-2.71,3.12-4.93,3.75-2.28.66-4.14-.02-6.05-1-.19-.1-.37-.14-.48-.34-.13-.23-.27-.46-.6-1.02.98.33,1.62.54,2.36.79.15-.23.38-.57.81-1.22,0,.84,0,1.34,0,1.69,1.4,1.19,2.81,1.05,4.28-.01ZM12.17,52.54c.21.08.5.1.41.48-.35,0-.41-.22-.41-.48ZM11.43,47.57c.14-.19.34-.33.51-.13-.29-.51.1-.56.72-.61-.29.32-.47.52-.65.72,0,.02.02.03.03.05-.01-.02-.02-.03-.03-.04,0,0-.02.02-.03.03-.42.42-.19,1.09-.69,1.54-.41.37-.44,1.09.06,1.48.63.5.65,1.18.76,1.84-1.53-1.4-1.82-3.34-.69-4.87ZM6.81,47.69c.3-.5.95-.22,1.42-.73-.35-.38-.64-.68-1.04-1.1.8-.39,1.58-.9,1.78-1.59.27-.94,1.17-.2,1.5-.81.07-.14.27.22.34.42.13.33-.19.35-.31.34-1.15-.02-1.32.87-1.63,1.67-.41,1.05-.95,2.05-1.27,3.12-.16.54-.44.82-.9,1.2.32-.92.19-1.72.1-2.52Z"/>
      <path class="cls-1" d="M12,47.54s-.05-.08-.07-.11c.02.03.04.07.07.11h0Z"/>
      <path class="cls-1" d="M27.41,12.15c1.03.52,1.53,1.38,1.35,2.28.46.12.89-.37,1.4-.13-.24.49-.77.7-.87,1.21.25.28.69-.02.92.37-.09.19-.19.42-.32.71,1.2-.06.5.82.6,1.39.67-.35,1.27-.55,1.28.5.34-.19.51-.59.87-.37.37.36-.19.78.19,1.19.38-.62.73-1.21,1.08-1.8.06.02.12.05.18.07-.05.67-.1,1.34-.16,2.19.52-.46.96-1.04,1.34-.13.72-.26.89.41,1.2.83.77-1.15,1.66-1.46,2.48-.87.11-.67-.35-1.31-.09-2.02.53.39.56,1.06,1.07,1.33.25-.26-.01-.69.34-.89.39-.12.52.38.9.35-.07-1.3.84-.36,1.33-.52-.26-.58-.4-1.11.36-1.35-.65-.96.24-.81.85-.9-.58-.58-1.06-1.06-1.58-1.59.84-.12,1.43.48,2.18.46-.51-.86-.17-1.55,1.12-2.35-1.02-.89-1.17-1.78-.42-2.5-.68-.26-1.47-.07-2.17-.5.51-.37.94-.7,1.44-1.06-1.1-.33-1.11-.38-.47-1.08h0c-.78-.11-1.18-.48-.76-1.35-.56-.02-1.26.68-1.38-.43-.96.96-.9-.07-1.08-.57-.63.51-.94,1.26-1.79,1.66.06-.85.11-1.55.19-2.55-.56.83-.85.5-1.38.37-.73-.17-.83-.62-1.15-1.03-.58,1.12-1.45,1.53-2.52,1.18.03.65.35,1.28.15,2.13-.54-.63-.95-1.11-1.37-1.6-.28,1.06-.32,1.08-1.12.58-.08.14-.12.33-.24.41-.39.26-.7-.24-1.15-.15.11.6.44,1.39-.73,1.06.05.41.43.66.14,1.03-.39.21-.74-.37-1.25-.1.74.54,1.41,1.02,2.22,1.62-.62.07-1.04.12-1.45.17-.41.05-.83.1-1.24.15.02.43,1.38.63.18,1.2.38.71-.2,1.02-.63,1.38ZM32.97,14.09c.07.05.18.41-.09.49-.2.06-.48.11-.41-.3.1-.59-.78-.81-.51-1.63.3.48.66.44,1.13.18-.1.51-.68.86-.11,1.27ZM38.67,17.5s-.04-.08-.06-.13c.05-.02.09-.04.14-.06.04.04.08.08.12.12-.07.03-.13.06-.2.07ZM40.79,10.29c.96.29-.24,1.42.67,1.6-.23.38-.47.42-.73.45.51-.68-.4-1.33.05-2.06ZM37.95,7.99c.74-.42,1.36-.45,1.63.59-.39-.15-.81-.13-1.1-.5-.23.22-.47.45-.74.71-.28-.3-.01-.65-.16-.95-.42-.12-.92-.13-1.09-.71.39.47,1.4-.35,1.46.86ZM38.69,12.34c-.11.5-.36.86-.67,1.17.16-.42-.06-1.03.67-1.17ZM37.82,13.66c-.42.33-.76.66-1.29.42.37-.24.69-.6,1.29-.42ZM35.59,13.6c.25.26.47.56.89.49-.42.4-.78-.05-1.2-.09.13-.16.22-.28.32-.4ZM37.6,15.59c-.02-.16-.04-.44-.07-.72.05-.03.09-.06.14-.09.12.24.24.47.36.72.45-.5,1.3-.36,1.38-.69.12-.57,1.02-1.07.25-1.79.07,0,.1.01.13,0,1.01-.05,1.08,0,.56.98-.62,1.18-1.61,1.85-2.93,2.23-1.36.39-2.46-.01-3.6-.59-.11-.06-.22-.08-.29-.2-.08-.14-.16-.27-.36-.61.58.2.96.32,1.4.47.09-.14.22-.34.48-.72,0,.5,0,.8,0,1.01.83.71,1.67.62,2.54,0ZM34.64,13.4c.13.05.3.06.24.29-.21,0-.24-.13-.24-.29ZM34.2,10.45c.08-.11.2-.2.31-.07-.17-.31.05-.34.42-.37-.17.19-.28.31-.39.43,0,0,.01.02.02.03,0-.01,0-.02-.02-.03,0,0-.01.01-.02.02-.25.25-.11.65-.41.92-.24.22-.26.65.04.88.38.3.39.7.45,1.09-.91-.83-1.08-1.98-.41-2.89ZM31.46,10.52c.18-.29.56-.13.84-.43-.21-.22-.38-.41-.61-.66.48-.23.94-.53,1.06-.94.16-.56.7-.12.89-.48.04-.08.16.13.21.25.08.2-.11.21-.18.2-.68-.01-.78.52-.97.99-.25.62-.56,1.22-.75,1.86-.09.32-.26.49-.53.71.19-.54.11-1.02.06-1.5Z"/>
      <path class="cls-1" d="M36.89,27.05c-1.7-1.25-3.48-1.18-4.96.32-1.66,1.69-2.57,3.77-2.59,6.14-.02,2.8,1.68,4.4,4.46,4.34.25,0,.55-.14.68.23-3.07,2.65-3.57,3.71-2.73,5.82,1,2.52,4.37,4.88,6.88,4.83,2.15-.05,3.18-1.01,4.08-3.83-.08-.14-.15-.31.06-.35.08-.02.2.18.31.28,1.17,3.39,3.19,4.73,6.04,3.89,1.97-.58,3.61-1.73,4.8-3.42,1.51-2.16,1.07-4.42-1.09-5.94-.61-.43-1.37-.68-1.89-1.41,2.24.43,4.52,1.18,6.11-1.13,1.35-1.96,1.22-6.21-.24-8.11-2.61-3.39-5.3-1.41-8.3.5.51-.87.71-1.2.89-1.54,1.42-2.76.53-5.1-2.4-6.07-1.71-.56-3.49-.68-5.26-.23-3.03.76-4.31,3.17-3.25,6.09.1.27.43.53.09.91-.57-.44-1.11-.89-1.68-1.31ZM49.09,33.92c-.54.55-1.12.69-1.77.38.59-.13,1.18-.25,1.77-.38ZM43.46,29.39c.09.03.24.05.25.1.02.09-.04.2-.07.3-.09-.04-.23-.05-.24-.11-.02-.09.04-.19.07-.29ZM43.41,30.18c.39.27.28.53.1.8-.59-.24,0-.54-.1-.8ZM38.72,31.74c1.28.36,1.91,1.89,3.29,2.09.55-.92,1.32-1.67,1.51-2.73.23.72.92,1.28.47,2.27-.22.49.59.69,1.08.46.89-.41,1.74-.9,2.4-1.67q.21.53-1.27,1.61c0,.22,0,.43,0,.65.25.02.5.04.86.06-.43.55-.99.31-1.41.51-.14.35.3.37.37.69-.36.19-.78-.31-1.19.13.48,1.4,2,1.65,3.01,2.48-.61.44-.59.42-1.31-.27-.47-.44-1.01-.8-1.64-1.1.45,1.59,1.33,2.91,2.29,4.21-1.43-.76-1.7-2.46-2.8-3.51-.47-.08-.27.54-.66.62-.31-.4.08-1.13-.61-1.38-1.91.93-2.87,2.82-4.12,4.46.23-1.24,1.14-2.03,1.77-3,.34-.52.62-.91.48-1.71-.31-1.75-.41-3.48-2.45-4.18-.19-.06-.34-.28-.08-.68Z"/>
      <path class="cls-1" d="M91.22,39.06c-.19-1.75-.64-3.16-1.29-4.5-1.46-3.01-2.96-3.35-5.52-1.22-1.06.89-2.17,1.41-3.61,1.38-2.18-.04-3.41,1.47-2.57,3.49.62,1.5,2.18,2.89,3.57,3.3,2.17.64,4.51-.2,7.06-.98-1.24-.58-2.4-.48-3.17-1.34.91-.34,1.68.34,2.49.09-.04-.59-.63-.64-.82-1.03.11-.1.21-.21.32-.31.39.04.7.51,1.2.19-.09-.23-.18-.47-.26-.7.13-.09.26-.19.39-.28.68.59,1.35,1.17,2.21,1.91Z"/>
      <path class="cls-1" d="M97.39,39.71c-.58.23-1.02.41-1.57.62.66.29,1.19.52,2,.88-.92.08-1.51.13-2.16.18,1.66,2.22,6.76,3.86,9.06,2.97.35-.14.85-.37.92-.65.38-1.58,1.61-2.37,3.14-3.21-.51-.36-.67-.56-.86-.59-1.92-.25-2.44-1.29-2.27-3.19.15-1.68-.96-2.25-2.5-1.51-2.78,1.34-5.34,3.19-8.65,3.57.9.8,1.93.48,2.9.92Z"/>
      <path class="cls-1" d="M92.1,44.39c-1.34,1.2-2.8,4.17-3.16,6.4-.4,2.48.29,3.06,2.59,2.2.09-.03.21.03.39.07.81,1.14.14,3.67,2.54,3.38,2.6-.31,1.12-2.8,1.75-4.15,2.43.06,3.08-.92,2.15-3.14-.52-1.24-1.34-2.3-2.08-3.41-.23-.34-.91-.57-.65-1.17-.3.17-.62-.37-1.13.17-.12.13.45.53.26.89-.37.22-.54-.48-.9-.11-.27.8.33,1.67-.13,2.52-.8-.71-.16-1.84-.89-2.37-.4-.17-.2.76-.72.31-.14-.53.42-1.06-.04-1.58Z"/>
      <path class="cls-1" d="M90.58,32.08c.58,1.79,1.32,3.54,1.45,5.45,0,.08.12.16.25.31.18-.34.35-.65.57-1.05.38.8.87.69,1.45.08-.04.59-.07.97-.13,1.78,1.83-2.16,4-2.94,5.99-4.02,1.32-.71,1.31-1.54-.08-2.05-1.23-.46-1.47-1.22-1.59-2.37-.23-2.18-1.46-2.75-3.32-1.6-.88.54-1.74.84-2.8.83-1.99-.01-2.42.69-1.8,2.64Z"/>
      <path class="cls-1" d="M79.52,46.01c-.15.26-.28.5-.43.72-.45.64-.67,1.3-.08,1.96.64.71,1.4.59,2.11.15.56-.35,1.08-.77,1.61-1.17.49-.37.98-.76,1.64-.29.03.16.09.32.1.48.03.74-.41,1.68.48,2.1.98.46,1.82-.14,2.56-.76,1.69-1.44,2.42-3.43,3.39-5.69-1.23.59-2.08.76-2.29-.67-.05-.36-.52-.41-.85-.36-2.69.34-5.44.11-8.08.84-.78.22-1.68.49-1.72,1.54-.04,1.02,1.13.41,1.56,1.15ZM88.13,44.62h0s-.02,0-.03,0h.03Z"/>
      <path class="cls-1" d="M101.46,48.48c.83-.03,0-1.06.54-1.03.89.18.11,1.09.87,1.18.58-.17-.1-.71.23-.9.56-.27.84.33,1.29.29.43-.05.76-.25.81-.69.06-.5-.19-1.02-.68-.94-.76.12-1.54-.33-2-.28-3.52.39-5.5-1.78-7.51-4.04-.33-.37-.4-1.09-1.14-1-.06.12-.16.22-.15.3.25,1.31,1.59,1.89,2.03,3.08,1.41.72,2.56,1.88,4.12,2.31.93.25,1.66.63,1.58,1.72Z"/>
      <path class="cls-1" d="M95.75,44.44s-.02,0-.02-.01h0s-.06.1-.08.14c.04-.02.07-.05.11-.1,0,0,0-.02-.01-.03Z"/>
      <path class="cls-1" d="M61.07,15.57c-.16,1.54-.04,2.84.27,4.11.69,2.86,1.92,3.44,4.51,2.09,1.08-.56,2.13-.8,3.36-.51,1.87.44,3.2-.63,2.86-2.52-.25-1.41-1.33-2.89-2.45-3.5-1.74-.96-3.92-.67-6.26-.48.96.73,1.97.86,2.48,1.74-.85.12-1.38-.61-2.12-.55-.08.52.42.67.51,1.04-.11.07-.22.14-.33.21-.33-.1-.5-.57-1-.39.03.22.06.43.1.65-.13.06-.26.11-.39.17-.47-.63-.94-1.26-1.54-2.06Z"/>
      <path class="cls-1" d="M46.87,11.71c1.6.57,1.86,1.56,1.36,3.17-.45,1.41.4,2.12,1.87,1.76,2.64-.63,5.19-1.74,8.11-1.45-.63-.86-1.57-.78-2.32-1.34.54-.09.95-.16,1.47-.24-.51-.37-.93-.68-1.55-1.13.81.11,1.32.17,1.9.25-1.01-2.22-5.09-4.59-7.23-4.25-.33.05-.8.16-.91.39-.62,1.29-1.83,1.74-3.3,2.18.37.41.47.61.63.67Z"/>
      <path class="cls-1" d="M59.29,10.07c.13-.09-.28-.54-.06-.82.36-.12.38.51.75.27.38-.64.02-1.49.58-2.14.55.76-.21,1.61.32,2.21.31.22.31-.62.68-.13.02.48-.56.83-.26,1.37,1.38-.78,3.19-3.06,3.91-4.91.8-2.06.32-2.68-1.82-2.38-.08.01-.18-.07-.32-.13-.48-1.13.57-3.18-1.55-3.39-2.3-.22-1.49,2.2-2.29,3.24-2.08-.51-2.82.21-2.44,2.3.21,1.16.72,2.23,1.15,3.32.13.34.68.66.34,1.12.29-.09.47.44,1.01.07Z"/>
      <path class="cls-1" d="M52.55,17.7c-1.27.37-1.42,1.08-.32,1.78.97.62,1.03,1.33.92,2.33-.21,1.92.74,2.64,2.55,2,.86-.3,1.66-.39,2.57-.19,1.71.39,2.21-.14,2.04-1.93-.16-1.65-.47-3.29-.22-4.96.01-.07-.08-.16-.16-.31-.22.26-.42.49-.69.8-.18-.76-.62-.75-1.23-.34.15-.5.24-.82.45-1.51-1.98,1.52-3.99,1.78-5.9,2.33Z"/>
      <path class="cls-1" d="M62.18,11.81c1.16-.28,1.93-.26,1.84,1-.02.32.37.45.66.47,2.38.21,4.7.92,7.11.79.71-.04,1.54-.11,1.77-1.01.22-.87-.9-.57-1.13-1.28.18-.19.33-.38.51-.54.51-.47.82-.99.44-1.67-.42-.73-1.09-.77-1.79-.53-.55.19-1.08.46-1.61.71-.5.23-.98.47-1.47-.05,0-.14-.02-.29,0-.43.11-.64.67-1.36-.02-1.89-.75-.58-1.59-.22-2.34.18-1.72.92-2.73,2.5-3.98,4.26ZM64.77,11.37s.02,0,.02,0h-.02Z"/>
      <path class="cls-1" d="M51,6.79c.68.04,1.26.58,1.67.62,3.1.33,4.4,2.56,5.7,4.88.21.38.14,1.01.79,1.07.07-.09.18-.16.18-.23.03-1.17-1.01-1.93-1.17-3.03-1.08-.88-1.85-2.1-3.11-2.76-.75-.39-1.31-.85-1.04-1.78-.72-.13-.2.91-.66.79-.73-.32.11-.96-.53-1.18-.53.04-.05.63-.36.73-.54.13-.66-.45-1.05-.49-.38-.04-.7.07-.83.44-.15.42-.03.92.41.94Z"/>
      <path class="cls-1" d="M58.19,10.11s.07-.07.09-.11c-.04.01-.07.03-.11.06,0,0,0,.02,0,.03,0,0,.01.01.02.02h0Z"/>
      <path class="cls-1" d="M85.15,76.55c-1.42-.19-2.45-.87-3.37-1.9-2.22-2.48-3.75-2.36-5.64.4-.84,1.23-1.49,2.56-1.94,4.26.96-.61,1.71-1.09,2.46-1.57.12.11.23.22.35.33-.12.22-.24.44-.36.66.45.39.82-.03,1.21-.01.09.12.18.24.27.36-.24.36-.84.32-.96.9.77.36,1.63-.19,2.48.27-.89.73-2.02.47-3.33.86,2.41,1.14,4.61,2.32,6.84,2.01,1.44-.2,3.18-1.34,4.02-2.74,1.13-1.88.14-3.55-2.03-3.83Z"/>
      <path class="cls-1" d="M60.29,74.89c-.11,1.91-.78,2.85-2.72,2.82-.19,0-.38.17-.94.46,1.39,1.06,2.5,2.02,2.64,3.64.02.28.49.59.81.78,2.14,1.22,7.43.35,9.39-1.6-.64-.15-1.21-.29-2.11-.5.84-.23,1.41-.39,2.1-.57-.51-.3-.92-.53-1.46-.85,1.03-.29,2,.17,3.01-.49-3.22-.87-5.48-3.07-8.03-4.8-1.42-.97-2.6-.56-2.7,1.12Z"/>
      <path class="cls-1" d="M72.28,86.02c-.58.37-.25-.52-.67-.41-.8.42-.34,1.63-1.23,2.22-.33-.91.39-1.68.24-2.51-.3-.41-.57.25-.9-.02-.13-.39.49-.7.39-.85-.42-.61-.82-.12-1.1-.33.18.63-.53.75-.81,1.06-.9.99-1.87,1.91-2.56,3.06-1.24,2.07-.75,3.13,1.67,3.43.43,1.43-1.4,3.68,1.13,4.37,2.34.64,2.05-1.97,3.01-2.97.18,0,.31-.05.4,0,2.15,1.19,2.91.71,2.89-1.79-.02-2.26-1.03-5.41-2.18-6.79-.53.45-.05,1.05-.27,1.56Z"/>
      <path class="cls-1" d="M74.48,69.64c-1.05-.15-1.86-.57-2.65-1.23-1.67-1.41-2.96-1.03-3.51,1.09-.29,1.11-.64,1.84-1.92,2.11-1.45.31-1.58,1.12-.38,2.02,1.81,1.36,3.84,2.44,5.33,4.85.06-.81.09-1.19.13-1.78.49.68.95.87,1.45.13.16.43.28.76.41,1.13.15-.13.28-.19.29-.27.41-1.87,1.4-3.49,2.23-5.18.91-1.83.58-2.6-1.39-2.87Z"/>
      <path class="cls-1" d="M86.48,87c.12-1.05-.73-1.45-1.48-1.78-2.51-1.11-5.26-1.29-7.87-2.02-.32-.09-.79-.11-.89.24-.41,1.38-1.23,1.09-2.36.32.62,2.37,1.05,4.45,2.51,6.12.64.73,1.38,1.44,2.42,1.13.95-.28.64-1.28.78-2,.03-.16.11-.31.17-.46.72-.37,1.15.09,1.58.53.46.47.91.97,1.42,1.4.65.54,1.38.77,2.11.16.68-.57.56-1.25.21-1.95-.12-.24-.21-.5-.32-.78.54-.67,1.6.11,1.72-.91Z"/>
      <path class="cls-1" d="M71.39,81.23c.03-.08-.06-.2-.1-.32-.72-.2-.9.5-1.28.82-2.32,1.94-4.6,3.79-8.02,2.89-.45-.12-1.29.22-2.02-.01-.47-.15-.8.33-.81.84,0,.44.29.7.7.8.44.11.8-.45,1.32-.1.29.23-.45.67.09.92.76.02.12-.99,1.03-1.04.53.05-.44.95.38,1.1.08-1.1.87-1.36,1.82-1.47,1.6-.19,2.92-1.18,4.42-1.68.61-1.11,2.02-1.49,2.46-2.75Z"/>
      <path class="cls-1" d="M68.94,83.98s.02-.02.02-.02c0,0-.02,0-.03,0,0,0-.01.02-.02.03.03.05.06.09.1.12-.01-.05-.03-.1-.05-.15l-.02.02Z"/>
      <path class="cls-1" d="M51.67,52.35c2.27,2.11,4.71,3.91,7.43,5.32.86.45,1.78.6,2.75.44.3-.27.62-.12,1.04-.04-.27.16-.49.29-.7.42-.58.94-1.2,1.87-1.74,2.84-.76,1.35-1.54,2.71-1.76,4.29-.12.85.11,1.54,1.1,1.39,3.29-.5,6.35-1.62,8.88-3.86.7-.62,1.32-1.39,1.17-2.62,2.02,3.49,4.71,5.98,8.14,8.11.17-4.21,1.08-8.14-1.13-11.9,3.42.23,6.61-.38,10.08-1.74-2.29-1.32-4.22-2.51-6.22-3.56-1.76-.93-3.52-2.01-5.68-1.2,1.88-3.29,2.19-6.77,2.32-10.39-3.81,1.52-8.25,5.94-9.16,9.02-.39-3.82-3.99-7.49-8.73-8.73.68,3.68.37,7.52,3.21,10.47-4.5-.22-8.71.44-10.99,1.77ZM74.91,60.38c-.06.46-.07,1.1-.77,1-.59-.09-.66-.63-.66-1,.06-.65.15-1.21.8-1.14.6.07.69.63.63,1.14ZM78.3,53.92c-1.23-.12-2.5.66-4.04-.3,1.59.12,2.81.21,4.04.3ZM74.82,50.5c-.12.33-1.38.88-1.59.88-.15,0-.3-.04-.48-.07.19-.41,1.75-.91,2.07-.81ZM73.38,46.48l.03.14-.11-.02.08-.11ZM72.93,47.18c.3.2-.03.42.02.62-.22-.18-.25-.38-.02-.62ZM70.84,49.57s.31-.3.44-.38c.61-.37.61-1.52,1.64-1.37-.73.25-1.48,1.56-1.71,1.7-.22.13-.25.12-.28.15-.14.11-.18.07-.1-.1ZM66.23,50.22h.02s-.04.04-.04.04c0-.02.01-.03.02-.04ZM68.07,53.88c-.22-.71.32-1.17,1.02-1.2.72-.04,1.31.45,1.13,1.11-.64,2.36.84,3.69,2.25,5.1.29.28.85.41.52,1.25-1.79-.88-2.77-2.41-3.72-4.29-.78,2.12-1.35,4.09-2.63,5.68-.33.41-.45,1.23-1.3.95-.14-.77.57-1.12.86-1.68,1.12-2.18,2.73-4.2,1.87-6.94ZM65.97,49.89c-.23-.08-.48-.16-.28-.47.09.15.19.31.28.47ZM65.46,49.04c.07.12.15.23.22.35-.15.08-.31.16-.4-.08-.02-.06.1-.17.18-.27ZM65.43,49.01c-.74-.14-.75-.17-1.25-1.35.46.5.86.93,1.25,1.35ZM63.97,47.18v.11s-.1-.07-.1-.07l.1-.04ZM65.25,62.6c-.23.48.58.83.22,1.33-1.38.4-1.7.16-1.73-1.29.47-.63,1.03.28,1.51-.05Z"/>
      <path class="cls-1" d="M101.48,64.73c3.15-2.64,3.98-5.82,3.14-9.68-1.42.96-2.26.64-2.38-1.01-4.23,1.29-5.56,3.52-6.11,10-2.13-6.53-3.88-8.32-8.04-8.19.26,1.59-.42,2.16-1.94,1.54-.46,4.14,1.25,6.84,5.56,8.95.19.03.39.05.62.08-.25.46-.52.27-.78.15-4.58-.02-7.11,1.66-8.05,5.39,1.68.17,1.73,1.13.91,2.4,3.82,1.34,6.98.62,9.69-2.42-1.05,3.91.01,6.89,3.09,9.2.56-.46.55-1.26,1.17-1.36.76-.04.97.87,1.71.75,2.25-2.89,2.16-5.91.49-9.02-.32-.27-.36-.6-.27-.99.43-.02.37.42.58.6,3.61,2.25,6.31,2.2,9.71-.2-.14-.59-.9-.84-.86-1.55.16-.64,1.01-.61,1.24-1.2-2.27-3.48-5.61-4.12-9.49-3.44ZM91.89,63.54c-.06-.4.11-.81.57-.83,1.08-.06.8.93,1.2,1.66-.84-.14-1.64.12-1.78-.82ZM94.19,71.94s-.13-.11-.23-.19c.13-.08.25-.17.38-.21.06-.01.15.1.22.16-.12.08-.24.19-.37.24ZM103.48,68.17c-.41.47-.8.24-1.31,0-1.9-.86-3.47-.52-4.47,1.17-.6,1.03-.24,2.24.41,3.23.29.43.44.78.09,1.18-.23.27-.55.37-.89.15-.46-.29-.34-.67-.3-1.14.1-1.25.4-2.47-.88-3.55-1.65-1.37-2.85-.24-4.15.38-.46.22-.72.91-1.37.43-.29-.22-.37-.58-.22-.9.32-.7.86-.36,1.41-.31,2.22.17,3.53-1.2,3.24-3.27,1.68.76,3.43-.6,3.57-2.85.04-.6-.09-1.13.66-1.27.36-.07.66.12.8.47.25.65-.31.82-.67,1.16-1.42,1.33-1.76,3.17-.6,3.89,1.01.62,2.28.68,3.45.27.46-.16.84-.35,1.2.05.23.26.28.64.04.92Z"/>
      <path class="cls-1" d="M96.73,66.47c-.75.1-.98.59-.92,1.3.16.61.59.94,1.19.85.68-.1,1.06-.57.91-1.29-.12-.62-.53-.94-1.18-.86Z"/>
      <path class="cls-1" d="M72.21,23.25c-3,.91-3.94,2.49-4.33,7.09-1.51-4.62-2.75-5.9-5.7-5.8.19,1.12-.3,1.53-1.37,1.09-.33,2.93.89,4.85,3.94,6.34.14.02.27.04.44.06-.18.32-.37.19-.55.1-3.25-.01-5.04,1.17-5.7,3.82,1.19.12,1.22.8.65,1.7,2.71.95,4.94.44,6.86-1.72-.75,2.77.01,4.88,2.19,6.52.4-.33.39-.89.83-.97.54-.03.69.61,1.21.53,1.6-2.05,1.53-4.19.35-6.39-.22-.19-.25-.43-.19-.7.31-.01.26.3.41.43,2.56,1.6,4.47,1.56,6.88-.14-.1-.42-.64-.6-.61-1.1.11-.45.71-.44.88-.85-1.61-2.47-3.97-2.92-6.72-2.44,2.23-1.87,2.82-4.12,2.23-6.86-1,.68-1.6.46-1.68-.71ZM64.87,29.98c-.04-.28.08-.57.41-.59.76-.04.57.66.85,1.17-.6-.1-1.16.08-1.26-.58ZM66.5,35.94s-.09-.08-.16-.14c.1-.06.18-.12.27-.15.04-.01.1.07.16.11-.09.06-.17.13-.26.17ZM72.21,32.58c.32-.11.59-.25.85.04.16.18.2.45.03.65-.29.34-.57.17-.93,0-1.34-.61-2.46-.37-3.16.83-.43.73-.17,1.59.29,2.29.2.31.31.55.06.84-.16.19-.39.26-.63.11-.33-.21-.24-.47-.21-.81.07-.88.29-1.75-.63-2.51-1.17-.97-2.02-.17-2.94.27-.33.16-.51.64-.97.3-.21-.15-.26-.41-.16-.64.23-.5.61-.25,1-.22,1.57.12,2.5-.85,2.3-2.32,1.19.54,2.43-.42,2.53-2.02.02-.42-.06-.8.47-.9.26-.05.47.09.57.33.18.46-.22.58-.47.82-1.01.94-1.25,2.25-.43,2.75.72.44,1.62.48,2.44.19Z"/>
      <path class="cls-1" d="M68.3,32.06c-.53.07-.7.42-.65.92.11.43.41.67.84.6.48-.07.75-.4.65-.91-.09-.44-.38-.67-.84-.61Z"/>
      <path class="cls-1" d="M108.62,92.52c.4-.83,1.3-1.18,1.47-2.03-.43-.48-1.17.04-1.55-.63.15-.32.32-.7.55-1.19-2.03.09-.83-1.37-1.02-2.33-1.13.59-2.14.93-2.16-.84-.57.32-.86.99-1.46.63-.63-.61.32-1.31-.32-2-.63,1.05-1.23,2.04-1.83,3.03-.1-.04-.2-.08-.3-.12.08-1.12.17-2.25.27-3.69-.88.78-1.62,1.75-2.25.22-1.22.45-1.49-.7-2.01-1.4-1.29,1.94-2.8,2.46-4.17,1.47-.18,1.12.59,2.2.15,3.4-.89-.65-.94-1.78-1.8-2.24-.42.43.03,1.16-.56,1.5-.66.2-.88-.64-1.51-.59.12,2.19-1.41.61-2.24.88.44.97.68,1.87-.6,2.28,1.09,1.62-.41,1.37-1.43,1.51.98.98,1.79,1.79,2.66,2.67-1.41.2-2.41-.8-3.67-.78.86,1.44.29,2.61-1.89,3.95,1.72,1.5,1.97,3,.71,4.21,1.14.44,2.48.12,3.65.84-.85.63-1.59,1.17-2.43,1.79,1.85.56,1.87.64.78,1.81h0c1.31.19,1.98.8,1.28,2.27.94.04,2.12-1.14,2.33.73,1.61-1.62,1.52.11,1.82.96,1.07-.86,1.58-2.11,3.02-2.8-.11,1.42-.19,2.61-.32,4.3.94-1.4,1.43-.84,2.32-.62,1.22.29,1.4,1.04,1.93,1.73.98-1.89,2.43-2.58,4.23-1.99-.04-1.09-.59-2.15-.25-3.58.91,1.06,1.6,1.86,2.31,2.7.48-1.79.55-1.82,1.89-.98.13-.23.2-.56.4-.69.65-.44,1.18.4,1.94.26-.18-1.01-.74-2.33,1.24-1.79-.09-.69-.73-1.11-.24-1.74.66-.35,1.24.62,2.11.17-1.24-.9-2.37-1.72-3.74-2.72,1.05-.12,1.75-.2,2.45-.29.7-.08,1.39-.17,2.08-.26-.03-.73-2.32-1.05-.3-2.02-.64-1.19.33-1.71,1.07-2.32-1.74-.88-2.57-2.32-2.27-3.85-.78-.21-1.5.62-2.35.21ZM103.89,92.88c-.11-.08-.3-.68.16-.82.33-.1.81-.18.69.51-.18.99,1.31,1.36.87,2.74-.51-.81-1.11-.74-1.89-.3.17-.85,1.15-1.45.18-2.13ZM94.28,87.14s.07.14.1.21c-.08.03-.16.07-.24.1-.07-.06-.13-.13-.2-.19.11-.04.22-.1.33-.12ZM90.72,99.29c-1.62-.48.4-2.39-1.13-2.7.38-.63.79-.71,1.23-.76-.85,1.15.68,2.24-.09,3.46ZM95.51,103.17c-1.25.71-2.3.75-2.74-1,.66.26,1.36.22,1.85.84.4-.38.79-.75,1.25-1.19.47.51.02,1.1.27,1.59.7.2,1.55.21,1.84,1.2-.65-.79-2.36.59-2.47-1.44ZM94.26,95.84c.18-.85.61-1.46,1.13-1.97-.27.71.1,1.74-1.13,1.97ZM95.72,93.61c.7-.56,1.28-1.11,2.17-.71-.62.41-1.17,1-2.17.71ZM99.47,93.71c-.42-.44-.8-.94-1.5-.83.71-.69,1.31.09,2.03.15-.21.27-.37.47-.53.68ZM96.09,90.37c.03.26.07.74.12,1.21-.08.05-.16.1-.23.15-.2-.4-.4-.8-.61-1.22-.76.84-2.19.6-2.32,1.17-.21.96-1.72,1.8-.42,3.01-.13,0-.17-.02-.21-.01-1.71.09-1.81,0-.95-1.65,1.04-1.98,2.71-3.12,4.93-3.75,2.28-.66,4.14.02,6.05,1,.19.1.37.14.48.34.13.23.27.46.6,1.02-.98-.33-1.62-.54-2.36-.79-.15.23-.38.57-.81,1.22,0-.84,0-1.34,0-1.69-1.4-1.2-2.81-1.05-4.28.01ZM101.08,94.05c-.21-.08-.5-.1-.41-.48.35,0,.41.22.41.48ZM101.82,99.02c-.14.19-.34.33-.51.13.29.51-.1.56-.72.61.29-.32.47-.52.65-.72,0-.02-.02-.03-.03-.05.01.02.02.03.03.04,0,0,.02-.02.03-.03.42-.42.19-1.09.69-1.54.41-.37.44-1.09-.06-1.48-.63-.5-.65-1.18-.76-1.84,1.53,1.4,1.82,3.34.69,4.87ZM106.43,98.89c-.3.5-.95.22-1.42.73.35.38.64.68,1.04,1.1-.8.39-1.58.9-1.78,1.59-.27.94-1.17.2-1.5.81-.07.14-.27-.22-.34-.42-.13-.33.19-.35.31-.34,1.15.02,1.32-.87,1.63-1.67.41-1.05.95-2.05,1.27-3.12.16-.54.44-.82.9-1.2-.32.92-.19,1.72-.1,2.52Z"/>
      <path class="cls-1" d="M101.24,99.05s.05.08.07.11c-.02-.03-.04-.07-.07-.11,0,0,0,0,0,0Z"/>
      <path class="cls-1" d="M87.27,22.27s.02.04.04.06c-.01-.02-.02-.04-.04-.06,0,0,0,0,0,0Z"/>
      <path class="cls-1" d="M76.11,23.14c.73.28,1.58.07,2.32.53-.54.4-1.01.74-1.54,1.14,1.17.36,1.19.4.5,1.15h0c.83.12,1.26.51.81,1.44.6.02,1.35-.72,1.48.46,1.03-1.03.96.07,1.16.61.68-.55,1-1.34,1.91-1.78-.07.9-.12,1.66-.2,2.73.6-.89.91-.53,1.47-.4.78.19.89.66,1.23,1.1.62-1.2,1.54-1.64,2.69-1.27-.03-.7-.38-1.37-.16-2.28.58.67,1.01,1.18,1.47,1.71.3-1.14.35-1.16,1.2-.62.08-.15.13-.35.25-.44.41-.28.75.26,1.23.16-.12-.64-.47-1.48.79-1.14-.06-.44-.46-.71-.15-1.11.42-.22.79.39,1.34.11-.79-.57-1.5-1.09-2.38-1.73.67-.08,1.11-.13,1.55-.18.44-.05.88-.11,1.32-.16-.02-.46-1.47-.67-.19-1.28-.41-.75.21-1.09.68-1.48-1.11-.56-1.63-1.48-1.44-2.44-.49-.13-.95.39-1.49.13.25-.53.82-.75.93-1.29-.27-.3-.74.02-.98-.4.09-.2.2-.44.35-.76-1.29.06-.53-.87-.65-1.48-.72.37-1.36.59-1.37-.53-.36.2-.54.63-.93.4-.4-.39.21-.83-.2-1.27-.4.67-.78,1.3-1.16,1.92l-.19-.08c.05-.71.11-1.43.17-2.35-.56.5-1.03,1.11-1.43.14-.77.28-.95-.44-1.28-.89-.82,1.23-1.78,1.56-2.65.93-.11.71.37,1.4.09,2.16-.57-.41-.6-1.13-1.14-1.42-.27.28.02.74-.36.95-.42.13-.56-.41-.96-.38.08,1.39-.9.39-1.42.56.28.62.43,1.19-.38,1.44.69,1.03-.26.87-.91.96.62.62,1.13,1.14,1.69,1.7-.9.13-1.53-.51-2.33-.49.55.92.18,1.66-1.2,2.51,1.09.95,1.25,1.9.45,2.67ZM83.63,24.89c-.79.45-1.46.48-1.74-.63.42.16.86.14,1.17.53.25-.24.5-.48.79-.76.3.32.01.7.17,1.01.44.12.98.14,1.17.76-.41-.5-1.5.37-1.56-.91ZM82.84,20.24c.12-.54.39-.92.72-1.25-.17.45.06,1.1-.72,1.25ZM83.76,18.82c.45-.35.81-.7,1.37-.45-.39.26-.74.64-1.37.45ZM86.15,18.88c-.26-.28-.5-.6-.95-.53.45-.44.83.06,1.29.1-.14.17-.24.3-.34.43ZM87.64,22.25c-.09.12-.22.22-.33.08.19.33-.06.36-.45.39.18-.2.3-.33.41-.46,0-.01-.01-.02-.02-.03,0,.01.01.02.02.03,0,0,.01-.01.02-.02.27-.26.12-.69.44-.98.26-.24.28-.69-.04-.94-.4-.32-.41-.75-.48-1.17.97.89,1.15,2.12.44,3.09ZM86.9,18.79c.22,0,.26.14.26.31-.14-.05-.32-.06-.26-.31ZM88.95,18.36c-.07-.05-.19-.43.1-.52.21-.06.52-.12.44.32-.11.63.83.86.55,1.74-.32-.52-.71-.47-1.2-.19.11-.54.73-.92.12-1.35ZM89.26,23.32c.26-.66.6-1.3.8-1.98.1-.34.28-.52.57-.76-.2.58-.12,1.09-.06,1.6-.19.31-.6.14-.9.46.22.24.41.43.66.7-.51.24-1,.57-1.13,1.01-.17.6-.74.13-.95.51-.05.09-.17-.14-.22-.27-.08-.21.12-.22.19-.22.73.01.84-.55,1.04-1.06ZM82.85,14.71s.04.09.07.13c-.05.02-.1.04-.15.07-.04-.04-.08-.08-.12-.12.07-.03.14-.06.21-.08ZM81.06,18.45c.66-1.26,1.72-1.98,3.13-2.38,1.45-.42,2.63.02,3.84.63.12.06.24.09.31.21.08.15.17.29.38.65-.62-.21-1.03-.35-1.5-.5-.1.15-.24.36-.51.77,0-.53,0-.85,0-1.07-.89-.76-1.78-.67-2.72,0,.02.17.05.47.08.77-.05.03-.1.06-.15.1-.13-.25-.25-.5-.39-.77-.48.53-1.39.38-1.47.74-.13.61-1.09,1.15-.27,1.91-.08,0-.11-.01-.13,0-1.08.05-1.15,0-.6-1.05ZM80.65,20.23c-.54.73.43,1.42-.06,2.2-1.03-.31.25-1.52-.72-1.72.24-.4.5-.45.78-.48Z"/>
      <path class="cls-1" d="M86.48,118.98c-1.06.89-2.17,1.41-3.61,1.38-2.18-.04-3.41,1.47-2.57,3.49.62,1.5,2.18,2.89,3.57,3.3,2.17.64,4.51-.2,7.06-.98-1.24-.58-2.4-.48-3.17-1.34.91-.34,1.68.34,2.49.09-.04-.59-.63-.64-.82-1.03.11-.1.21-.21.32-.31.39.04.7.51,1.2.19-.09-.23-.18-.47-.26-.7.13-.09.26-.19.39-.28.67.58,1.35,1.17,2.21,1.91-.19-1.75-.64-3.16-1.29-4.5-1.46-3.01-2.96-3.35-5.52-1.22Z"/>
      <path class="cls-1" d="M105.21,120.87c-2.78,1.34-5.34,3.19-8.65,3.57.9.8,1.93.48,2.9.92-.58.23-1.02.41-1.57.62.66.29,1.19.52,2,.88-.92.08-1.51.13-2.16.18,1.66,2.22,6.76,3.86,9.06,2.97.35-.14.85-.37.92-.65.38-1.58,1.61-2.37,3.14-3.21-.51-.36-.67-.56-.86-.59-1.92-.25-2.44-1.29-2.27-3.19.15-1.68-.96-2.25-2.5-1.51Z"/>
      <path class="cls-1" d="M94.17,130.04c-1.34,1.2-2.8,4.17-3.15,6.4-.4,2.48.29,3.06,2.59,2.2.09-.03.21.03.39.07.81,1.14.14,3.67,2.54,3.38,2.6-.31,1.12-2.8,1.75-4.15,2.43.06,3.08-.92,2.15-3.14-.52-1.24-1.34-2.3-2.08-3.41-.23-.34-.91-.57-.65-1.17-.3.17-.62-.37-1.13.17-.12.13.45.53.26.89-.37.22-.54-.48-.9-.11-.26.8.33,1.67-.13,2.52-.8-.71-.16-1.84-.89-2.37-.4-.17-.2.76-.72.31-.14-.53.42-1.06-.04-1.58Z"/>
      <path class="cls-1" d="M102.15,118.23c-1.23-.46-1.47-1.22-1.59-2.37-.23-2.18-1.46-2.75-3.32-1.6-.88.54-1.75.84-2.8.83-1.99-.02-2.42.69-1.8,2.64.58,1.79,1.32,3.54,1.45,5.45,0,.08.12.16.25.31.18-.34.35-.65.57-1.05.38.8.87.69,1.45.08-.04.59-.07.97-.13,1.78,1.83-2.16,4-2.94,5.99-4.02,1.32-.71,1.31-1.54-.08-2.05Z"/>
      <path class="cls-1" d="M90.68,128.48c-.05-.36-.51-.41-.85-.36-2.69.34-5.44.11-8.08.84-.78.22-1.68.49-1.72,1.54-.04,1.02,1.13.41,1.56,1.15-.15.26-.28.5-.43.72-.45.64-.67,1.3-.08,1.96.64.71,1.4.59,2.11.15.56-.35,1.08-.77,1.61-1.17.49-.37.98-.76,1.64-.29.03.16.09.32.1.48.03.74-.41,1.68.48,2.1.98.46,1.82-.14,2.56-.76,1.69-1.44,2.42-3.43,3.39-5.69-1.23.59-2.08.76-2.29-.67ZM90.19,130.27s-.02,0-.03,0h.03Z"/>
      <path class="cls-1" d="M103.53,134.13c.83-.03,0-1.06.54-1.03.89.18.11,1.09.87,1.18.58-.17-.1-.71.23-.9.56-.27.84.33,1.29.29.43-.05.76-.25.82-.69.06-.5-.19-1.02-.68-.94-.76.12-1.54-.33-2-.28-3.52.39-5.5-1.78-7.51-4.04-.33-.37-.4-1.09-1.14-1-.06.12-.16.22-.15.3.25,1.31,1.59,1.89,2.03,3.08,1.41.72,2.56,1.88,4.12,2.31.93.25,1.66.63,1.58,1.72Z"/>
      <path class="cls-1" d="M97.82,130.09s-.02,0-.02-.01c0,0,0,.01.02.02l-.02-.02s-.06.1-.08.14c.04-.02.07-.05.11-.1,0,0,0-.02-.01-.03Z"/>
      <path class="cls-1" d="M73.65,113.09c.1,1.54.44,2.79.96,3.99,1.16,2.68,2.46,3.04,4.78,1.28.96-.73,1.95-1.15,3.21-1.07,1.91.11,3.03-1.16,2.38-2.96-.49-1.34-1.79-2.61-3-3.02-1.87-.64-3.95,0-6.21.59,1.07.55,2.08.51,2.72,1.29-.81.26-1.45-.36-2.17-.18.01.52.53.58.68.93-.1.09-.19.17-.29.26-.34-.05-.59-.47-1.04-.21.07.21.14.42.2.62-.12.08-.24.15-.35.23-.57-.54-1.14-1.07-1.86-1.76Z"/>
      <path class="cls-1" d="M60.95,114.58c-.2,1.46.75,2.01,2.13,1.41,2.48-1.07,4.79-2.58,7.7-2.79-.76-.73-1.67-.49-2.5-.92.52-.18.91-.32,1.39-.49-.56-.28-1.02-.5-1.71-.84.81-.03,1.33-.06,1.9-.08-1.36-2-5.77-3.63-7.81-2.94-.31.11-.76.29-.83.53-.39,1.37-1.5,2.01-2.87,2.69.43.33.57.52.73.55,1.67.29,2.09,1.22,1.87,2.87Z"/>
      <path class="cls-1" d="M73.89,100.9c-.08.03-.19-.04-.34-.07-.66-1.02.02-3.21-2.09-3.06-2.29.17-1.09,2.4-1.69,3.57-2.12-.14-2.72.68-2,2.67.4,1.11,1.08,2.06,1.69,3.06.19.31.78.54.52,1.04.27-.14.53.35,1-.1.11-.11-.37-.48-.2-.79.33-.18.46.44.78.13.26-.69-.23-1.47.21-2.2.67.65.07,1.61.69,2.11.34.16.2-.66.64-.24.1.47-.41.91-.02,1.38,1.22-1,2.6-3.54,3-5.48.44-2.15-.14-2.68-2.18-2.02Z"/>
      <path class="cls-1" d="M65.66,116.62c-1.18.57-1.21,1.29-.01,1.8,1.06.45,1.24,1.13,1.3,2.13.12,1.92,1.17,2.46,2.84,1.52.79-.44,1.56-.67,2.48-.62,1.74.09,2.15-.51,1.67-2.24-.44-1.59-1.02-3.15-1.06-4.82,0-.07-.1-.14-.21-.28-.17.29-.33.55-.54.9-.3-.71-.74-.63-1.27-.13.06-.52.1-.84.18-1.55-1.68,1.82-3.61,2.42-5.39,3.29Z"/>
      <path class="cls-1" d="M84.69,105.13c-.53-.65-1.2-.57-1.84-.21-.51.28-.98.63-1.45.96-.45.31-.88.63-1.45.19-.02-.14-.07-.28-.07-.42,0-.65.43-1.45-.34-1.85-.84-.44-1.6.05-2.27.57-1.53,1.19-2.25,2.91-3.18,4.85,1.09-.47,1.85-.58,1.97.67.03.31.43.37.73.35,2.36-.2,4.76.11,7.1-.43.69-.16,1.49-.36,1.56-1.28.07-.89-.98-.4-1.32-1.06.14-.22.26-.43.41-.62.42-.54.64-1.11.14-1.71ZM76.56,108.34h0s.02,0,.02,0h-.02Z"/>
      <path class="cls-1" d="M65.05,104.47c-.73,0-.04.93-.51.88-.77-.19-.06-.95-.72-1.06-.51.13.06.63-.23.78-.5.22-.72-.32-1.11-.3-.38.02-.67.19-.74.57-.07.43.13.9.56.85.67-.08,1.33.35,1.74.32,3.09-.21,4.74,1.77,6.41,3.82.27.34.3.97.96.92.06-.1.15-.19.14-.26-.17-1.15-1.32-1.72-1.66-2.77-1.2-.68-2.17-1.75-3.52-2.18-.8-.26-1.43-.61-1.32-1.57Z"/>
      <path class="cls-1" d="M69.89,108.21s.01,0,.02.01c0,0,0,0-.01-.02v.02s.07-.08.09-.12c-.03.02-.07.04-.1.08,0,0,0,.02,0,.03Z"/>
      <path class="cls-1" d="M87.22,162.2c-1.42-.19-2.45-.87-3.37-1.9-2.22-2.48-3.75-2.36-5.64.4-.84,1.23-1.49,2.56-1.94,4.26.96-.61,1.71-1.09,2.46-1.57.12.11.23.22.35.33-.12.22-.24.44-.36.66.45.39.82-.03,1.21-.01.09.12.18.24.27.36-.24.36-.84.32-.96.9.77.36,1.63-.19,2.48.27-.89.73-2.02.47-3.33.86,2.41,1.14,4.61,2.32,6.84,2.01,1.44-.2,3.18-1.34,4.02-2.74,1.13-1.88.14-3.55-2.03-3.83Z"/>
      <path class="cls-1" d="M73.08,164.22c-3.22-.87-5.48-3.07-8.03-4.8-1.42-.97-2.6-.56-2.7,1.12-.11,1.91-.78,2.85-2.72,2.82-.19,0-.38.17-.94.46,1.39,1.06,2.5,2.02,2.64,3.64.02.28.49.59.81.78,2.14,1.22,7.43.35,9.39-1.6-.64-.15-1.21-.29-2.11-.5.84-.23,1.41-.39,2.1-.57-.51-.3-.92-.53-1.46-.85,1.02-.29,2,.17,3.01-.49Z"/>
      <path class="cls-1" d="M70.5,181.68c2.34.64,2.05-1.97,3.01-2.97.18,0,.31-.05.4,0,2.15,1.19,2.91.71,2.89-1.79-.02-2.26-1.03-5.41-2.18-6.79-.53.44-.05,1.05-.27,1.56-.58.37-.25-.52-.67-.41-.8.42-.34,1.63-1.23,2.22-.33-.91.39-1.68.24-2.51-.3-.41-.57.25-.91-.02-.13-.39.49-.7.39-.85-.42-.61-.82-.12-1.1-.33.18.63-.53.75-.81,1.06-.9.99-1.87,1.91-2.56,3.06-1.24,2.07-.75,3.13,1.67,3.43.43,1.43-1.41,3.68,1.13,4.37Z"/>
      <path class="cls-1" d="M76.55,155.29c-1.05-.15-1.86-.57-2.65-1.23-1.67-1.41-2.96-1.03-3.51,1.09-.29,1.11-.64,1.84-1.92,2.11-1.45.31-1.58,1.12-.38,2.02,1.81,1.36,3.84,2.44,5.33,4.85.06-.81.09-1.19.13-1.78.49.68.95.87,1.45.13.16.43.28.76.41,1.13.15-.13.28-.19.29-.27.41-1.87,1.4-3.49,2.23-5.18.91-1.83.58-2.6-1.39-2.87Z"/>
      <path class="cls-1" d="M88.54,172.65c.12-1.05-.73-1.45-1.47-1.78-2.51-1.11-5.26-1.29-7.87-2.02-.32-.09-.79-.11-.89.24-.41,1.38-1.23,1.09-2.36.32.62,2.37,1.05,4.45,2.51,6.12.64.73,1.38,1.44,2.42,1.13.95-.28.64-1.28.78-2,.03-.16.11-.31.17-.46.72-.37,1.15.09,1.58.53.46.47.91.97,1.42,1.4.65.54,1.38.77,2.11.16.68-.57.56-1.25.21-1.95-.12-.24-.21-.5-.32-.78.54-.67,1.6.11,1.72-.91Z"/>
      <path class="cls-1" d="M73.46,166.88c.03-.08-.06-.2-.1-.32-.72-.2-.9.5-1.28.82-2.32,1.94-4.6,3.79-8.02,2.89-.45-.12-1.29.22-2.02-.01-.47-.15-.8.33-.81.83,0,.44.29.7.71.8.44.11.8-.45,1.31-.1.29.23-.45.67.09.92.76.02.12-.99,1.03-1.04.53.05-.44.95.38,1.1.08-1.1.87-1.36,1.82-1.47,1.6-.19,2.92-1.18,4.42-1.68.61-1.11,2.02-1.49,2.46-2.75Z"/>
      <path class="cls-1" d="M71.01,169.63s.02-.02.02-.02c0,0-.02,0-.03,0,0,0-.01.02-.02.03.03.05.06.09.1.12-.01-.05-.03-.1-.06-.15l-.02.02Z"/>
      <path class="cls-1" d="M61.16,143.32c.86.45,1.78.6,2.75.44.3-.27.62-.12,1.04-.04-.27.16-.49.29-.7.42-.58.94-1.2,1.87-1.74,2.84-.76,1.35-1.54,2.71-1.76,4.29-.12.85.11,1.54,1.1,1.39,3.29-.5,6.35-1.62,8.88-3.86.7-.62,1.32-1.39,1.17-2.62,2.02,3.49,4.71,5.98,8.14,8.11.17-4.21,1.08-8.14-1.13-11.9,3.42.24,6.61-.38,10.08-1.74-2.29-1.32-4.22-2.51-6.22-3.56-1.76-.93-3.52-2.01-5.68-1.2,1.88-3.29,2.19-6.77,2.32-10.39-3.81,1.52-8.25,5.94-9.16,9.02-.39-3.82-3.99-7.49-8.73-8.73.68,3.68.37,7.52,3.21,10.47-4.5-.22-8.71.44-10.99,1.77,2.27,2.11,4.71,3.91,7.42,5.32ZM76.98,146.03c-.06.46-.07,1.1-.77,1-.59-.09-.66-.63-.66-1,.06-.65.15-1.21.8-1.14.6.07.69.63.63,1.14ZM80.37,139.57c-1.23-.12-2.5.66-4.04-.3,1.59.12,2.81.21,4.04.3ZM76.89,136.15c-.12.33-1.38.88-1.59.88-.15,0-.3-.04-.48-.07.19-.41,1.75-.91,2.07-.81ZM75.45,132.13l.03.14-.11-.02.08-.11ZM74.99,132.83c.3.2-.03.42.02.62-.22-.18-.25-.38-.02-.62ZM72.91,135.22s.31-.3.44-.38c.61-.37.61-1.52,1.64-1.37-.73.25-1.48,1.56-1.71,1.7-.22.13-.25.12-.28.15-.14.11-.18.07-.1-.1ZM68.3,135.87h.02s-.04.05-.04.05c0-.02.01-.03.02-.05ZM70.14,139.53c-.22-.71.32-1.17,1.02-1.2.72-.04,1.31.45,1.13,1.11-.64,2.36.84,3.69,2.25,5.1.29.28.85.41.52,1.25-1.79-.88-2.77-2.41-3.72-4.29-.78,2.12-1.35,4.09-2.63,5.68-.33.41-.45,1.23-1.3.95-.14-.77.57-1.12.86-1.68,1.11-2.18,2.73-4.2,1.87-6.94ZM68.04,135.54c-.23-.08-.48-.16-.28-.47.09.15.19.31.28.47ZM67.52,134.69c.07.12.15.23.22.35-.15.08-.31.16-.4-.08-.02-.06.1-.17.18-.27ZM67.49,134.66c-.74-.14-.75-.17-1.25-1.35.46.5.86.93,1.25,1.35ZM66.04,132.83v.11s-.1-.07-.1-.07l.1-.04ZM67.32,148.25c-.23.48.58.83.22,1.33-1.38.4-1.7.16-1.73-1.29.47-.63,1.03.28,1.51-.05Z"/>
      <path class="cls-1" d="M111.89,153.65c-2.27-3.48-5.61-4.12-9.49-3.44,3.15-2.64,3.98-5.82,3.14-9.68-1.42.96-2.26.64-2.38-1.01-4.23,1.29-5.56,3.52-6.11,10-2.13-6.53-3.88-8.32-8.04-8.19.26,1.59-.42,2.16-1.94,1.54-.46,4.14,1.25,6.84,5.56,8.95.19.03.39.05.62.08-.25.46-.52.27-.78.15-4.58-.02-7.11,1.65-8.05,5.39,1.68.17,1.73,1.13.91,2.4,3.83,1.34,6.98.62,9.69-2.42-1.05,3.91.01,6.89,3.1,9.2.56-.46.55-1.26,1.17-1.36.76-.04.97.87,1.71.75,2.25-2.89,2.16-5.91.49-9.02-.32-.26-.36-.6-.27-.99.43-.02.37.42.58.6,3.61,2.25,6.31,2.2,9.71-.2-.14-.59-.9-.84-.86-1.55.16-.64,1.01-.61,1.24-1.2ZM92.81,149.02c-.06-.4.11-.81.57-.83,1.08-.06.8.93,1.2,1.66-.84-.14-1.64.12-1.78-.82ZM95.11,157.43s-.13-.11-.23-.19c.13-.08.25-.17.38-.21.06-.01.15.1.22.16-.12.08-.24.19-.37.24ZM104.39,153.65c-.41.47-.81.24-1.31,0-1.9-.86-3.47-.52-4.47,1.17-.6,1.03-.24,2.24.41,3.23.29.43.44.78.09,1.18-.23.27-.55.37-.89.15-.46-.29-.34-.67-.3-1.14.1-1.25.4-2.47-.89-3.55-1.65-1.37-2.85-.24-4.15.38-.46.22-.72.91-1.37.43-.29-.22-.37-.58-.22-.9.33-.7.86-.36,1.41-.31,2.22.17,3.53-1.2,3.24-3.27,1.68.76,3.43-.6,3.57-2.85.04-.6-.09-1.13.66-1.27.36-.07.66.12.8.47.25.65-.31.82-.67,1.16-1.42,1.32-1.76,3.17-.6,3.89,1.01.62,2.28.68,3.45.27.46-.16.84-.35,1.2.05.23.26.28.64.04.92Z"/>
      <path class="cls-1" d="M97.65,151.95c-.75.1-.98.59-.92,1.3.15.61.58.94,1.19.85.68-.1,1.06-.57.91-1.29-.12-.62-.53-.94-1.18-.86Z"/>
      <path class="cls-1" d="M113.04,177.96c-.78-.21-1.5.62-2.35.21.4-.83,1.3-1.18,1.47-2.03-.43-.48-1.17.04-1.55-.63.15-.32.32-.7.55-1.19-2.03.09-.83-1.37-1.02-2.33-1.13.59-2.14.93-2.16-.84-.57.32-.86.99-1.46.63-.63-.61.32-1.31-.32-2-.63,1.05-1.23,2.04-1.83,3.03-.1-.04-.2-.08-.3-.12.08-1.12.17-2.25.27-3.69-.88.78-1.62,1.75-2.25.22-1.22.45-1.49-.7-2.01-1.4-1.29,1.94-2.8,2.46-4.17,1.47-.18,1.12.59,2.2.15,3.4-.89-.65-.94-1.78-1.8-2.24-.42.43.03,1.16-.56,1.5-.66.2-.88-.64-1.51-.59.12,2.19-1.41.61-2.24.88.44.97.68,1.87-.6,2.28,1.09,1.62-.41,1.37-1.43,1.51.98.98,1.79,1.79,2.66,2.67-1.41.2-2.41-.8-3.67-.78.86,1.44.29,2.61-1.89,3.95,1.72,1.5,1.97,3,.71,4.21,1.14.44,2.48.12,3.65.84-.85.63-1.59,1.17-2.43,1.79,1.85.56,1.87.64.78,1.81h0c1.31.19,1.98.8,1.28,2.27.94.04,2.12-1.14,2.33.73,1.61-1.62,1.52.11,1.82.96,1.07-.86,1.58-2.11,3.02-2.8-.11,1.42-.19,2.61-.32,4.3.94-1.4,1.43-.84,2.32-.62,1.22.29,1.4,1.04,1.93,1.73.98-1.89,2.43-2.57,4.23-1.99-.04-1.09-.59-2.15-.25-3.58.91,1.06,1.6,1.86,2.31,2.7.48-1.79.55-1.82,1.89-.98.13-.23.2-.56.4-.69.65-.44,1.18.4,1.94.26-.18-1.01-.74-2.33,1.24-1.79-.09-.69-.73-1.11-.24-1.74.66-.35,1.24.62,2.11.17-1.24-.9-2.37-1.72-3.74-2.72,1.05-.12,1.75-.2,2.45-.29.7-.08,1.39-.17,2.08-.26-.03-.73-2.32-1.05-.3-2.02-.64-1.19.33-1.71,1.07-2.32-1.74-.88-2.57-2.32-2.27-3.85ZM105.95,178.53c-.11-.08-.3-.68.15-.82.33-.1.81-.18.69.51-.18.99,1.31,1.36.87,2.74-.51-.81-1.11-.74-1.89-.3.17-.85,1.15-1.45.18-2.13ZM96.35,172.79s.07.14.1.21c-.08.03-.16.07-.24.1-.07-.06-.13-.13-.2-.19.11-.04.22-.1.33-.12ZM92.79,184.94c-1.62-.48.4-2.39-1.13-2.7.38-.63.78-.71,1.23-.76-.85,1.15.68,2.24-.09,3.46ZM97.57,188.82c-1.25.71-2.3.75-2.74-1,.66.26,1.36.22,1.85.84.4-.38.79-.75,1.25-1.19.47.51.02,1.1.27,1.59.7.2,1.55.21,1.84,1.2-.65-.79-2.36.59-2.46-1.44ZM96.33,181.49c.18-.85.61-1.46,1.13-1.97-.27.71.1,1.74-1.13,1.97ZM97.78,179.26c.7-.56,1.28-1.11,2.17-.71-.62.41-1.17,1-2.17.71ZM101.54,179.36c-.42-.44-.8-.94-1.5-.83.71-.69,1.31.09,2.03.15-.21.27-.37.47-.53.68ZM98.15,176.02c.03.26.07.74.12,1.21-.08.05-.16.1-.23.15-.2-.4-.4-.8-.61-1.22-.76.84-2.19.6-2.32,1.17-.21.96-1.72,1.8-.42,3.01-.12,0-.17-.02-.21-.01-1.71.09-1.81,0-.95-1.65,1.04-1.98,2.71-3.12,4.93-3.75,2.28-.66,4.14.02,6.05,1,.19.1.37.14.48.34.13.23.27.46.6,1.02-.98-.33-1.62-.54-2.36-.79-.15.23-.38.57-.81,1.22,0-.84,0-1.34,0-1.69-1.4-1.19-2.81-1.05-4.28.01ZM103.14,179.69c-.21-.08-.5-.1-.41-.48.35,0,.41.22.41.48ZM103.88,184.67c-.14.19-.34.33-.51.13.29.51-.1.56-.72.61.29-.32.47-.52.65-.72,0-.02-.02-.03-.03-.05.01.02.02.03.03.04,0,0,.02-.02.03-.03.42-.42.19-1.09.69-1.54.41-.37.44-1.09-.06-1.48-.63-.5-.65-1.18-.76-1.84,1.53,1.4,1.82,3.34.69,4.87ZM108.5,184.54c-.3.5-.95.22-1.42.73.35.38.64.68,1.04,1.1-.8.39-1.58.9-1.78,1.59-.27.94-1.17.2-1.5.81-.07.14-.27-.22-.34-.42-.13-.33.19-.35.31-.34,1.15.02,1.32-.87,1.63-1.67.41-1.05.95-2.05,1.27-3.12.16-.54.44-.82.9-1.2-.32.92-.19,1.72-.1,2.52Z"/>
      <path class="cls-1" d="M103.3,184.7s.05.08.07.11c-.02-.03-.04-.07-.07-.11,0,0,0,0,0,0Z"/>
      <path class="cls-1" d="M82.16,192.76c-.21,0-.47.12-.58-.2,2.62-2.26,3.04-3.17,2.33-4.97-.85-2.15-3.73-4.17-5.88-4.12-1.84.04-2.72.86-3.48,3.27.07.12.13.26-.05.3-.07.01-.17-.15-.26-.24-1-2.9-2.72-4.04-5.15-3.32-1.68.5-3.08,1.48-4.09,2.92-1.29,1.84-.91,3.77.93,5.07.52.37,1.17.58,1.61,1.21-1.91-.37-3.86-1.01-5.22.96-1.15,1.67-1.04,5.3.21,6.92,2.23,2.9,4.53,1.2,7.08-.42-.43.74-.61,1.02-.76,1.32-1.22,2.36-.46,4.35,2.05,5.18,1.46.48,2.98.58,4.49.2,2.58-.65,3.68-2.71,2.78-5.2-.08-.23-.37-.46-.08-.78.48.38.95.76,1.43,1.12,1.45,1.07,2.97,1.01,4.23-.27,1.42-1.44,2.19-3.21,2.21-5.24.02-2.39-1.44-3.76-3.81-3.7ZM69.1,196.12c.46-.47.95-.59,1.51-.33l-1.51.33ZM73.91,199.99c-.07-.03-.2-.04-.21-.08-.02-.08.04-.17.06-.26.08.03.2.05.21.09.02.07-.03.16-.06.25ZM73.96,199.31c-.33-.23-.24-.46-.09-.69.5.2,0,.46.09.69ZM77.96,197.98c-1.09-.31-1.63-1.61-2.8-1.78-.47.78-1.13,1.43-1.29,2.33-.2-.62-.78-1.09-.4-1.94.19-.41-.5-.59-.92-.4-.76.35-1.49.77-2.05,1.43q-.18-.46,1.08-1.37c0-.19,0-.37,0-.56-.21-.02-.43-.03-.74-.05.36-.47.85-.27,1.21-.43.12-.3-.26-.32-.32-.59.3-.16.67.26,1.02-.11-.41-1.19-1.71-1.41-2.57-2.12.52-.38.5-.36,1.12.23.4.38.86.69,1.4.94-.39-1.36-1.13-2.49-1.96-3.59,1.22.65,1.46,2.1,2.39,2.99.4.07.23-.46.56-.53.26.34-.07.96.52,1.18,1.63-.8,2.45-2.41,3.51-3.81-.19,1.06-.97,1.74-1.51,2.56-.29.45-.53.78-.41,1.46.27,1.5.35,2.97,2.1,3.57.16.05.29.24.07.58Z"/>
      <path class="cls-1" d="M88.55,204.63c-1.06.89-2.17,1.41-3.61,1.38-2.18-.04-3.41,1.47-2.57,3.49.62,1.5,2.18,2.89,3.57,3.3,2.17.64,4.51-.2,7.06-.98-1.24-.58-2.4-.48-3.17-1.34.91-.34,1.68.34,2.49.09-.04-.59-.63-.64-.82-1.03.11-.1.21-.21.32-.31.39.04.7.51,1.2.19-.09-.23-.18-.47-.26-.7.13-.09.26-.19.39-.28.67.58,1.35,1.17,2.21,1.91-.19-1.75-.64-3.16-1.29-4.5-1.46-3.01-2.96-3.35-5.52-1.22Z"/>
      <path class="cls-1" d="M107.27,206.52c-2.78,1.34-5.34,3.19-8.65,3.57.9.8,1.93.48,2.9.92-.58.23-1.02.41-1.57.63.66.29,1.19.52,2,.88-.92.08-1.51.13-2.16.18,1.66,2.22,6.76,3.86,9.06,2.97.35-.14.85-.37.92-.65.38-1.58,1.61-2.37,3.14-3.21-.51-.36-.67-.56-.86-.59-1.92-.25-2.44-1.29-2.27-3.19.15-1.68-.96-2.25-2.5-1.51Z"/>
      <path class="cls-1" d="M98.65,216.04c-.12.13.45.53.26.89-.37.22-.54-.48-.9-.11-.26.8.33,1.67-.13,2.52-.8-.71-.16-1.84-.89-2.37-.4-.17-.2.76-.72.31-.14-.53.42-1.06-.04-1.58-1.34,1.2-2.8,4.17-3.15,6.4-.4,2.48.29,3.06,2.59,2.2.09-.03.21.03.39.07.81,1.14.14,3.67,2.54,3.38,2.6-.31,1.12-2.8,1.75-4.15,2.43.06,3.08-.92,2.15-3.14-.52-1.24-1.34-2.3-2.08-3.41-.23-.34-.91-.57-.65-1.17-.3.17-.63-.37-1.13.17Z"/>
      <path class="cls-1" d="M104.22,203.88c-1.23-.46-1.47-1.22-1.59-2.37-.23-2.18-1.46-2.75-3.32-1.6-.88.54-1.74.84-2.8.83-1.99-.02-2.42.69-1.8,2.64.58,1.79,1.32,3.54,1.45,5.45,0,.08.12.16.25.31.18-.34.35-.65.57-1.05.38.8.87.69,1.45.08-.04.59-.07.97-.13,1.78,1.83-2.16,4-2.94,5.99-4.02,1.32-.71,1.31-1.54-.08-2.05Z"/>
      <path class="cls-1" d="M95.03,214.8c-1.23.59-2.08.76-2.29-.67-.05-.36-.51-.41-.85-.36-2.69.34-5.44.11-8.08.84-.78.22-1.68.49-1.72,1.54-.04,1.02,1.13.41,1.56,1.15-.15.26-.28.5-.43.72-.45.64-.67,1.3-.08,1.96.64.71,1.4.59,2.11.15.56-.35,1.08-.77,1.61-1.17.49-.37.98-.76,1.64-.29.03.16.09.32.1.48.03.74-.41,1.68.48,2.1.98.46,1.82-.14,2.56-.76,1.69-1.44,2.42-3.43,3.39-5.69ZM92.26,215.92h0s-.04,0-.04,0h.04Z"/>
      <path class="cls-1" d="M108.51,219.31c.43-.05.76-.25.82-.69.06-.5-.19-1.02-.68-.94-.76.12-1.54-.33-2-.28-3.52.39-5.5-1.78-7.51-4.04-.33-.37-.4-1.09-1.14-1-.06.12-.16.22-.15.3.25,1.31,1.59,1.89,2.03,3.08,1.41.72,2.56,1.89,4.12,2.31.93.25,1.66.63,1.58,1.72.83-.03,0-1.06.54-1.03.89.18.11,1.09.87,1.18.58-.17-.1-.71.23-.9.56-.27.84.33,1.29.29Z"/>
      <path class="cls-1" d="M99.86,215.73s-.06.1-.08.14c.04-.02.07-.05.11-.1,0,0,0-.02-.01-.03,0,0-.02,0-.02-.01h0Z"/>
      <path class="cls-1" d="M89.29,247.85c-1.42-.19-2.45-.87-3.37-1.9-2.22-2.48-3.75-2.36-5.64.4-.84,1.23-1.49,2.56-1.94,4.26.96-.61,1.71-1.09,2.46-1.57l.35.33c-.12.22-.24.44-.36.66.45.39.82-.03,1.21-.01.09.12.18.24.27.36-.24.36-.84.32-.96.9.77.36,1.63-.19,2.48.27-.89.73-2.02.47-3.33.86,2.41,1.14,4.61,2.32,6.84,2.01,1.44-.2,3.18-1.34,4.01-2.74,1.13-1.88.14-3.55-2.03-3.83Z"/>
      <path class="cls-1" d="M75.15,249.87c-3.22-.87-5.48-3.07-8.03-4.8-1.42-.97-2.6-.56-2.7,1.12-.11,1.91-.78,2.85-2.72,2.82-.19,0-.38.17-.94.46,1.39,1.06,2.5,2.02,2.64,3.64.02.28.49.59.81.78,2.14,1.22,7.43.35,9.39-1.6-.64-.15-1.21-.29-2.11-.5.84-.23,1.41-.39,2.1-.57-.51-.3-.92-.53-1.46-.85,1.02-.29,2,.17,3.01-.49Z"/>
      <path class="cls-1" d="M72.57,267.33c2.34.64,2.05-1.97,3.01-2.97.18,0,.31-.05.4,0,2.15,1.19,2.91.71,2.89-1.79-.02-2.26-1.03-5.41-2.18-6.79-.53.45-.05,1.05-.27,1.56-.58.37-.25-.52-.67-.41-.8.42-.34,1.63-1.23,2.22-.33-.91.39-1.68.24-2.51-.3-.41-.57.25-.9-.02-.13-.39.49-.7.39-.85-.42-.61-.82-.12-1.1-.33.18.63-.53.75-.81,1.06-.9.99-1.87,1.91-2.56,3.06-1.24,2.07-.75,3.13,1.67,3.43.43,1.43-1.41,3.68,1.13,4.37Z"/>
      <path class="cls-1" d="M78.61,240.94c-1.05-.15-1.86-.57-2.65-1.23-1.67-1.41-2.97-1.03-3.52,1.09-.29,1.11-.64,1.84-1.92,2.11-1.45.31-1.58,1.12-.38,2.02,1.81,1.36,3.84,2.44,5.33,4.85.06-.81.09-1.19.13-1.78.49.68.95.87,1.45.13.16.43.28.76.41,1.13.15-.13.28-.19.29-.27.41-1.87,1.4-3.49,2.23-5.18.91-1.83.58-2.6-1.39-2.87Z"/>
      <path class="cls-1" d="M90.61,258.3c.12-1.05-.73-1.45-1.48-1.78-2.51-1.11-5.26-1.29-7.87-2.02-.32-.09-.79-.11-.89.24-.41,1.38-1.23,1.09-2.36.32.62,2.37,1.05,4.45,2.51,6.12.64.73,1.38,1.44,2.42,1.13.95-.28.64-1.28.78-2,.03-.16.11-.31.17-.46.72-.37,1.15.09,1.58.53.47.47.92.97,1.42,1.4.65.54,1.38.77,2.11.16.68-.57.56-1.25.21-1.95-.12-.24-.21-.5-.32-.78.54-.67,1.6.11,1.72-.91ZM80.59,256.57h.04s-.02,0-.04,0Z"/>
      <path class="cls-1" d="M75.53,252.53c.03-.08-.06-.2-.1-.32-.72-.2-.9.5-1.27.82-2.32,1.94-4.6,3.79-8.02,2.89-.45-.12-1.29.22-2.02-.01-.47-.15-.8.33-.81.84,0,.44.29.7.71.8.44.11.8-.45,1.31-.1.29.23-.45.67.09.92.76.02.12-.99,1.03-1.04.53.05-.44.95.38,1.1.08-1.1.87-1.36,1.82-1.47,1.6-.19,2.92-1.18,4.42-1.68.61-1.11,2.02-1.49,2.46-2.75Z"/>
      <path class="cls-1" d="M73.07,255.28s.02-.02.02-.02c0,0-.02,0-.03,0,0,0-.01.02-.02.03.03.05.06.09.1.12-.01-.05-.03-.1-.06-.15l-.02.02Z"/>
      <path class="cls-1" d="M63.05,310.31c-1.42-.19-2.45-.87-3.37-1.9-2.22-2.48-3.75-2.36-5.64.4-.84,1.23-1.49,2.56-1.94,4.26.96-.61,1.71-1.09,2.46-1.57.12.11.23.22.35.33-.12.22-.24.44-.36.66.45.39.82-.03,1.21-.01.09.12.18.24.27.36-.24.36-.84.32-.96.9.77.36,1.63-.19,2.48.27-.89.73-2.02.47-3.33.86,2.41,1.14,4.61,2.32,6.84,2.01,1.44-.2,3.18-1.34,4.01-2.74,1.13-1.88.14-3.55-2.03-3.83Z"/>
      <path class="cls-1" d="M37.98,316.35c2.14,1.22,7.43.35,9.39-1.6-.64-.15-1.21-.29-2.11-.5.84-.23,1.41-.39,2.1-.57-.51-.3-.92-.53-1.46-.85,1.03-.29,2,.17,3.01-.49-3.22-.87-5.48-3.07-8.03-4.8-1.42-.97-2.6-.56-2.7,1.12-.11,1.91-.78,2.85-2.72,2.82-.19,0-.38.17-.94.46,1.39,1.06,2.5,2.02,2.64,3.64.02.28.49.59.81.78Z"/>
      <path class="cls-1" d="M50.17,319.78c-.58.37-.25-.52-.67-.41-.8.42-.34,1.63-1.23,2.22-.33-.91.39-1.68.24-2.51-.3-.41-.57.25-.9-.02-.13-.39.49-.7.39-.85-.42-.61-.82-.12-1.1-.33.18.63-.53.75-.81,1.06-.9.99-1.87,1.91-2.56,3.06-1.24,2.07-.75,3.13,1.67,3.43.43,1.43-1.41,3.68,1.13,4.37,2.34.64,2.05-1.97,3.01-2.97.18,0,.31-.05.4,0,2.15,1.19,2.91.71,2.89-1.79-.02-2.26-1.03-5.41-2.18-6.79-.53.45-.05,1.05-.27,1.56Z"/>
      <path class="cls-1" d="M49.72,302.17c-1.67-1.41-2.97-1.03-3.51,1.09-.29,1.11-.64,1.84-1.92,2.11-1.45.31-1.58,1.12-.38,2.02,1.81,1.36,3.84,2.44,5.33,4.85.06-.81.09-1.19.13-1.78.49.68.95.87,1.45.13.16.43.28.76.41,1.13.15-.13.28-.19.29-.27.41-1.87,1.4-3.49,2.23-5.18.91-1.83.58-2.6-1.39-2.87-1.05-.15-1.86-.57-2.65-1.23Z"/>
      <path class="cls-1" d="M62.9,318.99c-2.51-1.11-5.26-1.29-7.87-2.02-.32-.09-.79-.11-.89.24-.41,1.38-1.23,1.09-2.36.32.62,2.37,1.05,4.45,2.51,6.12.64.73,1.38,1.44,2.42,1.13.95-.28.64-1.28.78-2,.03-.16.11-.31.17-.46.72-.37,1.15.09,1.58.53.47.47.91.97,1.42,1.4.65.54,1.38.77,2.11.16.68-.57.56-1.25.21-1.95-.12-.24-.21-.5-.32-.78.54-.67,1.6.11,1.72-.91.12-1.05-.73-1.45-1.48-1.78ZM54.35,319.04h.04s-.02,0-.04,0Z"/>
      <path class="cls-1" d="M49.29,314.99c.03-.08-.06-.2-.1-.32-.72-.2-.9.5-1.28.82-2.32,1.94-4.6,3.79-8.02,2.89-.45-.12-1.29.22-2.02-.01-.47-.15-.8.33-.81.84,0,.44.28.7.7.8.44.11.8-.45,1.32-.1.29.23-.45.67.09.92.76.02.12-.99,1.03-1.04.53.05-.44.95.38,1.1.08-1.1.87-1.36,1.82-1.47,1.6-.19,2.92-1.18,4.42-1.68.61-1.11,2.02-1.49,2.46-2.75Z"/>
      <path class="cls-1" d="M46.83,317.75s.02-.02.02-.02c0,0-.02,0-.03,0,0,0-.01.02-.02.03.03.05.06.09.1.12-.01-.05-.03-.1-.05-.15l-.02.02Z"/>
      <path class="cls-1" d="M91.05,226.27c-2.29-1.32-4.22-2.51-6.22-3.56-1.76-.93-3.52-2.01-5.68-1.2,1.88-3.29,2.19-6.77,2.32-10.39-3.81,1.52-8.25,5.94-9.16,9.02-.39-3.82-3.99-7.49-8.73-8.73.68,3.68.37,7.52,3.21,10.47-4.5-.22-8.71.44-10.99,1.77,2.27,2.11,4.71,3.91,7.42,5.32.86.45,1.78.6,2.75.44.3-.27.62-.12,1.04-.04-.27.16-.49.29-.7.42-.58.94-1.2,1.87-1.74,2.84-.76,1.35-1.54,2.71-1.76,4.29-.12.85.11,1.54,1.1,1.39,3.29-.5,6.35-1.62,8.88-3.86.7-.62,1.32-1.39,1.17-2.62,2.02,3.49,4.71,5.98,8.15,8.11.17-4.21,1.08-8.14-1.13-11.9,3.42.24,6.61-.38,10.08-1.74ZM77.52,217.78l.03.14-.11-.02.08-.11ZM77.06,218.48c.3.2-.03.42.02.62-.22-.18-.25-.38-.02-.62ZM74.97,220.87s.31-.3.44-.38c.61-.37.61-1.52,1.64-1.37-.73.25-1.48,1.56-1.71,1.7-.22.13-.25.12-.28.15-.14.11-.18.07-.1-.1ZM70.37,221.52h.02s-.04.05-.04.05c0-.02.01-.03.02-.05ZM70.1,221.19c-.23-.08-.48-.16-.28-.47.1.15.19.31.28.47ZM69.59,220.34c.07.12.15.23.22.35-.15.08-.31.16-.4-.08-.02-.06.1-.17.18-.27ZM69.56,220.31c-.74-.14-.75-.17-1.25-1.35.46.5.86.93,1.25,1.35ZM68.11,218.48v.11s-.1-.07-.1-.07l.1-.04ZM69.6,235.23c-1.38.4-1.7.16-1.73-1.29.47-.63,1.03.28,1.51-.05-.23.48.58.83.22,1.33ZM77.13,231.44c-1.79-.88-2.77-2.41-3.72-4.29-.78,2.12-1.35,4.09-2.63,5.68-.33.41-.45,1.23-1.3.95-.14-.77.57-1.12.86-1.68,1.11-2.18,2.73-4.2,1.87-6.94-.22-.71.32-1.17,1.02-1.2.72-.04,1.31.45,1.13,1.11-.64,2.36.84,3.69,2.25,5.1.29.28.85.41.52,1.25ZM77.36,222.67c-.15,0-.3-.04-.48-.07.19-.41,1.75-.91,2.07-.81-.12.33-1.38.88-1.59.88ZM79.04,231.68c-.06.46-.07,1.1-.77,1-.59-.09-.66-.63-.66-1,.06-.65.15-1.21.8-1.14.6.07.69.63.63,1.14ZM78.39,224.92c1.59.12,2.81.21,4.04.3-1.23-.12-2.5.66-4.04-.3Z"/>
      <path class="cls-1" d="M115.29,296.93c-1.97-1.14-3.63-2.15-5.34-3.06-1.51-.8-3.03-1.73-4.88-1.04,1.61-2.83,1.88-5.82,1.99-8.93-3.28,1.3-7.09,5.1-7.88,7.75-.34-3.28-3.43-6.44-7.5-7.5.59,3.16.32,6.46,2.76,9-3.87-.19-7.48.38-9.44,1.52,1.95,1.81,4.05,3.36,6.38,4.57.74.39,1.53.52,2.36.38.26-.23.54-.11.89-.04-.24.14-.42.25-.6.36-.5.81-1.03,1.61-1.5,2.44-.65,1.16-1.33,2.33-1.51,3.69-.1.73.09,1.32.95,1.19,2.83-.43,5.46-1.39,7.63-3.32.6-.53,1.13-1.2,1-2.26,1.74,3,4.04,5.14,7,6.97.15-3.62.93-6.99-.97-10.23,2.94.2,5.68-.33,8.66-1.5ZM103.66,289.63l.02.12-.09-.02.07-.1ZM103.26,290.23c.26.17-.02.36.02.53-.19-.16-.21-.33-.02-.53ZM101.47,292.29s.26-.26.38-.32c.53-.32.53-1.31,1.41-1.18-.62.21-1.27,1.34-1.47,1.46-.19.12-.22.1-.24.13-.12.1-.16.06-.08-.08ZM97.51,292.85h.02s-.03.04-.03.04c0-.01,0-.03.01-.04ZM97.29,292.56c-.2-.07-.41-.13-.24-.4.08.13.16.27.24.4ZM96.84,291.83c.06.1.13.2.19.3-.13.07-.26.14-.34-.07-.02-.05.09-.15.15-.23ZM96.82,291.8c-.64-.12-.65-.14-1.08-1.16.4.43.74.8,1.08,1.16ZM95.57,290.23v.09s-.08-.06-.08-.06l.08-.04ZM96.86,304.63c-1.19.34-1.46.13-1.49-1.11.4-.54.88.24,1.3-.04-.2.41.5.72.19,1.15ZM103.33,301.38c-1.54-.75-2.38-2.07-3.2-3.68-.67,1.82-1.16,3.52-2.26,4.89-.28.35-.39,1.06-1.12.82-.12-.66.49-.96.74-1.44.96-1.87,2.35-3.61,1.61-5.96-.19-.61.27-1,.88-1.03.62-.03,1.13.39.97.96-.55,2.03.72,3.17,1.94,4.38.25.24.73.35.45,1.08ZM103.53,293.84c-.13,0-.26-.04-.41-.06.16-.35,1.5-.78,1.78-.69-.11.28-1.19.75-1.37.76ZM104.97,301.58c-.05.4-.06.95-.66.86-.51-.07-.57-.54-.56-.86.06-.56.13-1.04.68-.98.52.06.6.54.54.98ZM104.41,295.77c1.37.1,2.42.18,3.47.26-1.06-.1-2.15.56-3.47-.26Z"/>
      <path class="cls-1" d="M113.95,239.3c-2.27-3.48-5.61-4.12-9.49-3.44,3.15-2.64,3.98-5.82,3.14-9.68-1.42.96-2.26.64-2.38-1.01-4.23,1.29-5.56,3.52-6.11,10-2.13-6.53-3.88-8.32-8.04-8.19.26,1.59-.42,2.16-1.94,1.54-.46,4.14,1.25,6.84,5.56,8.95.19.03.39.05.62.08-.25.46-.52.27-.78.15-4.58-.02-7.11,1.65-8.05,5.39,1.68.17,1.73,1.13.91,2.4,3.83,1.34,6.98.62,9.69-2.42-1.05,3.91.01,6.89,3.1,9.2.56-.46.55-1.26,1.17-1.36.76-.04.97.87,1.71.75,2.25-2.89,2.16-5.91.49-9.02-.32-.26-.36-.6-.27-.99.43-.02.37.42.58.6,3.61,2.25,6.31,2.2,9.71-.2-.14-.59-.9-.84-.86-1.55.16-.64,1-.61,1.24-1.2ZM94.88,234.67c-.06-.4.11-.81.57-.83,1.08-.06.8.93,1.2,1.66-.84-.14-1.64.12-1.78-.82ZM97.17,243.08s-.13-.11-.23-.19c.13-.08.25-.17.38-.21.06-.01.15.1.22.16-.12.08-.24.19-.37.24ZM106.46,239.3c-.41.47-.81.24-1.31,0-1.9-.86-3.47-.52-4.47,1.17-.6,1.03-.24,2.24.41,3.23.29.43.44.78.09,1.18-.23.27-.55.37-.89.15-.46-.29-.34-.67-.3-1.14.1-1.25.4-2.47-.88-3.55-1.65-1.37-2.85-.24-4.15.38-.46.22-.72.91-1.37.43-.29-.22-.37-.58-.22-.9.33-.7.86-.36,1.41-.31,2.22.17,3.53-1.2,3.24-3.27,1.68.76,3.43-.6,3.57-2.85.03-.6-.09-1.13.66-1.27.36-.07.66.12.8.47.25.65-.31.82-.67,1.16-1.42,1.32-1.76,3.17-.6,3.89,1.01.62,2.28.68,3.45.27.46-.16.84-.35,1.2.05.23.26.28.64.04.92Z"/>
      <path class="cls-1" d="M93.23,312.53c-.1-.56.57-.83.54-1.37-3-1.92-5.83-1.24-8.62.65,1.53-3.17,1.06-5.94-.95-8.66-.77,1.25-1.54,1.3-2.21.05-2.85,2.49-3.1,4.7-1.25,9.96-3.96-4.34-5.95-5.13-9.16-3.56.76,1.15.43,1.83-.97,1.89,1.09,3.39,3.38,4.9,7.49,5.03.16-.05.32-.1.52-.15-.04.44-.31.39-.55.39-3.58,1.59-4.97,3.79-4.39,7.04,1.37-.46,1.75.27,1.55,1.55,3.46-.3,5.66-1.97,6.71-5.3.55,3.42,2.43,5.37,5.65,6.09.27-.56-.01-1.17.43-1.47.58-.3,1.06.34,1.6-.02.74-3.05-.4-5.37-2.79-7.22-.34-.1-.49-.35-.56-.68.33-.17.44.2.66.27,3.61.49,5.7-.5,7.51-3.57-.32-.41-1-.34-1.22-.91ZM77.26,314.25c-.19-.29-.2-.67.16-.85.82-.42.95.44,1.52.87-.71.19-1.24.67-1.68-.02ZM82,320s-.14-.04-.25-.07c.08-.11.13-.22.22-.3.04-.03.15.03.23.05-.07.11-.12.23-.21.32ZM87.93,313.79c-.16.52-.54.47-1.02.47-1.78,0-2.89.82-3.07,2.48-.11,1.01.6,1.84,1.46,2.38.38.24.62.45.49.89-.09.29-.3.48-.64.43-.46-.06-.5-.4-.64-.79-.36-1.01-.55-2.07-1.94-2.46-1.77-.49-2.31.81-3.11,1.76-.28.33-.24.96-.92.81-.3-.07-.49-.32-.49-.63,0-.66.55-.58.99-.74,1.79-.65,2.33-2.17,1.38-3.69,1.58,0,2.47-1.67,1.78-3.48-.18-.48-.47-.85.07-1.22.26-.18.56-.14.79.08.43.42.05.75-.11,1.14-.64,1.53-.26,3.1.9,3.24,1.01.13,2.02-.27,2.78-1,.3-.28.53-.57.95-.38.27.12.44.4.35.7Z"/>
      <path class="cls-1" d="M99.72,237.6c-.75.1-.98.59-.92,1.3.15.61.58.94,1.19.85.68-.1,1.06-.57.91-1.29-.12-.62-.53-.94-1.18-.86Z"/>
      <path class="cls-1" d="M116.6,271.79c-.03-.73-2.32-1.05-.3-2.02-.64-1.19.33-1.71,1.07-2.32-1.74-.88-2.57-2.32-2.27-3.85-.78-.21-1.5.62-2.35.21.4-.83,1.3-1.18,1.47-2.03-.43-.48-1.17.04-1.55-.63.15-.32.32-.7.55-1.19-2.03.09-.83-1.37-1.02-2.33-1.13.59-2.14.93-2.16-.84-.56.32-.86.99-1.46.63-.63-.61.32-1.31-.32-2-.63,1.05-1.23,2.04-1.83,3.03-.1-.04-.2-.08-.3-.12.08-1.12.17-2.25.27-3.69-.88.78-1.62,1.75-2.25.21-1.22.45-1.49-.7-2.01-1.4-1.29,1.94-2.8,2.46-4.17,1.47-.18,1.12.59,2.2.15,3.4-.89-.65-.94-1.78-1.8-2.24-.42.43.03,1.16-.56,1.5-.66.2-.88-.64-1.51-.59.12,2.19-1.41.61-2.24.88.44.97.68,1.87-.6,2.28,1.09,1.62-.41,1.37-1.43,1.51.98.98,1.79,1.79,2.66,2.67-1.41.2-2.41-.8-3.67-.78.86,1.44.29,2.61-1.89,3.95,1.72,1.5,1.97,3,.71,4.21,1.14.44,2.48.12,3.65.84-.85.63-1.59,1.17-2.43,1.79,1.85.56,1.87.64.78,1.81h0c1.31.19,1.98.8,1.28,2.27.94.04,2.12-1.14,2.33.73,1.61-1.62,1.52.11,1.82.96,1.07-.86,1.58-2.11,3.02-2.8-.1,1.42-.19,2.61-.32,4.3.94-1.4,1.43-.84,2.32-.62,1.22.29,1.4,1.04,1.94,1.73.98-1.89,2.43-2.57,4.23-1.99-.04-1.09-.59-2.15-.25-3.58.91,1.06,1.6,1.86,2.31,2.7.48-1.79.55-1.82,1.89-.98.13-.23.2-.56.4-.69.65-.44,1.18.4,1.94.26-.18-1.01-.74-2.33,1.24-1.79-.09-.69-.73-1.11-.24-1.74.66-.35,1.24.62,2.11.17-1.24-.9-2.37-1.72-3.74-2.72,1.05-.12,1.75-.2,2.45-.29.7-.08,1.39-.17,2.08-.26ZM108.02,264.18c-.11-.08-.3-.68.16-.82.33-.1.81-.18.69.51-.18.99,1.31,1.36.87,2.74-.51-.81-1.11-.74-1.89-.3.17-.85,1.15-1.45.18-2.13ZM98.42,258.44s.07.14.1.21c-.08.03-.16.07-.24.1-.07-.06-.13-.13-.2-.19.11-.04.22-.1.33-.12ZM94.86,270.59c-1.62-.48.4-2.39-1.13-2.7.38-.63.78-.71,1.23-.76-.85,1.15.68,2.24-.09,3.46ZM99.64,274.47c-1.25.71-2.3.75-2.74-1,.66.26,1.36.22,1.85.84.4-.38.79-.75,1.25-1.19.47.51.02,1.1.27,1.59.7.2,1.55.21,1.84,1.2-.65-.79-2.36.59-2.46-1.44ZM98.4,267.14c.18-.85.61-1.46,1.13-1.97-.27.71.1,1.74-1.13,1.97ZM99.85,264.91c.7-.56,1.28-1.11,2.17-.71-.62.41-1.17,1-2.17.71ZM103.61,265.01c-.42-.44-.8-.94-1.5-.83.71-.69,1.31.09,2.03.15-.21.27-.37.47-.53.68ZM100.22,261.67c.03.26.07.74.12,1.21-.08.05-.16.1-.23.15-.2-.4-.4-.8-.61-1.22-.76.84-2.19.6-2.32,1.17-.21.96-1.72,1.8-.42,3.01-.12,0-.17-.02-.21-.01-1.71.09-1.81,0-.95-1.65,1.04-1.98,2.71-3.12,4.93-3.75,2.28-.66,4.14.02,6.05,1,.19.1.37.14.48.34.13.23.27.46.6,1.02-.98-.33-1.62-.54-2.36-.79-.15.23-.38.57-.81,1.22,0-.84,0-1.34,0-1.69-1.4-1.19-2.81-1.05-4.28.01ZM105.21,265.34c-.21-.08-.5-.1-.41-.48.35,0,.41.22.41.48ZM105.95,270.32c-.14.19-.34.33-.51.13.29.51-.1.56-.72.61.29-.32.47-.52.65-.72,0-.02-.02-.03-.03-.05.01.02.02.03.03.04,0,0,.02-.02.03-.03.42-.42.19-1.09.69-1.54.41-.37.44-1.09-.06-1.48-.63-.5-.65-1.18-.76-1.84,1.53,1.4,1.82,3.34.69,4.87ZM110.57,270.19c-.3.5-.95.22-1.42.73.35.38.64.68,1.04,1.1-.8.39-1.58.9-1.78,1.59-.27.94-1.17.2-1.5.81-.07.14-.27-.22-.34-.42-.13-.33.19-.35.31-.34,1.15.02,1.32-.87,1.63-1.67.41-1.05.95-2.05,1.27-3.12.16-.54.44-.82.9-1.2-.32.92-.19,1.72-.1,2.52Z"/>
      <path class="cls-1" d="M105.37,270.34s.05.08.07.11c-.02-.03-.04-.07-.07-.11,0,0,0,0,0,0Z"/>
      <path class="cls-1" d="M70.24,306.68c.53.62.93,1.08,1.34,1.57.28-1.04.32-1.06,1.1-.57.07-.14.12-.32.23-.4.38-.26.68.23,1.13.15-.11-.59-.43-1.36.72-1.04-.05-.4-.42-.65-.14-1.01.38-.2.72.36,1.23.1-.72-.53-1.38-1-2.17-1.58.61-.07,1.02-.12,1.42-.17.4-.05.81-.1,1.21-.15-.02-.42-1.35-.61-.17-1.17-.37-.69.19-.99.62-1.35-1.01-.51-1.49-1.35-1.32-2.23-.45-.12-.87.36-1.36.12.23-.48.75-.68.85-1.18-.25-.28-.68.02-.9-.36.09-.19.19-.41.32-.69-1.18.05-.48-.8-.59-1.36-.66.34-1.24.54-1.25-.49-.33.19-.5.57-.85.36-.36-.36.19-.76-.19-1.16-.37.61-.71,1.19-1.06,1.76-.06-.02-.12-.05-.18-.07.05-.65.1-1.31.16-2.15-.51.45-.94,1.01-1.31.12-.71.26-.87-.4-1.17-.81-.75,1.13-1.63,1.43-2.42.85-.1.65.34,1.28.08,1.97-.52-.38-.54-1.03-1.05-1.3-.24.25.01.67-.33.87-.38.12-.51-.37-.88-.34.07,1.27-.82.35-1.3.51.25.56.4,1.09-.35,1.32.63.94-.24.79-.83.88.57.57,1.04,1.04,1.55,1.55-.82.12-1.4-.47-2.13-.45.5.84.17,1.52-1.1,2.29,1,.87,1.15,1.74.41,2.44.66.26,1.44.07,2.12.49-.49.36-.92.68-1.41,1.04,1.07.33,1.09.37.45,1.05h0c.76.11,1.15.47.74,1.32.55.02,1.23-.66,1.35.42.94-.94.88.06,1.06.56.62-.5.92-1.23,1.75-1.62-.06.83-.11,1.52-.18,2.5.55-.81.83-.49,1.35-.36.71.17.81.61,1.12,1.01.57-1.1,1.41-1.5,2.46-1.16-.03-.64-.34-1.25-.14-2.08ZM72.86,301.18c-.18.53-.11,1-.06,1.46-.17.29-.55.13-.82.42.21.22.37.4.6.64-.46.22-.92.52-1.03.92-.16.55-.68.12-.87.47-.04.08-.16-.13-.2-.24-.08-.19.11-.2.18-.2.67.01.77-.51.95-.97.24-.61.55-1.19.73-1.81.09-.31.25-.48.52-.7ZM71.32,299.16c-.07-.05-.17-.4.09-.48.19-.06.47-.11.4.3-.1.57.76.79.5,1.59-.3-.47-.65-.43-1.1-.17.1-.5.67-.84.11-1.24ZM65.74,295.82s.04.08.06.12c-.05.02-.09.04-.14.06-.04-.04-.08-.07-.11-.11.06-.03.13-.06.19-.07ZM63.68,302.88c-.94-.28.23-1.39-.66-1.57.22-.37.46-.41.71-.44-.49.67.39,1.3-.05,2.01ZM66.45,305.13c-.73.41-1.33.44-1.59-.58.38.15.79.13,1.07.49.23-.22.46-.44.73-.69.28.3.01.64.16.93.41.11.9.12,1.07.69-.38-.46-1.37.34-1.43-.84ZM65.73,300.87c.11-.49.35-.85.66-1.14-.16.41.06,1.01-.66,1.14ZM66.58,299.58c.41-.32.74-.64,1.26-.41-.36.24-.68.58-1.26.41ZM68.76,299.63c-.24-.25-.46-.54-.87-.48.41-.39.76.05,1.18.09-.12.16-.22.28-.31.39ZM66.79,297.69c.01.15.04.43.07.7-.05.03-.09.06-.14.09-.12-.23-.23-.46-.35-.71-.44.49-1.27.35-1.35.68-.12.56-1,1.05-.24,1.75-.07,0-.1-.01-.12,0-.99.05-1.05,0-.55-.96.61-1.15,1.57-1.81,2.86-2.18,1.32-.38,2.4.01,3.52.58.11.06.22.08.28.19.08.13.16.26.35.59-.57-.19-.94-.32-1.37-.46-.09.14-.22.33-.47.71,0-.49,0-.78,0-.98-.81-.69-1.63-.61-2.48,0ZM69.69,299.83c-.12-.05-.29-.06-.24-.28.2,0,.24.13.24.28ZM69.82,302.79c.17.3-.05.33-.41.36.17-.18.27-.3.38-.42,0,0-.01-.02-.02-.03,0,0,0,.02.02.03,0,0,.01-.01.02-.02.24-.24.11-.63.4-.9.24-.22.26-.63-.04-.86-.37-.29-.38-.68-.44-1.07.89.81,1.05,1.94.4,2.83-.08.11-.2.2-.3.07Z"/>
      <path class="cls-1" d="M81.41,288.9c1.48,1.09,3.02,1.02,4.31-.28,1.44-1.47,2.23-3.27,2.25-5.33.02-2.43-1.46-3.82-3.87-3.76-.22,0-.48.12-.59-.2,2.67-2.3,3.1-3.22,2.37-5.05-.86-2.19-3.79-4.24-5.98-4.19-1.87.04-2.76.88-3.54,3.32.07.12.13.27-.05.31-.07.01-.18-.16-.27-.24-1.02-2.94-2.77-4.11-5.24-3.38-1.71.5-3.13,1.5-4.16,2.97-1.31,1.87-.93,3.84.94,5.15.53.38,1.19.59,1.64,1.23-1.94-.38-3.92-1.02-5.31.98-1.17,1.7-1.06,5.39.21,7.04,2.27,2.95,4.6,1.22,7.2-.43-.44.76-.62,1.04-.77,1.34-1.24,2.4-.46,4.43,2.08,5.27,1.48.49,3.03.59,4.57.2,2.63-.66,3.74-2.75,2.82-5.29-.08-.23-.37-.46-.08-.79.49.39.97.78,1.46,1.14ZM70.82,282.94c.47-.48.97-.6,1.53-.33-.51.11-1.02.22-1.53.33ZM75.71,286.87c-.08-.03-.21-.04-.22-.08-.02-.08.04-.17.06-.26.08.03.2.05.21.09.02.07-.04.17-.06.25ZM75.76,286.18c-.33-.23-.24-.46-.09-.7.51.21,0,.47.09.7ZM79.82,284.83c-1.11-.31-1.66-1.64-2.85-1.81-.48.8-1.15,1.45-1.31,2.37-.2-.63-.8-1.11-.41-1.97.19-.42-.51-.6-.94-.4-.77.36-1.51.78-2.08,1.45q-.18-.46,1.1-1.39c0-.19,0-.38,0-.56-.22-.02-.44-.03-.75-.05.37-.48.86-.27,1.23-.44.12-.31-.26-.32-.32-.6.31-.16.68.27,1.03-.11-.41-1.21-1.73-1.43-2.62-2.15.53-.38.51-.36,1.14.24.4.38.88.7,1.42.96-.39-1.38-1.15-2.53-1.99-3.66,1.24.66,1.48,2.13,2.43,3.04.41.07.24-.47.57-.53.27.35-.07.98.53,1.2,1.66-.81,2.49-2.45,3.57-3.87-.2,1.07-.99,1.77-1.54,2.6-.3.45-.54.79-.42,1.48.27,1.52.36,3.02,2.13,3.63.16.06.29.25.07.59Z"/>
    </g>
  </g>
</svg>