<?xml version="1.0" encoding="UTF-8"?>
<svg id="Capa_2" data-name="Capa 2" xmlns="http://www.w3.org/2000/svg" viewBox="0 0 65.71 300">
  <defs>
    <style>
      .cls-1 {
        fill: #090909;
        stroke-width: 0px;
      }
    </style>
  </defs>
  <g id="Capa_1-2" data-name="Capa 1">
    <g>
      <path class="cls-1" d="M26.16,272.49c.19,1.75.64,3.16,1.29,4.5,1.46,3.01,2.96,3.35,5.52,1.22,1.06-.89,2.17-1.41,3.61-1.38,2.18.04,3.41-1.47,2.57-3.49-.62-1.5-2.18-2.89-3.57-3.3-2.17-.64-4.51.2-7.06.98,1.24.58,2.4.48,3.17,1.34-.91.34-1.68-.34-2.49-.09.04.59.63.64.82,1.03-.11.1-.21.21-.32.31-.39-.04-.7-.51-1.2-.19.09.23.18.47.26.7-.13.09-.26.19-.39.28-.68-.59-1.35-1.17-2.21-1.91Z"/>
      <path class="cls-1" d="M19.98,271.83c.58-.23,1.02-.41,1.57-.63-.66-.29-1.19-.52-2-.88.92-.08,1.51-.13,2.16-.18-1.66-2.22-6.76-3.86-9.06-2.97-.35.14-.85.37-.92.65-.38,1.58-1.61,2.37-3.14,3.21.51.36.67.56.86.59,1.92.25,2.44,1.29,2.27,3.19-.15,1.68.96,2.25,2.5,1.51,2.78-1.34,5.34-3.19,8.65-3.57-.9-.8-1.93-.48-2.9-.92Z"/>
      <path class="cls-1" d="M25.27,267.15c1.34-1.2,2.8-4.17,3.16-6.4.4-2.48-.29-3.06-2.59-2.2-.09.03-.21-.03-.39-.07-.81-1.14-.14-3.67-2.54-3.38-2.6.31-1.12,2.8-1.76,4.15-2.43-.06-3.08.92-2.15,3.14.52,1.24,1.34,2.3,2.08,3.41.23.34.91.57.65,1.17.3-.17.62.37,1.13-.17.12-.13-.45-.53-.26-.89.37-.22.54.48.9.11.26-.8-.33-1.67.13-2.52.8.71.16,1.84.89,2.37.4.17.2-.76.72-.31.14.53-.42,1.06.04,1.58Z"/>
      <path class="cls-1" d="M26.8,279.46c-.58-1.79-1.32-3.54-1.45-5.45,0-.08-.12-.16-.25-.31-.18.34-.35.65-.57,1.05-.38-.8-.87-.69-1.45-.08.04-.59.07-.97.13-1.78-1.83,2.16-4,2.94-5.99,4.02-1.32.71-1.31,1.54.08,2.05,1.23.46,1.47,1.22,1.59,2.37.23,2.18,1.46,2.75,3.32,1.6.88-.54,1.74-.84,2.8-.83,1.99.01,2.42-.69,1.8-2.64Z"/>
      <path class="cls-1" d="M37.85,265.54c.15-.26.28-.5.43-.72.45-.64.67-1.3.08-1.96-.64-.71-1.4-.59-2.11-.15-.56.35-1.08.77-1.61,1.17-.49.37-.98.76-1.64.29-.03-.16-.09-.32-.1-.48-.03-.74.41-1.68-.48-2.1-.98-.46-1.82.14-2.56.76-1.69,1.44-2.42,3.43-3.39,5.69,1.23-.59,2.08-.76,2.29.67.05.36.52.41.85.36,2.69-.34,5.44-.11,8.09-.84.78-.22,1.68-.49,1.72-1.54.04-1.02-1.13-.41-1.56-1.15ZM29.25,266.93h0s.02,0,.03,0h-.03Z"/>
      <path class="cls-1" d="M15.92,263.07c-.83.03,0,1.06-.54,1.03-.89-.18-.11-1.09-.87-1.18-.58.17.1.71-.23.9-.56.27-.84-.33-1.29-.29-.43.05-.76.25-.82.69-.06.5.19,1.02.68.94.76-.12,1.54.33,2,.28,3.52-.39,5.5,1.78,7.51,4.04.33.37.4,1.09,1.14,1,.06-.12.16-.22.15-.3-.25-1.31-1.59-1.89-2.03-3.08-1.41-.72-2.56-1.88-4.12-2.31-.93-.25-1.66-.63-1.58-1.72Z"/>
      <path class="cls-1" d="M21.62,267.1s.02,0,.02.01c0,0,0-.01-.02-.02l.02.02s.06-.1.08-.14c-.04.02-.07.05-.11.1,0,0,0,.02.01.03Z"/>
      <path class="cls-1" d="M32.22,235c1.43.19,2.45.87,3.37,1.9,2.22,2.48,3.75,2.36,5.64-.4.84-1.23,1.49-2.56,1.94-4.26-.96.61-1.71,1.09-2.46,1.57-.12-.11-.23-.22-.35-.33.12-.22.24-.44.36-.66-.45-.39-.82.03-1.21.01-.09-.12-.18-.24-.27-.36.24-.36.84-.32.96-.9-.77-.36-1.63.19-2.48-.27.89-.73,2.02-.47,3.33-.86-2.41-1.14-4.61-2.32-6.84-2.01-1.44.2-3.18,1.34-4.01,2.74-1.13,1.88-.14,3.55,2.03,3.83Z"/>
      <path class="cls-1" d="M57.09,236.66c.11-1.91.78-2.85,2.72-2.82.19,0,.38-.17.94-.46-1.39-1.06-2.5-2.02-2.64-3.64-.02-.28-.49-.59-.81-.78-2.14-1.22-7.43-.35-9.39,1.6.64.15,1.21.29,2.11.5-.84.23-1.41.39-2.1.57.51.3.92.53,1.46.85-1.03.29-2-.17-3.01.49,3.22.87,5.48,3.07,8.03,4.8,1.42.97,2.6.56,2.7-1.12Z"/>
      <path class="cls-1" d="M48.94,215.52c-2.34-.64-2.05,1.97-3.01,2.97-.18,0-.31.05-.4,0-2.15-1.19-2.91-.71-2.89,1.79.02,2.26,1.03,5.41,2.18,6.79.53-.45.05-1.05.27-1.56.58-.37.25.52.67.41.8-.42.34-1.63,1.23-2.22.33.91-.39,1.68-.24,2.51.3.41.57-.25.9.02.13.39-.49.7-.39.85.42.61.82.12,1.1.33-.18-.63.53-.75.81-1.06.9-.99,1.87-1.91,2.56-3.06,1.24-2.07.75-3.13-1.67-3.43-.43-1.43,1.41-3.68-1.13-4.37Z"/>
      <path class="cls-1" d="M42.9,241.91c1.05.15,1.86.57,2.65,1.23,1.67,1.41,2.97,1.03,3.51-1.09.29-1.11.64-1.84,1.92-2.11,1.45-.31,1.58-1.12.38-2.02-1.81-1.36-3.84-2.44-5.33-4.85-.06.81-.09,1.19-.13,1.78-.49-.68-.95-.87-1.45-.13-.16-.43-.28-.76-.41-1.13-.15.13-.28.19-.29.27-.41,1.87-1.4,3.49-2.23,5.18-.91,1.83-.58,2.6,1.39,2.87Z"/>
      <path class="cls-1" d="M30.9,224.55c-.12,1.05.73,1.45,1.48,1.78,2.51,1.11,5.26,1.29,7.87,2.02.32.09.79.11.89-.24.41-1.38,1.23-1.09,2.36-.32-.62-2.37-1.05-4.45-2.51-6.12-.64-.73-1.39-1.44-2.42-1.13-.95.28-.64,1.28-.78,2-.03.16-.11.31-.17.46-.72.37-1.15-.09-1.58-.53-.47-.47-.91-.97-1.42-1.4-.65-.54-1.38-.77-2.11-.16-.68.57-.56,1.25-.21,1.95.12.24.21.5.32.78-.54.67-1.6-.11-1.72.91Z"/>
      <path class="cls-1" d="M45.98,230.32c-.03.08.06.2.1.32.72.2.9-.5,1.28-.82,2.32-1.94,4.6-3.79,8.02-2.89.45.12,1.29-.22,2.02.01.47.15.8-.33.81-.84,0-.44-.29-.7-.7-.8-.44-.11-.8.45-1.32.1-.29-.23.45-.67-.09-.92-.76-.02-.12.99-1.03,1.04-.53-.05.44-.95-.38-1.1-.08,1.1-.87,1.36-1.82,1.47-1.6.19-2.92,1.18-4.42,1.68-.61,1.11-2.02,1.49-2.46,2.75Z"/>
      <path class="cls-1" d="M48.44,227.56s-.02.02-.02.02c0,0,.02,0,.03,0,0,0,.01-.02.02-.03-.03-.05-.06-.09-.1-.12.01.05.03.1.05.15l.02-.02Z"/>
      <path class="cls-1" d="M65.71,259.2c-2.27-2.11-4.71-3.91-7.43-5.32-.86-.45-1.78-.6-2.75-.44-.3.27-.62.12-1.04.04.27-.16.49-.29.7-.42.58-.94,1.2-1.87,1.74-2.84.76-1.35,1.54-2.71,1.76-4.29.12-.85-.11-1.54-1.1-1.39-3.29.5-6.35,1.62-8.88,3.86-.7.62-1.32,1.39-1.17,2.62-2.02-3.49-4.71-5.98-8.14-8.11-.17,4.21-1.08,8.14,1.13,11.9-3.42-.23-6.61.38-10.08,1.74,2.29,1.32,4.22,2.51,6.22,3.56,1.76.93,3.52,2.01,5.68,1.2-1.88,3.29-2.19,6.77-2.32,10.39,3.81-1.52,8.25-5.94,9.16-9.02.39,3.82,3.99,7.49,8.73,8.73-.68-3.68-.37-7.52-3.21-10.47,4.5.22,8.71-.44,10.99-1.77ZM42.47,251.17c.06-.46.07-1.1.77-1,.59.09.66.63.66,1-.06.65-.15,1.21-.8,1.14-.6-.07-.69-.63-.63-1.14ZM39.08,257.62c1.23.12,2.5-.66,4.04.3-1.59-.12-2.81-.21-4.04-.3ZM42.55,261.05c.12-.33,1.38-.88,1.59-.88.15,0,.3.04.48.07-.19.41-1.75.91-2.07.81ZM43.99,265.07l-.03-.14.11.02-.08.11ZM44.45,264.37c-.3-.2.03-.42-.02-.62.22.18.25.38.02.62ZM46.54,261.98s-.31.3-.44.38c-.61.37-.61,1.52-1.64,1.37.73-.25,1.48-1.56,1.71-1.7.22-.13.25-.12.28-.15.14-.11.18-.07.1.1ZM51.14,261.32h-.02s.04-.04.04-.04c0,.02-.01.03-.02.04ZM49.3,257.66c.22.71-.32,1.17-1.02,1.2-.72.04-1.31-.45-1.13-1.11.64-2.36-.84-3.69-2.25-5.1-.29-.28-.85-.41-.52-1.25,1.79.88,2.77,2.41,3.72,4.29.78-2.12,1.35-4.09,2.63-5.68.33-.41.45-1.23,1.3-.95.14.77-.57,1.12-.86,1.68-1.12,2.18-2.73,4.2-1.87,6.94ZM51.4,261.66c.23.08.48.16.28.47-.09-.15-.19-.31-.28-.47ZM51.92,262.51c-.07-.12-.15-.23-.22-.35.15-.08.31-.16.4.08.02.06-.1.17-.18.27ZM51.95,262.54c.74.14.75.17,1.25,1.35-.46-.5-.86-.93-1.25-1.35ZM53.4,264.37v-.11s.1.07.1.07l-.1.04ZM52.12,248.95c.23-.48-.58-.83-.22-1.33,1.38-.4,1.7-.16,1.73,1.29-.47.63-1.03-.28-1.51.05Z"/>
      <path class="cls-1" d="M15.89,246.82c-3.15,2.64-3.98,5.82-3.14,9.68,1.42-.96,2.26-.64,2.38,1.01,4.23-1.29,5.56-3.52,6.11-10,2.13,6.53,3.88,8.32,8.04,8.19-.26-1.59.42-2.16,1.94-1.54.46-4.14-1.25-6.84-5.56-8.95-.19-.03-.39-.05-.62-.08.25-.46.52-.27.78-.15,4.58.02,7.11-1.65,8.05-5.39-1.68-.17-1.73-1.13-.91-2.4-3.82-1.34-6.98-.62-9.69,2.42,1.05-3.91-.01-6.89-3.09-9.2-.56.46-.55,1.26-1.17,1.36-.76.04-.97-.87-1.71-.75-2.25,2.89-2.16,5.91-.49,9.02.32.27.36.6.27.99-.43.02-.37-.42-.58-.6-3.61-2.25-6.31-2.2-9.71.2.14.59.9.84.86,1.55-.16.64-1.01.61-1.24,1.2,2.27,3.48,5.61,4.12,9.49,3.44ZM25.48,248.01c.06.4-.11.81-.57.83-1.08.06-.8-.93-1.2-1.66.84.14,1.64-.12,1.78.82ZM23.19,239.6s.13.11.23.19c-.13.08-.25.17-.38.21-.06.01-.15-.1-.22-.16.12-.08.24-.19.37-.24ZM13.9,243.37c.41-.47.8-.24,1.31,0,1.9.86,3.47.52,4.47-1.17.6-1.03.24-2.24-.41-3.23-.29-.43-.44-.78-.09-1.18.23-.27.55-.37.89-.15.46.29.34.67.3,1.14-.1,1.25-.4,2.47.88,3.55,1.65,1.37,2.85.24,4.15-.38.46-.22.72-.91,1.37-.43.29.22.37.58.22.9-.32.7-.86.36-1.41.31-2.22-.17-3.53,1.2-3.24,3.27-1.68-.76-3.43.6-3.57,2.85-.03.6.09,1.13-.66,1.27-.36.07-.66-.12-.8-.47-.25-.65.31-.82.67-1.16,1.42-1.33,1.76-3.17.6-3.89-1.01-.62-2.28-.68-3.45-.27-.46.16-.84.35-1.2-.05-.23-.26-.28-.64-.04-.92Z"/>
      <path class="cls-1" d="M20.64,245.08c.75-.1.98-.59.92-1.3-.16-.61-.59-.94-1.19-.85-.68.1-1.06.57-.91,1.29.12.62.53.94,1.18.86Z"/>
      <path class="cls-1" d="M61.29,276.01c-3.36-1.17-6.13-.55-8.51,2.13.92-3.43-.01-6.05-2.72-8.08-.49.41-.48,1.11-1.03,1.2-.67.04-.85-.76-1.5-.66-1.98,2.54-1.89,5.19-.43,7.93.28.23.31.53.24.87-.38.02-.32-.37-.51-.53-3.17-1.98-5.54-1.93-8.53.18.12.52.79.74.76,1.36-.14.56-.88.54-1.09,1.05,2,3.06,4.93,3.62,8.34,3.02-2.77,2.32-3.49,5.11-2.76,8.51,1.24-.84,1.99-.57,2.09.89,3.72-1.13,4.89-3.09,5.37-8.79,1.88,5.73,3.41,7.31,7.07,7.19-.23-1.39.37-1.9,1.7-1.36.41-3.63-1.1-6.01-4.89-7.86-.17-.02-.34-.05-.55-.07.22-.4.45-.24.68-.13,4.02.02,6.25-1.45,7.07-4.74-1.48-.15-1.52-.99-.8-2.11ZM52.72,278.13s.12.09.2.17c-.12.07-.22.15-.33.18-.05.01-.13-.09-.19-.14.11-.07.21-.16.33-.21ZM54.74,285.52c.05.35-.1.71-.5.73-.95.05-.7-.82-1.06-1.46.74.12,1.44-.1,1.56.72ZM56.06,280.61c-.29.62-.76.31-1.24.28-1.95-.15-3.1,1.05-2.85,2.87-1.47-.67-3.02.52-3.13,2.5-.03.52.08.99-.58,1.12-.32.06-.58-.11-.7-.41-.22-.57.27-.72.59-1.02,1.25-1.16,1.55-2.79.53-3.41-.89-.55-2-.59-3.03-.24-.4.14-.74.31-1.05-.05-.2-.23-.25-.56-.03-.81.36-.42.71-.21,1.15,0,1.67.76,3.05.45,3.92-1.03.53-.9.21-1.97-.36-2.84-.25-.38-.39-.68-.08-1.04.2-.23.49-.32.78-.13.41.26.3.59.26,1.01-.09,1.1-.36,2.17.78,3.12,1.45,1.2,2.51.21,3.65-.33.4-.19.63-.8,1.2-.38.26.19.32.51.19.79Z"/>
      <path class="cls-1" d="M50.25,281.06c-.6.09-.93.5-.8,1.13.11.54.47.83,1.04.75.65-.09.86-.52.81-1.14-.14-.54-.51-.83-1.05-.75Z"/>
      <path class="cls-1" d="M8.75,219.03c-.4.83-1.3,1.18-1.47,2.03.43.48,1.17-.04,1.55.63-.15.32-.32.7-.55,1.19,2.03-.09.83,1.37,1.02,2.33,1.13-.59,2.14-.93,2.16.84.57-.32.86-.99,1.46-.63.63.61-.32,1.31.32,2,.63-1.05,1.23-2.04,1.83-3.03.1.04.2.08.3.12-.08,1.12-.17,2.25-.27,3.69.88-.78,1.62-1.75,2.25-.22,1.22-.44,1.49.7,2.01,1.4,1.29-1.94,2.8-2.46,4.17-1.47.18-1.12-.59-2.2-.15-3.4.89.65.94,1.78,1.8,2.24.42-.43-.03-1.16.56-1.5.66-.2.88.64,1.51.59-.12-2.19,1.41-.61,2.24-.88-.44-.97-.68-1.87.6-2.28-1.09-1.62.41-1.37,1.43-1.51-.98-.98-1.79-1.79-2.66-2.67,1.41-.2,2.41.8,3.67.78-.86-1.44-.29-2.61,1.89-3.95-1.72-1.5-1.97-3-.71-4.21-1.14-.44-2.48-.12-3.65-.84.85-.63,1.59-1.17,2.43-1.79-1.85-.56-1.87-.64-.78-1.81h0c-1.31-.19-1.98-.8-1.28-2.27-.94-.04-2.12,1.14-2.33-.73-1.61,1.62-1.52-.11-1.82-.96-1.07.86-1.58,2.11-3.02,2.8.11-1.42.19-2.61.32-4.3-.94,1.4-1.43.84-2.32.62-1.22-.29-1.4-1.05-1.93-1.73-.98,1.89-2.43,2.58-4.23,1.99.04,1.09.59,2.15.25,3.58-.91-1.06-1.6-1.86-2.31-2.7-.48,1.79-.55,1.82-1.89.98-.13.23-.2.56-.4.69-.65.44-1.18-.4-1.94-.26.18,1.01.74,2.33-1.24,1.79.09.69.73,1.11.24,1.74-.66.35-1.24-.62-2.11-.17,1.24.9,2.37,1.72,3.74,2.72-1.05.12-1.75.2-2.45.29-.7.08-1.39.17-2.08.26.03.73,2.32,1.05.3,2.02.64,1.19-.33,1.71-1.07,2.32,1.74.88,2.57,2.32,2.27,3.85.78.21,1.5-.62,2.35-.21ZM13.49,218.66c.11.08.3.68-.16.82-.33.1-.81.18-.69-.51.18-.99-1.31-1.36-.87-2.74.51.81,1.11.74,1.89.3-.17.85-1.15,1.45-.18,2.13ZM23.09,224.4s-.07-.14-.1-.21c.08-.03.16-.07.24-.1.07.06.13.13.2.19-.11.04-.22.1-.33.12ZM26.65,212.25c1.62.48-.4,2.39,1.13,2.7-.38.63-.78.71-1.23.76.85-1.15-.68-2.24.09-3.46ZM21.87,208.38c1.25-.71,2.3-.75,2.74,1-.66-.26-1.36-.22-1.85-.84-.4.38-.79.75-1.25,1.19-.47-.51-.02-1.1-.27-1.59-.7-.2-1.55-.21-1.84-1.2.65.79,2.36-.59,2.47,1.44ZM23.11,215.7c-.18.85-.61,1.46-1.13,1.97.27-.71-.1-1.74,1.13-1.97ZM21.66,217.93c-.7.56-1.28,1.11-2.17.71.62-.41,1.17-1,2.17-.71ZM17.9,217.84c.42.44.8.94,1.5.83-.71.69-1.31-.09-2.03-.15.21-.27.37-.47.53-.68ZM21.29,221.18c-.03-.26-.07-.74-.12-1.21.08-.05.16-.1.23-.15.2.4.4.8.61,1.22.76-.84,2.19-.6,2.32-1.17.21-.96,1.72-1.8.42-3.01.13,0,.17.02.21.01,1.71-.09,1.81,0,.95,1.65-1.04,1.98-2.71,3.12-4.93,3.75-2.28.66-4.14-.02-6.05-1-.19-.1-.37-.14-.48-.34-.13-.23-.27-.46-.6-1.02.98.33,1.62.54,2.36.79.15-.23.38-.57.81-1.22,0,.84,0,1.34,0,1.69,1.4,1.19,2.81,1.05,4.28-.01ZM16.3,217.5c.21.08.5.1.41.48-.35,0-.41-.22-.41-.48ZM15.56,212.53c.14-.19.34-.33.51-.13-.29-.51.1-.56.72-.61-.29.32-.47.52-.65.72,0,.02.02.03.03.05-.01-.02-.02-.03-.03-.04,0,0-.02.02-.03.03-.42.42-.19,1.09-.69,1.54-.41.37-.44,1.09.06,1.48.63.5.65,1.18.76,1.84-1.53-1.4-1.82-3.34-.69-4.87ZM10.94,212.65c.3-.5.95-.22,1.42-.73-.35-.38-.64-.68-1.04-1.1.8-.39,1.58-.9,1.78-1.59.27-.94,1.17-.2,1.5-.81.07-.14.27.22.34.42.13.33-.19.35-.31.34-1.15-.02-1.32.87-1.63,1.67-.41,1.05-.95,2.05-1.27,3.12-.16.54-.44.82-.9,1.2.32-.92.19-1.72.1-2.52Z"/>
      <path class="cls-1" d="M16.14,212.5s-.05-.08-.07-.11c.02.03.04.07.07.11,0,0,0,0,0,0Z"/>
      <path class="cls-1" d="M30.11,289.28s-.02-.04-.04-.06c.01.02.02.04.04.06h0Z"/>
      <path class="cls-1" d="M41.27,288.41c-.73-.28-1.58-.07-2.32-.53.54-.4,1.01-.74,1.54-1.14-1.17-.36-1.19-.4-.5-1.15h0c-.83-.12-1.26-.51-.81-1.44-.6-.02-1.35.72-1.48-.46-1.03,1.03-.96-.07-1.16-.61-.68.55-1,1.34-1.91,1.78.07-.9.12-1.66.2-2.73-.6.89-.91.53-1.47.4-.78-.19-.89-.66-1.23-1.1-.62,1.2-1.54,1.64-2.69,1.27.03.7.38,1.37.16,2.28-.58-.67-1.01-1.18-1.47-1.71-.3,1.14-.35,1.16-1.2.62-.08.15-.13.35-.25.44-.41.28-.75-.26-1.23-.16.12.64.47,1.48-.79,1.14.06.44.46.71.15,1.11-.42.22-.79-.39-1.34-.11.79.57,1.5,1.09,2.38,1.73-.67.08-1.11.13-1.55.18-.44.05-.88.11-1.32.16.02.46,1.47.67.19,1.28.41.75-.21,1.09-.68,1.48,1.11.56,1.63,1.48,1.44,2.44.49.13.95-.39,1.49-.13-.25.53-.82.75-.93,1.29.27.3.74-.03.98.4-.09.2-.2.44-.35.76,1.29-.06.53.87.65,1.48.72-.37,1.36-.59,1.37.53.36-.2.54-.63.93-.4.4.39-.21.83.2,1.27.4-.67.78-1.3,1.16-1.92l.19.08c-.05.71-.11,1.43-.17,2.35.56-.5,1.03-1.11,1.43-.14.77-.28.95.44,1.28.89.82-1.23,1.78-1.56,2.65-.93.11-.71-.37-1.4-.09-2.16.57.41.6,1.13,1.14,1.42.27-.28-.02-.74.36-.95.42-.13.56.41.96.38-.07-1.39.9-.39,1.42-.56-.28-.62-.43-1.19.38-1.44-.69-1.03.26-.87.91-.96-.62-.62-1.13-1.14-1.69-1.7.9-.13,1.53.51,2.33.49-.55-.92-.18-1.66,1.2-2.51-1.09-.95-1.25-1.9-.45-2.67ZM33.74,286.66c.79-.45,1.46-.48,1.74.63-.42-.16-.86-.14-1.17-.53-.25.24-.5.48-.79.76-.3-.32-.01-.7-.17-1.01-.44-.12-.98-.14-1.17-.76.41.5,1.5-.37,1.56.91ZM34.53,291.31c-.12.54-.39.92-.72,1.25.17-.45-.06-1.1.72-1.25ZM33.61,292.72c-.45.35-.81.7-1.37.45.39-.26.74-.64,1.37-.45ZM31.23,292.66c.26.28.5.6.95.53-.45.44-.83-.06-1.29-.1.14-.17.24-.3.34-.43ZM29.74,289.29c.09-.12.22-.22.33-.08-.19-.33.06-.36.45-.39-.18.2-.3.33-.41.46,0,.01.01.02.02.03,0-.01-.01-.02-.02-.03,0,0-.01.01-.02.02-.26.27-.12.69-.44.98-.26.24-.28.69.04.94.4.32.41.75.48,1.17-.97-.89-1.15-2.12-.44-3.09ZM30.47,292.76c-.22,0-.26-.14-.26-.31.14.05.32.06.26.31ZM28.42,293.19c.07.05.19.43-.1.52-.21.06-.52.12-.44-.32.11-.63-.83-.86-.55-1.74.32.52.71.47,1.2.19-.11.54-.73.92-.12,1.35ZM28.12,288.23c-.26.66-.6,1.3-.8,1.98-.1.34-.28.52-.57.76.2-.58.12-1.09.06-1.6.19-.31.6-.14.9-.46-.22-.24-.41-.43-.66-.7.51-.24,1-.57,1.13-1.01.17-.6.74-.13.95-.51.05-.09.17.14.22.27.08.21-.12.22-.19.22-.73-.01-.84.55-1.04,1.06ZM34.52,296.83s-.04-.09-.07-.13c.05-.02.1-.04.15-.07.04.04.08.08.12.12-.07.03-.14.06-.21.08ZM36.31,293.1c-.66,1.26-1.72,1.98-3.13,2.38-1.45.42-2.63-.02-3.84-.63-.12-.06-.24-.09-.31-.21-.08-.15-.17-.29-.38-.65.62.21,1.03.35,1.5.5.1-.15.24-.36.51-.77,0,.53,0,.85,0,1.07.89.76,1.78.67,2.72,0-.02-.17-.05-.47-.08-.77.05-.03.1-.06.15-.1.13.25.25.51.39.77.48-.53,1.39-.38,1.47-.74.13-.61,1.09-1.15.27-1.91.08,0,.11.01.13,0,1.08-.05,1.15,0,.6,1.05ZM36.72,291.32c.54-.73-.43-1.42.06-2.2,1.03.31-.25,1.52.72,1.72-.24.4-.5.45-.78.48Z"/>
      <path class="cls-1" d="M37.94,202.81c.25,0,.55-.14.68.23-3.07,2.65-3.57,3.71-2.73,5.82,1,2.52,4.37,4.88,6.88,4.83,2.15-.05,3.18-1.01,4.08-3.83-.08-.14-.15-.31.06-.35.08-.02.2.18.31.28,1.17,3.39,3.19,4.73,6.04,3.89,1.97-.58,3.61-1.73,4.8-3.42,1.51-2.16,1.07-4.42-1.09-5.94-.61-.43-1.37-.68-1.89-1.41,2.24.43,4.52,1.18,6.11-1.13,1.35-1.96,1.22-6.21-.24-8.11-2.61-3.39-5.3-1.41-8.3.5.51-.87.71-1.2.89-1.54,1.42-2.76.53-5.1-2.4-6.07-1.71-.56-3.49-.68-5.26-.23-3.03.76-4.31,3.17-3.25,6.09.1.27.43.53.09.91-.57-.44-1.11-.89-1.68-1.31-1.7-1.25-3.48-1.18-4.96.32-1.66,1.69-2.57,3.77-2.59,6.14-.02,2.8,1.68,4.4,4.46,4.34ZM53.23,198.88c-.54.55-1.12.69-1.77.38.59-.13,1.18-.25,1.77-.38ZM47.6,194.34c.09.03.24.05.25.1.02.09-.04.2-.07.3-.09-.03-.23-.05-.24-.11-.02-.09.04-.19.07-.29ZM47.54,195.14c.39.27.28.53.1.8-.59-.24,0-.54-.1-.8ZM42.86,196.69c1.28.36,1.91,1.89,3.29,2.09.55-.92,1.32-1.67,1.51-2.73.23.72.92,1.28.47,2.27-.22.49.58.69,1.08.46.89-.41,1.74-.9,2.4-1.67q.21.53-1.27,1.61c0,.22,0,.43,0,.65.25.02.5.04.86.06-.43.55-.99.31-1.41.51-.14.35.3.37.37.69-.36.19-.78-.31-1.19.13.48,1.4,2,1.65,3.01,2.48-.61.44-.59.42-1.31-.27-.47-.44-1.01-.8-1.64-1.1.45,1.59,1.33,2.91,2.29,4.21-1.43-.76-1.7-2.46-2.8-3.51-.47-.08-.27.54-.66.62-.31-.4.08-1.13-.61-1.38-1.91.93-2.87,2.82-4.12,4.46.23-1.24,1.14-2.03,1.77-3,.34-.52.62-.91.48-1.71-.31-1.75-.41-3.48-2.45-4.18-.19-.06-.34-.28-.08-.68Z"/>
      <path class="cls-1" d="M30.9,192.57c1.06-.89,2.17-1.41,3.61-1.38,2.18.04,3.41-1.47,2.57-3.49-.62-1.5-2.18-2.89-3.57-3.3-2.17-.64-4.51.2-7.06.98,1.24.58,2.4.48,3.17,1.34-.91.34-1.68-.34-2.49-.09.04.59.63.64.82,1.03-.11.1-.21.21-.32.31-.39-.04-.7-.51-1.2-.19.09.23.18.47.26.7-.13.09-.26.19-.39.28-.68-.59-1.35-1.17-2.21-1.91.19,1.75.64,3.16,1.29,4.5,1.46,3.01,2.96,3.35,5.52,1.22Z"/>
      <path class="cls-1" d="M12.17,190.68c2.78-1.34,5.34-3.19,8.65-3.57-.9-.8-1.93-.48-2.9-.92.58-.23,1.02-.41,1.57-.63-.66-.29-1.19-.52-2-.88.92-.08,1.51-.13,2.16-.18-1.66-2.22-6.76-3.86-9.06-2.97-.35.14-.85.37-.92.65-.38,1.58-1.61,2.37-3.14,3.21.51.36.67.56.86.59,1.92.25,2.44,1.29,2.27,3.19-.15,1.68.96,2.25,2.5,1.51Z"/>
      <path class="cls-1" d="M23.2,181.51c1.34-1.2,2.8-4.17,3.16-6.4.4-2.48-.29-3.06-2.59-2.2-.09.03-.21-.03-.39-.07-.81-1.14-.14-3.67-2.54-3.38-2.6.31-1.12,2.8-1.76,4.15-2.43-.06-3.08.92-2.15,3.14.52,1.24,1.34,2.3,2.08,3.41.23.34.91.57.65,1.17.3-.17.62.37,1.13-.17.12-.13-.45-.53-.26-.89.37-.22.54.48.9.11.26-.8-.33-1.67.13-2.52.8.71.16,1.84.89,2.37.4.17.2-.76.72-.31.14.53-.42,1.06.04,1.58Z"/>
      <path class="cls-1" d="M15.22,193.31c1.23.46,1.47,1.22,1.59,2.37.23,2.18,1.46,2.75,3.32,1.6.88-.54,1.74-.84,2.8-.83,1.99.02,2.42-.69,1.8-2.64-.58-1.79-1.32-3.54-1.45-5.45,0-.08-.12-.16-.25-.31-.18.34-.35.65-.57,1.05-.38-.8-.87-.69-1.45-.08.04-.59.07-.97.13-1.78-1.83,2.16-4,2.94-5.99,4.02-1.32.71-1.31,1.54.08,2.06Z"/>
      <path class="cls-1" d="M30.36,175.94c-.98-.46-1.82.14-2.56.76-1.69,1.44-2.42,3.43-3.39,5.69,1.23-.59,2.08-.76,2.29.67.05.36.51.41.85.36,2.69-.34,5.44-.11,8.08-.84.78-.22,1.68-.49,1.72-1.54.04-1.02-1.13-.41-1.56-1.15.15-.26.28-.5.43-.72.45-.64.67-1.3.08-1.96-.64-.71-1.4-.59-2.11-.15-.56.35-1.08.77-1.61,1.17-.49.37-.98.76-1.64.29-.03-.16-.09-.32-.1-.48-.03-.74.41-1.68-.48-2.1ZM27.18,181.28h0s.02,0,.03,0h-.03Z"/>
      <path class="cls-1" d="M13.85,177.42c-.83.03,0,1.06-.54,1.03-.89-.18-.11-1.09-.87-1.18-.58.17.1.71-.23.9-.56.27-.84-.33-1.29-.29-.43.05-.76.25-.82.69-.06.5.19,1.02.68.94.76-.12,1.54.33,2,.28,3.52-.39,5.5,1.78,7.51,4.04.33.37.4,1.09,1.14,1,.06-.12.16-.22.15-.3-.25-1.31-1.59-1.89-2.03-3.08-1.41-.72-2.56-1.88-4.12-2.31-.93-.25-1.66-.63-1.58-1.72Z"/>
      <path class="cls-1" d="M19.55,181.45s.02,0,.02.01c0,0,0-.01-.02-.02l.02.02s.06-.1.08-.14c-.04.02-.07.05-.11.1,0,0,0,.02.01.03Z"/>
      <path class="cls-1" d="M30.16,149.35c1.43.19,2.45.87,3.37,1.9,2.22,2.48,3.75,2.36,5.64-.4.84-1.23,1.49-2.56,1.94-4.26-.96.61-1.71,1.09-2.46,1.57-.12-.11-.23-.22-.35-.33.12-.22.24-.44.36-.66-.45-.39-.82.03-1.21.01-.09-.12-.18-.24-.27-.36.24-.36.84-.32.96-.9-.77-.36-1.63.19-2.48-.27.89-.73,2.02-.47,3.33-.86-2.41-1.14-4.61-2.32-6.84-2.01-1.44.2-3.18,1.34-4.02,2.74-1.13,1.88-.14,3.55,2.03,3.83Z"/>
      <path class="cls-1" d="M55.02,151.01c.11-1.91.78-2.85,2.72-2.82.19,0,.38-.17.94-.46-1.39-1.06-2.5-2.02-2.64-3.64-.02-.28-.49-.59-.81-.78-2.14-1.22-7.43-.35-9.39,1.6.64.15,1.21.29,2.11.5-.84.23-1.41.39-2.1.57.51.3.92.53,1.46.85-1.03.29-2-.17-3.01.49,3.22.87,5.48,3.07,8.03,4.8,1.42.97,2.6.56,2.7-1.12Z"/>
      <path class="cls-1" d="M46.87,129.87c-2.34-.64-2.05,1.97-3.01,2.97-.18,0-.31.05-.4,0-2.15-1.19-2.91-.71-2.89,1.79.02,2.26,1.03,5.41,2.18,6.79.53-.44.05-1.05.27-1.56.58-.37.25.52.67.41.8-.42.34-1.63,1.23-2.22.33.91-.39,1.68-.24,2.51.3.41.57-.25.91.02.13.39-.49.7-.39.85.42.61.82.12,1.1.33-.18-.63.53-.75.81-1.06.9-.99,1.87-1.91,2.56-3.06,1.24-2.07.75-3.13-1.67-3.43-.43-1.43,1.41-3.68-1.13-4.37Z"/>
      <path class="cls-1" d="M40.83,156.26c1.05.15,1.86.57,2.65,1.23,1.67,1.41,2.96,1.03,3.51-1.09.29-1.11.64-1.84,1.92-2.11,1.45-.31,1.58-1.12.38-2.02-1.81-1.36-3.84-2.44-5.33-4.85-.06.81-.09,1.19-.13,1.78-.49-.68-.95-.87-1.45-.13-.16-.43-.28-.76-.41-1.13-.15.13-.28.19-.29.27-.41,1.87-1.4,3.49-2.23,5.18-.91,1.83-.58,2.6,1.39,2.87Z"/>
      <path class="cls-1" d="M28.83,138.9c-.12,1.05.73,1.45,1.47,1.78,2.51,1.11,5.26,1.29,7.87,2.02.32.09.79.11.89-.24.41-1.38,1.23-1.09,2.36-.32-.62-2.37-1.05-4.45-2.51-6.12-.64-.73-1.39-1.44-2.42-1.13-.95.28-.64,1.28-.78,2-.03.16-.11.31-.17.46-.72.37-1.15-.09-1.58-.53-.46-.47-.91-.97-1.42-1.4-.65-.54-1.38-.77-2.11-.16-.68.57-.56,1.25-.21,1.95.12.24.21.5.32.78-.54.67-1.6-.11-1.72.91ZM38.86,140.63h-.04s.02,0,.04,0Z"/>
      <path class="cls-1" d="M43.91,144.67c-.03.08.06.2.1.32.72.2.9-.5,1.28-.82,2.32-1.94,4.6-3.79,8.02-2.89.45.12,1.29-.22,2.02.01.47.15.8-.33.81-.84,0-.44-.29-.7-.7-.8-.44-.11-.8.45-1.32.1-.29-.23.45-.67-.09-.92-.76-.02-.12.99-1.03,1.04-.53-.05.44-.95-.38-1.1-.08,1.1-.87,1.36-1.82,1.47-1.6.19-2.92,1.18-4.42,1.68-.61,1.11-2.02,1.49-2.46,2.75Z"/>
      <path class="cls-1" d="M46.37,141.91s-.02.02-.02.02c0,0,.02,0,.03,0,0,0,.01-.02.02-.03-.03-.05-.06-.09-.1-.12.01.05.03.1.05.15l.02-.02Z"/>
      <path class="cls-1" d="M53.47,167.79c-.3.27-.62.12-1.04.04.27-.16.49-.29.7-.42.58-.94,1.2-1.87,1.74-2.84.76-1.35,1.54-2.71,1.76-4.29.12-.85-.11-1.54-1.1-1.39-3.29.5-6.35,1.62-8.88,3.86-.7.62-1.32,1.39-1.17,2.62-2.02-3.49-4.71-5.98-8.14-8.11-.17,4.21-1.08,8.14,1.13,11.9-3.42-.23-6.61.38-10.08,1.74,2.29,1.32,4.22,2.51,6.22,3.56,1.76.93,3.52,2.01,5.68,1.2-1.88,3.29-2.19,6.77-2.32,10.39,3.81-1.52,8.25-5.94,9.16-9.02.39,3.82,3.99,7.49,8.73,8.73-.68-3.68-.37-7.52-3.21-10.47,4.5.22,8.71-.44,10.99-1.77-2.27-2.11-4.71-3.91-7.43-5.32-.86-.45-1.78-.6-2.75-.44ZM40.4,165.52c.06-.46.07-1.1.77-1,.59.09.66.63.66,1-.06.65-.15,1.21-.8,1.14-.6-.07-.69-.63-.63-1.14ZM37.01,171.97c1.23.12,2.5-.66,4.04.3-1.59-.12-2.81-.21-4.04-.3ZM40.49,175.4c.12-.33,1.38-.88,1.59-.88.15,0,.3.04.48.07-.19.41-1.75.91-2.07.81ZM41.93,179.42l-.03-.13.11.02-.08.11ZM42.38,178.72c-.3-.2.03-.42-.02-.62.22.18.25.38.02.62ZM44.47,176.33s-.31.3-.44.38c-.61.37-.61,1.52-1.64,1.37.73-.25,1.48-1.56,1.71-1.7.22-.13.25-.12.28-.15.14-.11.18-.07.1.1ZM49.07,175.67h-.02s.04-.05.04-.05c0,.02-.01.03-.02.05ZM47.23,172.01c.22.71-.32,1.17-1.02,1.2-.72.04-1.31-.45-1.13-1.11.64-2.36-.84-3.69-2.25-5.1-.29-.28-.85-.41-.52-1.25,1.79.88,2.77,2.41,3.72,4.29.78-2.12,1.35-4.09,2.63-5.68.33-.41.45-1.23,1.3-.95.14.77-.57,1.12-.86,1.68-1.11,2.18-2.73,4.2-1.87,6.94ZM49.34,176.01c.23.08.48.16.28.47-.09-.15-.19-.31-.28-.47ZM49.85,176.86c-.07-.12-.15-.23-.22-.35.15-.08.31-.16.4.08.02.06-.1.17-.18.27ZM49.88,176.89c.74.14.75.17,1.25,1.35-.46-.5-.86-.93-1.25-1.35ZM51.33,178.72v-.11s.1.07.1.07l-.1.04ZM50.06,163.3c.23-.48-.58-.83-.22-1.33,1.38-.4,1.7-.16,1.73,1.29-.47.63-1.03-.28-1.51.05Z"/>
      <path class="cls-1" d="M5.49,157.9c2.27,3.48,5.61,4.12,9.49,3.44-3.15,2.64-3.98,5.82-3.14,9.68,1.42-.96,2.26-.64,2.38,1.01,4.23-1.29,5.56-3.52,6.11-10,2.13,6.53,3.88,8.32,8.04,8.19-.26-1.59.42-2.16,1.94-1.54.46-4.14-1.25-6.84-5.56-8.95-.19-.03-.39-.05-.62-.08.25-.46.52-.27.78-.15,4.58.02,7.11-1.65,8.05-5.39-1.68-.17-1.73-1.13-.91-2.4-3.82-1.34-6.98-.62-9.69,2.42,1.05-3.91-.01-6.89-3.09-9.2-.56.46-.55,1.26-1.17,1.36-.76.04-.97-.87-1.71-.75-2.25,2.89-2.16,5.91-.49,9.02.32.27.36.6.27.99-.43.02-.37-.42-.58-.6-3.61-2.25-6.31-2.2-9.71.2.14.59.9.84.86,1.55-.16.64-1.01.61-1.24,1.2ZM24.56,162.52c.06.4-.11.81-.57.83-1.08.06-.8-.93-1.2-1.66.84.14,1.64-.12,1.78.82ZM22.27,154.12s.13.11.23.19c-.13.08-.25.17-.38.21-.06.01-.15-.1-.22-.16.12-.08.24-.19.37-.24ZM12.98,157.89c.41-.47.8-.24,1.31,0,1.9.86,3.47.52,4.47-1.17.6-1.03.24-2.24-.41-3.23-.29-.43-.44-.78-.09-1.18.23-.27.55-.37.89-.15.46.29.34.67.3,1.14-.1,1.25-.4,2.47.89,3.55,1.65,1.37,2.85.24,4.15-.38.46-.22.72-.91,1.37-.43.29.22.37.58.22.9-.33.7-.86.36-1.41.31-2.22-.17-3.53,1.2-3.24,3.27-1.68-.76-3.43.6-3.57,2.85-.04.6.09,1.13-.66,1.27-.36.07-.66-.12-.8-.47-.25-.65.31-.82.67-1.16,1.42-1.32,1.76-3.17.6-3.89-1.01-.62-2.28-.68-3.45-.27-.46.16-.84.35-1.2-.05-.23-.26-.28-.64-.04-.92Z"/>
      <path class="cls-1" d="M19.73,159.59c.75-.1.98-.59.92-1.3-.15-.61-.59-.94-1.19-.85-.68.1-1.06.57-.91,1.29.12.62.53.94,1.18.86Z"/>
      <path class="cls-1" d="M4.34,133.59c.78.21,1.5-.62,2.35-.21-.4.83-1.3,1.18-1.47,2.03.43.48,1.17-.04,1.55.63-.15.32-.32.7-.55,1.19,2.03-.09.83,1.37,1.02,2.33,1.13-.59,2.14-.93,2.16.84.57-.32.86-.99,1.46-.63.63.61-.32,1.31.32,2,.63-1.05,1.23-2.04,1.83-3.03.1.04.2.08.3.12-.08,1.12-.17,2.25-.27,3.69.88-.78,1.62-1.75,2.25-.22,1.22-.44,1.49.7,2.01,1.4,1.29-1.94,2.8-2.46,4.17-1.47.18-1.12-.59-2.2-.15-3.4.89.65.94,1.78,1.8,2.24.42-.43-.03-1.16.56-1.5.66-.2.88.64,1.51.59-.12-2.19,1.41-.61,2.24-.88-.44-.97-.68-1.87.6-2.28-1.09-1.62.41-1.37,1.43-1.51-.98-.98-1.79-1.79-2.66-2.67,1.41-.2,2.41.8,3.67.78-.86-1.44-.29-2.61,1.89-3.95-1.72-1.5-1.97-3-.71-4.21-1.14-.44-2.48-.12-3.65-.84.85-.63,1.59-1.17,2.43-1.79-1.85-.56-1.87-.64-.78-1.81h0c-1.31-.19-1.98-.8-1.28-2.27-.94-.04-2.12,1.14-2.33-.73-1.61,1.62-1.52-.11-1.82-.96-1.07.86-1.58,2.11-3.02,2.8.11-1.42.19-2.61.32-4.3-.94,1.4-1.43.84-2.32.62-1.22-.29-1.4-1.04-1.93-1.73-.98,1.89-2.43,2.58-4.23,1.99.04,1.09.59,2.15.25,3.58-.91-1.06-1.6-1.86-2.31-2.7-.48,1.79-.55,1.82-1.89.98-.13.23-.2.56-.4.69-.65.44-1.18-.4-1.94-.26.18,1.01.74,2.33-1.24,1.79.09.69.73,1.11.24,1.74-.66.35-1.24-.62-2.11-.17,1.24.9,2.37,1.72,3.74,2.72-1.05.12-1.75.2-2.45.29-.7.08-1.39.17-2.08.26.03.73,2.32,1.05.3,2.02.64,1.19-.33,1.71-1.07,2.32,1.74.88,2.57,2.32,2.27,3.85ZM11.42,133.01c.11.08.3.68-.16.82-.33.1-.81.18-.69-.51.18-.99-1.31-1.36-.87-2.74.51.81,1.11.74,1.89.3-.17.85-1.15,1.45-.18,2.13ZM21.02,138.75s-.07-.14-.1-.21c.08-.03.16-.07.24-.1.07.06.13.13.2.19-.11.04-.22.1-.33.12ZM24.59,126.6c1.62.48-.4,2.39,1.13,2.7-.38.63-.78.71-1.23.76.85-1.15-.68-2.24.09-3.46ZM19.8,122.73c1.25-.71,2.3-.75,2.74,1-.66-.26-1.36-.22-1.85-.84-.4.38-.79.75-1.25,1.19-.47-.51-.02-1.1-.27-1.59-.7-.2-1.55-.21-1.84-1.2.65.79,2.36-.59,2.47,1.44ZM21.05,130.05c-.18.85-.61,1.46-1.13,1.97.27-.71-.1-1.74,1.13-1.97ZM19.59,132.28c-.7.56-1.28,1.11-2.17.71.62-.41,1.17-1,2.17-.71ZM15.83,132.19c.42.44.8.94,1.5.83-.71.69-1.31-.09-2.03-.15.21-.27.37-.47.53-.68ZM19.22,135.53c-.03-.26-.07-.74-.12-1.21.08-.05.16-.1.23-.15.2.4.4.8.61,1.22.76-.84,2.19-.6,2.32-1.17.21-.96,1.72-1.8.42-3.01.13,0,.17.02.21.01,1.71-.09,1.81,0,.95,1.65-1.04,1.98-2.71,3.12-4.93,3.75-2.28.66-4.14-.02-6.05-1-.19-.1-.37-.14-.48-.34-.13-.23-.27-.46-.6-1.02.98.33,1.62.54,2.36.79.15-.23.38-.57.81-1.22,0,.84,0,1.34,0,1.69,1.4,1.19,2.81,1.05,4.28-.01ZM14.23,131.85c.21.08.5.1.41.48-.35,0-.41-.22-.41-.48ZM13.49,126.88c.14-.19.34-.33.51-.13-.29-.51.1-.56.72-.61-.29.32-.47.52-.65.72,0,.02.02.03.03.05-.01-.02-.02-.03-.03-.04,0,0-.02.02-.03.03-.42.42-.19,1.09-.69,1.54-.41.37-.44,1.09.06,1.48.63.5.65,1.18.76,1.84-1.53-1.4-1.82-3.34-.69-4.87ZM8.88,127c.3-.5.95-.22,1.42-.73-.35-.38-.64-.68-1.04-1.1.8-.39,1.58-.9,1.78-1.59.27-.94,1.17-.2,1.5-.81.07-.14.27.22.34.42.13.33-.19.35-.31.34-1.15-.02-1.32.87-1.63,1.67-.41,1.05-.95,2.05-1.27,3.12-.16.54-.44.82-.9,1.2.32-.92.19-1.72.1-2.52Z"/>
      <path class="cls-1" d="M14.07,126.85s-.05-.08-.07-.11c.02.03.04.07.07.11,0,0,0,0,0,0Z"/>
      <path class="cls-1" d="M35.87,117.16c.25,0,.55-.14.68.23-3.07,2.65-3.57,3.71-2.73,5.82,1,2.52,4.37,4.88,6.88,4.83,2.15-.05,3.18-1.01,4.08-3.83-.08-.14-.15-.31.06-.35.08-.02.2.18.31.28,1.17,3.39,3.19,4.73,6.04,3.89,1.97-.58,3.61-1.73,4.8-3.42,1.51-2.16,1.07-4.42-1.09-5.94-.61-.43-1.37-.68-1.89-1.41,2.24.43,4.52,1.18,6.11-1.13,1.35-1.96,1.22-6.21-.24-8.11-2.61-3.39-5.3-1.41-8.3.5.51-.87.71-1.2.89-1.54,1.42-2.76.53-5.1-2.4-6.07-1.71-.56-3.49-.68-5.26-.23-3.03.76-4.31,3.17-3.25,6.09.1.27.43.53.09.91-.57-.44-1.11-.89-1.68-1.31-1.7-1.25-3.48-1.18-4.96.32-1.66,1.69-2.57,3.77-2.59,6.14-.02,2.8,1.68,4.4,4.46,4.34ZM51.16,113.23c-.54.55-1.12.69-1.77.38.59-.13,1.18-.25,1.77-.38ZM45.53,108.69c.09.03.24.05.25.1.02.09-.04.2-.07.3-.09-.03-.23-.05-.24-.11-.02-.09.04-.19.07-.29ZM45.47,109.49c.39.27.28.53.1.8-.59-.24,0-.54-.1-.8ZM40.79,111.04c1.28.36,1.91,1.89,3.29,2.09.55-.92,1.33-1.67,1.51-2.73.23.72.92,1.28.47,2.27-.22.49.59.69,1.08.46.89-.41,1.74-.9,2.4-1.67q.21.53-1.27,1.61c0,.22,0,.43,0,.65.25.02.5.04.86.06-.43.55-.99.31-1.41.51-.14.35.3.37.37.69-.36.19-.78-.31-1.19.13.48,1.4,2,1.65,3.01,2.48-.61.44-.59.42-1.31-.27-.47-.44-1.01-.8-1.64-1.1.45,1.59,1.33,2.91,2.29,4.21-1.43-.76-1.7-2.46-2.8-3.51-.47-.08-.27.54-.66.62-.31-.4.08-1.13-.61-1.38-1.91.93-2.87,2.82-4.12,4.46.23-1.24,1.14-2.03,1.77-3,.34-.52.62-.91.48-1.71-.31-1.75-.41-3.48-2.45-4.18-.19-.06-.34-.28-.08-.68Z"/>
      <path class="cls-1" d="M28.83,106.92c1.06-.89,2.17-1.41,3.61-1.38,2.18.04,3.41-1.47,2.57-3.49-.62-1.5-2.18-2.89-3.57-3.3-2.17-.64-4.51.2-7.06.98,1.24.58,2.4.48,3.17,1.34-.91.34-1.68-.34-2.49-.09.04.59.63.64.82,1.03-.11.1-.21.21-.32.31-.39-.04-.7-.51-1.2-.19.09.23.18.47.26.7-.13.09-.26.19-.39.28-.68-.59-1.35-1.17-2.21-1.91.19,1.75.64,3.16,1.29,4.5,1.46,3.01,2.96,3.35,5.52,1.22Z"/>
      <path class="cls-1" d="M10.1,105.03c2.78-1.34,5.34-3.19,8.65-3.57-.9-.8-1.93-.48-2.9-.92.58-.23,1.02-.41,1.57-.63-.66-.29-1.19-.52-2-.88.92-.08,1.51-.13,2.16-.18-1.66-2.22-6.76-3.86-9.06-2.97-.35.14-.85.37-.92.65-.38,1.58-1.61,2.37-3.14,3.21.51.36.67.56.86.59,1.92.25,2.44,1.29,2.27,3.19-.15,1.68.96,2.25,2.5,1.51Z"/>
      <path class="cls-1" d="M21.14,95.86c1.34-1.2,2.8-4.17,3.16-6.4.4-2.48-.29-3.06-2.59-2.2-.09.03-.21-.03-.39-.07-.81-1.14-.14-3.67-2.54-3.38-2.6.31-1.12,2.8-1.75,4.15-2.43-.06-3.08.92-2.15,3.14.52,1.24,1.34,2.3,2.08,3.41.23.34.91.57.65,1.17.3-.17.63.37,1.13-.17.12-.13-.45-.53-.26-.89.37-.22.54.48.9.11.26-.8-.33-1.67.13-2.52.8.71.16,1.84.89,2.37.4.17.2-.76.72-.31.14.53-.42,1.06.04,1.58Z"/>
      <path class="cls-1" d="M13.16,107.66c1.23.46,1.47,1.22,1.59,2.37.23,2.18,1.46,2.75,3.32,1.6.88-.54,1.74-.84,2.8-.83,1.99.02,2.42-.69,1.8-2.64-.58-1.79-1.32-3.54-1.45-5.45,0-.08-.12-.16-.25-.31-.18.34-.35.65-.57,1.05-.38-.8-.87-.69-1.45-.08.04-.59.07-.97.13-1.78-1.83,2.16-4,2.94-5.99,4.02-1.32.71-1.31,1.54.08,2.06Z"/>
      <path class="cls-1" d="M28.29,90.29c-.98-.46-1.82.14-2.56.76-1.69,1.44-2.42,3.43-3.39,5.69,1.23-.59,2.08-.76,2.29.67.05.36.51.41.85.36,2.69-.34,5.44-.11,8.08-.84.78-.22,1.68-.49,1.72-1.54.04-1.02-1.13-.41-1.56-1.15.15-.26.28-.5.43-.72.45-.64.67-1.3.08-1.96-.64-.71-1.4-.59-2.11-.15-.56.35-1.08.77-1.61,1.17-.49.37-.98.76-1.64.29-.03-.16-.09-.32-.1-.48-.03-.74.41-1.68-.48-2.1ZM25.11,95.63h0s.04,0,.04,0h-.04Z"/>
      <path class="cls-1" d="M11.78,91.77c-.83.03,0,1.06-.54,1.03-.89-.18-.11-1.09-.87-1.18-.58.17.1.71-.23.9-.56.27-.84-.33-1.29-.29-.43.05-.76.25-.82.69-.06.5.19,1.02.68.94.76-.12,1.54.33,2,.28,3.52-.39,5.5,1.78,7.51,4.04.33.37.4,1.09,1.14,1,.06-.12.16-.22.15-.3-.25-1.31-1.59-1.89-2.03-3.08-1.41-.72-2.56-1.89-4.12-2.31-.93-.25-1.66-.63-1.58-1.72Z"/>
      <path class="cls-1" d="M17.49,95.8s.02,0,.02.01c0,0,0-.01-.02-.02l.02.02s.06-.1.08-.14c-.04.02-.07.05-.11.1,0,0,0,.02.01.03Z"/>
      <path class="cls-1" d="M28.09,63.7c1.42.19,2.45.87,3.37,1.9,2.22,2.48,3.75,2.36,5.64-.4.84-1.23,1.49-2.56,1.94-4.26-.96.61-1.71,1.09-2.46,1.57-.12-.11-.23-.22-.35-.33.12-.22.24-.44.36-.66-.45-.39-.82.03-1.21.01-.09-.12-.18-.24-.27-.36.24-.36.84-.32.96-.9-.77-.36-1.63.19-2.48-.27.89-.73,2.02-.47,3.33-.86-2.41-1.14-4.61-2.32-6.84-2.01-1.44.2-3.18,1.34-4.01,2.74-1.13,1.88-.14,3.55,2.03,3.83Z"/>
      <path class="cls-1" d="M52.96,65.36c.11-1.91.78-2.85,2.72-2.82.19,0,.38-.17.94-.46-1.39-1.06-2.5-2.02-2.64-3.64-.02-.28-.49-.59-.81-.78-2.14-1.22-7.43-.35-9.39,1.6.64.15,1.21.29,2.11.5-.84.23-1.41.39-2.1.57.51.3.92.53,1.46.85-1.03.29-2-.17-3.01.49,3.22.87,5.48,3.07,8.03,4.8,1.42.97,2.6.56,2.7-1.12Z"/>
      <path class="cls-1" d="M44.8,44.22c-2.34-.64-2.05,1.97-3.01,2.97-.18,0-.31.05-.4,0-2.15-1.19-2.91-.71-2.89,1.79.02,2.26,1.03,5.41,2.18,6.79.53-.44.05-1.05.27-1.56.58-.37.25.52.67.41.8-.42.34-1.63,1.23-2.22.33.91-.39,1.68-.24,2.51.3.41.57-.25.9.02.13.39-.49.7-.39.85.42.61.82.12,1.1.33-.18-.63.53-.75.81-1.06.9-.99,1.87-1.91,2.56-3.06,1.24-2.07.75-3.13-1.67-3.43-.43-1.43,1.41-3.68-1.13-4.37Z"/>
      <path class="cls-1" d="M41.89,61.76c-.06.81-.09,1.19-.13,1.78-.49-.68-.95-.87-1.45-.13-.16-.43-.28-.76-.41-1.13-.15.13-.28.19-.29.27-.41,1.87-1.4,3.49-2.23,5.18-.91,1.83-.58,2.6,1.39,2.87,1.05.15,1.86.57,2.65,1.23,1.67,1.41,2.97,1.03,3.51-1.09.29-1.11.64-1.84,1.92-2.11,1.45-.31,1.58-1.12.38-2.02-1.81-1.36-3.84-2.44-5.33-4.85Z"/>
      <path class="cls-1" d="M26.77,53.25c-.12,1.05.73,1.45,1.48,1.78,2.51,1.11,5.26,1.29,7.87,2.02.32.09.79.11.89-.24.41-1.38,1.23-1.09,2.36-.32-.62-2.37-1.05-4.45-2.51-6.12-.64-.73-1.38-1.44-2.42-1.13-.95.28-.64,1.28-.78,2-.03.16-.11.31-.17.46-.72.37-1.15-.09-1.58-.53-.47-.47-.91-.97-1.42-1.4-.65-.54-1.38-.77-2.11-.16-.68.57-.56,1.25-.21,1.95.12.24.21.5.32.78-.54.67-1.6-.11-1.72.91ZM36.79,54.98h0s-.04,0-.04,0c0,0,.02,0,.04,0Z"/>
      <path class="cls-1" d="M41.85,59.02c-.03.08.06.2.1.32.72.2.9-.5,1.28-.82,2.32-1.94,4.6-3.79,8.02-2.89.45.12,1.29-.22,2.02.01.47.15.8-.33.81-.84,0-.44-.28-.7-.7-.8-.44-.11-.8.45-1.32.1-.29-.23.45-.67-.09-.92-.76-.02-.12.99-1.03,1.04-.53-.05.44-.95-.38-1.1-.08,1.1-.87,1.36-1.82,1.47-1.6.19-2.92,1.18-4.42,1.68-.61,1.11-2.02,1.49-2.46,2.75Z"/>
      <path class="cls-1" d="M44.3,56.26s-.02.02-.02.02c0,0,.02,0,.03,0,0,0,.01-.02.02-.03-.03-.05-.06-.09-.1-.12.01.05.03.1.05.15l.02-.02Z"/>
      <path class="cls-1" d="M51.4,82.14c-.3.27-.62.12-1.04.04.27-.16.49-.29.7-.42.58-.94,1.2-1.87,1.74-2.84.76-1.35,1.54-2.71,1.76-4.29.12-.85-.11-1.54-1.1-1.39-3.29.5-6.35,1.62-8.88,3.86-.7.62-1.32,1.39-1.17,2.62-2.02-3.49-4.71-5.98-8.14-8.11-.17,4.21-1.08,8.14,1.13,11.9-3.42-.23-6.61.38-10.08,1.74,2.29,1.32,4.22,2.51,6.22,3.56,1.76.93,3.52,2.01,5.68,1.2-1.88,3.29-2.19,6.77-2.32,10.39,3.81-1.52,8.25-5.94,9.16-9.02.39,3.82,3.99,7.49,8.73,8.73-.68-3.68-.37-7.52-3.21-10.47,4.5.22,8.71-.44,10.99-1.77-2.27-2.11-4.71-3.91-7.43-5.32-.86-.45-1.78-.6-2.75-.44ZM38.33,79.87c.06-.46.07-1.1.77-1,.59.09.66.63.66,1-.06.65-.15,1.21-.8,1.14-.6-.07-.69-.63-.63-1.14ZM34.94,86.32c1.23.12,2.5-.66,4.04.3-1.59-.12-2.81-.21-4.04-.3ZM38.42,89.75c.12-.33,1.38-.88,1.59-.88.15,0,.3.04.48.07-.19.41-1.75.91-2.07.81ZM39.86,93.77l-.03-.14.11.02-.08.11ZM40.32,93.07c-.3-.2.03-.42-.02-.62.22.18.25.38.02.62ZM42.4,90.68s-.31.3-.44.38c-.61.37-.61,1.52-1.64,1.37.73-.25,1.48-1.56,1.71-1.7.22-.13.25-.12.28-.15.14-.11.18-.07.1.1ZM47.01,90.02h-.02s.04-.05.04-.05c0,.02-.01.03-.02.05ZM45.17,86.36c.22.71-.32,1.17-1.02,1.2-.72.04-1.31-.45-1.13-1.11.64-2.36-.84-3.69-2.25-5.1-.29-.28-.85-.41-.52-1.25,1.79.88,2.77,2.41,3.72,4.29.78-2.12,1.35-4.09,2.63-5.68.33-.41.45-1.23,1.3-.95.14.77-.57,1.12-.86,1.68-1.11,2.18-2.73,4.2-1.87,6.94ZM47.27,90.36c.23.08.48.16.28.47-.09-.15-.19-.31-.28-.47ZM47.79,91.21c-.07-.12-.15-.23-.22-.35.15-.08.31-.16.4.08.02.06-.1.17-.18.27ZM47.81,91.24c.74.14.75.17,1.25,1.35-.46-.5-.86-.93-1.25-1.35ZM49.27,93.07v-.11s.1.07.1.07l-.1.04ZM47.99,77.65c.23-.48-.58-.83-.22-1.33,1.38-.4,1.7-.16,1.73,1.29-.47.63-1.03-.28-1.51.05Z"/>
      <path class="cls-1" d="M2.08,14.61c1.97,1.14,3.63,2.15,5.34,3.06,1.51.8,3.03,1.73,4.88,1.04-1.61,2.83-1.88,5.82-1.99,8.93,3.28-1.3,7.09-5.1,7.88-7.75.34,3.28,3.43,6.44,7.5,7.5-.59-3.16-.32-6.46-2.76-9,3.87.19,7.48-.38,9.44-1.52-1.95-1.81-4.05-3.36-6.38-4.57-.74-.39-1.53-.52-2.36-.38-.26.23-.54.11-.89.04.24-.14.42-.25.6-.36.5-.81,1.03-1.61,1.5-2.44.65-1.16,1.33-2.33,1.51-3.69.1-.73-.09-1.32-.95-1.19-2.83.43-5.46,1.39-7.63,3.32-.6.53-1.13,1.2-1,2.26-1.74-3-4.04-5.14-7-6.97-.15,3.62-.93,6.99.97,10.23-2.94-.2-5.68.33-8.66,1.5ZM13.72,21.91l-.02-.12.09.02-.07.1ZM14.11,21.32c-.26-.17.02-.36-.02-.53.19.16.21.33.02.53ZM15.91,19.26s-.26.26-.38.32c-.53.32-.53,1.31-1.41,1.18.62-.21,1.27-1.34,1.47-1.46.19-.12.22-.1.24-.13.12-.1.16-.06.08.08ZM19.86,18.7h-.02s.03-.04.03-.04c0,.01,0,.03-.01.04ZM20.09,18.98c.2.07.41.13.24.4-.08-.13-.16-.27-.24-.4ZM20.53,19.71c-.06-.1-.13-.2-.19-.3.13-.07.26-.14.34.07.02.05-.09.15-.15.23ZM20.56,19.74c.64.12.65.14,1.08,1.16-.4-.43-.74-.8-1.08-1.16ZM21.81,21.31v-.09s.08.06.08.06l-.08.04ZM20.52,6.91c1.19-.34,1.46-.13,1.49,1.11-.4.54-.88-.24-1.3.04.2-.41-.5-.72-.19-1.15ZM14.05,10.17c1.54.75,2.38,2.07,3.2,3.68.67-1.82,1.16-3.52,2.26-4.89.28-.35.39-1.06,1.12-.82.12.66-.49.96-.74,1.44-.96,1.87-2.35,3.61-1.61,5.96.19.61-.27,1-.88,1.03-.62.03-1.13-.39-.97-.96.55-2.03-.72-3.17-1.94-4.38-.25-.24-.73-.35-.45-1.08ZM13.85,17.71c.13,0,.26.04.41.06-.16.35-1.5.78-1.78.69.11-.28,1.19-.75,1.37-.76ZM12.41,9.97c.05-.4.06-.95.66-.86.51.07.57.54.56.86-.06.56-.13,1.04-.68.98-.51-.06-.6-.54-.54-.98ZM12.96,15.77c-1.37-.1-2.42-.18-3.47-.26,1.06.1,2.15-.56,3.47.26Z"/>
      <path class="cls-1" d="M3.42,72.25c2.27,3.48,5.61,4.12,9.49,3.44-3.15,2.64-3.98,5.82-3.14,9.68,1.42-.96,2.26-.64,2.38,1.01,4.23-1.29,5.56-3.52,6.11-10,2.13,6.53,3.88,8.32,8.04,8.19-.26-1.59.42-2.16,1.94-1.54.46-4.14-1.25-6.84-5.56-8.95-.19-.03-.39-.05-.62-.08.25-.46.52-.27.78-.15,4.58.02,7.11-1.65,8.05-5.39-1.68-.17-1.73-1.13-.91-2.4-3.82-1.34-6.98-.62-9.68,2.42,1.05-3.91-.01-6.89-3.1-9.2-.56.46-.55,1.26-1.17,1.36-.76.04-.97-.87-1.71-.75-2.25,2.89-2.16,5.91-.49,9.02.32.27.36.6.27.99-.43.02-.37-.42-.58-.6-3.61-2.25-6.31-2.2-9.71.2.14.59.9.84.86,1.55-.16.64-1.01.61-1.24,1.2ZM22.5,76.87c.06.4-.11.81-.57.83-1.08.06-.8-.93-1.2-1.66.84.14,1.64-.12,1.78.82ZM20.2,68.47s.13.11.23.19c-.13.08-.25.17-.38.21-.06.01-.15-.1-.22-.16.12-.08.24-.19.37-.24ZM10.91,72.24c.41-.47.8-.24,1.31,0,1.9.86,3.47.52,4.47-1.17.6-1.03.24-2.24-.41-3.23-.29-.43-.44-.78-.09-1.18.23-.27.55-.37.89-.15.46.29.34.67.3,1.14-.1,1.25-.4,2.47.89,3.55,1.65,1.37,2.85.24,4.15-.38.46-.22.72-.91,1.37-.43.29.22.37.58.22.9-.33.7-.86.36-1.41.31-2.22-.17-3.53,1.2-3.24,3.27-1.68-.76-3.43.6-3.57,2.85-.03.6.09,1.13-.66,1.27-.36.07-.66-.12-.8-.47-.25-.65.31-.82.67-1.16,1.42-1.32,1.76-3.17.6-3.89-1.01-.62-2.28-.68-3.45-.27-.46.16-.84.35-1.2-.05-.23-.26-.28-.64-.04-.92Z"/>
      <path class="cls-1" d="M17.66,73.94c.75-.1.98-.59.92-1.3-.15-.61-.58-.94-1.19-.85-.68.1-1.06.57-.91,1.29.12.62.53.94,1.18.86Z"/>
      <path class="cls-1" d="M2.27,47.94c.78.21,1.5-.62,2.35-.21-.4.83-1.3,1.18-1.47,2.03.43.48,1.17-.04,1.55.63-.15.32-.32.7-.55,1.19,2.03-.09.83,1.37,1.02,2.33,1.13-.59,2.14-.93,2.16.84.57-.32.86-.99,1.46-.63.63.61-.32,1.31.32,2,.63-1.05,1.23-2.04,1.83-3.03.1.04.2.08.3.12-.08,1.12-.17,2.25-.27,3.69.88-.78,1.62-1.75,2.25-.21,1.22-.45,1.49.7,2.01,1.4,1.29-1.94,2.8-2.46,4.17-1.47.18-1.12-.59-2.2-.15-3.4.89.65.94,1.78,1.8,2.24.42-.43-.03-1.16.56-1.5.66-.2.88.64,1.51.59-.12-2.19,1.41-.61,2.24-.88-.44-.97-.68-1.87.6-2.28-1.09-1.62.41-1.37,1.43-1.51-.98-.98-1.79-1.79-2.66-2.67,1.41-.2,2.41.8,3.67.78-.86-1.44-.29-2.61,1.89-3.95-1.72-1.5-1.97-3-.71-4.21-1.14-.44-2.48-.12-3.65-.84.85-.63,1.59-1.17,2.43-1.79-1.85-.56-1.87-.64-.78-1.81h0c-1.31-.19-1.98-.8-1.28-2.27-.94-.04-2.12,1.14-2.33-.73-1.61,1.62-1.52-.11-1.82-.96-1.07.86-1.58,2.11-3.02,2.8.11-1.42.19-2.61.32-4.3-.94,1.4-1.43.84-2.32.62-1.22-.29-1.4-1.04-1.93-1.73-.98,1.89-2.43,2.58-4.23,1.99.04,1.09.59,2.15.25,3.58-.91-1.06-1.6-1.86-2.31-2.7-.48,1.79-.55,1.82-1.89.98-.13.23-.2.56-.4.69-.65.44-1.18-.4-1.94-.26.18,1.01.74,2.33-1.24,1.79.09.69.73,1.11.24,1.74-.66.35-1.24-.62-2.11-.17,1.24.9,2.37,1.72,3.74,2.72-1.05.12-1.75.2-2.45.29-.7.08-1.39.17-2.08.26.03.73,2.32,1.05.3,2.02.64,1.19-.33,1.71-1.07,2.32,1.74.88,2.57,2.32,2.27,3.85ZM9.35,47.36c.11.08.3.68-.16.82-.33.1-.81.18-.69-.51.18-.99-1.31-1.36-.87-2.74.51.81,1.11.74,1.89.3-.17.85-1.15,1.45-.18,2.13ZM18.96,53.1s-.07-.14-.1-.21c.08-.03.16-.07.24-.1.07.06.13.13.2.19-.11.04-.22.1-.33.12ZM22.52,40.95c1.62.48-.4,2.39,1.13,2.7-.38.63-.78.71-1.23.76.85-1.15-.68-2.24.09-3.46ZM17.73,37.08c1.25-.71,2.3-.75,2.74,1-.66-.26-1.36-.22-1.85-.84-.4.38-.79.75-1.25,1.19-.47-.51-.02-1.1-.27-1.59-.7-.2-1.55-.21-1.84-1.2.65.79,2.36-.59,2.47,1.44ZM18.98,44.4c-.18.85-.61,1.46-1.13,1.97.27-.71-.1-1.74,1.13-1.97ZM17.53,46.63c-.7.56-1.28,1.11-2.17.71.62-.41,1.17-1,2.17-.71ZM13.77,46.54c.42.44.8.94,1.5.83-.71.69-1.31-.09-2.03-.15.21-.27.37-.47.53-.68ZM17.16,49.88c-.03-.26-.07-.74-.12-1.21.08-.05.16-.1.23-.15.2.4.4.8.61,1.22.76-.84,2.19-.6,2.32-1.17.21-.96,1.72-1.8.42-3.01.12,0,.17.02.21.01,1.71-.09,1.81,0,.95,1.65-1.04,1.98-2.71,3.12-4.93,3.75-2.28.66-4.14-.02-6.05-1-.19-.1-.37-.14-.48-.34-.13-.23-.27-.46-.6-1.02.98.33,1.62.54,2.36.79.15-.23.38-.57.81-1.22,0,.84,0,1.34,0,1.69,1.4,1.19,2.81,1.05,4.28-.01ZM12.17,46.2c.21.08.5.1.41.48-.35,0-.41-.22-.41-.48ZM11.43,41.23c.14-.19.34-.33.51-.13-.29-.51.1-.56.72-.61-.29.32-.47.52-.65.72,0,.02.02.03.03.05-.01-.02-.02-.03-.03-.04,0,0-.02.02-.03.03-.42.42-.19,1.09-.69,1.54-.41.37-.44,1.09.06,1.48.63.5.65,1.18.76,1.84-1.53-1.4-1.82-3.34-.69-4.87ZM6.81,41.35c.3-.5.95-.22,1.42-.73-.35-.38-.64-.68-1.04-1.1.8-.39,1.58-.9,1.78-1.59.27-.94,1.17-.2,1.5-.81.07-.14.27.22.34.42.13.33-.19.35-.31.34-1.15-.02-1.32.87-1.63,1.67-.41,1.05-.95,2.05-1.27,3.12-.16.54-.44.82-.9,1.2.32-.92.19-1.72.1-2.52Z"/>
      <path class="cls-1" d="M12,41.2s-.05-.08-.07-.11c.02.03.04.07.07.11h0Z"/>
      <path class="cls-1" d="M29.63,7.37c.84.42,1.24,1.12,1.09,1.86.37.1.72-.3,1.13-.1-.19.4-.63.57-.71.98.21.23.56-.02.75.3-.07.16-.16.34-.26.58.98-.04.4.66.49,1.13.54-.28,1.03-.45,1.04.4.27-.15.41-.48.7-.3.3.3-.16.63.15.96.31-.51.59-.98.88-1.46l.15.06c-.04.54-.08,1.09-.13,1.78.42-.38.78-.84,1.09-.1.59-.21.72.34.97.68.62-.94,1.35-1.19,2.01-.71.09-.54-.28-1.06-.07-1.64.43.31.45.86.87,1.08.2-.21-.01-.56.27-.72.32-.1.43.31.73.29-.06-1.06.68-.29,1.08-.43-.21-.47-.33-.9.29-1.1-.52-.78.2-.66.69-.73-.47-.48-.86-.86-1.29-1.29.68-.1,1.17.39,1.77.38-.42-.7-.14-1.26.91-1.91-.83-.72-.95-1.45-.34-2.03-.55-.21-1.2-.06-1.76-.41.41-.3.77-.56,1.17-.86-.89-.27-.9-.31-.38-.88h0c-.63-.09-.96-.39-.62-1.1-.45-.02-1.02.55-1.12-.35-.78.78-.73-.05-.88-.46-.52.42-.76,1.02-1.46,1.35.05-.69.09-1.26.15-2.07-.45.68-.69.4-1.12.3-.59-.14-.67-.5-.93-.84-.47.91-1.17,1.24-2.04.96.02.53.29,1.04.12,1.73-.44-.51-.77-.9-1.12-1.3-.23.87-.26.88-.91.47-.06.11-.1.27-.19.33-.31.21-.57-.19-.94-.12.09.49.35,1.13-.6.86.04.33.35.54.11.84-.32.17-.6-.3-1.02-.08.6.44,1.14.83,1.81,1.31-.51.06-.84.1-1.18.14-.34.04-.67.08-1.01.12.01.35,1.12.51.14.97.31.57-.16.83-.52,1.12ZM34.15,8.95c.06.04.14.33-.07.4-.16.05-.39.09-.33-.25.09-.48-.63-.65-.42-1.32.25.39.54.36.91.15-.08.41-.56.7-.09,1.03ZM38.78,11.72s-.03-.07-.05-.1c.04-.02.08-.03.12-.05.03.03.06.06.1.09-.05.02-.1.05-.16.06ZM40.5,5.85c.78.23-.19,1.15.55,1.3-.18.31-.38.34-.59.37.41-.56-.33-1.08.04-1.67ZM38.19,3.98c.6-.34,1.11-.36,1.32.48-.32-.12-.66-.1-.89-.41-.19.18-.38.36-.6.57-.23-.25,0-.53-.13-.77-.34-.09-.75-.1-.89-.58.31.38,1.14-.28,1.19.7ZM38.79,7.52c-.09.41-.29.7-.55.95.13-.34-.05-.84.55-.95ZM38.09,8.59c-.34.27-.62.53-1.04.34.3-.2.56-.48,1.04-.34ZM36.28,8.55c.2.21.38.45.72.4-.34.33-.63-.04-.98-.07.1-.13.18-.23.26-.33ZM37.91,10.16c-.01-.13-.03-.36-.06-.58l.11-.07c.1.19.19.38.29.59.37-.4,1.06-.29,1.12-.56.1-.46.83-.87.2-1.45.06,0,.08,0,.1,0,.82-.04.87,0,.46.8-.5.96-1.31,1.5-2.38,1.81-1.1.32-2-.01-2.92-.48-.09-.05-.18-.07-.23-.16-.06-.11-.13-.22-.29-.49.47.16.78.26,1.14.38.07-.11.18-.27.39-.59,0,.41,0,.65,0,.82.68.58,1.35.51,2.06,0ZM35.51,8.39c.1.04.24.05.2.23-.17,0-.2-.11-.2-.23ZM35.15,5.99c.07-.09.17-.16.25-.06-.14-.25.04-.27.34-.3-.14.15-.23.25-.31.35,0,0,0,.01.01.02,0,0,0-.01-.01-.02,0,0,0,0-.01.01-.2.2-.09.53-.33.74-.2.18-.21.52.03.72.31.24.31.57.37.89-.74-.67-.88-1.61-.33-2.35ZM32.92,6.05c.14-.24.46-.11.68-.35-.17-.18-.31-.33-.5-.53.39-.19.76-.43.86-.77.13-.45.57-.1.72-.39.04-.07.13.11.17.2.06.16-.09.17-.15.17-.55,0-.64.42-.79.8-.2.5-.46.99-.61,1.51-.08.26-.21.4-.43.58.15-.44.09-.83.05-1.22Z"/>
      <path class="cls-1" d="M35.43,5.97s-.02-.03-.03-.05c0,.02.02.03.03.05,0,0,0,0,0,0Z"/>
      <path class="cls-1" d="M38.48,21.11c.1.27.43.53.09.91-.57-.44-1.11-.89-1.68-1.31-1.7-1.25-3.48-1.18-4.96.32-1.66,1.69-2.57,3.77-2.59,6.14-.02,2.8,1.68,4.4,4.46,4.34.25,0,.55-.14.68.23-3.07,2.65-3.57,3.71-2.73,5.82,1,2.52,4.37,4.88,6.88,4.83,2.15-.05,3.18-1.01,4.08-3.83-.08-.14-.15-.31.06-.35.08-.02.2.18.31.28,1.17,3.39,3.19,4.73,6.04,3.89,1.97-.58,3.61-1.73,4.8-3.42,1.51-2.16,1.07-4.42-1.09-5.94-.61-.43-1.37-.68-1.89-1.41,2.24.43,4.52,1.18,6.11-1.13,1.35-1.96,1.22-6.21-.24-8.11-2.61-3.39-5.3-1.41-8.3.5.51-.87.71-1.2.89-1.54,1.42-2.76.53-5.1-2.4-6.07-1.71-.56-3.49-.68-5.26-.23-3.03.76-4.31,3.17-3.25,6.09ZM49.09,27.58c-.54.55-1.12.69-1.77.38.59-.13,1.18-.25,1.77-.38ZM43.46,23.04c.09.03.24.05.25.1.02.09-.04.2-.07.3-.09-.04-.23-.05-.24-.11-.02-.09.04-.19.07-.29ZM43.41,23.84c.39.27.28.53.1.8-.59-.24,0-.54-.1-.8ZM43.52,24.75c.23.72.92,1.28.47,2.27-.22.49.59.69,1.08.46.89-.41,1.74-.9,2.4-1.67q.21.53-1.27,1.61c0,.22,0,.43,0,.65.25.02.5.04.86.06-.43.55-.99.31-1.41.51-.14.35.3.37.37.69-.36.19-.78-.31-1.19.13.48,1.4,2,1.65,3.01,2.48-.61.44-.59.42-1.31-.27-.47-.44-1.01-.8-1.64-1.1.45,1.59,1.33,2.91,2.29,4.21-1.43-.76-1.7-2.46-2.8-3.51-.47-.08-.27.54-.66.62-.31-.4.08-1.13-.61-1.38-1.91.93-2.87,2.82-4.12,4.46.23-1.24,1.14-2.03,1.77-3,.34-.52.62-.91.48-1.71-.31-1.75-.41-3.48-2.45-4.18-.19-.06-.34-.28-.08-.68,1.28.36,1.91,1.89,3.29,2.09.55-.92,1.32-1.67,1.51-2.73Z"/>
    </g>
  </g>
</svg>