<?xml version="1.0" encoding="UTF-8"?>
<svg id="Capa_2" data-name="Capa 2" xmlns="http://www.w3.org/2000/svg" viewBox="0 0 300 343.64">
  <defs>
    <style>
      .cls-1 {
        fill: #050505;
        stroke-width: 0px;
      }
    </style>
  </defs>
  <g id="Capa_1-2" data-name="Capa 1">
    <path class="cls-1" d="M173.28,300.58c-2.32,7,.63,10.89,5.78,14.38,7.38,5.02,14.31,10.68,21.49,16.01,2.81,2.09,5.45,4.3,4.21,8.25-1.22,3.88-4.45,4.43-8.07,4.43-31.07-.05-62.14-.05-93.2,0-3.6,0-6.87-.47-8.15-4.32-1.31-3.93,1.26-6.18,4.09-8.28,7.18-5.32,14.11-10.99,21.49-16,5.13-3.48,8.06-7.39,5.94-14.43-11.21-1.72-22.92-3.1-34.14-6.75-11.3-3.68-22.41-7.78-30.46-17.16-1.8-2.1-3.95-1.69-6.11-1.69-14.98-.03-29.95-.02-44.93-.02-1.56,0-3.14.09-4.69-.06-3.77-.37-6.57-2.24-6.51-6.24.05-4.01,2.75-5.9,6.67-5.91,7.36-.03,14.73,0,22.71,0,0-7.91,0-15.47,0-23.04,0-18.55-.03-37.1.02-55.65.02-7.67,1.84-9.47,9.43-9.51,8.68-.05,17.37-.01,26.82-.01,0-12.76,0-25.18,0-37.6,0-7.6-.06-15.2.02-22.8.07-7.49,1.98-9.31,9.64-9.36,8.94-.05,17.88-.03,26.82-.08.41,0,.82-.3,1.7-.65,0-13.85-.03-27.88,0-41.92.02-9.12,1.33-10.39,10.51-10.45,4.65-.03,9.29,0,15.02,0-3.19-4-5.94-7.07-8.26-10.44-5.45-7.92-7.81-16.53-4.6-25.99,4.44-13.08,18.05-18.62,30.22-12.24,2.1,1.1,3.53,2,5.96.45,8.11-5.16,16.28-4.47,23.59,1.45,7.86,6.37,10.02,15,7.91,24.74-1.81,8.37-7.11,14.68-14.06,22.03,5.81,0,10.3-.01,14.79,0,10.17.03,11.28,1.09,11.3,11.02.02,13.83,0,27.66,0,42.07,9.71,0,19.06-.03,28.41,0,7.93.03,9.73,1.84,9.75,9.92.04,19.66.01,39.32.01,59.83,8.79,0,17.42-.02,26.04,0,8.57.02,10.2,1.6,10.21,10.08.03,23.47,0,46.94,0,70.41v7.69c7.47,0,14.37.05,21.26-.02,4.23-.05,8.04.98,8.08,5.87.05,5.18-3.88,6.43-8.37,6.42-15.87-.02-31.74-.03-47.61.01-2.14,0-4.27-.42-6.14,1.6-12.74,13.77-30.05,17.57-47.33,21.29-5.65,1.22-11.44,1.8-17.28,2.69ZM258.16,198.59c-4.32,1.79-6.79,5.01-9.6,7.69-14.93,14.21-30.04,14.16-44.74-.25-12.45-12.19-18.75-12.24-31.08-.23-15.3,14.91-30.29,14.83-45.69-.25-11.92-11.67-18.47-11.62-30.6.26-15.06,14.74-30.05,14.77-45.24.23-2.76-2.64-5.04-6.11-9.23-7.1v63.35h216.17v-63.71ZM78.17,174.22h143.55v-41.66c-2.18,2.77-3.6,4.72-5.16,6.56-8.58,10.09-20.01,10.16-28.71.11-1.89-2.19-3.48-4.64-5.19-6.98-4.88-6.65-7.94-6.74-12.85-.34-2.17,2.83-4.14,5.85-6.55,8.46-7.81,8.45-18.58,8.5-26.39.04-2.86-3.1-5.1-6.76-7.74-10.07-3.21-4.01-6.67-4.2-9.99-.15-2.69,3.27-4.99,6.89-7.84,10.01-8,8.76-18.88,8.67-26.88-.07-1.97-2.15-3.78-4.46-6.24-7.36v41.47ZM119.95,330.94h59.95c-2.37-1.87-3.9-3.13-5.49-4.32q-14.46-10.88-14.03-29.02c0-.22.01-.45,0-.67-.3-5.55,2.31-8.03,7.88-8.46,6.88-.53,13.78-1.4,20.56-2.71,10.32-2,20.6-4.36,30.44-10.28H80.1c14.16,7.15,27.73,10.24,41.7,11.92,17.9,2.15,17.71,2.14,17.97,20.27.08,5.9-1.28,10.24-6.59,13.43-4.35,2.62-8.21,6.07-13.23,9.86ZM116.32,104.28h67.12v-18.85h-67.12v18.85ZM172.8,23.47c-.47-4.78-2.16-8.69-6.97-10.48-4.69-1.74-7.46,1.03-10.18,4.25-3.83,4.54-7.38,4.75-10.95.4-3.23-3.93-6.61-7.09-11.83-4.01-5.31,3.14-6.5,8.08-4.84,13.87,1.86,6.48,5.91,11.53,11.07,15.48,12.57,9.62,9.3,9.69,21.96-.11,6.26-4.85,10.92-11.08,11.74-19.4ZM100.06,187.11h-52.72c6.06,3.62,10.05,8.11,14.47,12.12,7.72,6.99,16.32,6.98,23.89-.05,4.34-4.03,8.36-8.42,14.36-12.06ZM123.06,186.92c6.69,3.72,10.5,8.15,14.75,12.07,7.96,7.33,16.45,7.37,24.37.01,4.31-4,8.36-8.29,14.31-12.08h-53.44ZM199.76,187.02c6.4,3.83,10.48,8.46,15.04,12.58,6.98,6.3,15.28,6.5,22.36.5,4.97-4.21,9.24-9.2,15.45-13.08h-52.85ZM183.9,72.44c-.28-3.18.82-5.89-.65-7.89h-66.84v7.89h67.49ZM114.25,117.52h-32.83c4.69,3.92,7.34,8.34,10.41,12.41,4.49,5.95,7.52,6.04,12.01.22,3.23-4.19,5.99-8.73,10.41-12.64ZM218.4,117.51h-32.46c1.96,2.13,3.54,3.7,4.94,5.42,1.54,1.9,2.9,3.93,4.35,5.9,5.46,7.41,8.4,7.51,13.59.27,2.82-3.94,5.61-7.88,9.58-11.59ZM133.24,117.24c5.38,4.55,8.11,9.49,11.55,13.85,3.42,4.33,7.05,4.36,10.44-.01,3.47-4.49,6.46-9.34,11.28-13.84h-33.28Z"/>
  </g>
</svg>