<?xml version="1.0" encoding="UTF-8"?>
<svg id="Capa_2" data-name="Capa 2" xmlns="http://www.w3.org/2000/svg" viewBox="0 0 158.82 300">
  <defs>
    <style>
      .cls-1 {
        fill: #010101;
        stroke-width: 0px;
      }
    </style>
  </defs>
  <g id="Capa_1-2" data-name="Capa 1">
    <g>
      <path class="cls-1" d="M158.59,47.52c-.09-10.79-3.69-20.94-12.69-27.56-8.61-6.34-18.94-9.66-29.13-14.04-12.42,36.84-24.71,73.29-36.99,109.74-.14.21-.26.42-.36.65-.34-.83-.66-1.65-.99-2.47-12.08-35.84-24.17-71.69-36.38-107.92-.48.2-.95.41-1.43.61-.45-.07-1.03.03-1.79.38-2.27,1.05-4.54,2.09-6.81,3.14-4.16,1.7-8.23,3.45-12.09,5.53-1.86.85-3.72,1.7-5.58,2.54-1.16.53-1.72,1.22-1.8,2.15C3.83,26.89.32,36.9.23,47.52c-.1,11.62-.15,23.25-.19,34.87-.05.36-.05.69,0,1-.07,26.74-.02,53.47-.04,80.21,0,3.06.49,6.05,1.56,8.95,1.77,4.8,5.18,7.49,10.2,8.27,4.87.76,9.76.3,15.04.17.62,8.62,1.28,17.15,1.84,25.69,1.65,25.38,3.26,50.76,4.91,76.14.12,1.84.43,3.68.76,5.5.93,4.98,3.45,8.58,7.45,10.33,1.68.94,3.22,1.32,4.82,1.32,10.94,0,21.88.03,32.82.03,10.94,0,21.88-.02,32.82-.03,1.6,0,3.15-.38,4.82-1.32,4-1.75,6.53-5.35,7.45-10.33.34-1.82.64-3.66.76-5.5,1.66-25.38,3.26-50.76,4.91-76.14.56-8.54,1.22-17.07,1.84-25.69,5.27.14,10.17.59,15.04-.17,5.01-.78,8.43-3.47,10.2-8.27,1.07-2.9,1.56-5.89,1.56-8.95-.02-38.69.11-77.39-.23-116.08ZM139.49,73.73c-.56,1.24-1.8,1.36-3.06,1.35-3.44-.04-6.88-.01-10.33-.01-3.31,0-6.62,0-9.93,0-1.34,0-2.74.05-3.35-1.48-.58-1.45.13-2.51,1.18-3.48,3.3-3.06,6.58-6.13,9.84-9.23,1.49-1.42,2.99-1.58,4.53-.16,3.4,3.15,6.75,6.34,10.16,9.47,1.1,1.01,1.56,2.21.96,3.55Z"/>
      <path class="cls-1" d="M58.48,30.81c.98-.05,2.18-.48,3.59-1.27,2.3-1.29,4.62-2.56,6.88-3.93,3.04-1.83,6.31-1.9,9.72-2.43.17-.03.34-.07.51-.11.33.03.65.06.99.11,3.41.54,6.68.6,9.72,2.43,2.26,1.36,4.58,2.63,6.88,3.93,4.38,2.46,6.75,1.43,6.93-3.65.27-7.4.11-14.82-.18-22.23-.14-3.67-1.98-4.48-5.36-2.89-1.19.56-2.31,1.27-3.48,1.87-3.95,2.03-7.5,5.27-11.91,5.89-.21-.08-.42-.18-.64-.31-.31-.18-.82-.24-1.17-.13-.53.17-1.04.28-1.54.37-.5-.09-1.01-.2-1.54-.37-.35-.11-.86-.06-1.17.13-.22.13-.43.23-.64.31-4.41-.62-7.96-3.87-11.91-5.89-1.17-.6-2.29-1.31-3.48-1.87-1.49-.7-2.67-.94-3.55-.67-1.77.04-2.53,1.61-2.57,4.89-.04,3.18,0,6.35,0,9.53h-.02c0,3.97-.23,7.96.06,11.9.25,3.49,1.52,4.82,3.9,4.38Z"/>
      <path class="cls-1" d="M78.99,79.03c.14,0,.28,0,.42,0,.14,0,.28.01.42,0,3.33-.11,6.07-2.96,5.95-6.18-.12-3.18-3.11-5.9-6.32-5.8,0,0,0,0,0,0-.01,0-.02,0-.03,0-.01,0-.02,0-.03,0,0,0,0,0,0,0-3.22-.11-6.2,2.62-6.32,5.8-.12,3.22,2.61,6.06,5.95,6.18Z"/>
      <path class="cls-1" d="M79.07,52.67c.12,0,.23-.01.34-.02.11,0,.23.02.34.02,3.15,0,5.82-2.52,5.99-5.65.17-3.22-2.5-6.1-5.79-6.24-.18,0-.36,0-.53,0-.18,0-.35-.01-.53,0-3.29.13-5.97,3.02-5.79,6.24.17,3.14,2.83,5.65,5.99,5.65Z"/>
    </g>
  </g>
</svg>