<?xml version="1.0" encoding="UTF-8"?>
<svg id="Capa_2" data-name="Capa 2" xmlns="http://www.w3.org/2000/svg" viewBox="0 0 219.46 300">
  <defs>
    <style>
      .cls-1 {
        fill: #010101;
        stroke-width: 0px;
      }
    </style>
  </defs>
  <g id="Capa_1-2" data-name="Capa 1">
    <path class="cls-1" d="M109.49,300c-34.72-.27-68.28-6.57-100.51-19.64-7.87-3.19-9.33-5.22-8.92-13.64,2.58-52.51,13.88-102.75,39.6-149.09,6.94-12.5,15.59-23.82,25.97-33.72,1.94-1.85,2.27-3.47,1.49-5.98-3.23-10.36-6.77-20.61-11.02-30.6-2.15-5.07-4.01-10.23-4.49-15.79-1.32-15.37,5.23-25.17,20.07-29.63,12.3-3.7,23.95-1.87,34.72,4.95,2.62,1.66,4.31,1.41,6.75-.12C123.42.27,134.6-1.71,146.34,1.53c17.89,4.94,25.38,18.34,20.26,36.16-3.18,11.07-8.03,21.57-12.04,32.36-2.88,7.77-2.44,12.88,3.98,19.13,13.68,13.32,23.25,29.83,30.92,47.24,17.27,39.21,27.03,80.29,29.43,123.1.18,3.22.47,6.44.56,9.66.13,4.98-2.2,8.36-6.81,10.31-19.24,8.13-39.25,13.51-59.81,16.96-14.34,2.4-28.78,3.63-43.34,3.56ZM116.41,281.63c9.38-.04,25.54-1.59,41.51-4.84,13.4-2.73,26.68-5.97,39.5-10.89,2.36-.91,3.16-2.16,2.98-4.78-1-14.89-2.88-29.66-5.53-44.35-4.19-23.28-10.65-45.91-19.98-67.64-8.26-19.23-18.62-37.17-33.79-51.96-1.87-1.82-3.53-2.35-6.04-1.58-16.77,5.11-33.59,5.13-50.35-.04-2.68-.83-4.38-.25-6.36,1.67-16.89,16.47-27.8,36.7-36.48,58.25-13.5,33.53-20.23,68.6-23.15,104.5-.26,3.15.34,5.19,3.64,5.96,1.03.24,1.96.87,2.97,1.2,27.34,8.97,55.29,14.4,91.08,14.48ZM109.64,81.1c6.24.17,12.25-1.16,18.28-2.56,3.65-.85,5.88-2.43,6.4-6.48.35-2.73,1.64-5.36,2.6-7.99,3.81-10.44,7.91-20.78,11.39-31.32,2.85-8.63.45-12.09-8.52-13.72-1.05-.19-2.13-.26-3.21-.32-7.74-.41-13.94,2.63-19.48,7.93-5.91,5.66-8.81,5.5-14.89.23-.61-.53-1.21-1.07-1.79-1.63-6.11-5.88-13.46-7.6-21.57-6.07-8.63,1.64-10.49,4.87-8.08,13.29,4.17,14.55,11.3,28.07,14.97,42.79.37,1.48,1.58,2.08,2.92,2.46,6.86,1.94,13.76,3.59,20.96,3.38Z"/>
  </g>
</svg>