<?xml version="1.0" encoding="UTF-8"?>
<svg id="Capa_2" data-name="Capa 2" xmlns="http://www.w3.org/2000/svg" viewBox="0 0 299.94 300">
  <defs>
    <style>
      .cls-1 {
        fill: #040404;
        stroke-width: 0px;
      }
    </style>
  </defs>
  <g id="Capa_1-2" data-name="Capa 1">
    <path class="cls-1" d="M25.56,140.85c-.46-.15-.71-.32-.92-.28-4.95.83-6.84-1.94-8.8-6.1-7.05-14.99-9.53-31.19-13.24-47.07-.8-3.42-1.51-6.86-2.27-10.29-.82-3.69.35-6.02,3.3-6.61,2.97-.59,4.94,1.03,5.75,4.72,2.61,11.87,5.23,23.75,7.85,35.62.11.5.29.98.48,1.6h61.86v-28.8c-2.4.7-4.85.75-7.26.44-2.51-.32-4.61-1.68-6.74-3.28-3.89,3.05-8.27,4.28-13.18,2.91-6.12-1.71-10.16-6.9-10.16-13.23,0-7.36-.67-14.8,1.77-21.94,5.81-17,17.82-26.65,35.73-29.7,0-4.57-.05-9.27.02-13.96.05-3.3,2.24-5.22,5.26-4.81,2.37.33,3.8,1.99,3.83,4.68.06,4.7.02,9.41.02,14.2,11.09,1.46,20.26,6.19,27.42,14.53,6.34,7.4,9.78,16.02,10.07,25.8.1,3.52.02,7.04.04,10.56.05,5.75-2.38,10.15-7.46,12.8-5.06,2.63-10.08,2.17-14.81-1.08-.34-.24-.7-.46-1.13-.75-4.08,3.38-8.7,4.11-13.94,2.84v28.67c.99.49,2.03.25,3.03.25,23.43.02,46.87.01,70.3.01,4.96,0,6.21,1.27,6.21,6.27,0,5.49.03,10.99,0,16.48-.02,3.62-1.57,5.17-5.18,5.21-3.59.04-7.18,0-11.14,0,2.23,5.18,4.32,10.03,6.4,14.88,1.05,2.44,2.14,4.85,3.09,7.32.4,1.04.94,1.48,2.07,1.48,7.8-.03,15.61-.02,23.67-.02,0-7.27,0-14.37,0-21.48,0-1.62-.03-3.24.33-4.86,1.65-7.34,7.72-11.79,15.3-11.12,6.91.61,12.17,6.45,12.34,13.76.07,3.09.06,6.18,0,9.27-.05,2.87-1.98,4.88-4.53,4.9-2.62.02-4.5-1.91-4.58-4.83-.07-2.83.02-5.67-.04-8.5-.07-3.26-2.13-5.55-4.86-5.51-2.8.03-4.65,2.24-4.66,5.63-.02,7.54,0,15.07,0,22.67h46.58c.72-.82.38-1.8.38-2.69.03-6.87-.06-13.74.04-20.6.09-6.34,3.84-11.6,9.35-13.46,5.67-1.91,11.68-.21,15.54,4.46,1.61,1.95,2.75,4.2,2.88,6.74.18,3.85.26,7.72.17,11.58-.06,2.68-2.17,4.56-4.65,4.51-2.5-.05-4.4-1.99-4.46-4.68-.06-2.92.02-5.84-.03-8.76-.05-3.09-2.04-5.34-4.71-5.41-2.76-.07-4.87,2.25-4.88,5.47-.02,7.54,0,15.07,0,22.51,1.1.64,2.06.38,2.97.38,12.88.02,25.75,0,38.63.03,3.27,0,5.01,1.4,5.27,4.05.3,3.06-1.61,5.05-5.03,5.06-10.47.03-20.94.01-31.42.01-3.34,0-6.68,0-10.21,0v32.77c.76.61,1.74.29,2.64.29,12.7.02,25.41.01,38.11.02,4.59,0,5.93,1.37,5.93,5.99,0,27.3,0,54.6-.01,81.9,0,4.25-1.47,5.68-5.72,5.68-96.14,0-192.27,0-288.41,0-4.27,0-5.78-1.47-5.78-5.63,0-27.39,0-54.77,0-82.16,0-4.4,1.4-5.79,5.86-5.79,59.31,0,118.62,0,177.94,0h3.52v-32.81c-.82-.6-1.89-.25-2.87-.25-59.22-.02-118.45-.02-177.67-.02-.94,0-1.9.05-2.83-.06-2.41-.27-3.97-2.13-3.94-4.57.04-2.47,1.61-4.34,4.05-4.44,3.26-.13,6.52-.05,9.78-.05.85,0,1.69.1,2.14-.96,3.16-7.46,6.36-14.9,9.57-22.42ZM290.63,238.32c-4.64.58-8.21,2.81-11.64,5.2-7.33,5.09-15.48,6.74-24.19,5.89-2.95-.29-6.06-.4-8.75-1.71-2.98-1.45-5.74-3.36-8.54-5.16-9.88-6.37-19.76-6.36-29.65-.05-3.25,2.08-6.45,4.28-10.18,5.38-11.11,3.27-21.66,2.21-31.42-4.39-2.98-2.02-6.01-3.97-9.59-4.79-8.23-1.9-15.77-.47-22.66,4.51-8.16,5.9-17.3,7.4-27.12,5.86-5.84-.91-10.75-3.81-15.53-7.01-6.57-4.39-13.71-5.02-21.19-3.28-4.35,1.01-7.81,3.83-11.52,6.12-7.21,4.45-15.06,5.3-23.26,4.37-6.24-.7-11.49-3.73-16.6-7.09-2.86-1.88-5.86-3.46-9.47-3.81v18.68c6.5.68,11.97,3.6,17.19,7.11,1.63,1.1,3.32,2.12,5.2,2.77,9.1,3.14,17.35,1.53,25.35-3.76,13.47-8.9,27.14-8.68,40.69.11,2.51,1.63,5.01,3.33,7.94,4.12,7.62,2.08,14.92,1.55,21.71-2.83,3.89-2.5,7.72-5.19,12.26-6.37,10.83-2.82,21.06-1.6,30.46,4.81,3.12,2.13,6.32,4.12,10.09,4.89,7.97,1.64,15.29.18,21.93-4.61,8.66-6.25,18.33-7.67,28.63-5.66,5.51,1.07,10.02,4.24,14.72,7.07,8.37,5.06,17.12,5.41,25.66.72,6.27-3.44,12.08-7.77,19.48-8.4v-18.72ZM290.59,266.5c-3.2.31-5.88,1.59-8.44,3.13-2.86,1.72-5.52,3.8-8.61,5.09-12.43,5.17-24.22,3.97-35.38-3.61-10.38-7.05-20.74-6.86-31.17.04-13.74,9.1-27.56,9.06-41.36.04-2.58-1.69-5.18-3.37-8.2-4.17-8.27-2.22-15.94-.95-22.96,4.05-8.98,6.4-18.89,8.1-29.57,5.74-4.95-1.1-9.17-3.71-13.31-6.48-5.77-3.85-12.06-4.96-18.89-3.95-5.13.76-9.18,3.61-13.37,6.25-6.88,4.33-14.37,5.67-22.39,4.98-7.01-.6-12.89-3.78-18.57-7.56-2.72-1.81-5.61-3.17-9.01-3.57v24.17h281.24v-24.14ZM187.42,215.71H9.35v13.25c6.95.6,12.45,4.22,18.13,7.63,8.81,5.28,17.83,5.31,26.77.08,2.73-1.6,5.31-3.52,8.19-4.77,12.44-5.42,24.36-4.22,35.61,3.38,2.78,1.87,5.64,3.57,8.94,4.35,8.66,2.06,16.34-.05,23.55-5.11,8.76-6.16,18.55-7.05,28.77-4.71,4.93,1.13,9.06,3.94,13.23,6.65,4.5,2.93,9.43,4.24,14.9,3.84v-24.59ZM20.9,121.9c1.03,2.58,2.13,4.89,2.88,7.3.57,1.84,1.59,2.21,3.37,2.2,43.24-.05,86.47-.04,129.71-.05.81,0,1.71.33,2.47-.4v-9.05H20.9ZM70.17,62.82c0,2.62-.03,4.85,0,7.08.04,2.95,1.97,5.06,4.62,5.14,2.68.08,4.84-2.15,4.93-5.15.04-1.46-.04-2.92.02-4.38.12-2.62,2.11-4.58,4.55-4.58,2.51,0,4.43,1.92,4.54,4.61.07,1.63-.08,3.27.04,4.89.19,2.54,2.34,4.59,4.69,4.63,2.46.04,4.78-1.93,4.8-4.42.06-8.23.46-16.48-1.57-24.58-1.21-4.84-2.85-9.5-5.81-13.6-4.21-5.85-9.19-5.84-13.44.03-1.31,1.81-2.38,3.76-3.24,5.82-3.33,7.98-4.37,16.34-4.16,24.52ZM88.98,164.02h44.51c-3.22-7.53-6.37-14.81-9.41-22.13-.58-1.4-1.52-1.36-2.66-1.36-9.34.02-18.69,0-28.03.03-1.43,0-2.89-.25-4.41.24v23.23ZM290.61,215.71h-37.44v24.1c6.37,1.12,12.51.86,18.14-2.55,6.07-3.68,11.91-7.79,19.3-8.32v-13.24ZM243.67,235.31v-19.63h-46.7v22.87c14.98-11.44,30.33-13.72,46.7-3.24ZM79.6,140.54c-8.08,0-16.03.03-23.97-.03-1.36,0-1.48.98-1.82,1.77-2.93,6.73-5.82,13.48-8.68,20.23-.19.46-.76,1.01-.25,1.5h34.73v-23.48ZM243.69,206.31v-13.96h-46.71v13.96h46.71ZM196.89,182.81h46.8v-9.31h-46.8v9.31ZM102.8,34.23c1.35,3.11,2.13,6.24,2.91,9.36,2.13,8.57,2.08,17.31,2.02,26.05-.02,3.22,1.84,5.32,4.6,5.39,2.79.08,4.85-2.17,4.88-5.42.03-3.17.06-6.34-.02-9.51-.18-7.05-2.48-13.38-6.67-19.05-2.09-2.83-4.57-5.19-7.72-6.82ZM65.94,33.84c-2.25,1.18-3.68,2.65-5.11,4.07-9.45,9.37-10.2,21.18-9.21,33.42.17,2.07,1.78,3.3,3.83,3.6,2.16.32,3.79-.57,4.91-2.49.61-1.05.51-2.15.51-3.24,0-6.68-.07-13.36.92-20.01.77-5.13,2.3-10.05,4.15-15.35ZM25.66,164.21c2.72,0,5.02-.03,7.32.01.87.02,1.44-.21,1.81-1.07,3.16-7.44,6.34-14.86,9.66-22.61-2.77,0-5.23.03-7.69-.02-.88-.02-1.22.53-1.49,1.16-3.16,7.36-6.29,14.74-9.61,22.53ZM152.33,164.22c-3.36-7.89-6.54-15.32-9.71-22.77-.27-.63-.69-.92-1.37-.91-2.46.02-4.91,0-7.73,0,3.34,7.77,6.55,15.18,9.69,22.61.38.9.93,1.08,1.77,1.07,2.29-.03,4.59,0,7.35,0Z"/>
  </g>
</svg>