<?xml version="1.0" encoding="UTF-8"?>
<svg id="Capa_2" data-name="Capa 2" xmlns="http://www.w3.org/2000/svg" viewBox="0 0 299.92 299.92">
  <defs>
    <style>
      .cls-1 {
        fill: #020202;
        stroke-width: 0px;
      }
    </style>
  </defs>
  <g id="Capa_1-2" data-name="Capa 1">
    <g>
      <path class="cls-1" d="M241.68,72.49c-61.28,0-122.57,0-183.85,0-2.47,0-3.11.63-3.12,3.09,0,7.04,0,14.09,0,21.13,0,2.31.7,2.99,3.06,2.99,7.25,0,14.5,0,21.75.01.61,0,1.36-.29,1.61.7.7,2.78,1.46,5.54,2.2,8.32-.33.17-.55.31-.78.41-6.81,3.16-9.97,9.87-8.03,17.08.93,3.47,1.86,6.95,2.8,10.42.57,2.11,1.42,2.63,3.48,2.08,7.99-2.13,15.98-4.27,23.96-6.42,2.03-.55,2.54-1.48,1.99-3.54-.88-3.27-1.76-6.55-2.65-9.82-2.13-7.88-7.5-11.81-15.63-11.38-.62.03-.94-.06-1.1-.7-.59-2.33-1.23-4.65-1.87-7.05h62.23v8.77c-8.4,1.45-12.94,6.82-12.94,15.15,0,3.5-.01,6.99,0,10.49,0,1.91.71,2.63,2.59,2.64,8.38.01,16.76.01,25.14,0,1.98,0,2.66-.7,2.67-2.72.02-3.86.01-7.71,0-11.57,0-2.36-.58-4.58-1.74-6.64-2.46-4.33-6.26-6.66-11.19-7.33v-8.82h62.39c-.65,2.45-1.33,4.8-1.87,7.19-.25,1.09-.69,1.3-1.79,1.2-6.67-.62-12.94,3.71-14.76,10.16-1.04,3.71-2.02,7.43-3,11.16-.53,2.01-.04,2.92,1.91,3.45,8.08,2.19,16.16,4.36,24.25,6.51,1.71.45,2.67-.1,3.14-1.79,1.09-3.96,2.32-7.9,3.15-11.91,1.2-5.81-.73-10.61-5.38-14.32-1.09-.87-2.39-1.36-3.63-2.06.74-2.78,1.51-5.49,2.16-8.23.26-1.08.69-1.46,1.85-1.45,7.2.06,14.39.04,21.59.03,2.33,0,3.02-.7,3.02-3.04,0-6.84,0-13.68,0-20.51,0-3.2-.44-3.65-3.63-3.65ZM92.46,112.11c3.18.85,5.61,2.71,6.69,5.83,1.16,3.38,1.98,6.88,3,10.53-7.09,1.9-13.92,3.73-20.94,5.61-.96-3.88-2.48-7.57-2.79-11.51-.34-4.21,2.14-7.92,6.07-9.43,2.55-.98,5.18-1.77,7.97-1.03ZM155.05,113.92c4.09,1.65,5.84,5.1,5.79,9.48-.03,2.97,0,5.94,0,9.02h-21.67c.15-3.98-.29-7.91.3-11.83.31-2.05,1.39-3.77,2.97-5.09,3.85-3.22,8.25-3.35,12.62-1.58ZM221.51,124.13c-.61,3.52-1.72,6.95-2.66,10.58-7.11-1.91-13.94-3.74-20.96-5.62,1.17-3.86,1.68-7.82,3.36-11.4,1.75-3.74,5.93-5.75,10.01-5.08,1.36.22,2.72.57,4.02,1.03,4.36,1.57,7.04,5.85,6.23,10.49ZM240.85,95.16H59.21v-18.19h181.64v18.19Z"/>
      <path class="cls-1" d="M235.51,216.18c-12.37-14.57-24.74-29.13-37.09-43.72-.8-.94-1.67-1.36-2.91-1.36-30.27.02-60.55.02-90.82,0-1.27,0-2.23.33-3.08,1.34-14.34,16.94-28.71,33.86-43.08,50.77-.76.9-1.45,1.77-.85,3.03.6,1.27,1.73,1.26,2.89,1.25,29.81,0,59.62,0,89.43,0s59.62,0,89.43,0c1.17,0,2.3,0,2.9-1.24.65-1.33-.14-2.23-.93-3.15-1.97-2.3-3.93-4.61-5.89-6.92ZM64.85,223.07c-.27-.45.1-.61.27-.82,12.9-15.2,25.8-30.4,38.68-45.61.7-.83,1.42-1.12,2.49-1.12,29.2.03,58.39.03,87.59.01.81,0,1.44.09,2.02.78,13.05,15.41,26.12,30.79,39.19,46.18.1.11.17.25.38.58H64.85Z"/>
      <path class="cls-1" d="M177.84,188.34c-9.35-4.56-18.88-4.68-28.53-1.04-.72.27-1.36.55-2.2.32-5.49-1.53-11.06-1.68-16.64-.6-4.87.94-9.4,2.67-12.86,6.43-3.36,3.64-3.68,8.41-.84,12.27,1.49,2.03,3.39,3.61,5.64,4.69,9.32,4.47,18.82,4.55,28.4.89.86-.33,1.6-.44,2.49-.18,2.98.86,6.05,1.14,9.14,1.18,2.37.02,4.73-.19,7.05-.65,4.71-.93,9.12-2.55,12.58-6.05,4.05-4.09,4.16-9.35.39-13.68-1.3-1.49-2.84-2.71-4.6-3.57ZM142.64,209.05c-6.45.85-12.72.42-18.58-2.73-1.09-.59-2.07-1.34-2.93-2.23-2.51-2.57-2.51-5.44-.01-8.02,1.73-1.78,3.86-2.9,6.16-3.69,5.05-1.74,10.23-2.03,15.67-1.22-4.84,7.74-4.26,10.91,3.05,17.05-1.07.61-2.23.7-3.35.85ZM151.97,205.72c-.33.24-.68.15-1.03,0-1.99-.88-3.85-1.96-5.27-3.65-2.54-3.03-1.27-7.78,2.45-9.2.22-.08.52-.12.73-.04,2.78,1.19,5.33,2.67,6.63,5.62.12.28.2.58.27.88.05.25.06.51.08.78-.22,2.6-1.89,4.22-3.87,5.62ZM179.51,201.8c-.82,1.08-1.83,1.95-2.99,2.62-6.05,3.53-12.6,3.89-19.58,3.04,4.76-5.41,4.66-11.74-2.99-17.09,1.65-.66,3.3-.84,4.95-1,5.13-.52,10.15-.08,14.96,1.89,2.16.88,4.14,2.06,5.61,3.93,1.75,2.21,1.75,4.35.04,6.61Z"/>
      <path class="cls-1" d="M149.96,0C67.14,0,0,67.14,0,149.96s67.14,149.96,149.96,149.96,149.96-67.14,149.96-149.96S232.78,0,149.96,0ZM252.46,252.46c-27.38,27.38-63.78,42.46-102.5,42.46s-75.12-15.08-102.5-42.46c-27.38-27.38-42.46-63.78-42.46-102.5s15.08-75.12,42.46-102.5C74.84,20.08,111.24,5,149.96,5s75.12,15.08,102.5,42.46c27.38,27.38,42.46,63.78,42.46,102.5s-15.08,75.12-42.46,102.5Z"/>
    </g>
  </g>
</svg>