<?xml version="1.0" standalone="no"?>
<!DOCTYPE svg PUBLIC "-//W3C//DTD SVG 20010904//EN"
 "http://www.w3.org/TR/2001/REC-SVG-20010904/DTD/svg10.dtd">
<svg version="1.0" xmlns="http://www.w3.org/2000/svg"
 width="1280.000000pt" height="1280.000000pt" viewBox="0 0 1280.000000 1280.000000"
 preserveAspectRatio="xMidYMid meet">
<g transform="translate(0.000000,1280.000000) scale(0.100000,-0.100000)"
fill="#000000" stroke="none">
<path d="M5700 10113 c-41 -2 -79 -8 -83 -12 -12 -12 17 -76 44 -95 19 -13 49
-16 150 -16 l127 0 6 -30 c4 -21 17 -37 41 -51 41 -24 43 -31 14 -51 -21 -14
-21 -15 -5 -50 19 -39 107 -136 170 -186 l39 -31 8 -93 c11 -144 33 -206 89
-250 26 -20 31 -32 36 -86 l7 -62 -46 -42 c-104 -98 -104 -308 -1 -403 42 -39
44 -43 44 -99 0 -54 -4 -64 -41 -112 -47 -62 -79 -139 -79 -192 0 -73 29 -144
76 -188 41 -39 44 -45 44 -94 0 -44 -5 -58 -34 -93 -78 -97 -96 -179 -67 -300
13 -51 13 -69 -1 -150 -16 -94 -12 -193 12 -261 16 -45 13 -54 -27 -75 -75
-38 -118 -106 -144 -223 -7 -32 -15 -58 -18 -58 -3 0 -67 31 -141 68 -120 61
-186 85 -337 122 -24 6 -43 14 -43 19 0 4 26 38 58 75 123 141 162 236 161
383 0 54 -4 121 -9 148 -4 28 -5 53 -1 57 3 4 39 12 78 18 225 32 366 170 367
360 1 64 -3 82 -27 126 -32 56 -85 94 -134 94 -32 0 -101 -44 -127 -82 -45
-64 -1 -179 83 -214 31 -13 33 -17 27 -46 -15 -77 -90 -112 -240 -112 -87 0
-114 4 -197 32 -119 40 -176 41 -235 7 -60 -36 -89 -86 -87 -155 2 -94 44
-168 110 -196 43 -18 135 -18 180 1 24 10 40 12 46 6 6 -6 10 -43 11 -83 1
-87 -21 -135 -108 -239 -41 -49 -73 -75 -123 -101 -97 -51 -219 -87 -347 -102
l-111 -13 -240 -119 -240 -119 -155 0 c-149 0 -157 1 -215 28 -65 31 -109 67
-131 109 -21 40 -18 47 30 67 53 23 112 74 133 114 29 56 1 190 -50 246 -64
69 -184 67 -260 -3 -76 -70 -93 -194 -53 -388 25 -122 26 -141 26 -462 l0
-335 -37 -8 c-72 -15 -283 -9 -352 10 -36 10 -70 22 -78 28 -9 8 -13 43 -13
125 0 106 3 120 35 206 37 100 45 185 24 261 -21 78 -146 165 -249 174 -40 4
-61 -4 -190 -70 -80 -40 -163 -77 -186 -80 -94 -15 -242 34 -285 94 -27 38
-25 44 23 71 64 36 82 67 82 142 0 75 -19 111 -69 132 -84 35 -165 2 -205 -82
-32 -64 -25 -195 13 -270 59 -117 185 -180 384 -193 62 -4 116 -10 119 -14 4
-4 13 -58 20 -121 14 -118 42 -210 88 -289 38 -63 127 -158 190 -202 58 -40
62 -47 47 -88 -11 -27 10 -79 53 -136 l26 -35 0 -224 0 -224 -40 -55 c-22 -31
-40 -66 -40 -78 0 -12 19 -48 42 -81 l43 -59 3 -219 4 -218 -47 -68 c-45 -65
-46 -70 -36 -102 6 -19 27 -49 45 -67 28 -27 41 -33 80 -33 57 0 93 22 112 67
22 54 17 79 -31 141 l-45 57 0 214 c0 230 -1 227 57 303 30 38 34 50 29 82 -9
56 -27 88 -58 104 l-28 15 0 227 0 228 30 23 c17 12 38 38 47 57 14 28 22 34
49 34 64 0 64 1 64 -334 0 -167 3 -317 6 -334 5 -26 1 -36 -29 -64 -61 -58
-73 -107 -37 -165 31 -51 62 -66 126 -61 64 6 85 24 104 94 15 53 7 79 -42
127 l-39 39 3 338 c2 186 6 342 10 345 4 4 38 10 75 12 108 7 107 8 112 -190
l3 -165 -31 -18 c-38 -22 -65 -85 -56 -130 3 -18 24 -57 45 -86 l40 -52 0
-214 0 -213 -40 -38 c-36 -34 -40 -43 -40 -86 0 -41 6 -56 41 -102 l40 -54 6
-218 6 -218 -35 -39 c-63 -70 -72 -107 -42 -170 21 -43 59 -64 119 -64 53 0
77 19 106 86 22 50 18 65 -40 138 l-31 39 0 233 c0 230 0 233 23 251 38 30 57
65 57 106 0 47 -13 74 -52 107 l-29 25 -2 225 -2 225 43 59 c23 33 42 67 42
77 0 39 -33 100 -61 115 l-29 15 0 180 c0 178 0 180 25 204 16 17 35 25 59 25
29 0 36 -4 45 -32 7 -18 24 -51 39 -73 l27 -40 3 -467 c3 -465 3 -467 -18
-478 -12 -6 -30 -26 -40 -43 -54 -87 11 -197 116 -197 28 0 44 8 70 34 29 29
34 41 34 83 0 40 -6 58 -35 99 l-35 49 0 392 c0 216 3 393 8 393 4 0 21 -26
37 -57 17 -31 55 -89 86 -128 l56 -71 6 -109 c7 -118 8 -112 -50 -200 -25 -37
-33 -60 -33 -93 0 -39 5 -49 43 -86 l42 -41 3 -218 4 -218 -40 -37 c-33 -31
-41 -46 -47 -89 -8 -59 1 -83 51 -130 l34 -32 0 -231 0 -231 -40 -38 c-33 -31
-40 -45 -40 -75 0 -75 57 -146 118 -146 58 0 122 67 122 128 0 44 -14 76 -55
120 l-35 39 4 223 3 223 27 20 c34 25 56 67 56 110 0 25 -12 51 -45 96 l-45
61 0 205 0 206 40 54 c34 46 40 61 40 105 0 47 -4 55 -46 101 l-47 49 6 66 c4
37 9 70 12 73 4 3 25 -5 48 -18 208 -118 287 -130 327 -51 23 44 22 45 122 -6
148 -74 274 -187 325 -292 54 -110 30 -290 -50 -372 -70 -72 -168 -80 -234
-18 -46 43 -14 108 52 108 39 0 55 20 55 69 0 36 -31 63 -95 81 -75 21 -163
-17 -213 -90 -21 -31 -23 -44 -20 -107 11 -169 110 -267 312 -309 98 -20 136
-14 244 36 111 52 201 118 262 191 91 110 128 207 137 364 8 138 -13 243 -71
360 -69 139 -123 197 -274 298 -155 103 -275 197 -298 233 -15 22 -15 27 -3
35 8 5 26 9 41 9 30 0 74 46 84 87 8 30 -31 90 -88 136 -73 58 -214 44 -277
-29 -40 -45 -54 -102 -49 -195 5 -80 18 -111 82 -191 16 -21 27 -41 23 -44
-13 -13 -116 55 -184 123 -116 116 -166 237 -167 408 -1 99 -1 100 46 199 61
126 119 206 211 292 143 134 319 202 542 211 116 5 269 -8 284 -23 8 -8 -18
-22 -74 -40 -27 -9 -88 -35 -135 -57 -108 -51 -207 -145 -234 -222 -27 -76
-32 -208 -12 -279 43 -147 237 -248 391 -204 72 21 72 45 -1 94 -72 49 -112
116 -120 200 -7 74 15 114 82 146 45 22 46 23 60 4 8 -11 14 -42 14 -68 0 -43
5 -54 39 -90 35 -38 43 -42 98 -46 35 -2 69 1 82 7 25 14 28 57 6 87 -36 48
-5 111 70 140 60 22 138 14 205 -22 27 -15 53 -24 56 -21 12 11 -17 65 -54
103 -42 41 -134 89 -193 99 -21 4 -39 11 -39 16 0 11 -7 12 80 -12 210 -58
340 -189 340 -341 0 -79 -58 -148 -137 -164 -26 -5 -34 -2 -48 19 -9 14 -22
47 -28 74 -12 45 -14 48 -43 47 -68 -3 -164 -101 -164 -168 0 -61 64 -147 136
-182 30 -14 54 -30 54 -34 0 -17 -67 -74 -110 -94 -35 -16 -71 -21 -161 -24
-127 -4 -190 8 -281 54 -26 13 -62 24 -79 24 -31 0 -31 -1 -26 -35 3 -20 17
-59 30 -88 53 -115 117 -157 239 -157 108 0 108 0 108 -79 0 -124 14 -151 155
-290 134 -133 212 -237 240 -322 43 -130 -22 -331 -125 -384 -49 -25 -117 -36
-162 -26 -57 13 -78 1 -78 -46 0 -51 34 -117 83 -158 54 -47 156 -79 205 -65
47 12 55 5 48 -42 -5 -32 2 -67 38 -172 l44 -131 7 -197 6 -196 -40 -40 c-64
-63 -66 -163 -3 -212 40 -32 121 -24 162 15 27 26 30 35 30 91 0 45 -4 65 -17
75 -9 8 -29 31 -43 51 -25 34 -27 42 -18 85 5 27 6 65 3 85 -7 39 10 144 25
153 5 3 25 -9 45 -26 35 -31 36 -34 36 -103 0 -39 2 -202 5 -362 l5 -292 -42
-98 c-46 -109 -49 -132 -25 -169 28 -43 61 -58 112 -52 117 13 153 150 58 222
l-34 26 1 167 c0 92 4 176 8 187 7 18 9 17 25 -12 31 -61 112 -81 173 -43 76
46 82 146 14 210 l-38 35 5 205 c4 198 5 209 38 318 23 78 34 133 34 178 l0
64 86 0 c103 0 144 16 185 73 39 54 65 138 51 163 -9 16 -22 19 -84 19 -52 1
-86 7 -118 21 -139 64 -203 242 -150 416 21 71 25 76 131 176 126 121 212 229
240 303 16 42 19 65 14 115 l-7 62 68 6 c176 16 272 74 304 183 12 41 7 107
-9 117 -5 3 -33 -8 -62 -24 -95 -53 -168 -70 -295 -70 -89 0 -125 4 -166 20
-51 19 -118 73 -118 95 0 6 16 17 36 24 77 28 143 115 144 189 0 61 -51 127
-122 156 -56 24 -63 21 -77 -34 -18 -68 -44 -100 -85 -100 -68 0 -115 71 -116
175 0 78 13 122 53 182 43 63 123 118 219 148 99 31 134 32 50 1 -82 -31 -135
-67 -172 -118 -51 -70 -40 -81 48 -48 73 28 159 27 203 -3 48 -32 57 -65 35
-127 -22 -62 -14 -76 51 -86 60 -9 111 8 152 50 29 30 35 44 40 98 7 71 17 78
74 54 54 -22 70 -55 71 -140 0 -65 -3 -79 -29 -121 -18 -28 -53 -64 -85 -86
-32 -22 -55 -45 -55 -56 0 -28 52 -47 138 -51 137 -7 205 38 273 182 48 101
61 171 46 243 -31 147 -150 254 -377 336 -101 36 -105 38 -105 47 0 4 28 13
63 18 202 34 300 24 483 -47 179 -70 291 -138 389 -236 126 -126 175 -239 175
-405 0 -155 -51 -270 -171 -391 -42 -43 -94 -86 -117 -98 -23 -12 -42 -20 -42
-17 0 2 16 29 35 61 49 82 61 148 40 227 -32 126 -93 188 -188 188 -66 0 -109
-21 -167 -80 -44 -45 -50 -56 -50 -94 0 -49 22 -75 83 -101 20 -8 37 -22 37
-29 0 -29 -51 -74 -142 -125 -295 -168 -456 -368 -498 -620 -15 -89 -9 -153
26 -263 82 -263 232 -425 436 -473 89 -21 146 -19 236 10 136 43 229 120 253
209 15 55 5 156 -21 206 -27 52 -82 79 -161 80 -94 0 -157 -60 -133 -127 8
-24 17 -29 54 -33 60 -7 70 -15 70 -56 0 -56 -36 -84 -106 -84 -101 0 -178 68
-220 192 -44 134 28 303 183 429 75 60 219 149 243 149 10 0 23 -13 30 -30 37
-89 139 -78 310 34 30 20 58 32 62 28 5 -5 11 -38 15 -75 6 -64 5 -67 -27
-103 -74 -85 -78 -143 -15 -214 l45 -51 0 -218 0 -218 -24 -22 c-35 -33 -56
-82 -56 -132 0 -36 6 -47 41 -81 l41 -39 5 -203 c3 -112 3 -214 0 -228 -4 -14
-25 -48 -47 -75 -67 -85 -52 -156 45 -203 43 -21 45 -21 81 -4 89 42 99 159
21 242 -21 23 -22 32 -23 254 l-1 229 24 16 c34 23 53 65 53 119 0 43 -4 51
-45 91 l-45 43 0 211 0 212 40 53 c36 48 40 59 40 113 0 57 -2 61 -40 94 l-40
34 0 120 0 121 41 48 c50 61 101 152 124 222 9 28 20 52 24 52 13 0 21 -198
21 -528 l0 -315 -40 -34 c-64 -55 -65 -126 -2 -186 41 -39 75 -49 119 -34 51
17 83 66 83 127 0 48 -14 71 -74 118 -14 11 -16 60 -16 463 0 400 2 452 16
475 9 13 27 53 40 87 25 69 34 72 105 41 47 -20 49 -32 49 -232 l0 -155 -40
-34 c-66 -57 -67 -123 -2 -195 l37 -41 5 -206 c3 -113 2 -217 -3 -230 -4 -13
-23 -42 -42 -64 -52 -61 -46 -129 18 -195 l32 -33 3 -223 4 -223 -31 -23 c-39
-27 -61 -69 -61 -115 0 -77 51 -125 133 -125 38 0 49 5 75 34 39 44 51 116 26
154 -9 14 -30 37 -45 50 l-29 24 0 224 0 223 30 34 c36 42 50 77 50 127 0 37
-18 63 -74 108 -15 12 -17 38 -14 237 l3 223 28 22 c78 61 76 177 -4 224 l-29
17 0 168 c0 116 4 171 12 179 14 14 156 16 178 2 13 -8 15 -59 18 -341 l3
-332 -24 -26 c-45 -49 -57 -75 -57 -123 0 -39 6 -54 31 -83 28 -32 36 -35 85
-35 45 0 59 5 85 28 27 25 33 37 37 87 l5 59 -44 38 -44 38 -3 312 c-2 172 0
329 5 348 9 33 12 35 55 38 40 3 47 0 63 -25 9 -15 27 -37 40 -48 22 -19 23
-27 28 -246 l6 -226 -44 -68 c-25 -37 -45 -76 -45 -85 0 -9 19 -43 42 -76 l42
-59 7 -175 c4 -96 4 -203 2 -236 -5 -54 -9 -63 -34 -78 -23 -13 -29 -25 -34
-70 -11 -86 30 -145 107 -153 55 -5 103 23 124 73 21 49 9 97 -37 150 l-39 45
0 223 c0 211 1 224 20 241 46 41 63 83 58 142 -4 45 -10 61 -31 79 -14 12 -32
24 -39 26 -10 4 -13 53 -13 231 l0 226 31 33 c47 49 55 71 49 130 -3 29 -2 58
2 63 4 6 31 27 60 48 168 122 259 297 277 532 2 39 5 70 5 71 1 1 49 4 109 7
205 11 315 72 378 209 26 56 29 74 29 163 0 143 -29 182 -145 192 l-61 6 -44
-47 c-40 -41 -45 -52 -45 -91 0 -78 39 -140 103 -164 58 -22 16 -104 -71 -138
-35 -13 -73 -18 -148 -17 l-101 1 -99 54 c-154 85 -175 93 -242 87 -131 -12
-209 -89 -242 -239 -13 -60 0 -131 41 -226 17 -39 21 -70 22 -173 l1 -125 -47
-23 c-70 -35 -173 -47 -307 -34 -61 6 -115 13 -118 17 -4 4 -8 159 -10 346 -3
324 -2 342 19 406 14 47 23 105 26 189 5 106 3 126 -15 166 -11 25 -35 56 -53
70 -120 88 -241 68 -301 -51 -65 -128 -9 -270 118 -302 24 -6 47 -15 50 -20 9
-15 -15 -74 -39 -97 -65 -60 -212 -102 -360 -102 l-95 0 -201 99 c-226 111
-363 161 -443 161 -230 2 -417 112 -510 300 -44 88 -53 125 -44 176 7 34 9 36
39 30 123 -24 180 -19 227 21 49 41 73 98 74 173 1 116 -51 169 -172 177 -58
4 -80 0 -166 -31 -81 -30 -112 -36 -175 -36 -101 0 -172 22 -216 66 -44 44
-44 65 1 89 20 10 49 38 65 61 40 59 40 116 -2 173 -62 86 -147 88 -226 5
l-43 -44 0 -85 c0 -177 43 -257 172 -319 70 -33 214 -76 257 -76 29 0 32 -10
16 -76 -8 -32 -14 -95 -15 -140 0 -129 39 -220 157 -366 35 -42 63 -82 63 -87
0 -6 -19 -15 -42 -21 -136 -34 -280 -94 -400 -167 -32 -19 -62 -32 -67 -29 -5
4 -14 37 -21 74 -17 102 -56 164 -125 196 -30 15 -55 32 -55 39 0 7 7 30 15
52 19 55 19 226 0 293 -14 47 -14 57 1 109 11 39 15 78 12 125 -5 59 -11 77
-43 124 -21 30 -48 62 -59 70 -28 19 -27 86 2 122 43 55 82 131 91 178 19 101
-22 229 -86 269 -31 19 -32 23 -32 85 -1 72 2 78 41 103 51 32 73 90 73 197 0
104 -16 149 -76 218 -25 28 -29 41 -29 91 0 52 3 61 34 93 42 43 54 82 68 223
l11 110 94 89 c124 117 149 166 101 199 l-23 15 38 22 c22 13 40 32 44 49 3
14 11 29 17 33 6 4 65 8 131 8 l119 0 43 42 c24 23 43 50 43 60 0 17 -33 18
-692 16 -381 -1 -727 -4 -768 -5z m734 -659 c11 -4 16 -19 16 -44 0 -64 -6
-70 -66 -70 -53 0 -53 0 -63 38 -15 52 -14 70 7 75 27 7 89 8 106 1z m6 -496
c15 -24 20 -51 20 -98 0 -109 -8 -120 -91 -123 -31 -2 -34 1 -51 53 -29 93 -7
171 55 189 47 13 46 14 67 -21z m-1 -607 c12 -12 22 -41 27 -77 6 -48 3 -65
-12 -94 -17 -31 -24 -35 -65 -38 -44 -3 -46 -2 -64 37 -21 48 -17 126 9 165
21 32 76 36 105 7z m22 -621 c10 -37 10 -108 0 -114 -5 -4 -23 2 -40 11 -30
17 -32 17 -62 0 -17 -9 -35 -15 -40 -11 -13 8 -11 45 7 96 l15 46 57 -2 c51
-1 57 -3 63 -26z m-3 -869 c64 -13 132 -85 132 -141 0 -12 -28 -61 -62 -109
-35 -48 -76 -109 -91 -136 -34 -58 -30 -60 -143 96 -92 129 -101 157 -64 216
40 67 124 94 228 74z m2496 -126 c9 -24 20 -488 12 -519 -7 -27 -9 -28 -56
-24 -57 6 -110 41 -138 91 -14 27 -17 58 -17 185 l0 154 29 21 c60 45 151 106
157 107 4 0 10 -7 13 -15z m-5001 -80 c55 -25 78 -42 82 -58 3 -12 4 -98 3
-192 l-3 -169 -34 -23 c-38 -26 -129 -56 -142 -47 -5 3 -9 122 -9 265 0 212 2
259 14 259 7 0 48 -16 89 -35z m4718 -72 c12 -33 8 -188 -6 -188 -13 1 -135
173 -135 191 0 12 29 19 98 22 27 2 34 -3 43 -25z m-4401 -13 c12 -7 8 -18
-23 -62 -61 -86 -93 -122 -105 -114 -13 8 -16 103 -6 155 6 30 8 31 63 31 31
0 63 -4 71 -10z m5377 -186 c30 -8 35 -29 19 -69 -14 -33 -48 -60 -60 -48 -14
14 -3 123 13 123 3 0 16 -3 28 -6z m-6457 -60 c14 -35 13 -81 -2 -90 -16 -10
-68 51 -68 80 0 23 12 32 48 35 7 0 17 -11 22 -25z m3273 -617 c29 -24 80 -63
115 -86 34 -23 62 -43 62 -45 0 -3 -36 -34 -80 -71 -44 -36 -95 -88 -113 -115
-17 -27 -35 -50 -39 -50 -3 0 -29 28 -56 63 -28 34 -78 89 -111 122 -34 33
-61 62 -61 66 0 3 18 14 40 24 22 10 70 44 107 76 38 32 72 58 76 59 5 0 32
-20 60 -43z m101 -1963 c3 -26 6 -96 6 -155 l0 -109 -47 -59 c-26 -33 -51 -57
-55 -55 -5 3 -8 84 -8 179 l0 174 31 36 c44 50 65 47 73 -11z"/>
<path d="M9753 9657 c-71 -81 -111 -192 -98 -274 11 -76 108 -163 180 -163 71
0 129 97 129 216 0 59 -4 78 -28 119 -35 59 -111 135 -136 135 -10 0 -31 -15
-47 -33z"/>
<path d="M2934 9640 c-69 -46 -152 -222 -138 -294 13 -74 98 -166 151 -166 31
0 110 58 135 98 31 50 31 156 0 225 -25 56 -86 143 -106 150 -7 3 -26 -3 -42
-13z"/>
<path d="M8818 9503 c-19 -26 -39 -60 -46 -75 -19 -45 -25 -123 -13 -161 13
-40 68 -93 105 -103 31 -7 75 16 115 61 48 55 44 106 -17 226 -44 85 -51 94
-79 97 -26 3 -35 -3 -65 -45z"/>
<path d="M3831 9465 c-89 -98 -97 -222 -19 -302 36 -37 71 -42 118 -18 56 29
70 59 70 149 0 68 -4 91 -26 134 -23 47 -65 92 -84 92 -5 0 -31 -25 -59 -55z"/>
<path d="M9722 9138 c-9 -9 -12 -149 -12 -569 0 -499 -2 -557 -16 -563 -9 -3
-89 -6 -178 -6 -175 0 -186 -3 -186 -52 l0 -28 213 -2 c368 -4 711 3 740 14
31 12 34 24 11 56 -15 21 -21 22 -180 22 -123 0 -166 3 -169 13 -2 6 -6 256
-8 554 -3 427 -6 545 -16 557 -17 20 -180 23 -199 4z"/>
<path d="M8820 9108 l-25 -14 -3 -446 -2 -445 -38 -7 c-20 -3 -85 -6 -143 -6
-112 0 -135 -8 -127 -47 6 -35 46 -43 210 -43 170 0 220 -14 83 -23 -112 -6
-119 -13 -111 -100 3 -37 13 -84 21 -104 14 -33 14 -38 -1 -54 -14 -16 -15
-28 -4 -106 13 -100 46 -182 93 -231 36 -38 96 -72 127 -72 33 0 105 74 134
139 29 64 51 205 41 259 -4 21 -1 40 10 54 10 16 15 46 15 100 0 104 -13 118
-110 118 -38 0 -70 4 -70 9 0 10 123 21 237 21 119 0 150 21 100 68 -21 20
-34 22 -144 22 l-120 0 -6 173 c-4 94 -7 294 -7 443 0 234 -2 273 -16 285 -22
18 -114 23 -144 7z"/>
<path d="M2867 9098 c-16 -12 -17 -61 -19 -573 l-3 -560 -164 -3 c-101 -1
-170 -7 -178 -13 -7 -7 -13 -24 -13 -40 l0 -29 188 -2 c310 -4 746 4 765 14
23 12 22 31 -4 54 -19 17 -36 19 -183 16 -95 -2 -167 1 -176 7 -13 9 -15 84
-18 558 -2 489 -4 549 -19 565 -13 14 -31 18 -88 18 -41 0 -78 -5 -88 -12z"/>
<path d="M3823 9075 l-23 -16 0 -445 c0 -244 -1 -445 -2 -445 -2 -1 -66 -5
-143 -8 l-140 -6 -3 -33 c-5 -45 20 -52 198 -52 156 0 211 -14 87 -22 -40 -3
-83 -10 -96 -17 -23 -13 -23 -16 -17 -85 4 -39 15 -88 26 -110 17 -34 17 -41
4 -61 -12 -18 -12 -36 -4 -101 21 -148 113 -294 188 -294 59 0 120 46 157 118
37 75 60 273 34 299 -9 9 -8 21 4 50 8 21 18 68 22 104 7 62 6 67 -16 83 -17
12 -46 16 -108 16 -57 0 -82 3 -75 10 6 6 82 13 170 16 203 7 204 7 204 44 0
16 -6 32 -12 37 -7 4 -76 10 -153 13 l-140 5 -5 442 c-4 328 -8 445 -17 454
-20 20 -114 23 -140 4z"/>
<path d="M7957 8980 c-27 -21 -59 -88 -77 -163 -10 -37 -10 -54 0 -77 15 -37
71 -87 106 -96 63 -16 114 46 114 139 0 64 -16 109 -56 162 -39 51 -57 59 -87
35z"/>
<path d="M4749 8943 c-60 -54 -82 -104 -77 -174 4 -59 42 -133 73 -146 27 -10
68 8 107 46 35 36 38 43 38 94 0 82 -57 217 -91 217 -5 0 -27 -17 -50 -37z"/>
<path d="M7975 8603 c-11 -2 -31 -6 -44 -9 l-23 -5 3 -392 c2 -216 0 -398 -4
-404 -6 -9 -43 -13 -126 -13 -124 0 -141 -6 -141 -46 0 -31 9 -35 95 -38 42
-2 78 -6 82 -10 3 -3 -1 -14 -10 -24 -14 -15 -15 -27 -6 -82 5 -36 17 -79 26
-97 12 -27 13 -36 3 -48 -9 -10 -11 -39 -8 -90 12 -183 153 -323 242 -240 38
36 81 131 101 230 17 81 17 86 1 104 -16 18 -16 22 -2 49 8 16 20 58 25 93 10
58 9 65 -10 85 -12 13 -27 20 -35 17 -8 -3 -22 -2 -31 2 -17 6 -17 7 0 16 9 6
23 6 31 2 21 -12 183 0 197 14 9 9 8 18 -5 37 -15 24 -21 25 -128 28 l-112 3
-8 30 c-5 17 -8 59 -8 95 0 79 -1 242 -2 290 0 19 2 107 5 195 8 193 2 216
-52 214 -20 -1 -45 -3 -56 -6z"/>
<path d="M4712 8575 c-4 -5 -5 -184 -3 -398 2 -296 0 -391 -9 -402 -10 -11
-36 -15 -112 -15 -112 0 -161 -17 -156 -55 3 -18 12 -21 95 -25 97 -5 119 -14
90 -35 -17 -12 -17 -20 -7 -97 7 -45 13 -128 15 -183 3 -131 27 -195 95 -259
56 -53 93 -59 141 -25 73 52 108 183 125 466 5 73 3 84 -16 103 -11 11 -18 25
-15 31 4 5 44 8 96 5 l89 -3 0 26 c0 46 -15 51 -142 51 -106 0 -118 2 -128 19
-6 13 -10 154 -10 390 0 238 -4 378 -11 393 -9 21 -17 23 -70 23 -34 0 -64 -4
-67 -10z m213 -895 c3 -6 -1 -13 -10 -16 -19 -8 -30 0 -20 15 8 14 22 14 30 1z"/>
<path d="M9562 7858 c-16 -8 -21 -16 -15 -27 4 -9 9 -63 11 -121 2 -78 7 -109
19 -122 15 -16 15 -20 0 -36 -15 -16 -15 -27 -6 -78 33 -182 90 -335 147 -387
40 -39 95 -45 154 -19 91 40 158 178 187 387 9 58 8 74 -5 94 -14 21 -14 26 0
55 9 20 17 70 19 139 4 96 3 108 -13 117 -26 14 -469 12 -498 -2z"/>
<path d="M2760 7821 l-55 -6 3 -115 c3 -96 7 -120 24 -143 17 -25 18 -33 8
-58 -13 -31 -8 -136 12 -219 19 -80 65 -165 117 -213 65 -61 88 -66 155 -33
63 31 105 75 142 148 50 98 73 298 38 333 -15 14 -15 19 1 51 23 49 43 230 26
247 -13 13 -370 19 -471 8z"/>
<path d="M7622 6748 c-7 -7 -12 -31 -12 -55 0 -37 4 -45 25 -55 22 -10 30 -8
53 9 15 11 28 32 30 46 6 48 -63 88 -96 55z"/>
<path d="M5090 6721 c-25 -47 -4 -101 39 -101 29 0 71 36 71 61 0 48 -88 80
-110 40z"/>
<path d="M7772 6614 c-34 -23 -31 -96 4 -129 33 -30 63 -32 98 -4 21 16 26 29
26 63 0 58 -22 86 -68 86 -21 0 -48 -7 -60 -16z"/>
<path d="M4934 6608 c-51 -24 -55 -82 -8 -137 33 -40 65 -40 98 0 35 41 34 83
-3 120 -31 30 -52 35 -87 17z"/>
<path d="M4748 6400 c-48 -26 -68 -56 -68 -102 0 -113 78 -172 173 -130 56 25
67 45 67 120 0 57 -2 61 -40 96 -46 41 -76 45 -132 16z"/>
<path d="M7914 6402 c-36 -29 -46 -59 -39 -115 6 -40 15 -59 41 -85 32 -32 38
-34 85 -30 55 6 98 37 119 89 15 35 0 85 -37 129 -23 27 -30 30 -86 30 -44 0
-68 -6 -83 -18z"/>
<path d="M6767 5003 c-2 -4 -10 -39 -17 -76 -24 -131 0 -246 62 -305 50 -46
157 -57 203 -20 26 20 55 73 55 101 0 7 -29 27 -64 44 -112 56 -168 121 -184
216 -6 32 -12 43 -29 45 -12 2 -23 0 -26 -5z"/>
<path d="M5996 4984 c-3 -9 -6 -28 -6 -42 0 -38 -52 -123 -94 -156 -20 -15
-61 -38 -91 -51 -64 -29 -68 -44 -26 -102 37 -51 76 -67 138 -58 67 10 125 68
148 150 23 77 17 225 -10 255 -22 24 -51 26 -59 4z"/>
</g>
</svg>
