<?xml version="1.0" encoding="UTF-8"?>
<svg id="Capa_2" data-name="Capa 2" xmlns="http://www.w3.org/2000/svg" viewBox="0 0 468.6 405.96">
  <defs>
    <style>
      .cls-1 {
        fill: #090909;
        stroke-width: 0px;
      }
    </style>
  </defs>
  <g id="Capa_1-2" data-name="Capa 1">
    <g>
      <path class="cls-1" d="M7.68,312.64c1.17-.02,2.33,0,3.5,0,79.5,0,159,0,238.5-.02,1.65,0,3.36.02,4.95-.36,1.77-.42,2.78-1.77,2.71-3.71-.07-2.1-1.07-3.52-3.21-3.8-1.48-.19-2.99-.14-4.49-.14-28.17,0-56.33,0-84.5-.04-1.79,0-3.65.43-5.57-.62v-21.83h116.21c1.05,10.35-1.3,20.53,1.79,30.37,1.41,4.5,2.11,9.62,4.77,13.25,4.22,5.75,10.82,9.11,17.84,10.3,4.17.71,5.98,2.7,7.08,6.21.93,2.96,2.58,5.37,5.39,6.87,6.59,3.52,13.78,3.8,20.72,2.41,4.97-1,10.49-2.32,13.15-7.83.71-1.46,1.92-2.02,3.69-1.73,14.82,2.39,18.76-7.08,23.06-17.29,2-4.74-1.53-8.44-.49-13,2.06-8.99.84-17.87-4.08-25.91,7.02-7.17,6.85-13.13-.43-20.02-2.05-1.94-4.71-3.88-4.4-6.91.47-4.55-.69-8.86-1.27-13.27,4.35-1.78,8.56.28,12.89-.25,5.41-.66,10.78-3.24,16.43-1.67.33.27.66.53.98.8-1.08,3.51-2.37,7.09-1.82,10.75.75,5-1.73,8.18-5.07,11.19-6.27,5.66-6.63,11.07-1.47,17.87,2.35,3.09,5.35,5.74,7.16,9.66-2.87.35-5.33.78-7.79.91-2.92.16-5.67.78-5.5,4.28.19,3.85,3.23,3.96,6.27,3.8,3.74-.2,7.45-1.59,11.37-.51-.39,2.13,1.02,4.25-1.54,5.92-10.1,6.61-11.64,18.55-3.56,27.17,1.57,1.68,3.51,3.07,5.45,4.33,1.25.82,2.04,1.6,1.86,3.16-.56,4.94,1.91,7.54,5.99,10.31,3.82,2.59,7.52,3.05,11.69,4.01,7.62,1.76,13.13-.51,18.28-5.79,2.17.93,4.47,1.67,6.64,3.03,4.38,2.74,15.19-.38,17.79-4.81,3.84-6.57,4.03-13.7,3.92-21.09-.07-4.68-2.68-8.78-1.39-13.91,1.4-5.58.77-11.69.94-17.57.07-2.32-1.28-3.86-3.45-4.26-2.43-.45-3.57-1.55-4.08-4.05-2.03-9.99-10.94-11.56-18.52-14.67-1.31-.54-2.65.17-3.82.79-1.19.64-2.28,1.1-3.74.86-3.81-.64-6.83.83-9.11,3.9-.79,1.06-1.5,2.47-3.11,1.92-7.55-2.59-13.37,1.2-19.3,5.18-1.96-2.45-3.81-5.03-5.94-7.35-2.63-2.85-2.33-5.02.61-7.49,5.21-4.37,8.57-9.66,7.45-16.96-.41-2.66.53-5.27,1.46-7.78.97-2.65,2.83-3.97,5.67-3.83,8.5.43,12.99-6.03,18.4-10.82.88-.78,1.43-2.39,1.45-3.63.15-8.87,2.86-17.53,2.12-26.47-.16-1.9-.31-4.1-1.71-5.05-6.91-4.65-7.87-13.68-14.84-18.68-5.97-4.28-11.93-9.11-18.76-10.35-10.7-1.94-21.67-.85-31.76,4.41-3.91,2.04-7.53,4.41-11.2,6.86-5.37,3.59-9.58,8.1-13.94,12.68-2.31,2.42-3.33,6.78-6.91,7.15-5.94.61-11.99.38-17.98.07-3.57-.19-5.45-3.92-3.09-5.77,6.38-4.98,8.84-11.21,8.23-19.21-.21-2.76.62-7.08,4.05-7.12,5.44-.05,9.14-2.67,13.36-5.34,4.6-2.91,7.04-6.53,6.82-11.79-.08-2.06.71-3.89.79-5.77.36-8.27,4.13-17.29-4.74-23.81-1.26-.93-2.3-2.54-2.81-4.04-2.91-8.56-10.57-12.07-17.6-15.46-7.59-3.66-9.82-6.15-7.86-14.21.91-3.71,2.78-5.8,7.15-4.65,3.93,1.04,5.84-1.03,5.25-5.1-.92-6.34,2.01-9.17,8.16-7.66,3.83.94,5.86-.29,5.83-4.29-.02-3.85,2.19-5.52,5.61-5.44,2.88.07,5.75.84,8.8,1.33-.93,2.57-2.55,5.28.19,6.96,2.86,1.75,2.36,3.53,1.13,5.73-1.42,2.54-1.46,4.94,1.37,6.34,3.3,1.63,4.97-.75,6.12-3.28,3.9-8.61-.51-15.72-4.18-23.63,5.22-2.41,10.99-2.73,16.99-1.75,2.38.39,5.01,1.7,7.15-.39,3.01-2.94,6.56-3.36,9.4-.79,2.85,2.58,4,6.38,1.85,10.29-.79,1.44-.96,2.85.05,4.21,1.97,2.66,1.63,4.73-1.15,6.7-1.87,1.33-2.07,3.37-.63,5.29,1.58,2.1,3.62,2.21,5.72.89,4.26-2.67,6.17-6.69,5.18-11.51-.91-4.48.37-8.75-.05-13.18,5.32-.88,8.94.54,11.39,5.32,1.77,3.46,4.96,3.49,7.04.19,1.22-1.93,2.23-3.6,4.53-2.09,2.2,1.45,5.37,4.29,3.64,6.22-4.63,5.15-1.34,10.38-1.26,15.43.09,5.3,3.1,9.43,8.17,11.56,1.7.72,3.66.84,5.04-.89.97-1.22,1.87-3.29.6-4.04-5.88-3.47-4.88-8.18-4.98-14.07-.08-4.66,3.14-6.75,2.51-11.01,1.26.82,1.63.94,1.8,1.19,1.33,1.93.19,5.11,3.27,6.22,3.12,1.13,4.4-1.44,6.35-2.8.79-.55,1.93-.57,2.67.42.65.87.57,1.75.21,2.8-2.4,6.92-1.24,8.33,5.77,7.12.8,2.61-1.54,5.97,1.39,7.94,2.01,1.35,2.55,2.51,1.93,4.85-.57,2.18.55,3.94,2.91,4.45,2.3.5,3.91-.61,4.82-2.64,1.56-3.47,1.15-6.81-1-9.93-.73-1.06-1.9-1.84-1.82-3.39.33-7.08-4.88-12.2-8.63-16.43-4.65-5.25-13.25-6.05-20.47-6.78-2.77-.28-5.07.27-7.14-2.08-.82-.93-2.35-1.99-3.41-1.85-8.31,1.11-15.58-3.49-23.55-4.03-.82-.06-1.76-.1-2.47.22-2.14.97-3.61.07-5.35-1.16-4.84-3.41-10.24-4.18-15.58-1.51-2.45,1.23-4.57,1.08-7.1.97-8.65-.36-17.55-1.01-23.7,7.08-1.19,1.56-2.67.97-4.09,1.02-5.85.2-10.74,2.17-13.77,7.5-.69,1.22-1.37,1.92-2.96,2.09-6.47.7-10.71,4.32-12.33,10.63-.45,1.73-1.19,2.38-2.81,2.79-5.96,1.5-8.48,5.96-9.61,11.54-.77,3.8-.53,7.62.06,11.67-1.41.44-2.79,1.23-4.19,1.27-15.2.42-25.49,10.06-35.95,19.23-2.41,2.12-4.6,4.99-5.75,7.96-3.67,9.43-4.98,19.2,1.47,27.94,2.89,3.92,5.58,8.39,11.05,10.05,6.8,2.07,9.63,6.16,9.18,13.42-.37,5.9,1.67,10.39,5.81,14.18,3.27,2.99,4.59,5.66-.34,8.34-1.78.97-2.26,2.66-1.56,4.74.64,1.92,2,2.63,3.75,2.65,1.49.02,2.95-.22,4,.82v20.09c-5.29-1.83-9.98,1.42-14.85.41-.18-.29-.32-.42-.35-.57-.08-.48-.17-.98-.16-1.47.25-9.71.44-17.95-11.37-23.38-8.48-3.9-16.24-7.71-25.59-7.73-6.65-.01-13.36.81-19.93-.7-3.36-.77-6.63-3.08-9.89-2.97-10.86.35-20.46-3.2-30.14-7.53-13.58-6.08-27.41-5.94-41.06.28-6.35,2.89-12.73,5.54-19.74,6.7-4.14.69-8.53-.72-12.31,1.03-5.62,2.61-11.42,3.46-17.45,3.33-12.84-.29-25.84-1.3-36.15,8.79-9.47,1.92-11.11,8.65-10.7,16.94.31,6.32,1.81,13.32-.33,18.8-2.13,5.48-8.07,9.5-12.45,14.07-4.57,4.78-5.08,10.68-4.74,16.76.23,4.02-1.79,9.02,4.17,10.99.4.13.57,1.44.57,2.2.04,6.64.03,13.28.03,20.31-6.2,0-11.99.03-17.78-.02-2.7-.02-4.85.99-4.9,3.79-.06,3.01,2.07,4.31,5.01,4.25ZM406.55,312.59c1.9-.91,3.04,1.28,4.01,2.83,1.42,2.26,3.35,3.37,5.84,1.71,2.43-1.62,2.28-3.9.92-6.13-2.86-4.68-6.79-7.65-12.91-7.3.07-3.94-1.47-7.78.34-11.8,2.7.23,5.69.86,6.95-2.69,2.91,1.23,5.65,2.49,7.8,4.76,2.09,2.21,4.35,4.26,2.65,7.82-.99,2.06-.44,3.99,1.61,5.11,2.27,1.24,4.09.38,5.56-1.63,3.29-4.47,2.58-9.8-2.45-16.84-1.04-1.45-3.01-2.63-.05-4.42,2.2,1.26,4.46,1.69,7.43,1.56,3.12-.14,7.63.26,10.4,3.14,3.45,3.59,3.19,6.08-.54,9.49-2.29,2.09-4.9,4.44-2.15,7.52,2.8,3.13,5.32.85,7.52-1.46.79-.83,1.74-1.5,2.6-2.22,5.52,3.98-2.95,8.07,1.04,12.09-1.45.26-2.22.45-3,.52-2.55.22-3.98,1.48-3.97,4.14,0,2.5,1.6,3.71,3.75,3.85,3.02.19,4.43,1.15,3.16,4.31-.91,2.28,1,4.03,1.31,6.13.68,4.63-2.26,7.93-3.62,12.15-1.85-.22-3.96-.11-5.2,1.92-3.86-2.88-7.18-6.16-11.16-8.1-4.29-2.09-6.03,2.61-8.01,5-5.6,6.79-8.96,7.47-15.25,1.91-1.43-1.26-3.19-.56-4.68-1.4.9-1.67.84-3.44.54-5.24,3.27-.65,6.17-1.63,5.25-5.4-.92-3.81-4.25-3.62-6.89-2.59-3.26,1.26-5.94.51-7.26-2.11-1.51-2.98-4.38-5.19-1.64-10.27,2.67-4.94,6.6-4.68,10.09-6.36ZM151.08,304.3H33.58v-22.24h117.5v22.24ZM344.74,194.41c2.87,1.52,4.14,8.14,8.8,3.72,3.59-3.41-.05-6.57-2.76-10.29,6.37.4,8.53-5.49,13.59-7.2,2.89-.97,6.52-3.4,9.25-3.46,5.59-.12,11.08-1.65,16.6-1.17,2.28.2,3.94,2.83,6.57,2.99-1.31,3.58-3.21,7.3.66,9.62,3.82,2.29,5.53-1.06,6.67-4.12,7.67,3.28,9.24,11.4,13.72,16.99,3.3,4.12,2.97,11.29-.08,16.96-.99,1.84-.29,3.41.27,5.21.91,2.94-.06,4.92-2.78,7.08-4.43,3.51-9.23,4.79-14.83,5.02-1.88-3.01,4.74-9.83-3.26-10.11-5.11-.18-5.64,5.1-5.84,9.31-9.65-.74-18.68,3.7-28.09.72.66-2.51,3.71-7.13-1.72-8.15-4.91-.92-6.26,4.19-7.79,8.36-1.69-3.08-3.84-5.16-7.57-3.99-.84-2.17-1.05-4.46-3.33-5.33,1.24-2.78,4.27-3.17,5.93-5.33,1.39-1.81,3.08-3.14,1.47-5.49-1.44-2.11-3.3-2.24-5.67-1.32-2.29.9-4.52,1.77-6.23,3.99-2.33-12.48-2.65-7.4,6.43-24ZM274.54,158.55c-1.74-3.62-8.14-1.83-8.34-7.94,2.04-2.53,8.88-3.8,5.43-9.21-2.94-4.61-6.6.75-10.45.37-3.17-6.98.93-12.71,5.76-18.42,2.15,1.78,3.78,6.73,7.81,3.15,3.63-3.22.26-6.27-1.01-8.55,11.34-9.64,23.95-13.88,38.45-9.66.56,3.81-2.16,7.66,2.06,9.65,3.18,1.5,4.84-.91,6.35-3.71,6.4,5.8,10.35,12.85,13.44,20.36.71,1.72-.74,4.03-1.08,6.06-.62,3.76-1.27,7.34-.68,11.18.24,1.56-7.81,7.33-9.71,7.04-1.79-.27-3.48-.02-5.62.52.53-3.78,3.09-8.75-2.79-9.12-5.07-.32-5.6,4.61-6.16,8.5-8.22-1.13-16.3,3.9-24.33-.11,2.5-2.56,1.95-5.35-.96-6.37-5.14-1.79-6.01,3.09-8.17,6.27ZM287.07,185.54c-2.09-1.44-3.09-3.78-2.84-6.54.29-3.15-.02-6.28-1.4-10.46,9.2,1.42,17.61-1.38,26.73-1.47-1.34,4.55-1.81,8.89-1.54,13.31.13,2.17-1.23,3.76-2.81,5.02-4.52,3.61-6.08,8.46-5.91,14.23h-6.38c.69-5.89-.88-10.65-5.86-14.09ZM282.56,235.81c2.05,3.3,5.78.82,8.64,3.66,4.2,4.19,6.32,8.91,6.55,14.33.14,3.19.51,5.51,3.79,5.62,3.32.12,4.29-2.7,4.58-5.49.13-1.28-.17-2.63-.44-3.92-.82-3.89.93-6.73,4.87-6.9,3.35-.14,3.86-2.61,4.81-4.65,4.6.73,7.19,4.1,10.1,7.22-.78,2.1-1.62,4.02.05,6.44,1.94,2.83-.54,5.36-2.01,7.56-1.62,2.43-2.33,4.63.15,6.54,2.85,2.19,4.94.26,6.67-1.98,6.47-8.38,4.44-23.89-2.77-31.07-3.03-3.02-13.4-4.14-16.86-1.59-2.92,2.15-7.29,1.58-8.93,5.3-5.27-2.77-6.08-7.03-5.68-12.21.43-5.43.1-10.92.1-16.92h31.92c.16,3.36,1.19,6.11.51,9.48-1.25,6.17,3.55,10.38,6.65,14.9,3.36,4.9,8.47,8.04,13.87,10.25,6.04,2.48,7.04,7.85,6.58,12.72-.72,7.68,2.61,12.79,7.84,17.3,2.17,1.87,2.54,3.65,1,6.07-2.08-.61-4.06-1.41-6.11-1.74-3.15-.51-6.9-1.07-7.47,3.37-.59,4.62,3.25,4.51,5.95,4.58,4.27,5.15,3.38,12.52,9.09,16.76-3.38,2.43-2.48,5.39-.88,8.35-2.69,2.49-9.18-.72-8.44,5.52.44,3.72,2.64,6.86,8.83,6.51-4.9,4.4-4.9,10.72-10.86,12.85-3.83-1.55-8.05-2.68-9.08-8-.37-1.91-2.69-2.42-4.63-1.78-2.81.92-3.48,3.52-2.59,5.68,1.53,3.71,1.25,6.91-1.15,10.29-2.17.21-5.22-.73-6.37,3.03-2.74-2.21-5.44-2.72-8.03.41-1.77-2.85-4.04-4.18-7.43-2.65-.08-3.43.02-6.36-3-8.02,1.98-3.02,2.52-6.54,5.4-8.96,1.66-1.4,2.02-3.87.07-5.78-1.68-1.64-3.58-1.51-5.46-.33-2.57,1.61-4.96,3.29-5.24,6.76-.12,1.44-.63,3-2.64,3.02-1.48.01-2.71.11-3.58-1.77-1.28-2.75-3.7-3.09-6.65-1.25-.15-2.6-.73-4.51-3.06-5.87-5.1-2.99-5.68-9.68-1.53-14.17,1.36-1.48,1.67-3.13.61-5,2.74-.53,4.09.54,5.56,2.54,5.91,8.01,16.58,10.67,25.67,5.03,6.7-4.16,9.51-9.35,11.36-16.08,1.14-4.15-1.66-9.89-5.63-11.45-2.71-1.06-5.57.91-5.27,3.98.37,3.79-.26,7.2-1.43,10.84-1.22,3.77-4.43,6.47-6.82,6.87-4.12.7-8.85-.48-11.45-5.15-1.23-2.21-2.43-4.04-2.41-6.88.02-3.04-5.14-4.54-6.34-1.93-1.97,4.27-6.26,3.47-9.28,6.24v-12.24c3.68-.26,6.53-1.38,6.14-5.92-.16-1.8,1.48-3.71,2.78-3.43,2.2.48,5.3-.95,6.57,2.27,1.21,3.05,3.2,5.17,6.38,2.87,2.88-2.08,2.44-5.03.65-7.98-3.76-6.19-10.06-5.95-16.58-6.92-1.71-10.04-12.47-14.58-15.83-24.99,3.93,1.55,6.51,1.61,8.2-2.14ZM48.71,213.1c4.03-.11,6-3.09,8.71-5.15,4.28-3.25,9.38-3.97,14.6-4.23,7.47-.37,15.06,1.22,22.41-.65,15.45-3.92,31.64-4.44,46.35-12.08,9.58-4.97,20.58-4.12,30.49.37,10.56,4.78,21.61,6.67,32.79,9.15,12.77,2.84,25.33,2.55,38,3.5,5.43.4,10.42,2.23,13.99,6.71.66.83,1.41,1.61,2.4,1.61,6.15.03,6.14,4.16,6,8.6-.14,4.48-.03,8.97-.03,14H46.2c0-6.13,0-12.07,0-18.02,0-1.86.85-3.78,2.52-3.83ZM46.14,244.07c1.22-1.32,2.79-.84,4.23-.84,70.77-.03,141.53-.02,212.3-.09,2.4,0,4.01.68,5.45,2.58,2.16,2.87,4.58,5.55,7.4,8.91H36.26c3.66-3.91,6.78-7.22,9.87-10.56ZM29.39,263.04h252.58v10.35H28.91c-.42-3.64-.6-6.92.49-10.35Z"/>
      <path class="cls-1" d="M12.72,8.06c8.47.13,16.95.04,25.38.04.35,1.15.7,1.92.81,2.73,4.11,29.69,11.31,58.71,19.37,87.52,7.83,27.99,16.71,55.65,28.13,82.44,1.11,2.61,2.55,5.11,5.86,3.89,3.26-1.2,3.03-3.81,1.83-6.61-14.76-34.43-25.33-70.24-34.61-106.45-5.32-20.76-9.99-41.68-12.79-63.37h194.79c-.2,2.01-.27,3.83-.56,5.61-2.89,17.39-6.78,34.56-11.33,51.58-9.66,36.12-21.39,71.57-34.47,106.58-1.04,2.79-2.07,5.71,1.68,7.07,3.31,1.19,4.65-1.12,5.7-3.9,16.16-43.09,30.38-86.77,40.81-131.63,2.71-11.64,4.8-23.4,6.62-35.47h5.74c67.81,0,135.63,0,203.44,0,1.17,0,2.33-.02,3.5,0,2.76.04,4.59-1.16,4.57-4.04-.02-2.93-2.06-3.93-4.69-4.01-1.33-.04-2.67,0-4,0-60.98,0-121.97,0-182.95,0-87.64,0-175.28,0-262.93.03-3.19,0-7.51-.96-7.47,4.11.04,5.18,4.5,3.84,7.58,3.89Z"/>
      <path class="cls-1" d="M463.66,397.88c-1.5,0-3-.02-4.5-.02-70.15,0-170.3,0-240.45,0s-140.3,0-210.45,0c-1.5,0-3-.02-4.5.04-2.43.1-3.62,1.57-3.74,3.83-.13,2.39,1.31,3.77,3.54,4.08,1.8.25,3.66.11,5.49.11,140.3,0,310.61,0,450.91,0,1.33,0,2.69.12,3.99-.06,2.5-.35,3.96-1.97,3.78-4.43-.17-2.23-1.68-3.54-4.06-3.55Z"/>
      <path class="cls-1" d="M91.41,36.48c-.67-3.47.16-9.13-5.51-8-5.59,1.11-2.85,6.29-2.23,9.66,6.97,37.9,16.35,75.23,27.6,112.08,2.23,7.3,4.68,14.53,7.04,21.78.74,2.27,2.19,3.88,4.72,3.51,2.21-.33,3.51-1.79,3.26-5.04-.37-1.11-.98-3-1.6-4.88-14.04-42.28-24.86-85.39-33.29-129.11Z"/>
      <path class="cls-1" d="M171.89,160.71c-.24,2.65.43,4.77,3.33,5.19,2.93.43,4.25-1.5,4.61-4.08.35-2.47.4-4.98.66-7.46,3.55-33.78,6.12-67.64,7.73-101.58,0-8.33.02-16.65-.01-24.98-.01-2.82-.99-5.03-4.28-4.91-2.97.11-3.89,2.11-3.78,4.8.03.83,0,1.67.02,2.5.21,30.01-2.04,59.88-4.61,89.75-1.17,13.6-2.43,27.18-3.67,40.77Z"/>
      <path class="cls-1" d="M143.46,49.28c-.32-3.4.76-8.55-4.88-7.85-5.04.63-3.35,5.34-3.05,8.6,3.5,38.47,7.11,76.93,10.61,115.4.28,3.07.64,6.07,4.38,5.97,3.91-.11,4.03-3.23,3.78-6.27-.31-2.81-.68-5.62-.94-8.44-3.3-35.81-6.56-71.62-9.89-107.42Z"/>
      <path class="cls-1" d="M370.36,81.94c-1.44-1.26-3.04-1.29-4.59-.23-7.76,5.3-8.47,12.94-7.77,21.49.37,4.54.05,8.98,3.38,12.6.67.73,1.44,1.43,2.29,1.9,1.4.77,2.06,1.88,2.71,3.34,2.51,5.68,15.61,11.21,21.61,9.31.63-.2,1.27-.42,1.84-.75.91-.53,1.78-.7,2.83-.35,5.37,1.79,9.08-1.2,12.98-4.27,4.21-3.33,8.78-6.19,9.73-12.08.02-.13.25-.21.35-.34,3.15-4.15,3.08-7.54-.3-11.72-1.62-2.01-3.43-3.91-6.31-2.44-2.7,1.38-2.32,3.71-1.3,6.69-4,.99-5.04,3.57-3.79,7.15-4.07.59-6.79,1.7-5.18,6.48.8,2.36-2.56,3.11-2.91,2.65-4.23-5.56-7.12-.22-10.49,1.34-1.68-3.08-3.5-4.76-7.27-3.1-2.96,1.31-4.82-.33-4.4-3.72.31-2.45-.27-4.27-2.81-5.05-5.13-1.57-6.62-4.96-3.55-9.63,2.11-3.22,2.3-5.62-.86-7.98,1.6-2.53,4.19-4.06,5.12-6.88.62-1.89.04-3.25-1.3-4.42Z"/>
      <path class="cls-1" d="M455.69,176.53c-1.25.99-3.15.9-4.76.19-1.78-6.2-2-6.29-8.3-3.99-1.5.55-3.87.53-3.43-1.28,1.59-6.61-2.1-8.02-7.3-8.47-.36-.03-.66-.67-1.17-1.21,2.77-5.1,2.7-6.35-.25-8.37-3.09-2.12-3.26-4.41-.17-6.4,2.22-1.43,2.98-3.23,1.93-5.45-1.59-3.35.54-4,2.94-4.77,2.21-.71,5.51.37,6.61-1.51,2.64-4.52,5.65-3.45,9.2-1.8,2.33,1.08,4.37.41,5.34-1.99.93-2.3.2-4.37-2.18-5.37-2.13-.89-4.45-2.16-6.6-2.01-8.39.59-16.65,3.7-21.67,9.86-3.88,4.78-6.22,11.82-5.78,18.97.19,3.14,2.14,5.4,2.76,8.35,1.76,8.44,8.85,13.32,14.42,19.11.81.84,2.85.68,4.31.67,1.41-.02,2.46.31,3.55,1.28,5.38,4.81,12.27,2.26,18.4,3.48,1.09.22,2.8-1.11,3.75-2.16,2.11-2.33,1.68-5.13-1.02-6.21-3.24-1.3-6.65-4.05-10.56-.93Z"/>
      <path class="cls-1" d="M461.64,217.87c-2.3,3.8-6.8,6.71-5.9,12.08q-4.97.18-7.09,4.63c-4.22-3.74-6.9,1.8-10.68,1.4-2.79-.29-5.01,1.32-4.68,4.45.33,3.13,2.77,3.98,5.54,3.45,6.26-1.2,12.54-.25,18.77-4.31,5.29-3.45,10.89-13.89,10.32-19.28-.33-3.13-4.76-4.94-6.28-2.42Z"/>
      <path class="cls-1" d="M141.69,214.77c2.67-.59,3.63,1.12,3.72,3.57,8.51-2.88.11-5.42.53-8.13-2.87.55-4.13,1.85-4.25,4.57Z"/>
      <path class="cls-1" d="M86.44,217.35c2.1-.05,3.35-1.28,3.76-3.97q-6.93-2.53-7.93,1.28c5.04-3.5,1.9,2.33,4.17,2.69Z"/>
      <path class="cls-1" d="M202.93,217.51c2.86-.47,4.4-1.56,4.23-4.65-2.68.62-3.07-1.53-3.53-3.3-2.68.15-3.92,1.44-4.48,4.04,1.93.55,4.24.98,3.78,3.9Z"/>
      <path class="cls-1" d="M86.91,221.83c-2.84-.02-4.54,1.02-4.55,4.48,3.07-1,2.79,1.96,3.84,3.35,2.64-.59,4.09-1.8,3.94-5.13-4.03,2.3-2.7-1.15-3.23-2.69Z"/>
      <path class="cls-1" d="M245.57,212.67c-3.51,1.13-3.15-1.7-3.89-3.13-2.85.3-3.93,1.79-4.26,4.09q6.75,2.59,8.15-.96Z"/>
      <path class="cls-1" d="M124.93,217.46q3.16-1.31,4.09-4.2-6.44-2.43-8.11,1.02c3.64-1.22,3.15,1.78,4.01,3.18Z"/>
      <path class="cls-1" d="M242.11,221.8c-3.08-.24-4.22,1.25-4.45,3.74q6.63,3.44,7.69-.49c-2.37.22-3.65-.86-3.24-3.24Z"/>
      <path class="cls-1" d="M221.74,227.28c3.01,3.01,2.95,3.06,4.78-1.28-2.08-.35-3.47-1.53-3.47-3.74-2.78.29-4.23,1.57-4.46,4.06.8,1.33,2.39.21,3.14.96Z"/>
      <path class="cls-1" d="M122.27,223c-3.57,4.07,4.34,3.23,2.35,6.59,2.78-.31,4.18-1.41,4.69-4.9-3.55,2.73-2.98-6.33-7.04-1.7Z"/>
      <path class="cls-1" d="M187.49,216.52c2.81-3.95-4.12-3.23-2.77-6.49-2.77.49-3.9,1.91-4.47,4.96,3.32-2.13,3.37,6.94,7.24,1.52Z"/>
      <path class="cls-1" d="M109.26,216.57c3.44-4.13-4.89-2.89-2.63-6.65-2.6.62-3.83,1.76-4.33,4.86,3.19-1.79,3.07,6.46,6.96,1.79Z"/>
      <path class="cls-1" d="M70.23,216.89c4.04-4.07-4.48-3.34-1.96-7.01-3.11.61-4.57,1.82-4.86,4.88,3.45-2.39,2.69,6.29,6.82,2.13Z"/>
      <path class="cls-1" d="M70.16,229.08c4.06-4.12-4.25-3.49-2.21-6.84-2.8.33-4.15,1.53-4.61,4.82,3.4-2.1,2.98,5.92,6.83,2.02Z"/>
      <path class="cls-1" d="M148.4,203.14c3.88-4.03-4.77-3.17-2.19-6.77-2.92.35-4.23,1.6-4.6,4.79,3.24-1.77,3.09,5.83,6.79,1.98Z"/>
      <path class="cls-1" d="M105.43,227.39q2.67,3.38,5.13-2.05c-3.71,1.55-3.13-1.88-4.37-3.19-2.19.59-3.57,1.6-3.92,3.91.8,1.59,2.38.35,3.15,1.33Z"/>
      <path class="cls-1" d="M221.77,215.36c.42,1.07-.52,3.04,1.68,2.61,1.91-.37,3.05-1.84,2.79-4.57-3.42,1.6-2.35-2.26-3.57-3.17-2.7.48-4.02,1.7-3.98,3.95.77,1.51,2.71.22,3.08,1.18Z"/>
      <path class="cls-1" d="M164.43,203.98c2.74-.89,4.12-2.07,3.77-4.86-2.8.82-2.34-2.76-3.86-3.06-2.68-.53-3.47,1.7-4.07,4.51,2.77-.49,3.03,1.89,4.16,3.41Z"/>
      <path class="cls-1" d="M144.76,229.18c-.24.83,1.17.89,1.93.76,1.4-.24,2.36-1.07,2.69-2.51.2-.85-.01-2.14-.78-1.9-3.61,1.13-1.31-2.92-3.2-3.32-1.97.45-3.38,1.59-3.8,4.01.62,1.67,4.16-.47,3.17,2.95Z"/>
      <path class="cls-1" d="M203.89,221.74c-2.76.31-4.5,1.16-4.53,4.36,2.77-.57,3.03,1.95,3.91,3.52,2.51-.54,4-1.57,3.95-4.41-1.89-.25-3.48-1.15-3.33-3.47Z"/>
      <path class="cls-1" d="M164.84,221.58c-3.11.49-4.16,1.91-4.5,4.95,4.15-2.28,2.33,2.48,4.37,3.08,2.15-.51,3.68-1.51,3.48-4.39-2.25.14-3.24-1.34-3.35-3.64Z"/>
      <path class="cls-1" d="M187.22,228.89c3.52-3.92-4.05-3.47-2.27-6.74-2.58.56-4.17,1.54-4.7,5.01,3.47-2.62,3.02,6.12,6.97,1.73Z"/>
      <path class="cls-1" d="M164.7,209.86c-6.01,2.22-.54,4.38-.83,6.57-.14,1.09,2.26,1.03,3.21.08,4.4-4.4-3.74-3.43-2.39-6.64Z"/>
      <path class="cls-1" d="M406.9,214.44c1.26-.97,1.95-2.34,1.76-3.89-.22-1.74-1.21-3.05-3.03-3.52-1.07-.27-2.33.3-3.63-1.06,2.12-2.26,3.48-5.16.03-7.23-3.39-2.03-6,.37-8.06,2.79-2.25,2.64-1.62,8.57.87,10.98,2.62,2.54,9.76,3.7,12.06,1.92Z"/>
      <path class="cls-1" d="M381.05,212.24c-3.8-1.22-6.78.65-8.67,4.06-1.13,2.05-2.17,4.22-.07,6.36,2.53,2.58,4.76.87,7.34-.99,1.16,3.51,2.12,6.77,6.17,5.38,2.95-1.01,3.72-3.81,3.07-6.54-.99-4.13-3.91-7.01-7.84-8.27Z"/>
      <path class="cls-1" d="M379.19,192.09c.4.59.84.96.89,1.37.37,3.22,2,5.01,5.32,4.28,2.83-.62,4.43-4.91,3.15-7.85-1.84-4.25-5.33-6.36-9.71-6.71-3.52-.29-5.99,1.84-7.37,4.95-.75,1.69-.91,3.65.75,5.08,2.6,2.24,4.81.62,6.97-1.11Z"/>
      <path class="cls-1" d="M360.23,215.7c1.26,1.45,2.85,1.79,4.49.9,1.72-.93,2.82-2.37,2.31-4.51-.25-1.03-1.03-1.73-.11-3.12,3.03-4.6,1.81-6.6-2.65-6.7-5.03-.57-5.98,2.34-7.35,5.03-2.13,4.19,1.23,5.99,3.31,8.39Z"/>
      <path class="cls-1" d="M430.59,334.63c2.82-.59,5.8-.56,6.52-3.91.44-2.07-.61-4-2.5-4.28-4.23-.62-5.28-3.05-5.17-6.84.06-1.92-1.51-2.9-3.24-3.22-1.6-.3-3.07.39-3.77,1.81-1.86,3.76-1.84,7.63-.2,11.51,1.63,3.87,5.51,3.71,8.36,4.93Z"/>
      <path class="cls-1" d="M297.17,137.98c-3.39.25-5.35,2.44-6.57,5.31-.71,1.68-.96,3.53.6,5.07,2.3,2.28,4.48.86,6.72-.34.92,2.69,1.89,5.4,5.37,4.65,2.64-.57,3.59-2.92,3.74-5.29.28-4.28-5.57-9.72-9.86-9.41Z"/>
      <path class="cls-1" d="M317.23,141.72c2.92.79,6.24.54,7.15-3.31.92-3.88-1.98-4.69-5.38-5.2,1.49-2.82,2.29-5.24-.4-6.98-2.52-1.63-4.82-.29-6.77,1.31-2.58,2.12-2.63,4.75-2.02,8.03.84,4.49,4.24,5.29,7.42,6.16Z"/>
      <path class="cls-1" d="M297.95,121.12c.45,3.91,2.45,6.17,6.01,4.49,3.27-1.54,3.86-4.71,2.12-8.06-1.87-3.59-5.06-5.15-8.86-5.42-3.17-.23-5.36,1.67-6.68,4.32-.9,1.81-1.09,3.86.71,5.48,2.37,2.14,4.48.58,6.7-.8Z"/>
      <path class="cls-1" d="M286.81,137.37c-.36-1.08.55-1.39,1.03-1.99,1.11-1.37,1.68-2.77.71-4.54-1.05-1.94-2.76-2.17-4.64-2.17-4.14.11-8.13,4.45-7.15,8.41.82,3.31,3.1,6.17,6.85,6.06,3.44-.11,4.22-2.7,3.2-5.77Z"/>
    </g>
  </g>
</svg>