<?xml version="1.0" encoding="UTF-8"?>
<svg id="Capa_2" data-name="Capa 2" xmlns="http://www.w3.org/2000/svg" viewBox="0 0 257.12 300">
  <defs>
    <style>
      .cls-1 {
        fill: #010101;
        stroke-width: 0px;
      }
    </style>
  </defs>
  <g id="Capa_1-2" data-name="Capa 1">
    <g>
      <path class="cls-1" d="M42.31,94.49c-16.3-1.49-25.6-11.59-24.42-25.81.51-6.12,2.72-11.56,5.8-16.95,6.6-11.54,13.77-22.61,22.53-32.61,4.74-5.41,9.77-10.53,15.84-14.51,3.45-2.26,7.14-3.49,11.31-3.62,4.71-.15,9.36-1.51,14.11-.77,4.19.65,5.26,2.27,4.36,6.32-.13.58-.29,1.15-.43,1.72-1.01,4.23-.65,4.6,3.71,4.57,4.07-.03,7.86,1.55,11.72,2.53,2.47.63,3.08,3.18,3.21,5.47.61,10.53,4.93,19.82,9.33,29.13,1.31,2.76,2.51,3.53,5.58,2.21,10.45-4.49,21.33-7.54,32.7-8.68,4.59-.46,8.93.04,13.03,2.31,4.13,2.28,8.59,3.95,12.47,6.69,4.59,3.23,4.76,5.57.71,9.28-3.95,3.63-3.9,3.71.54,6.72,3.16,2.14,5.49,5.2,7.91,8.07,1.85,2.19.9,4.83-.31,7.03-7.11,12.9-7.71,27.06-8.19,41.26-.02.47-.06.98.08,1.41,2.12,6.34-1.7,10.03-6.08,13.32-6.34,4.77-13.35,7.89-21.38,8.7-7.3.74-12.5-2.58-17.38-7.5-9.24-9.31-18.34-18.8-29.18-26.34-3.69-2.57-7.6-4.69-12.58-5.13,1.94,4.65,4.76,8.43,7.62,12.08,4.79,6.1,9.23,12.6,15.94,16.93,1.63,1.05,2.05,2.85,2.13,4.64.53,12.21-3.11,22.79-12.35,31.13-2.27,2.05-4.91,3.12-8,3.39-7.91.67-15.84.35-23.75.53-7.57.17-15.11.63-22.56,2.13-3.5.7-6.81,1.88-9.94,3.63-11.24,6.25-25.25,1.57-30.88-10.12-3.2-6.63-3.36-13.15-1.54-20.34,3.14-12.37,7.62-24.24,12.96-35.69,3.79-8.14,8.54-16.03,15.36-23.11ZM152.34,82.36c-1.99-.1-2.81.9-3.86,1.36-4.28,1.85-8.64,2.38-13.1.78-1.36-.49-2.58-1.34-2.73-2.96-.15-1.65.99-2.59,2.24-3.33,2.37-1.41,4.99-2.1,7.69-2.55,6.58-1.08,13.2-.55,19.82-.63,3.18-.04,4.09,1.65,4.03,4.29-.03,1.27-.35,2.59-.79,3.79-5.66,15.54-28.44,21.33-40.99,10.43-4.62-4.01-6.4-9.47-4.26-13.63,3.44-6.68,8.73-11.4,15.79-13.93,6.89-2.48,13.85-4.7,21.13-5.88,1.62-.26,3.83.02,5.62-1.94-1.94-.16-3.21-.37-4.49-.35-13.48.16-26.6,1.94-38.49,8.96-2.15,1.27-4.08,2.81-5.92,4.48-11.62,10.55-8.04,20.52,1.27,28.29,12.18,10.17,32.41,10,46.11.44,6.75-4.71,11.68-10.69,12.97-19.08,1.04-6.72-2.43-11.24-9.16-12.22-10.26-1.49-20.14-.15-29.7,3.8-4.12,1.71-6.98,5.77-6.69,9.5.28,3.66,3.06,6.29,7.87,7.55,2.56.67,5.12.83,7.73.41,4.22-.68,6.43-3.41,7.92-7.59ZM75.68,41.01c-2.97,6.33-6.79,10.36-12.83,11.93-1.31.34-2.53.66-3.41-.4-.83-1-1.15-2.28-.7-3.66.52-1.62,1.42-3.01,2.53-4.23,5.74-6.33,12.85-10.81,20.26-14.86,1.8-.98,3.43-.4,4.6,1.35.94,1.4,1.55,2.94,1.82,4.58,1.45,8.88-2.27,21.36-11.8,26.06-3.39,1.67-6.83,3.54-10.37,4.35-4.26.98-9.23,1.05-12.81-2-5.3-4.52-6.37-11.82-3.88-18.53,3.5-9.41,10.63-16.07,17.15-23.21,1.8-1.96,4.06-3.51,5.55-5.91-1.11-.55-1.76.04-2.41.5-3.76,2.67-7.69,5.14-11.21,8.09-8.88,7.46-16.73,15.78-19.98,27.34-3.71,13.17,1.48,21.43,14.94,23.86,1.84.33,3.77.34,5.65.27,16.65-.57,31.75-14.1,36.09-28.92,2-6.82,2.29-13.78-1.65-20.25-3.29-5.39-8.06-6.92-13.63-3.98-4.85,2.55-9.73,5.16-13.74,9-4.07,3.91-8.63,7.41-10.61,13.06-1.94,5.52,1.89,11.85,7.31,11.89,8.8.06,14.45-6.44,13.14-16.33ZM63.79,128.07c-1.43,3.87-3.24,7.34-5.74,10.39-1.47,1.8-6.22,3.49-7.63,2.44-2.68-2.01-1.08-4.48-.36-6.76.28-.88.85-1.68,1.34-2.49,3.72-6.13,8.95-10.9,14.16-15.69,3.82-3.51,6.11-3.29,8.33,1.45,3.57,7.65,3.68,15.57-.22,23.09-3.17,6.1-8.7,9.98-14.88,12.64-10.44,4.49-18.43-.19-19.96-11.59-.96-7.16,1.51-13.4,4.7-19.32,3.4-6.29,7.14-12.44,11.39-18.25.51-.69,1.55-1.24.85-2.63-9.24,8.56-17.32,17.85-22.3,29.48-3.03,7.07-4.83,14.39-3.5,22.2.81,4.76,3.15,8.4,7.5,10.53,4.47,2.18,9.24,2.94,14.15,2,16.18-3.1,29.72-17.1,32.02-33.44,1.08-7.66.34-15.13-4.65-21.6-3.97-5.15-9.27-6.1-14.54-2.38-8.12,5.73-13.8,13.5-18.34,22.19-1.25,2.38-1.52,4.97-1.26,7.6.6,6.17,6.64,9.27,11.97,6.12,2.08-1.23,3.98-2.76,5.95-4.15,3.41-2.41,3.81-8.05,1-11.82Z"/>
      <path class="cls-1" d="M203.27,155.35c5.29,6.88,11.21,12.47,15.07,19.87-6.93-4.09-14.14-7.29-21.75-9.64-7.54-2.33-15.34-2.84-23.44-4.34,1.71,9.56,5.54,17.63,10,25.42,5.29,9.22,11.76,17.57,19.16,25.21,15.28,15.78,33.14,28.1,52.3,38.59,2.77,1.52,3.13,2.88,1.64,5.46-4.22,7.31-9.28,13.94-15.13,20.04-16.37,17.08-36.97,23.41-59.93,24.03-2.86.08-3.55-.89-3.53-3.65.13-20.7-2.43-41.02-8.77-60.8-4.45-13.88-10.46-27.03-19.06-38.84-3.77-5.17-8.08-9.95-12.24-14.83-.87-1.02-1.69-2.34-3.7-2.41,3.23,12.36,7.92,23.84,15.69,34.17-7.61-3.4-13.99-8.65-21.35-13.84v23.89c-2.35-1.25-3.05-3.04-3.86-4.58-6.46-12.29-8.12-25.18-5.44-38.85,1.14-5.82,3.47-10.71,7.05-15.29,3.65-4.67,4.81-10.86,4.14-19.3,1.63.21,2.18,1.66,3.05,2.56,11.48,11.91,23.35,13.09,37.66,4.83,17.59-10.16,35.84-10.89,54.24-1.75.32.16.63.34.91.55.18.13.31.34.87,1.01-7.87.84-15.39,1.64-23.58,2.51ZM135.79,162.53c1.64,5.23,3.44,9.7,7.12,13.56,15.86,16.59,29.14,35,39.13,55.76,3.38,7.03,5.9,14.38,8.88,22.34.78-5.9-.81-10.74-1.83-15.6-2.25-10.64-6.73-20.5-11.67-30.09-6.51-12.65-14.76-24.14-23.76-35.18-4.7-5.76-10.33-9.09-17.87-10.8Z"/>
      <path class="cls-1" d="M194.67,69.29c3.94-3.18,8.13-4.72,12.65-5.28,6.49-.79,11.82,3.89,12.1,10.39.14,3.23-.24,6.34-1.52,9.36-1.31,3.08-.67,3.97,2.76,4.14,3.41.17,6.8-.12,10.34-.75-6.07,14.5-24.96,34.26-40.56,35.99-1.29-1.15-.73-2.59-.47-3.93,2.24-11.54,5.8-22.65,11.34-33.05,1.96-3.69,1.4-7.03-.71-10.35-1.53-2.39-3.61-4.32-5.92-6.53Z"/>
      <path class="cls-1" d="M142.05,20.42c2.85-1.65,4.85-4.02,7.94-4.85,10.12-2.7,15.9,6.13,14.96,13.88-.38,3.16-2.59,4.57-5.69,4.76-9.39.59-18.42,2.87-27.23,6.07-1.44.52-3.02.94-4.2,1.84-2.35,1.79-3.64.78-4.62-1.37-1.62-3.56-2.91-7.23-3.6-11.09-.12-.68-.22-1.53.07-2.08,2.74-5.08,5.07-10.47,9.72-14.22,2.76-2.23,5.5-1.96,8.14.91,1.66,1.8,2.92,3.95,4.52,6.16Z"/>
      <path class="cls-1" d="M21.02,102.5c-3.39,9.91-6.7,18.99-10.5,27.88-1.6,3.74-3.79,3.96-6.49.91-5.73-6.48-5.31-15.34,1.01-21.24,4.35-4.06,9.66-6.05,15.98-7.55Z"/>
      <path class="cls-1" d="M176.99,36.18c3.67-2.75,7.4-4.39,11.49-5.03,3.62-.57,6.2,1.51,6.83,5.07.94,5.34-.56,10.45-4.21,13.38-4.23-4.77-8.93-9.13-14.12-13.42Z"/>
    </g>
  </g>
</svg>