<?xml version="1.0" encoding="UTF-8"?>
<svg id="Capa_2" data-name="Capa 2" xmlns="http://www.w3.org/2000/svg" viewBox="0 0 237.16 299.68">
  <defs>
    <style>
      .cls-1 {
        fill: #020202;
        stroke-width: 0px;
      }
    </style>
  </defs>
  <g id="Capa_1-2" data-name="Capa 1">
    <g>
      <path class="cls-1" d="M234.67,122.7c-1.82-7.45-4.58-14.54-8.29-21.25-1.73-3.13-5.46-4.26-8.48-2.69-2.99,1.54-4.33,5.33-2.72,8.29,4.51,8.27,7.48,17.03,8.8,26.36.43,3.04.54,6.09.7,9.14.02.42.16.98-.51,1.07-.63.09-.68-.46-.85-.86-.23-.52-.43-1.05-.71-1.54-3.94-6.96-9.92-10.54-17.9-10.04-7.39.46-12.68,4.4-15.86,11.1-.84,1.77-1.4,1.91-2.82.54-.9-.87-1.77-1.76-2.63-2.67-9.98-10.67-16.09-23.41-19.92-37.36-2.36-8.6-3.59-17.38-4.34-26.24-.2-2.39-.26-4.8-.38-7.27,8.33.95,16.01,3.3,23.39,6.74,3.34,1.56,7.16.3,8.6-2.74,1.55-3.26.22-6.88-3.19-8.54-3.97-1.93-8.08-3.5-12.3-4.78-4.85-1.47-9.82-2.41-14.83-3.12.03-.64.47-.89.73-1.23,6.16-8.07,8.56-17.09,6.84-27.14-3.8-22.21-27.88-34.79-48.24-25.2-.85.4-1.47.41-2.33,0-6.66-3.09-13.59-4.04-20.84-2.61-20.84,4.12-32.93,25.1-25.99,45.18,1.38,3.98,3.54,7.53,6.33,10.92-1.63.28-3.05.53-4.47.78-21,3.73-38.42,13.77-52.1,30.09C6.81,103.8.02,122.55.01,143.69c-.02,49.54,0,99.09,0,148.63,0,.45,0,.91.01,1.36.13,3.39,2.73,5.98,6.14,5.98,14.58.02,29.17.02,43.76,0,2.98,0,5.26-1.9,6.07-4.74.51-1.79-.03-3.34-.71-4.92-5.67-13.2-11.34-26.4-17.01-39.6-.3-.7-.34-1.32-.09-2.09,2.43-7.65,4.79-15.33,7.18-22.99,3.28-10.51,6.57-21.02,9.88-31.52,2.19-6.94,4.46-13.86,6.6-20.82.35-1.15.66-1.91,1.95-2.33,20.61-6.64,36.6-19.23,48.1-37.56,2.58-4.11,4.7-8.45,6.57-12.88.43.05.41.31.49.51,3.44,8.34,8.06,15.97,13.89,22.84,10.93,12.89,24.42,21.97,40.52,27.15.64.21,1.61.12,1.71,1.12.21,2.06,1.2,3.87,1.81,5.8,7.35,23.55,14.71,47.09,22.1,70.63.26.83.18,1.49-.14,2.25-5.75,13.35-11.5,26.7-17.21,40.07-2.01,4.7.97,9.07,6.1,9.07,14.24,0,28.49,0,42.73,0,.62,0,1.26,0,1.85-.15,3.2-.78,4.83-3.09,4.84-6.83,0-49.88,0-99.77,0-149.65,0-6.89-.86-13.66-2.49-20.34ZM130.14,13.11c6.9-1.87,15.76,1.01,21,7.52,5.82,7.24,6.51,17.29,1.7,25.09-4.83,7.83-14.03,11.87-22.74,9.96,9.74-14.19,9.76-28.38.05-42.58ZM86.37,20.23c5.27-6.23,13.85-8.92,20.81-7.1-4.78,6.29-7.32,13.33-7.33,21.23,0,7.91,2.56,14.93,7.42,21.37-10,2.04-19.14-3.23-23.3-10.64-4.51-8.03-3.58-17.79,2.4-24.86ZM40.06,286.34c.08.2.13.41.23.7H12.51v-31.08c2.13,0,4.21,0,6.28,0,2.44,0,4.88.03,7.31-.01.73-.01,1.07.21,1.37.91,4.17,9.84,8.39,19.66,12.59,29.48ZM26.59,243.44h-14.11v-57.14c3.28,1.01,6.54,1.36,9.88.67,3.29-.67,6.16-2.16,8.81-4.41,3.67,3.16,7.95,4.78,12.93,4.8-5.86,18.76-11.68,37.39-17.52,56.08ZM24.95,168.75c-.1,3.37-2.86,6-6.32,5.98-2.92-.01-5.4-2.01-5.96-4.8-.61-3.03.89-5.94,3.62-7.11.7-.3,1.2-.28,1.77.34,1.64,1.77,3.65,3.05,5.87,3.94.89.36,1.03.84,1.01,1.65ZM24.94,149.78c.04-3.42,2.86-6.12,6.36-6.1,3.34.02,6.15,2.82,6.16,6.14.02,3.39-2.84,6.2-6.29,6.18-3.47-.01-6.28-2.82-6.24-6.23ZM49.76,169.91c-.6,2.84-3.14,4.83-6.15,4.82-3.43-.01-6.15-2.76-6.11-6.13,0-.75.15-1.2.96-1.51,2.24-.85,4.22-2.2,5.86-3.94.68-.72,1.22-.56,1.9-.26,2.62,1.16,4.14,4.18,3.53,7.02ZM53.78,142.8c-1.05,1.03-2.17.64-3.29.85-1.64.32-1.88-.84-2.43-1.9-3.73-7.14-9.64-10.91-17.72-10.58-7.56.31-12.94,4.26-16.27,11.03-.27.54-.18,1.63-1.13,1.39-.88-.22-.44-1.17-.41-1.77,1.22-26.49,12.94-47.05,35.09-61.57,9.55-6.26,20.16-9.72,31.48-11.08.6-.07,1.22,0,1.91,0-.8,19.48-3.98,38.28-13.47,55.56-3.68,6.7-8.27,12.72-13.75,18.07ZM112.04,93.95c-1.22,13.88-5.99,26.49-14.27,37.73-7.97,10.81-18.15,18.87-30.76,24.52.48-1.58.83-2.81,1.22-4.03.56-1.74.61-3.47-.25-5.1-.33-.63-.22-1.01.2-1.49,11.75-13.63,18.35-29.69,22.02-47.09,1.85-8.76,2.88-17.63,3.19-26.59.03-1,0-2.01,0-3.07h18.76c.39.41.21.89.21,1.32-.05,7.94.38,15.89-.32,23.81ZM118.69,49.42c-7.53-6.58-9.15-21.08-.13-30.17,8.25,7.99,8.27,21.77.13,30.17ZM170.16,156.08c-3.87-1.69-7.34-3.5-10.63-5.66-17.85-11.75-29.02-28.08-33.37-49.01-1-4.83-1.34-9.76-1.36-14.69-.02-5.89,0-11.79,0-17.88h21.34c.23,3.27.45,6.52.69,9.78.96,12.9,3.38,25.5,7.88,37.67,3.86,10.43,7.14,16.21,16.22,28.58-3.99,3.3-2.04,7.18-.76,11.23ZM213.14,167.13c2.28-.9,4.35-2.2,6.01-4.03.61-.67,1.15-.51,1.78-.24,2.74,1.19,4.19,4.11,3.56,7.14-.59,2.82-3.14,4.77-6.2,4.73-3.32-.04-6.03-2.76-6.07-6.05,0-.73.07-1.21.92-1.55ZM206.01,143.68c3.47.02,6.27,2.83,6.22,6.24-.05,3.29-2.89,6.14-6.04,6.08-3.27-.06-6.45-3.08-6.48-6.15-.03-3.36,2.86-6.18,6.31-6.17ZM187.41,169.97c-.62-2.85.85-5.84,3.47-7.06.77-.36,1.32-.43,2.03.31,1.66,1.72,3.64,3.05,5.89,3.91.65.25.83.59.86,1.23.19,3.47-2.62,6.37-6.22,6.36-2.92,0-5.43-1.99-6.03-4.76ZM193.06,187.37c4.9-.07,9.17-1.57,12.89-4.82,2.56,2.16,5.44,3.71,8.76,4.4,3.34.69,6.62.43,9.94-.69v57.13h-14.08c-5.82-18.63-11.64-37.24-17.51-56.02ZM224.64,287.06h-27.84c1.7-3.99,3.35-7.87,5.01-11.75,2.6-6.09,5.2-12.17,7.81-18.25.21-.49.24-1.11,1.05-1.11,4.63.02,9.27,0,13.97,0v31.1Z"/>
      <path class="cls-1" d="M205.66,90.93c3.41-.01,6.26-2.93,6.2-6.34-.06-3.44-2.94-6.23-6.38-6.18-3.47.05-6.25,2.91-6.19,6.36.06,3.42,2.91,6.18,6.37,6.16Z"/>
    </g>
  </g>
</svg>