<?xml version="1.0" encoding="UTF-8"?>
<svg id="Capa_2" data-name="Capa 2" xmlns="http://www.w3.org/2000/svg" viewBox="0 0 134.71 300">
  <defs>
    <style>
      .cls-1 {
        fill: #070707;
        stroke-width: 0px;
      }
    </style>
  </defs>
  <g id="Capa_1-2" data-name="Capa 1">
    <path class="cls-1" d="M62.74,199.73h-9.78c-1.99,7.3-4.01,14.64-5.98,22-6.54,24.46-13.06,48.92-19.6,73.38-.99,3.7-2.96,5.29-5.78,4.78-2.87-.52-4.26-3.13-3.36-6.56,3.16-11.95,6.34-23.89,9.55-35.82,5.08-18.92,10.18-37.83,15.26-56.74.07-.28.03-.59.06-1.17-7.06,0-14.07.04-21.08-.02-3.81-.03-6.14-3.3-4.68-6.48.95-2.07,2.69-2.75,4.93-2.73,7.75.06,15.49.02,23.49.02,1.3-4.82,2.57-9.54,3.98-14.75H0V22.39h62.74V7.95c0-.91-.02-1.81,0-2.72.1-3.23,1.83-5.18,4.61-5.23,2.85-.06,4.72,1.98,4.77,5.39.06,4.53.01,9.06.01,13.6,0,.99,0,1.98,0,3.21h62.57v153.25h-49.59c1.34,5.04,2.52,9.64,3.82,14.21.33,1.15,1.54.71,2.38.71,6.95.03,13.9,0,20.85.02,3.66,0,5.83,1.77,5.8,4.65-.03,2.86-2.2,4.55-5.9,4.56-6.71.01-13.42,0-20.5,0,2.18,8.17,4.25,16.01,6.35,23.83,6.12,22.8,12.26,45.6,18.38,68.4,1.22,4.53.28,7.24-2.7,7.98-3.15.79-5.07-.94-6.31-5.56-8.23-30.76-16.48-61.52-24.73-92.28-.2-.76-.5-1.5-.75-2.25h-9.34c-.58,1.17-.31,2.28-.31,3.36-.02,30.21-.03,60.42-.02,90.64,0,1.22.04,2.43-.5,3.54-.81,1.67-2.11,2.61-4.03,2.66-2.04.05-3.47-.83-4.35-2.64-.6-1.22-.52-2.54-.52-3.85,0-30.21,0-60.42,0-90.64v-3.08ZM125.46,31.67H9.46v134.43h116V31.67ZM62.53,190.26v-14.68c-1.38.23-2.94-.77-3.46,1.18-1.19,4.43-2.35,8.88-3.57,13.5h7.03ZM72.35,175.78v14.49h7.03c-1.09-4.13-2.24-8.06-3.13-12.06-.48-2.16-1.35-3.26-3.9-2.43Z"/>
  </g>
</svg>