<?xml version="1.0" encoding="UTF-8"?>
<svg id="Capa_2" data-name="Capa 2" xmlns="http://www.w3.org/2000/svg" viewBox="0 0 300 157.03">
  <defs>
    <style>
      .cls-1 {
        fill: #151716;
        stroke-width: 0px;
      }
    </style>
  </defs>
  <g id="Capa_1-2" data-name="Capa 1">
    <g>
      <path class="cls-1" d="M33.26,96.45c0-5,.01-9.92-.01-14.83,0-.63.36-.87.78-1.17,2.31-1.62,3.38-3.88,3.36-6.68,0-1.47,0-2.95,0-4.42-.04-4.52-3.16-7.68-7.7-7.75-2.25-.04-4.51,0-6.97,0,.36-7.49-1.1-38.86,2.32-45.94C29.74,5.92,37.47.67,48.29.02c.56-.03,1.13-.02,1.7-.02,66.7,0,133.4,0,200.09,0,15.65,0,27.03,11.33,27.1,26.97.02,3.56,0,30.91,0,34.61-2.34,0-4.54-.01-6.73,0-4.56.03-7.67,3.1-7.74,7.66-.03,1.64-.01,3.29,0,4.93.02,2.55,1.05,4.6,3.08,6.14.44.33.9.59.9,1.31-.03,4.91-.02,9.83-.02,14.82H33.26Z"/>
      <path class="cls-1" d="M149.98,100.56c46.35,0,92.7.07,139.05-.08,6.55-.02,11.25,4.81,10.96,11.01-.28,6.16-.05,12.35-.06,18.53-.02,5.91-4.14,10.03-10.08,10.03-93.21,0-186.41,0-279.62,0-6.15,0-10.2-4.08-10.22-10.23-.01-6.35-.01-12.69,0-19.04,0-6.09,4.14-10.22,10.25-10.22,46.58,0,93.15,0,139.73,0Z"/>
      <path class="cls-1" d="M22.87,77.55c-2.32,0-4.64.03-6.96,0-2.39-.03-3.63-1.3-3.67-3.69-.03-1.58-.04-3.17,0-4.75.06-2.06,1.35-3.45,3.38-3.47,4.75-.06,9.5-.06,14.25,0,2.18.02,3.45,1.36,3.51,3.53.04,1.58.03,3.17,0,4.75-.04,2.29-1.27,3.58-3.56,3.63-2.32.05-4.64.01-6.96.01Z"/>
      <path class="cls-1" d="M277.11,77.56c-2.32,0-4.65.03-6.97-.01-2.12-.04-3.41-1.28-3.48-3.35-.05-1.7-.06-3.4,0-5.1.07-2.2,1.36-3.46,3.54-3.48,4.65-.03,9.29-.03,13.94,0,2.2.01,3.5,1.29,3.55,3.45.04,1.7.05,3.4,0,5.1-.06,2.1-1.31,3.34-3.44,3.38-2.38.04-4.76,0-7.14,0Z"/>
      <path class="cls-1" d="M16.38,96.42v-14.7h12.76v14.7h-12.76Z"/>
      <path class="cls-1" d="M283.47,96.46h-12.72v-14.74h12.72v14.74Z"/>
      <path class="cls-1" d="M270.67,144.14h12.87c0,3.59.1,7.18-.05,10.76-.05,1.26-1.1,2.08-2.48,2.09-2.54.02-5.08.07-7.62,0-1.72-.05-2.67-1.11-2.69-2.85-.03-3.27,0-6.54,0-10Z"/>
      <path class="cls-1" d="M16.35,144.15h12.86c0,3.6.11,7.2-.06,10.79-.06,1.28-1.23,2.02-2.56,2.04-2.55.05-5.1.06-7.65,0-1.57-.04-2.56-1.11-2.58-2.78-.05-3.28-.01-6.56-.01-10.05Z"/>
    </g>
  </g>
</svg>