<?xml version="1.0" encoding="UTF-8"?>
<svg id="Capa_2" data-name="Capa 2" xmlns="http://www.w3.org/2000/svg" viewBox="0 0 164.01 300">
  <defs>
    <style>
      .cls-1 {
        fill: #060606;
        stroke-width: 0px;
      }
    </style>
  </defs>
  <g id="Capa_1-2" data-name="Capa 1">
    <g>
      <path class="cls-1" d="M117.43,247.2c-.43,3.28-.86,6.55-1.3,9.83-.55,4.1-2.75,6.67-7.03,5.84-4.29-.82-5.18-4.06-4.52-8.08,2.9-17.75-3.16-31.9-17.94-41.94-15.18-10.32-35.46-8.61-49.3,3.58-13.62,11.99-17.75,31.64-10.1,48.01,7.76,16.6,25.94,26.29,43.78,23.11,4.38-.78,8.21-.62,9.11,4.4.92,5.11-2.87,6.4-7.1,7.21-26.94,5.15-54.88-13.94-60.19-41.24-5.6-28.76,12.45-56.57,40.41-62.27,33.24-6.78,63.91,17.95,64.18,51.56Z"/>
      <path class="cls-1" d="M81.99,151.79c-.03-22.54,18.18-40.9,40.77-41.09,22.7-.19,41.33,18.41,41.25,41.19-.08,22.5-18.54,40.84-41.06,40.8-22.55-.04-40.92-18.39-40.96-40.9ZM152.26,151.81c.05-16.16-13.11-29.32-29.3-29.3-15.96.02-29.05,12.9-29.23,28.78-.19,16.19,12.79,29.43,29,29.6,16.15.17,29.47-12.95,29.52-29.08Z"/>
      <path class="cls-1" d="M122.99,36.94c16.19,0,29.36,13.2,29.3,29.38-.06,16.14-13.42,29.3-29.57,29.11-15.99-.19-28.95-13.17-29.01-29.09-.07-16.2,13.08-29.39,29.28-29.4ZM122.75,83.66c9.61.14,17.59-7.52,17.79-17.08.21-9.59-7.38-17.57-17.01-17.86-9.84-.3-18.03,7.56-18.09,17.37-.05,9.59,7.68,17.44,17.3,17.58Z"/>
      <path class="cls-1" d="M58.57,151.94c-.11,16.13-13.54,29.26-29.68,29C12.66,180.68-.23,167.39,0,151.16c.23-15.88,13.43-28.78,29.38-28.71,16.22.07,29.3,13.29,29.19,29.49ZM29.53,169.17c9.62-.14,17.36-8,17.31-17.57-.05-9.58-7.88-17.35-17.51-17.37-9.86-.03-17.8,8.04-17.59,17.86.2,9.57,8.17,17.22,17.79,17.09Z"/>
      <path class="cls-1" d="M93.71,17.52c.02,9.61-7.78,17.52-17.37,17.62-9.84.11-17.89-7.97-17.76-17.82C58.7,7.72,66.62-.05,76.24,0c9.61.05,17.45,7.91,17.47,17.52ZM82.01,17.88c-.33-3.57-2.09-5.91-5.73-6.05-3.35-.13-5.53,1.9-5.85,5.17-.36,3.62,1.75,5.98,5.29,6.29,3.64.32,5.58-1.98,6.3-5.41Z"/>
      <path class="cls-1" d="M64.59,107.14c-9.61.09-17.58-7.64-17.74-17.22-.16-9.85,7.84-17.91,17.7-17.84,9.63.07,17.44,7.91,17.45,17.51.01,9.59-7.79,17.46-17.42,17.55ZM64.26,83.88c-3.63.44-5.75,2.43-5.57,6.07.17,3.33,2.28,5.31,5.65,5.31,3.64,0,5.86-2.09,5.83-5.71-.03-3.64-2.34-5.46-5.91-5.67Z"/>
      <path class="cls-1" d="M66.91,217.92c13.11.2,26.16,13.11,26.78,27.3.17,4-.96,7.23-5.26,7.65-4.27.42-6.04-2.34-6.53-6.46-1.2-10.17-6.56-15.46-16.92-16.75-3.84-.48-6.47-2.14-6.3-6.11.18-4.34,3.22-5.84,8.22-5.63Z"/>
      <path class="cls-1" d="M97.75,286.33c-3.77-.47-5.85-2.51-5.61-6.24.22-3.45,2.46-5.37,5.83-5.24,3.7.14,5.73,2.43,5.51,6.14-.21,3.47-2.49,5.08-5.73,5.33Z"/>
      <path class="cls-1" d="M125.89,134.37c6.71.46,13.73,7.2,14.6,15.18.39,3.59-.31,6.79-4.39,7.64-4.21.87-6.72-1.19-7.21-5.42-.42-3.69-2.52-5.42-6.01-5.95-3.81-.57-6.18-2.74-5.58-6.7.6-3.98,3.59-5.18,8.6-4.75Z"/>
    </g>
  </g>
</svg>