<?xml version="1.0" encoding="UTF-8"?>
<svg id="Capa_2" data-name="Capa 2" xmlns="http://www.w3.org/2000/svg" viewBox="0 0 300 208.33">
  <defs>
    <style>
      .cls-1 {
        fill: #080a09;
        stroke-width: 0px;
      }
    </style>
  </defs>
  <g id="Capa_1-2" data-name="Capa 1">
    <g>
      <path class="cls-1" d="M272.69,88.8c2.89-24.9,5.65-48.69,8.44-72.77-9.71-1.99-18.9-3.09-27.59-5.8-20.26-6.33-38.44,3.63-58.16,5.45,2.87,24.74,5.62,48.53,8.46,73.05,23.12-3.57,45.71-3.6,68.85.07ZM216.56,32.7c4.32-5.25,11.99-7.05,18.14-3.79,2.43,1.29,4.04,1.48,6.6.11,6.66-3.56,14.69-1.57,19.05,4.13,4.55,5.96,4.2,13.46-1.25,19.31-6.49,6.97-13.2,13.74-20.49,21.29-8.13-8.2-15.47-15.14-22.25-22.6-4.73-5.2-4.27-13,.2-18.45Z"/>
      <path class="cls-1" d="M176.52,125.28v81.36c3.97.25,7.51.62,11.27-.27.74-21.33,1.57-42.27,2.11-63.22.1-3.92,1.18-5.25,5.24-5.23,28.64.15,57.27.14,85.91,0,3.85-.02,5.34.94,5.4,5.06.2,13.73.79,27.46,1.28,41.18.26,7.39.64,14.77.97,22.3h11.3v-81.2h-123.48Z"/>
      <path class="cls-1" d="M297.15,118.51c-7.29-7.63-15.28-13.73-26.65-13.65-21.4.16-42.79.2-64.19,0-12.52-.11-20.98,6.65-29.39,16.09h121.03c-.35-1.12-.36-1.99-.79-2.45Z"/>
      <path class="cls-1" d="M201.43,101.26c-3.85-33.85-7.67-67.45-11.51-101.25h-12.4c3.61,35.46,7.16,70.25,10.77,105.77,4.38-2.33,8.53-3.5,13.14-4.52Z"/>
      <path class="cls-1" d="M288.13,105.81c3.66-35.68,7.24-70.63,10.85-105.81h-12.39c-3.9,34-7.74,67.5-11.61,101.27,4.62.91,8.72,2.26,13.15,4.54Z"/>
      <path class="cls-1" d="M272.4,142.87v42.59c2.15.65,4.57.41,7.9,0,.6-14.6,3.62-28.76,2.09-43.39-3.37-.14-6.32-.78-9.99.8Z"/>
      <path class="cls-1" d="M193.9,142.51c-1.1,14.46,1.37,28.51,2.28,42.64,3.01.89,5.54.87,7.57.3v-43.42c-3.96-.17-6.92-.83-9.84.47Z"/>
      <path class="cls-1" d="M239.15,68.34c5.3-5.62,10.33-11.11,15.53-16.42,5.84-5.97,6.76-12.09,2.32-17.15-4.34-4.94-11.04-4.97-17.34-.09-.44.34-.96.56-1.77,1.03-1.66-1.29-2.92-2.49-4.38-3.35-4.32-2.54-10.19-1.55-13.65,2.15-3.47,3.72-4.5,9.99-1.14,13.65,6.24,6.81,13.13,13.04,20.43,20.17Z"/>
      <path class="cls-1" d="M96.17,90.2c2.89-24.9,5.65-48.69,8.44-72.77-9.71-1.99-18.9-3.09-27.59-5.8-20.26-6.33-38.44,3.63-58.16,5.45,2.87,24.74,5.62,48.53,8.46,73.05,23.12-3.57,45.71-3.6,68.85.07ZM40.03,34.09c4.32-5.25,11.99-7.05,18.14-3.79,2.43,1.29,4.04,1.48,6.6.11,6.66-3.56,14.69-1.57,19.05,4.13,4.55,5.96,4.2,13.46-1.25,19.3-6.49,6.97-13.2,13.74-20.49,21.29-8.13-8.2-15.47-15.14-22.25-22.6-4.73-5.2-4.27-13,.2-18.45Z"/>
      <path class="cls-1" d="M0,208.04c3.97.25,7.51.62,11.27-.27.74-21.33,1.57-42.27,2.11-63.22.1-3.92,1.18-5.25,5.24-5.23,28.64.15,57.27.14,85.91,0,3.85-.02,5.34.94,5.4,5.06.2,13.73.79,27.46,1.28,41.18.26,7.39.64,14.77.97,22.3h11.3v-81.2H0v81.36Z"/>
      <path class="cls-1" d="M120.63,119.91c-7.29-7.63-15.28-13.73-26.65-13.65-21.4.16-42.79.2-64.19,0-12.52-.11-20.98,6.65-29.39,16.09h121.03c-.35-1.12-.36-1.99-.79-2.45Z"/>
      <path class="cls-1" d="M24.91,102.65C21.06,68.8,17.24,35.2,13.4,1.4H1c3.61,35.46,7.16,70.25,10.77,105.77,4.38-2.33,8.53-3.5,13.14-4.52Z"/>
      <path class="cls-1" d="M111.6,107.21c3.66-35.68,7.24-70.63,10.85-105.81h-12.39c-3.9,34-7.74,67.5-11.61,101.27,4.62.91,8.72,2.26,13.15,4.54Z"/>
      <path class="cls-1" d="M95.87,144.27v42.59c2.15.65,4.57.41,7.9,0,.6-14.6,3.62-28.76,2.09-43.39-3.37-.14-6.32-.78-9.99.8Z"/>
      <path class="cls-1" d="M17.37,143.91c-1.1,14.46,1.37,28.51,2.28,42.64,3.01.89,5.54.87,7.57.3v-43.42c-3.96-.17-6.92-.83-9.84.47Z"/>
      <path class="cls-1" d="M62.63,69.74c5.3-5.62,10.33-11.11,15.53-16.42,5.84-5.97,6.76-12.09,2.32-17.15-4.34-4.94-11.04-4.97-17.34-.09-.44.34-.96.56-1.77,1.03-1.66-1.29-2.92-2.49-4.38-3.35-4.32-2.54-10.19-1.55-13.65,2.15-3.47,3.72-4.5,9.99-1.14,13.65,6.24,6.81,13.13,13.04,20.43,20.17Z"/>
    </g>
  </g>
</svg>