<?xml version="1.0" encoding="UTF-8"?>
<svg id="Capa_2" data-name="Capa 2" xmlns="http://www.w3.org/2000/svg" viewBox="0 0 299.89 300">
  <defs>
    <style>
      .cls-1 {
        fill: #040404;
      }

      .cls-1, .cls-2 {
        stroke-width: 0px;
      }

      .cls-2 {
        fill: #838383;
      }
    </style>
  </defs>
  <g id="Capa_1-2" data-name="Capa 1">
    <g>
      <path class="cls-1" d="M149.86,300C67.09,299.96-.05,232.72,0,149.93.05,67.15,67.27-.02,150.03,0c82.71.02,149.89,67.31,149.86,150.1-.03,82.78-67.26,149.95-150.03,149.9ZM18.4,94.36c-11.47,24.28-15.59,69.38-7.26,79.78-.97-11.38-.62-22.82,2.2-33.74,3.85-14.91,7.75-29.65,6.16-45.23.47-1,.98-2.01-.55-3.11-.22.94-.38,1.63-.55,2.31ZM155.27,35.01c-24.22.1-47.6,6.84-66.74,18.67-1.85,1.14-3.52,2.33-4.77,4.19-7.99,11.89-14.35,24.46-17.4,38.62-.67,3.1-.19,4.99,1.96,7.19,15.02,15.34,29.96,30.76,44.78,46.29,2.28,2.39,4.34,3.13,7.61,2.47,17.75-3.6,35.53-7.07,53.35-10.31,2.96-.54,4.24-1.77,5.21-4.43,7.54-20.85,15.15-41.69,22.93-62.45,1.18-3.14.33-4.94-1.85-7.07-7.97-7.76-16.16-15.35-23.5-23.68-6.45-7.33-13.5-11.56-21.58-9.48ZM212.23,75.03c-8.34,22.8-16.58,45.44-24.94,68.03-.82,2.22.14,3.69,1.1,5.37,8.22,14.37,16.48,28.72,24.57,43.16,1.33,2.38,2.72,3.3,5.47,3.03,15.14-1.49,30.3-2.89,45.46-4.11,3.21-.26,4.67-1.88,6.08-4.44,8.43-15.28,12.14-31.96,14.63-48.99.47-3.2,1.24-6.33-.08-9.73-7.31-18.72-18.5-34.64-33.6-47.86-1.16-1.02-2.18-2.11-3.94-2.22-11.47-.7-22.94-1.48-34.74-2.26ZM108.72,162.96c.64-2.18.04-4.1-1.84-6.02-15.14-15.48-30.19-31.05-45.21-46.64-1.61-1.67-2.85-2.5-5.45-1.56-9.01,3.27-17.57,7.3-25.49,12.75-2.41,1.66-3.66,3.78-4.54,6.48-5.77,17.74-7.19,35.88-4.78,54.3.83,6.32.97,13.13,4.52,18.56,7.29,11.14,16.18,20.97,26.62,29.33,1.62,1.3,2.95,1.87,5.22,1.08,14.33-4.95,28.73-9.69,43.14-14.41,2.13-.7,3.1-1.73,3.3-4.07,1.41-16.51,2.96-33.01,4.49-49.79ZM59.27,240.66c.28,6.19.5,11.63.79,17.08.1,1.94.26,3.78,2.16,5.12,24.77,17.48,50.52,31.64,82.62,26.05,8.06-1.4,16.15-2.43,23.84-5.38,3.08-1.18,4.62-2.64,3.53-6.46-2.33-8.23-4.17-16.59-6.07-24.94-.58-2.54-1.98-3.87-4.34-4.87-16.63-7.06-33.21-14.24-49.77-21.45-2-.87-3.82-1.59-6.09-.82-15.43,5.23-30.88,10.37-46.67,15.66ZM182.25,278.81c5.66-.83,10.86-1.51,16.02-2.35,17.28-2.83,33.96-7.02,47.18-19.72,8.19-7.87,15.75-16.23,22.17-25.6.87-1.27,2.15-2.37,2.01-4.09-.74-9.07-1.51-18.13-2.29-27.36-17.15,1.52-33.44,3.01-49.73,4.38-2.32.19-3.99,1.12-5.54,2.75-11.73,12.28-23.47,24.53-35.28,36.73-1.6,1.65-2.51,3.09-1.85,5.62,2.51,9.58,4.76,19.23,7.3,29.64ZM64.05,35.64c7.49,2.52,13.62,4.43,19.63,6.68,2.41.9,4.34.8,6.58-.41,22.85-12.36,47.25-17.77,73.19-16.12,2.19.14,4.17.12,5.97-1.52,5.17-4.71,10.95-8.61,18.01-12.46-45-10.62-85.41-3.3-123.38,23.83ZM240.32,40.08c5.45,8.44,10.14,17.11,12.44,26.9.45,1.91,1.64,3.02,2.97,4.13,11.47,9.64,20.96,20.97,29.07,33.54-8.14-26.1-23.09-47.56-44.48-64.58Z"/>
      <path class="cls-2" d="M19.5,95.16c-.37-.27-.73-.53-1.1-.8.16-.68.32-1.37.55-2.31,1.53,1.1,1.02,2.11.55,3.11Z"/>
    </g>
  </g>
</svg>