<?xml version="1.0" encoding="UTF-8"?>
<svg id="Capa_2" data-name="Capa 2" xmlns="http://www.w3.org/2000/svg" viewBox="0 0 300 299.99">
  <defs>
    <style>
      .cls-1 {
        fill: #070707;
        stroke-width: 0px;
      }
    </style>
  </defs>
  <g id="Capa_1-2" data-name="Capa 1">
    <g>
      <path class="cls-1" d="M151.44,0C68.73-.8,1.02,65.42,0,148.24c-.94,82.82,65.3,150.68,148.08,151.74,82.82,1.06,151.01-65.23,151.9-148.39C300.88,68.92,234.66.82,151.44,0ZM149.94,293.25c-79.2-.09-143.36-64.36-143.19-143.44C6.91,70.61,71.22,6.51,150.3,6.74c79.09.23,143.11,64.42,142.96,143.36-.14,79.17-64.3,143.24-143.32,143.15Z"/>
      <path class="cls-1" d="M212.69,170.22c-20.84,0-41.68,0-62.53,0-20.84,0-41.68,0-62.53,0-3.69,0-4.66.96-4.66,4.61,0,21.89,0,43.77,0,65.66,0,2.98,1.18,4.15,4.19,4.15,41.89,0,83.79,0,125.68,0,2.98,0,4.2-1.2,4.2-4.15,0-21.99,0-43.98,0-65.97,0-3.23-1.08-4.29-4.35-4.29ZM137.61,220.42c.4.8,1.16,1.3,1.76,1.94,2.48,2.64,2.53,6.45.12,8.88-2.45,2.47-6.22,2.48-8.88.03-1.93-1.79-1.92-1.75-4.35-.68-7.58,3.33-15.1,3.19-22.48-.6-1.05-.54-1.65-.44-2.38.41-1.21,1.43-2.67,2.48-4.62,2.67-2.62.25-5.05-1.07-6.21-3.38-1.16-2.31-.99-5.21,1.01-6.95,1.93-1.68,1.73-2.98.73-5.09-2.99-6.28-3.46-14.63,1.5-23.66-.73-.59-1.6-1.13-2.26-1.85-2.29-2.51-2.16-6.29.22-8.62,2.35-2.3,6.19-2.55,8.47-.12,1.69,1.81,2.91,1.77,5.08.78,7.31-3.34,14.69-2.99,21.91.55.46.23.91.48,1.75,1.03.61-.78,1.13-1.65,1.85-2.31,2.56-2.35,6.25-2.27,8.62.11,2.41,2.42,2.47,6.17.07,8.74-.63.68-1.46,1.17-2.09,1.67,5.39,9.9,4.29,19.11.2,26.47ZM208.81,200.01c1.9,6.51,1.42,12.83-1.66,18.85-.73,1.42-.54,2.17.58,3.11,1.7,1.42,2.57,3.3,2.31,5.54-.28,2.49-1.64,4.3-3.98,5.18-2.33.88-4.72.6-6.37-1.27-1.61-1.83-2.86-1.7-4.96-.75-7.9,3.55-15.73,2.92-23.42-1.28-.83.79-1.55,1.55-2.34,2.21-2.58,2.15-6.27,1.97-8.51-.37-2.27-2.38-2.52-6.24-.07-8.47,1.91-1.74,1.63-3.03.71-5.11-3.26-7.34-2.98-14.72.66-21.89.59-1.17.48-1.8-.47-2.63-2.29-1.99-3.26-4.47-2.14-7.44,1.59-4.19,6.84-5.25,10.21-2.11,1.93,1.79,1.91,1.76,4.33.7,7.58-3.34,15.09-3.15,22.5.54.41.21.83.42,1.53.78.58-.68,1.12-1.46,1.8-2.09,2.6-2.4,6.34-2.33,8.75.09,2.39,2.41,2.41,6.18,0,8.75-.6.64-1.31,1.19-2.02,1.82.99,2.01,1.94,3.85,2.53,5.85Z"/>
      <path class="cls-1" d="M199.22,165.16c0-2.82.01-5.58,0-8.33-.07-10.82-7.52-20.79-17.82-24.06-4.95-1.57-10.02-1.16-15.07-1.26-.73-.01-.96.52-1.26,1-1.28,2.03-2.56,4.06-3.83,6.1-2.97,4.73-5.93,9.46-8.92,14.18-1.18,1.87-3.1,2.02-4.37.4-.32-.41-.57-.87-.85-1.31-4.03-6.41-8.06-12.8-12.06-19.23-.49-.79-.99-1.17-1.97-1.14-2.35.08-4.7-.05-7.05.05-8.64.34-15.5,4.03-20.62,11.02-5,6.82-4.9,14.62-4.52,22.59h98.34Z"/>
      <path class="cls-1" d="M173.74,96.11c.11-13.05-10.43-23.74-23.58-23.88-13.03-.15-23.82,10.48-23.9,23.54-.09,13.1,10.43,23.76,23.57,23.88,13.08.12,23.8-10.43,23.91-23.53Z"/>
      <path class="cls-1" d="M107.64,104.71c.08,2.88,2.24,5.07,5.04,5.19,2.86.13,5.45-1.94,5.55-4.82.15-4.38.05-8.77.03-13.16,0-.96-.6-1.8-.33-2.89,1.58-6.42,4.7-11.94,9.49-16.45,17.44-16.41,45.73-9.47,53.64,13.13.67,1.9,1.52,3.79.47,5.85-.15.3-.11.72-.11,1.08,0,3.86-.03,7.73,0,11.59.02,3.34,2.27,5.7,5.36,5.69,3.1,0,5.29-2.35,5.31-5.73.02-3.08-.02-6.16,0-9.24.02-2.31.16-4.62-1.66-6.47-.25-.26-.25-.78-.35-1.18-.99-4.08-2.5-7.95-4.63-11.59-8.46-14.41-24.38-22.16-41.18-20.01-15.94,2.04-29.74,14.25-33.97,30.11-.35,1.32-.68,2.56-1.69,3.6-.78.8-.99,1.93-.99,3.06.01,1.98,0,3.97,0,5.95,0,2.09-.05,4.18.01,6.27Z"/>
      <path class="cls-1" d="M139.28,122.62c-.22,1.64-.32,3.1-.65,4.51-.24,1.06-.06,1.86.52,2.76,2.46,3.81,4.84,7.67,7.25,11.51,1.15,1.84,2.32,3.66,3.48,5.49.22-.13.34-.15.39-.23,3.67-5.82,7.33-11.64,10.99-17.47.14-.22.33-.48.3-.7-.26-1.93-.56-3.85-.86-5.86-7.18,2.7-14.21,2.7-21.42-.01Z"/>
      <path class="cls-1" d="M204.45,189.15c.34-.34.62-.71.64-1.33-.12-.35-.27-.77-.79-.96-.57-.21-1.02-.02-1.42.37-1,.99-2,1.99-2.99,2.99-1.11,1.12-2.31,1.31-3.66.44-7.88-5.08-15.77-5.06-23.64,0-1.3.83-2.45.7-3.53-.35-.78-.77-1.53-1.57-2.33-2.32-.72-.67-1.44-1.93-2.56-.87-1.14,1.08.07,1.84.75,2.57.71.76,1.48,1.47,2.22,2.21,1.32,1.35,1.42,2.28.41,3.89-4.94,7.81-4.91,15.61.07,23.38.87,1.36.78,2.53-.34,3.66-.96.96-1.9,1.94-2.87,2.88-.65.63-.98,1.33-.26,2.02.72.69,1.42.32,2.03-.31.94-.97,1.91-1.93,2.88-2.88,1.07-1.06,2.23-1.21,3.53-.37,7.87,5.06,15.76,5.11,23.64.02,1.3-.84,2.45-.72,3.53.33.97.95,1.92,1.92,2.88,2.87.6.59,1.28,1.07,2.03.35.81-.78.34-1.51-.3-2.15-.89-.89-1.78-1.76-2.65-2.66-1.34-1.38-1.41-2.27-.4-3.88.53-.84,1.07-1.67,1.49-2.57,3.25-7.04,2.84-13.86-1.32-20.43-1.25-1.97-1.2-2.73.43-4.38.84-.86,1.7-1.7,2.55-2.55ZM184.38,218.27c-5.84.02-10.8-4.93-10.81-10.78-.01-5.99,4.87-10.86,10.85-10.85,6.02.01,10.82,4.87,10.78,10.89-.05,5.92-4.88,10.72-10.82,10.73Z"/>
      <path class="cls-1" d="M135.4,189.41c.63-.64,1.39-1.36.52-2.26-.86-.89-1.59-.21-2.25.45-.88.89-1.78,1.76-2.66,2.65-1.12,1.14-2.31,1.23-3.66.37-1.01-.65-2.03-1.3-3.12-1.78-6.98-3.06-13.7-2.52-20.13,1.58-1.77,1.13-2.62,1.06-4.13-.4-.9-.87-1.78-1.76-2.66-2.65-.34-.34-.7-.63-1.21-.64-.5.06-.88.31-1.09.78-.25.56-.04,1.02.35,1.42,1.03,1.04,2.07,2.06,3.09,3.11,1.11,1.13,1.18,2.34.32,3.68-5.02,7.84-4.98,15.68.04,23.5.87,1.36.71,2.54-.41,3.65-.96.96-1.91,1.93-2.88,2.88-.65.64-.91,1.36-.18,2.03.65.6,1.34.35,1.92-.25.91-.93,1.84-1.85,2.77-2.77,1.41-1.38,2.32-1.45,4.02-.39,7.76,4.87,15.52,4.83,23.25-.08,1.53-.97,2.45-.9,3.76.36,1.02.97,1.99,2,3,2.98.61.6,1.32.71,1.92.04.55-.61.36-1.26-.19-1.81-.95-.96-1.92-1.92-2.87-2.89-1.38-1.43-1.44-2.31-.37-4.02,4.88-7.77,4.79-15.52-.1-23.25-.95-1.5-.88-2.45.39-3.76.83-.86,1.71-1.69,2.55-2.54ZM115.58,218.26c-5.99-.01-10.81-4.89-10.79-10.91.02-5.93,4.86-10.72,10.8-10.71,6.01.01,10.87,4.9,10.82,10.89-.05,5.89-4.95,10.75-10.83,10.73Z"/>
      <path class="cls-1" d="M184.44,201.62c-3.24,0-5.89,2.65-5.87,5.86.02,3.14,2.66,5.77,5.8,5.79,3.22.02,5.84-2.61,5.84-5.88,0-3.17-2.6-5.77-5.77-5.77Z"/>
      <path class="cls-1" d="M115.57,201.61c-3.17,0-5.79,2.59-5.8,5.75,0,3.27,2.62,5.92,5.83,5.9,3.15-.03,5.8-2.66,5.81-5.77.01-3.24-2.61-5.87-5.85-5.88Z"/>
    </g>
  </g>
</svg>