<?xml version="1.0" encoding="UTF-8"?>
<svg id="Capa_2" data-name="Capa 2" xmlns="http://www.w3.org/2000/svg" viewBox="0 0 300 268.43">
  <defs>
    <style>
      .cls-1 {
        fill: #040404;
        stroke-width: 0px;
      }
    </style>
  </defs>
  <g id="Capa_1-2" data-name="Capa 1">
    <path class="cls-1" d="M299.52,262.67c-.47-1.18-1.09-2.29-1.67-3.42-6.87-13.32-13.84-26.59-20.56-39.98-2.12-4.23-4.27-7.86-9.73-6.91V73.87c.46-.16.66-.29.86-.29.63,0,1.27.05,1.9.08,4.98.24,5.94-.66,6.19-5.62.07-1.43-.19-2.95.88-4.52,3.47,0,7.05-.09,10.63.03,3.08.1,4.51-1.33,4.52-4.32.02-3.38.13-6.77-.02-10.15-.18-4.1-1.32-5.05-5.57-5.05-12.48,0-24.96,0-37.44-.01-1.57,0-3.18.21-4.65-.58-.57-1.12-.32-2.31-.33-3.45-.05-11.63,0-23.27-.14-34.9-.06-4.7-1.6-5.73-6.24-4.75-1.03.22-2.06.47-3.1.69-22.87,5.02-45.71,10.16-68.61,15.02-36.87,7.83-73.77,15.55-110.69,23.16-10.19,2.1-20.21,5.31-30.83,4.83-4.22-.19-8.46-.04-12.69-.03-2.53,0-4.39,1.01-4.55,3.75-.2,3.48-.37,6.98-.21,10.45.19,4.19,1.31,5.17,5.48,5.27,3.65.08,7.31.02,10.88.02q1.3,10.25,9.75,10.65v138.25c-6.89-1.76-8.95,3.11-11.28,7.76-4.26,8.49-8.61,16.93-12.93,25.38-2.84,5.55-5.78,11.05-8.51,16.65-1.78,3.64-.81,5.3,3.21,5.89,1.56.23,3.16.24,4.74.24,94.13.04,188.27.08,282.4.09,1.89,0,3.83-.14,5.66-.56,2.97-.69,3.77-2.39,2.65-5.2ZM238.88,77.23c3.79.57,5.25-.12,6.47-3.83.68-2.06,1.58-2.87,3.8-2.63,2.4.27,4.85.1,7.27.12.53,0,1.05,0,2.37,0-7.85,9.54-15.41,18.61-22.51,29.24v-23.16c1.07-.57,1.79.14,2.6.26ZM41.83,71.29c4.34,0,8.52-.01,12.69,0,1.75,0,1.42,1.58,1.76,2.56,1.25,3.63,4.26,5.32,8.55,4.01-5.65,11.46-14.72,19.36-22.82,28.22-.4-11.63-.91-23.08-.19-34.79ZM64.34,92.92v39.94c-5.66-7.09-11.13-13.94-16.77-20.99,5.43-6.15,11.52-11.7,16.77-18.95ZM41.8,212.2v-25.27c7.95,8.13,13.4,17.52,21.92,25.27h-21.92ZM64.22,201.48c-5.16-7.18-10.96-13.12-16.59-19.76,5.47-6.33,10.92-12.64,16.59-19.2v38.95ZM41.72,175.75v-58.36c8.09,10.24,15.8,19.99,23.67,29.94-7.56,9.37-13.87,19.87-23.67,28.42ZM236.53,8.79v35.05H71.04c55.21-10.43,109.82-23.74,165.49-35.05ZM228.03,212.29H72.39c-.55-1.04-.29-2.12-.29-3.15-.01-41.14,0-82.28,0-123.42,0-4.02.06-8.02.78-12.01.39-2.1,1.22-3.18,3.5-3.1,3.69.12,7.4.06,11.09.08,1.5,0,2.46.56,2.3,2.24-.31,3.32,1.68,4.06,4.44,4.12,2.23.05,4.42-.06,6.7-.57.24-1.66.48-3.31.76-5.22,3.75-.26,7.4-.43,11.07.14.99.15,1.65.4,1.93,1.64.98,4.39,1.88,4.93,6.13,4.87,3.62-.06,4.28-2.41,4.49-5.26.02-.3.17-.59.35-1.19,6.24-.21,12.53-.48,18.84-.09,1.35.08,2.08.64,2.03,2.18-.09,3.26-.03,6.52-.03,9.71-1.48.84-2.88.55-4.22.55-12.69.03-25.38,0-38.07.04-1.64,0-3.88-.73-3.89,2.26-.01,2.87,1.51,4.54,4.26,4.58,1.79.03,3.57,0,5.47,0,.68,2,.38,3.83.23,5.65-1.45.72-2.83.31-4.17.4-4.47.29-7.14,3.19-6.87,7.65.06,1-.13,1.79-.5,2.71-1.33,3.33.74,6.8,3.68,8.77,5,3.34,10.17,1.67,15.28,1.34,3.1-.2,6.55-5.35,6.38-8.75-.04-.73-.3-1.48-.17-2.18,1.09-5.96-3.05-10.66-9.25-10.32v-4.95h33.84v5.44c-1.27,1.1-2.63,1.01-3.82.87-2.68-.33-3.88,1-4.43,3.34-.51,2.16-1.13,4.29-1.51,6.47-.88,5.02,1.77,8.35,6.74,9.78,4.29,1.24,8.47,1.27,12.74.45,3.69-.71,6.49-4.19,6.49-7.81,0-1.59.03-3.17.05-4.76.07-4.68-2.13-7.1-6.83-7.41-2.4-.16-4.81-.23-7.36-.34v-6.1h41.27c-.33,2.03-.59,3.65-.85,5.23-2.87.95-5.66.04-8.41.64-.79,1.9-1.73,3.75-2.6,5.51-1.33,2.71-2.3,6.07-1.5,9.34.71,2.85,6.39,6.11,9.32,5.76,2.28-.28,4.53.23,6.92-.06,4.09-.49,7.66-2.41,8.59-6.47.65-2.85.98-5.71.36-8.67-.65-3.1-1.96-5.23-5.45-5.57-2.67-.26-2.44-2.4-2.44-4.34,0-2.2,1.61-1.79,2.91-1.89.42-.03.85,0,1.27,0,6.08.11,6.1.09,5.57-6.52h-51.45v-12.56h18.59c1.66,5.29,3.04,6.65,6.67,6.58,4.43-.08,3.84-4.01,5.09-6.83,3.27,0,6.63-.04,9.98.01,3.73.05,2.39,3.28,3.29,5.4h10.34c.84-1.63.05-3.65.91-5.65,6.22-.54,12.5-.54,19.08,0v141.44ZM236.31,212.27v-24.57c.21-.13.42-.27.63-.4,6.98,8.15,13.97,16.3,21.4,24.97h-22.03ZM259.1,201.01c-5.31-6.84-11.16-12.92-16.96-19.46,5.67-6.08,11.19-12.01,16.96-18.2v37.67ZM257.2,152.91c-4.64,7.14-11.11,12.71-16.73,19.01-1.11,1.25-1.78,3.09-4.22,3.66v-62.26c2.7,3.77,4.85,6.84,7.07,9.85,4.52,6.12,9.13,12.16,13.6,18.31,3.47,4.78,3.49,6.46.28,11.42ZM259.6,132.25c-6.03-9.21-12.68-17.17-19.43-25.36,6.37-8.13,12.69-16.19,19.43-24.78v50.14Z"/>
  </g>
</svg>