<?xml version="1.0" encoding="UTF-8"?>
<svg id="Capa_2" data-name="Capa 2" xmlns="http://www.w3.org/2000/svg" viewBox="0 0 300 264.47">
  <defs>
    <style>
      .cls-1 {
        fill: #090909;
        stroke-width: 0px;
      }
    </style>
  </defs>
  <g id="Capa_1-2" data-name="Capa 1">
    <g>
      <path class="cls-1" d="M46.56,217.24v-26.84c-9.48,0-18.96,0-28.44,0-13.77,0-18.11-4.38-18.11-18.26,0-26.78-.02-53.55,0-80.33.03-24.81,14.67-41.39,39.2-45.36,36.98-5.98,73.91-12.34,110.85-18.59,9.88-1.67,18.91-6,28.21-9.46,2.99-1.11,6.35-2.69,8.05,1.32,1.82,4.29-1.59,5.7-4.88,6.97-4.89,1.89-11.7,2.68-14.03,6.29-2.52,3.91-.93,10.53-.95,15.96-.06,12.9.02,25.8-.03,38.7-.09,22.5-15.48,38.84-37.79,39.31-21.49.44-43,.43-64.49,0-21.9-.43-37.26-16.24-37.71-38.13-.19-9.33-.03-18.67-.03-29.32-10.01,6.38-15.86,14.24-16.96,24.87-.82,7.94-.54,16-.56,24.01-.06,21.5-.03,43-.01,64.5,0,7.76.78,8.56,8.19,8.56,60.59,0,121.18,0,181.77,0,7.3,0,7.94-.65,7.95-8.14.02-16.81-.08-33.62.08-50.42.03-3.32-.96-5.27-3.83-7.03-6.13-3.74-10.58-9.17-13.96-15.48-1.48-2.77-2.54-5.77.87-7.65,3.3-1.82,5.26.3,6.92,3.2,8.04,14.1,19.18,19.7,34.98,17.68,7.65-.98,13.75,1.37,18.45,7.6,5.78,7.66,11,8.53,20.98,3.81,6.27-2.97,7.99-8.06,5.66-16.92-4.49-17.13-9-34.25-13.57-51.62-6.77,1.46-13.17,3.21-19.86,2.99-9.62-.32-16.76-6.76-17.18-15.69-.44-9.46,5.93-16.87,15.57-17.96,3.01-.34,6.06-.4,9.36-.6-6.43-10.49-21.47-15.62-34.36-11.89-4.48,1.29-8.77,3.21-13.18,4.78-2.51.89-4.67.41-5.96-2.12-1.37-2.67-.07-4.44,2.15-5.83,16.71-10.47,39.1-8.99,53.68,3.55,2.82,2.43,5.21,5.25,7.5,8.54,8.58-3.34,15.28-8.71,20.6-15.94,4.43-6.02,8.42-7.57,13.22-5.3,4.68,2.22,6.01,6.39,4.48,13.63-3.18,15.07-11.16,26.97-24.04,35.3-3.39,2.19-3.59,4.15-2.64,7.6,4.51,16.34,8.8,32.75,13.11,49.15,3.13,11.91-.78,21.56-10.53,26.21-14.09,6.71-23.45,5.08-31.59-5.78-2.74-3.65-5.93-5.29-10.54-4.61-5.62.84-11.28.74-17.4-.62,0,15.79,0,31.4,0,47,0,2.15.03,4.3,0,6.45-.15,9.52-5.33,14.87-14.9,15.03-9.74.16-19.48.03-29.57.03v26.85c5.67,0,11.1.1,16.52-.03,5.48-.13,9.21,2.14,11.69,7.1,4.44,8.89,9.2,17.62,13.72,26.47,4.07,7.97.74,13.61-8.2,13.62-49.06.06-98.11.03-147.17.04-3.37,0-6.73-.44-6.61-4.69.12-4.29,3.61-4.35,6.89-4.35,46.71.02,93.42.01,140.14.01h7.34c-4.97-9.57-9.71-18.64-14.39-27.73-1.07-2.07-2.91-1.63-4.6-1.63-51.79-.01-103.59,0-155.38-.03-2.19,0-4.07-.06-5.31,2.44-4.33,8.69-8.88,17.27-13.9,26.95,7.34,0,13.83.03,20.32-.01,3.33-.02,6.74.19,6.74,4.5,0,4.3-3.43,4.55-6.75,4.54-6.65-.02-13.29.09-19.94-.03-8.72-.16-12.04-5.53-8.15-13.2,4.58-9.04,9.43-17.94,13.95-27.01,2.48-4.98,6.3-7.12,11.75-6.99,5.44.14,10.89.03,16.62.03ZM54.24,52.93c0,12.47-.17,24.36.07,36.25.12,6.03,4.04,9.87,10.12,9.92,21.3.16,42.59.14,63.89,0,5.64-.04,9.88-3.62,9.95-8.75.25-16.97.09-33.94.09-51.42-28.11,4.68-55.78,9.28-84.12,14ZM55.87,216.88h105.61v-26.23H55.87v26.23ZM35.23,56.32c0,11.09-.07,21.63.02,32.17.15,17.24,12.34,29.52,29.54,29.61,20.9.11,41.81.1,62.71,0,17.75-.08,29.73-12,29.87-29.77.13-16.41.04-32.82.02-49.23,0-1.1.36-2.34-1.06-3.42-2.76.59-5.75,1.23-8.99,1.92,0,2.29,0,4.22,0,6.15,0,14.65.11,29.31-.04,43.96-.12,12.05-7.12,19.9-18.27,20.02-21.88.22-43.76.18-65.64,0-8.35-.07-15.21-5.58-17.19-13.38-.66-2.6-.59-5.42-.61-8.14-.06-10.44-.03-20.88-.03-31.28-3.97-.39-6.9.74-10.34,1.39ZM290.46,10.57c-12.27,15.68-28,23.67-47.6,24.2-5.01.14-7.57,3.35-7.63,7.94-.06,4.75,2.76,7.56,7.73,7.71,12.92.4,24.19-3.81,33.65-12.54,7.95-7.34,12.96-16.33,13.85-27.3Z"/>
      <path class="cls-1" d="M242.78,74.35c-.16-3.03.6-5.65,4.12-5.83,3.93-.2,4.75,2.63,4.75,5.85,0,3.06-1.05,5.64-4.49,5.59-3.36-.05-4.57-2.44-4.37-5.62Z"/>
    </g>
  </g>
</svg>