<?xml version="1.0" encoding="UTF-8"?>
<svg id="Capa_2" data-name="Capa 2" xmlns="http://www.w3.org/2000/svg" viewBox="0 0 300 283.86">
  <defs>
    <style>
      .cls-1 {
        fill: #040404;
        stroke-width: 0px;
      }
    </style>
  </defs>
  <g id="Capa_1-2" data-name="Capa 1">
    <path class="cls-1" d="M19.23,274.95c.05-18.11-.25-35.62-1.24-53.09-1.6-28.17-3.19-56.35-7.7-84.26-.58-3.61-1.61-7.11-3.05-10.5-1.17-2.76-2.29-5.64-2.37-8.64-.07-2.73-.63-4.75-2.88-6.69-3.1-2.67-2.37-4.09.84-6.75,4.15-3.43,8.22-2.28,12.45-.81,13.64,4.75,26.03,12.03,38.38,19.33,8.98,5.31,17.85,10.81,27.17,16.48,2.41-6.21,2.22-12.33,1.13-18.47-1.95-10.94-8.84-18.72-16.88-25.65-15.75-13.58-33.74-23.63-52.22-32.88-.47-.23-.92-.51-1.42-.66-4.13-1.27-5.84-3.7-5.4-8.31.73-7.8-.76-15.6-1.31-23.66,37.06,2.51,69.05-11.04,99.58-30.39,2.23,3.88,4.3,7.63,6.53,11.28,1.05,1.72,0,2.64-.97,3.7-2.41,2.64-4.99,4.9-6.12,8.74-1.26,4.29-10.48,8.99-14.98,8.4-1.4-.18-2.48-.1-3.68.57-10.38,5.79-21.07,10.92-32.04,15.48-.23-.1-.61-.15-.67-.33-1.44-3.73-3.76-4.58-7.82-3.75-9.72,1.97-19.68,1.98-29.99,2.39,1.02,1.73,2.59,1.98,3.87,2.61,20.63,10.24,40.54,21.62,58.16,36.64,12.32,10.51,21.99,22.61,24.59,39.26,1.45,9.31,2.7,18.62,2.73,28.05,0,2.29.79,3.8,2.58,5.28,13.24,10.93,23.03,24.88,33.31,38.39,9.96,13.1,19.79,26.31,29.74,39.42,3.55,4.67,8.26,7.8,14.17,10.04,4.19-22.66,8.31-44.95,12.6-68.15,18.98,18.19,42.24,26.72,66.69,33.43-3.11,12.27-6.43,24.17-8.81,36.9,5.63-.67,11-1.27,16.36-1.97,6.95-.9,13.86-2.07,20.68-3.74.93-.23,1.71-.28,2.63.09,6.32,2.6,8.33,12.68,3.38,17.32-3.48,3.27-7.72,5.34-12.1,7.09-17.44,6.99-35.77,10.45-54.22,13.25-12.9,1.96-25.82,4.28-38.98,3.15-4.15-.36-8.29-1-12.41-1.68-11.53-1.9-17.26-10.37-22.17-19.74-6.18-11.78-12.43-23.52-19.18-34.99-9.78-16.61-23.09-30.05-36.9-43.26-8.39-8.02-16.81-15.96-25.62-23.5-3.09-2.64-6.39-4.95-10.11-6.65-5.09-2.33-10.37-2.84-15.64-1.06-4.7,1.58-8.27,4.08-9.35,9.8-2.77,14.67-4.23,29.47-5.09,44.33-1.19,20.49-1.95,41-2.92,61.5-.27,5.65-1.42,6.7-7.09,6.66-1.94-.01-3.89,0-6.22,0Z"/>
  </g>
</svg>