<?xml version="1.0" encoding="UTF-8"?>
<svg id="Capa_2" data-name="Capa 2" xmlns="http://www.w3.org/2000/svg" viewBox="0 0 299.08 269.02">
  <defs>
    <style>
      .cls-1 {
        fill: #020202;
        stroke-width: 0px;
      }
    </style>
  </defs>
  <g id="Capa_1-2" data-name="Capa 1">
    <g>
      <path class="cls-1" d="M96.59,114.77c-14.36.02-28.72,0-43.08,0-14.36,0-28.72-.02-43.08,0-8.77.02-12.64,5.94-9.15,14.01,4.01,9.27,8.08,18.51,12.1,27.77,10.45,24.05,20.91,48.09,31.33,72.16,1.69,3.9,4.31,6.51,8.71,6.52,3.99.01,6.73-2.18,8.3-5.79,14.76-33.91,29.52-67.83,44.27-101.74,1.15-2.64,1.36-5.29.01-7.92-1.97-3.86-5.36-5.02-9.41-5.01Z"/>
      <path class="cls-1" d="M297.79,221.37c-5.93-13.68-11.89-27.34-17.83-41.01-8.5-19.55-17.01-39.1-25.48-58.66-1.33-3.08-3.11-5.63-6.56-6.5-4.69-1.19-8.52.91-10.75,5.99-4.78,10.88-9.5,21.8-14.24,32.7-9.79,22.49-19.57,45-29.39,67.48-1.25,2.87-2.04,5.71-.61,8.72,1.91,4.02,5.33,5.28,9.53,5.27,14.36-.03,28.72-.01,43.08-.01s28.72.02,43.08,0c8.82-.02,12.67-5.87,9.17-13.96Z"/>
      <path class="cls-1" d="M158.35,11.33c0-1.23.03-2.47-.12-3.68C157.69,3.17,154.02-.01,149.5,0c-4.51.01-8.14,3.23-8.67,7.72-.13,1.12-.11,2.26-.11,3.4,0,82.29,0,164.57,0,246.86,0,1.13-.02,2.28.12,3.4.55,4.48,4.21,7.67,8.73,7.66,4.51-.01,8.15-3.23,8.67-7.72.14-1.21.11-2.45.11-3.68,0-41,0-82,0-123s0-82.19,0-123.29Z"/>
      <path class="cls-1" d="M53.29,95.35c18.02.06,32.82-14.66,32.9-32.72.08-18.01-14.7-32.87-32.73-32.9-18.07-.03-32.8,14.64-32.87,32.73-.07,18.01,14.66,32.83,32.7,32.89Z"/>
      <path class="cls-1" d="M244.77,95.34c18.35.43,33.32-13.98,33.7-32.43.36-17.78-14.22-32.83-32.13-33.17-18.19-.34-33.16,14.18-33.46,32.44-.29,17.69,14.18,32.74,31.89,33.15Z"/>
    </g>
  </g>
</svg>