<?xml version="1.0" encoding="UTF-8"?>
<svg id="Capa_2" data-name="Capa 2" xmlns="http://www.w3.org/2000/svg" viewBox="0 0 1920 140.83">
  <defs>
    <style>
      .cls-1 {
        fill: #fff;
        stroke-width: 0px;
      }
    </style>
  </defs>
  <g id="Capa_1-2" data-name="Capa 1">
    <path class="cls-1" d="M1905.97,37.77c4.4-2.7,8.96-4.94,14.03-6.02V0H0v130.16c12.52.38,24.83,2.01,36.64,6.37,6.36,2.34,12.75,3.71,19.63,4.22,9.58.71,18.19-3.31,27.46-3.71-1.49-4.19-5.94-3.22-8.83-5.25,2.42-2.07,5.15-2.38,7.83-2.53,7.85-.46,15.73-.62,23.57-1.16,6.83-.47,13.73-2.39,20.4-1.7,8.05.83,12.14-5.53,17.45-8.59,8.12-4.67,15.85-10.51,23.78-15.81,2.31-1.55,4.3-2.09,7.05-.8,5.01,2.35,10.49,3.91,15.59.75,5.21-3.22,9.86-2.04,14.89.07,3.7,1.55,7.82,3.95,11.43,3.48,8.96-1.17,17.87-1.52,26.85-1.34,4.25.08,8.29-1.22,11.53-3.77,5.83-4.59,12.33-5.42,19.39-4.72.94,1.08-1.45,2.4.38,3.63,6.06,0,12.37.66,18.48-1.76,2.04-.8,4.82-1.26,5.05,2.03.22,3.28,1.07,6.81-1.24,10.05-3.92-1.36-9.1,1.26-11.65-5.38-3.88,7.85-10.3,3.85-15.65,4.67,4.84,2.05,9.36,4.91,14.49,5.07,16.08.48,32.17.63,48.26.75,1.8.01,4.18.93,5.41-1.67,1.56-3.31-3.14-1.77-2.97-3.94.02-.32-.05-.64-.08-1.15,6.64-1.74,13.65-2.11,19.79-4.92.78-3.62-2.96-3.31-4.96-5.35,2.84-1.76,5.31-3.3,8.12-5.05,2.11,2.43,4.1,4.71,5.92,6.79,2.64-.83,4.49-2.18,6.86-2.06,4.99.25,9.88-.92,14.82-1.14,6.16-.28,9.6-2.94,10.24-9.1-1.14-1.65-2.88-.51-4.29-.91-1.49-.43-2.95-.83-3.72-2.34q5.09-6.23-2.88-11.93c1.22-1.94,2.76-.9,3.94-.22,4.19,2.42,8.49,1.37,11.5-1.21,3.28-2.82,6.88-2.58,9.21-1.01,5.62,3.79,11.68,3.7,17.71,3.43,20.01-.89,38.27,6.09,56.67,12.32,6.29,2.13,11.15,8.35,18.75,5.77.84,3.56-1.46,6.34-.04,9.35,5.34-1.19,10.58-2,16.13-.57,9.01,2.32,17.31,8.53,27.55,4.41-1.29,7.82-4.13,13.55-12.04,16.1,8.72,4.98,17.08,5.09,25.65,4.31,5.74-.51,11.42-.16,16.42,3.64-6.39,4.76-13.55.57-21.2,2.64,2.94,2.41,5.05,3.63,7.86,3.59,3.94-.05,7.9-.27,11.81.05,3.23.27,5.59-.15,6.6-3.66.5-1.71,2.01-2.47,3.64-2.17,3.8.69,7.63.9,10.93,3.73,3.49,2.99,7.67,5.08,12.59,4.97,9.87-.22,16.71-7.28,24.99-11.06.9-.41,1.94-1.43,1.89-2.84-3.04-1.03-6.06-2.05-9.41-3.18,2.49-2.82,1.31-4.98-2.23-7.24,7.67-1,6.72-6.85,7.32-11.36-1.19.02-2.65,1.8-4.86,1.61-5.32-.46-10.56.54-15.78,1.59-4.42.88-9.17,3.08-13.21,2.18-5.76-1.28-10.58,1.73-15.99,1.39-3.48-.22-6.56,1.47-7.5,5.62-.49,2.19-2.43,3.07-4.66,3.24-1.18-4.86,1.19-7.63,5.35-9.11,4.18-1.5,8.57-2.88,13-2.51,6,.51,9.26-2.39,11.43-7.42.73-1.7,1.65-3.31,2.51-5.04,1.4.5,3.34.81,2.6,2.38-.85,1.78-1.63,3.36.52,4.09,2.03.69,4.36-.25,5-2.42,1.19-4.07,3.82-3.17,6.55-2.74v5.33c4.84.31,8.87-1.46,12.67-3.79,4.36-2.68,8.88-4.9,13.91-5.99,8.19,3.71,16.5.83,24.15-1.08,6.86-1.72,12.63-1.8,19.01.76,3.5,1.4,7.58,3.57,10.12-2.41.86-2.02,4.34-3.66,6.85-4.07,4.25-.7,5.75-3.43,6.99-6.88,3.26.11,6.32,2.26,9.53,1.19,3.14-1.04,7.02.3,9.08-.62,4.87-2.19,9.52-.02,14.15-.55,4.3-.48,6.71-2.08,9.03-4.58,3.33-3.59,8.36-5.15,13.27-3.47.76.26,1.67.03,2.49.16,6.28.97,12.94.54,18.22,5.21,1.96,1.74,5.42,2.22,6.6.59,2.6-3.57,6.27-2.91,9.53-3.79,5.2-1.41,10.17-2.62,15.1,1.83,2.53,2.29,7.07,1.82,10.15,4.1.53.39,1.38.31,1.8-.37,1.62-2.64,3.8-1.18,5.4-.4,3.34,1.63,7.55-.05,10.51,2.92.12.12,1.38-.88,2.55-1.65,1.56,5.2,5.59,6.63,10.29,6.82,1.64.07,2.92.86,4.24,1.62,1.27.74,2.86,1.33,3.81.24,3.44-4,7.26-1.23,10.93-.87,4.23.41,7.95,1.92,10.44,5.63,1.72,2.55,4.05,3.7,7.04,2.69,1.56-.52,2.94-.49,4.43.07,4.87,1.82,9.45-3.23,14.45-.71.32.16,1.39-1.34,2.21-1.93.95-.69,2.31-1.97,2.97-1.7,4.8,1.96,9.25-.5,13.57-1.37,8.6-1.74,16.95-4.76,25.37-7.33.74-.23,1.42-.97,1.9-1.64,4.79-6.63,12.32-9.52,18.9-13.65,3.03-1.91,7.27-3.52,10.25-2.18,5.22,2.35,9.82,2.89,15.62,2.3,5.96-.6,11.69-1.11,17.43-3.02,7.22-2.4,14.59-6.36,22.26-4.34,7.46,1.97,14.5,1.38,22.2.26,1.03.25.45,3.34,1.9,2.57,4.36-2.32,8.57.65,12.67-.16,4.78-.94,9.58,2.36,14.28-.44.54-.33,2.02.43,2.78,1.03,3.57,2.86,7.83,3.95,12.14,4.74,4.56.83,9.11,2.21,13.41,3.48,4.02,1.18,9.61-1.82,12.29,3.62,7.49-1.17,12.41,4.38,18.92,6.95,2.99-4.37,9.52.2,13.36-5.72.39,4.97,2.78,3.62,5.22,3.57,4.83-.09,9.54-3.29,14.63.23,2.99,2.07,11.64-.59,13.44-3.35,4.57-7,10.58-10.86,19.24-9.56.79.12,2.07.2,2.41-.24,3.46-4.53,7.45-2.76,11.35-.95.67-.6,1.14-1.09,1.68-1.5,3.12-2.36,4.7-6.41,10.55-1.87,3.85,2.99,11.03,4.46,16.46,4.68,4.36.18,7.88,1.71,10.27,3.7,1.57,1.3,2.98,1.95,4.4,2.17v.9c12.51.37,24.82,2.01,36.63,6.36,6.36,2.35,12.76,3.71,19.63,4.22,9.59.71,18.2-3.3,27.46-3.71-1.48-4.18-5.93-3.22-8.82-5.25,2.41-2.06,5.14-2.38,7.82-2.53,7.86-.46,15.73-.62,23.58-1.16,6.82-.47,13.73-2.38,20.39-1.7,8.05.84,12.15-5.52,17.46-8.58,8.11-4.68,15.84-10.52,23.77-15.82,2.32-1.55,4.3-2.09,7.05-.8,5.01,2.35,10.49,3.91,15.6.76,5.21-3.23,9.85-2.05,14.89.06,3.7,1.55,7.82,3.95,11.43,3.48,8.96-1.17,17.87-1.51,26.85-1.34,4.24.08,8.29-1.22,11.52-3.77,5.83-4.59,12.34-5.42,19.4-4.72.94,1.08-1.46,2.4.38,3.63,6.06,0,12.36.66,18.47-1.75,2.04-.81,4.83-1.27,5.05,2.02.23,3.28,1.07,6.81-1.23,10.05-3.92-1.36-9.11,1.26-11.65-5.38-3.88,7.85-10.3,3.85-15.65,4.67,4.84,2.05,9.36,4.92,14.49,5.07,16.08.48,32.17.63,48.25.75,1.81.02,4.19.94,5.41-1.66,1.57-3.32-3.13-1.78-2.97-3.95.03-.32-.04-.64-.08-1.15,6.64-1.74,13.66-2.11,19.79-4.92.79-3.61-2.96-3.31-4.95-5.35,2.84-1.76,5.31-3.29,8.12-5.04,2.11,2.42,4.1,4.7,5.92,6.79,2.64-.84,4.49-2.19,6.86-2.07,4.98.25,9.88-.92,14.81-1.14,6.17-.28,9.61-2.94,10.25-9.1-1.14-1.65-2.88-.5-4.29-.91-1.49-.43-2.95-.83-3.72-2.34q5.09-6.23-2.89-11.93c1.22-1.94,2.77-.9,3.95-.22,4.18,2.42,8.49,1.38,11.5-1.21,3.28-2.82,6.88-2.58,9.21-1.01,5.61,3.8,11.68,3.7,17.7,3.43,20.02-.88,38.28,6.09,56.67,12.32,6.29,2.13,11.16,8.35,18.75,5.77.85,3.57-1.45,6.35-.03,9.35,5.34-1.19,10.58-2,16.13-.57,9,2.32,17.31,8.53,27.54,4.42-1.28,7.82-4.13,13.55-12.04,16.09,8.73,4.98,17.08,5.09,25.66,4.32,5.74-.52,11.42-.17,16.42,3.63-6.39,4.76-13.55.57-21.2,2.64,2.94,2.41,5.04,3.64,7.86,3.6,3.94-.06,7.9-.28,11.81.04,3.23.27,5.59-.15,6.6-3.66.49-1.7,2.01-2.47,3.63-2.17,3.8.69,7.64.91,10.93,3.73,3.5,2.99,7.67,5.08,12.6,4.97,9.87-.22,16.71-7.27,24.99-11.06.9-.41,1.94-1.43,1.89-2.84-3.05-1.03-6.07-2.05-9.41-3.18,2.49-2.82,1.31-4.98-2.23-7.24,7.67-1,6.72-6.84,7.32-11.36-1.19.02-2.65,1.8-4.86,1.61-5.33-.46-10.57.55-15.78,1.59-4.42.88-9.17,3.09-13.21,2.18-5.76-1.28-10.59,1.73-15.99,1.39-3.48-.22-6.56,1.47-7.5,5.62-.5,2.19-2.43,3.07-4.67,3.24-1.17-4.85,1.19-7.63,5.35-9.11,4.19-1.5,8.57-2.88,13-2.5,6.01.5,9.26-2.4,11.44-7.43.73-1.7,1.64-3.31,2.51-5.03,1.4.49,3.34.8,2.59,2.38-.84,1.77-1.63,3.35.53,4.08,2.03.69,4.36-.25,4.99-2.42,1.19-4.07,3.82-3.17,6.55-2.73v5.32c4.84.32,8.88-1.46,12.68-3.79ZM642.73,81.91c-4.57.14-3.22-4.88-5.88-6.41,1.78-1.87,3.99-1.97,5.88-2.75v9.16Z"/>
  </g>
</svg>