<?xml version="1.0" encoding="UTF-8"?>
<svg id="Capa_2" data-name="Capa 2" xmlns="http://www.w3.org/2000/svg" viewBox="0 0 1920 116.93">
  <defs>
    <style>
      .cls-1 {
        fill: #fff;
        stroke-width: 0px;
      }
    </style>
  </defs>
  <g id="Capa_1-2" data-name="Capa 1">
    <path class="cls-1" d="M1885.57,4.6c-9.76-4-19.69-4.73-30.03-4.58-6.41.09-11.68,4.4-17.94,3.37.21,5.24,5.58,2.87,7.47,5.63-.41.36-.61.69-.9.78-6.43,2.01-12.73,3.6-19.77,2.51-5.39-.82-11.36,1.79-16.48,1.3-12.55-1.21-23.1,3.2-32.74,9.56-6.29,4.16-12.4,8.8-18.78,12.94-4.08,2.64-7.85,6.77-13.67,2.41-2.05-1.53-5.51-1.14-8.69-.53-5.17.98-9.88,4.21-15.96,1.85-6.05-2.34-11.78-5.88-19.56-3.73-6.89,1.9-14.74.33-22.17.32-2.59-.01-5.03.55-7.31,1.86-7.18,4.11-14.05,9.42-23.32,5.94-.18-.49,1.05-2.35-.32-2.16-4.21.61-8.1-2.73-12.67-.19-2.48,1.37-6.69,3.46-9.2.95-2.92-2.93-2.06-7.29-.73-11.13.05-.13.26-.21.76-.61,3.42,1.54,8.69-1.59,11.02,4.57,3.61-5.57,9.28-4.03,14.39-4.45-4.33-2.41-8.76-4.53-13.35-4.66-16.72-.48-33.45-.41-50.18-.52-2.08-.02-4.13.16-4.86,2.69,1.09,1.95,4.07,1.41,5.13,4.05-6.72,1.21-13.24,2.39-19.89,3.59-.98,3.76,1.48,5.43,4.84,7.06-3.19.78-4.65,3.77-7.46,4-3.24-1.28-3.84-6.14-8.19-5.34-8.97,1.63-17.89,3.62-27.11,2.77-1.11,3.07-2.14,5.89-3.24,8.93,2.88.99,6.57-.66,8.25,3.04-1.23,2.48-4.54,3.43-5.36,6.55,2.9,1.83,5.66,3.57,8.41,5.31-.06.44-.12.87-.18,1.31-6.53-3.53-12.46-2.82-17.94,1.54-.41.32-1.4-.21-2,0-4.2,1.47-6.49-2.81-10.08-3.26-7.55-.93-15.13-.93-22.71-1.23-17.2-.67-32.97-6.94-48.65-13.17-5.33-2.12-10-5.88-16.28-4.91-.51-3.05,1.4-5.64.11-9.07-8.52,4.56-16.8,1.5-24.59-1.89-6.28-2.74-12.21-2.91-18.68-1.41.06-7.88,4.51-12.92,11.8-16.84-6.87-2.39-12.38-4.65-18.63-4.11-4.24.37-8.53.4-12.79.26-3.79-.11-7.55-.69-10.49-3.67,6.26-4.96,14.28.78,20.39-3.71-7.71-4.23-15.79-1.42-23.34-2.71-1.23,2.14-2.24,3.9-3.25,5.65-.78,1.35-2.28,2.23-3.39,1.42-3.46-2.53-8.08-2.15-11.36-5.59-4.37-4.58-16.31-5.69-20-2.31-3.14,2.87-6.63,4.64-10.65,5.71-3.24.86-5.84,2.58-6.79,5.91,2.13,3.15,5.72,2.2,8.69,3.65-1.1,2.58-3.7,5.52,1.59,6.86-3.54,2.35-6.58,4.2-8.95,7.3.97.16,1.73.28,2.57.42.41,1.63-2.24,2.08-1.4,4.13,1.91-.22,3.92-.64,5.92-.65,5.85-.04,11.05-3,16.76-3.53,9.4-.87,18.81-1.53,28.21-2.44,3.38-.32,5.95-2.12,7.2-5.43.85-2.29,2.34-3.61,4.92-3.49,1.12,4.89-1.29,7.78-5.52,8.92-4.35,1.19-8.45,3.29-13.41,2.53-4.15-.62-7.8,1.2-9.82,5.56-1.09,2.35-1.65,5.18-4.04,6.76-1.02-.49-2.46-1.7-2.11-1.87,3.23-1.62,1.63-2.68-.3-3.63-2.21-1.1-5.01-1.01-5.45,1.45-.82,4.59-3.6,2.71-5.81,2.94-.93-1.57.63-3.01-.08-3.7-6.45-2.89-10.86.8-15.45,3.48-2.23,1.31-4.54,2.41-6.9,3.4v-2.27c-.36-.28-.61-.36-1.2-.24-4.13.86-7.93,5.35-12.24,2.66-4.47-2.79-7.52-1.83-10.21,1.46-2.02.19-1.68-2.29-3.59-1.98-4.18.68-6.97-1.86-9.72-4.57-3.3-3.24-7.46-4.65-12.05-4.7-2.39-.02-4.74.02-7.03-.9-8.54-3.43-15.7,1.22-22.82,4.53-2.61,1.21-4.24,1.59-6.91.67-14.71-5.1-29.35-10.66-45.48-8.05-1.85.3-2.91.69-4.13,2.12-2.53,2.96-4.19,7.96-9.91,5.13-1.66-.82-2.15,1.14-3.08,2.02-2.61,2.45-5.73,3.5-9.26,2.75-.73-.16-1.45-1.26-2.22-.52-3.87,3.73-6.78.13-8.32-2.06-2.62-3.71-5.6-2.94-7.79-1.12-2.97,2.47-5.1.99-6.57-.78-3.9-4.71-8.75-6.59-14.66-7.67-5.4-.98-10.79.3-15.67.82-4.21.44-8.52,1.82-13.04,1.12-1.47-.23-2.74.52-3.75,1.38-4.39,3.72-8.93,3.78-13.6.72-5.52-3.62-10.27-2.9-14.94,1.76-1.66,1.66-4.14,2.78-6.85,3.25-.5-1.09-.09-2.76-1.91-2.74-1.75,1.15-2.9,2.99-3.47,4.87-1.29,4.25-4.07,6.84-8.28,7.03-6.85.29-13.5,2.49-20.48,1.76-4.18-.45-8.21-1.84-12.57-1.45-3.34.29-7-3.81-6.29-7.3-9.79,3.88-18.39-2.14-28.52-1.11-1.44,1.63-11.55,3.65-14.54,2.1-.15-.08-.42-.12-.44-.22-1.12-5.08-6.33-3.25-9.08-5.39-7.98-6.18-14.8-.75-20.43,3.19-4.01,2.81-6.87,5.79-12.32,6.43-2.93.35-4.6-1.2-6.98-1.26-7.37-.16-14.48-1.89-21.36-4.59-2.43-.96-4.9-2.93-7.64-1.5-4.07,2.13-8.64,2.07-12.67,1.66-6.97-.72-13.91.11-20.83-.6-.62-.06-1.61-.04-1.87.33-3.77,5.38-8.18,2.27-11.52.14-3.08-1.97-4.81-1.76-6.84.73-2.24,2.74-4.3,2.25-6.17-.34-.9-1.23-1.67-1.78-3.35-1.18-6.03,2.17-12.26,2.34-18.56,1.39-2.45-.37-4.37-.18-5.62,2.85-1.39,3.36-10.42,6.12-12.91,4.57-5.54-3.48-7.91-3.44-12.41,1.04-3,2.99-6.21,3.84-10.21,2.81-8.92-2.28-16.78-7.5-25.94-9.24-2.59-.49-5.14-1.86-6.67-4.38-.42-.69-.68-1.93-1.68-1.6-5.71,1.88-10.14-3.33-15.77-2.18-.02-5.7-3.33-6.51-7.22-5.11-4.82,1.72-8.12-.2-11.26-3.38-2.33-2.35-4.63-4.77-6.67.3-.8,1.99-2.68.87-4.05,1.25v.45c-11.82.34-23.48-.98-34.42-5.46-9.76-4-19.7-4.74-30.03-4.59-6.41.1-11.69,4.41-17.94,3.38.21,5.24,5.57,2.87,7.46,5.62-.4.37-.61.69-.89.78-6.43,2.02-12.74,3.6-19.77,2.52-5.39-.83-11.37,1.78-16.48,1.29-12.55-1.2-23.1,3.2-32.74,9.57-6.3,4.16-12.41,8.79-18.78,12.93-4.08,2.65-7.85,6.78-13.67,2.42-2.06-1.54-5.51-1.14-8.7-.53-5.17.98-9.87,4.21-15.96,1.85-6.04-2.34-11.78-5.88-19.56-3.73-6.89,1.9-14.74.33-22.17.31-2.59,0-5.02.56-7.31,1.87-7.18,4.11-14.05,9.42-23.32,5.94-.17-.5,1.06-2.36-.31-2.16-4.22.61-8.1-2.74-12.68-.19-2.47,1.37-6.69,3.46-9.2.94-2.91-2.92-2.06-7.28-.72-11.12.05-.14.25-.21.76-.62,3.41,1.55,8.68-1.59,11.02,4.58,3.61-5.57,9.27-4.03,14.39-4.45-4.34-2.41-8.76-4.54-13.36-4.67-16.71-.47-33.45-.4-50.17-.52-2.08,0-4.13.17-4.86,2.69,1.09,1.96,4.06,1.42,5.12,4.06-6.72,1.21-13.24,2.38-19.89,3.58-.98,3.76,1.49,5.44,4.84,7.06-3.18.79-4.65,3.77-7.46,4-3.24-1.27-3.83-6.13-8.19-5.34-8.96,1.63-17.88,3.63-27.1,2.78-1.12,3.07-2.14,5.89-3.24,8.93,2.88.99,6.57-.67,8.25,3.03-1.23,2.49-4.54,3.43-5.37,6.56,2.91,1.83,5.66,3.57,8.42,5.31-.06.43-.12.87-.18,1.3-6.53-3.52-12.46-2.81-17.95,1.54-.4.33-1.4-.2-2,.01-4.2,1.47-6.49-2.82-10.08-3.26-7.54-.93-15.13-.93-22.71-1.23-17.19-.68-32.97-6.94-48.64-13.17-5.34-2.12-10.01-5.88-16.28-4.92-.52-3.05,1.4-5.64.11-9.06-8.52,4.56-16.81,1.49-24.59-1.9-6.28-2.73-12.22-2.91-18.68-1.41.06-7.88,4.51-12.91,11.79-16.83-6.86-2.39-12.37-4.65-18.62-4.11-4.25.36-8.54.39-12.8.26-3.78-.12-7.54-.69-10.49-3.67,6.26-4.96,14.28.77,20.39-3.71-7.71-4.23-15.79-1.42-23.34-2.71-1.23,2.14-2.23,3.89-3.24,5.65-.78,1.35-2.28,2.22-3.4,1.41-3.46-2.52-8.08-2.14-11.36-5.58-4.37-4.58-16.31-5.69-19.99-2.32-3.14,2.88-6.63,4.64-10.66,5.71-3.24.86-5.84,2.59-6.78,5.92,2.12,3.14,5.71,2.2,8.69,3.65-1.1,2.58-3.71,5.52,1.59,6.85-3.55,2.35-6.58,4.2-8.96,7.3.97.16,1.74.29,2.58.43.41,1.63-2.25,2.08-1.4,4.13,1.91-.23,3.91-.65,5.92-.66,5.84-.03,11.05-3,16.75-3.53,9.4-.87,18.82-1.53,28.21-2.43,3.38-.33,5.95-2.12,7.2-5.44.86-2.28,2.35-3.6,4.92-3.49,1.12,4.89-1.28,7.78-5.51,8.93-4.36,1.18-8.46,3.28-13.41,2.53-4.15-.63-7.8,1.2-9.83,5.55-1.09,2.35-1.65,5.18-4.04,6.77-1.02-.5-2.45-1.7-2.11-1.88,3.23-1.62,1.63-2.67-.3-3.63-2.21-1.09-5.01-1-5.44,1.45-.82,4.6-3.6,2.71-5.81,2.94-.93-1.56.62-3.01-.09-3.7-6.45-2.88-10.85.81-15.44,3.49-3.67,2.14-7.52,3.78-11.5,5.18v41.83h1920V10.07c-11.82.33-23.48-.99-34.43-5.47ZM1283.08,66.18v-3.45c.45.93.97,1.83,1.83,2.51-.63.36-1.24.67-1.83.94Z"/>
  </g>
</svg>