<?xml version="1.0" encoding="UTF-8"?>
<svg id="Capa_2" data-name="Capa 2" xmlns="http://www.w3.org/2000/svg" viewBox="0 0 421.68 194.66">
  <defs>
    <style>
      .cls-1 {
        fill: #1d1d1d;
        stroke-width: 0px;
      }
    </style>
  </defs>
  <g id="Capa_1-2" data-name="Capa 1">
    <path class="cls-1" d="M411.23,119.96c-21.93,5.61-42.64,2.86-60.28-11.66-13.17-10.84-35.87-44.83-40.55-50.1-6.2-7.61-14.22-16.99-19.25-21.87-16.19-15.7-45.74-29.55-68.29-33.67-30.32-5.55-49.2-1.98-78.75,6.78-13.56,4.02-25.72,10.81-37.19,21.1,2.04.16,2.98.26,3.92.3,27.8,1.23,53.1,10.24,76.75,24.5,5.88,3.96,18.8,13.44,24.05,17.79,9.25,7.65,13.17,11.19,13.73,14.36-.96.24-1.49-.47-2.15-.94-13.16-9.42-36.36-20.97-50.7-28.36-9-4.36-17.7-7.43-26.5-10.16-22.62-7.03-45.62-10.75-69.44-8.47-4.72.45-9.2,1.45-13.53,2.85C19.78,54.35,8.71,74.39,2.38,91.27-.47,98.86-.08,111.22.18,119.83c31.73-53.35,51.25-57.04,85.62-59.47,0,5.39.11,10.17-.02,14.95-.44,16.85,2.9,33.2,10.71,47.82,10.35,19.38,26.1,34.13,45.57,44.7,32.56,17.68,67.88,24.41,104.38,26.38,20.01,1.08,39.95.16,59.84-2.52,42.27-5.7,76.5-25.81,104.17-57.71,4.3-4.95,8.48-10.15,11.24-17.12-3.91,1.17-7.15,2.26-10.45,3.11Z"/>
  </g>
</svg>