<?xml version="1.0" encoding="UTF-8"?>
<svg id="Capa_2" data-name="Capa 2" xmlns="http://www.w3.org/2000/svg" viewBox="0 0 720 475.13">
  <defs>
    <style>
      .cls-1 {
        fill: #000;
        stroke-width: 0px;
      }
    </style>
  </defs>
  <g id="Capa_1-2" data-name="Capa 1">
    <g>
      <g>
        <path class="cls-1" d="M100.59,98.81c-11.37,11.03-26.06,16.16-42.01,16.16C17.53,114.97.16,87.16,0,58.88-.16,30.45,18.63,1.55,58.59,1.55c15,0,29.21,5.59,40.58,16.62l-13.9,13.21c-7.26-6.99-17.06-10.25-26.69-10.25-26.69,0-38.22,19.58-38.06,37.75.16,18.02,10.74,36.82,38.06,36.82,9.63,0,20.53-3.88,27.79-11.03l14.21,14.14Z"/>
        <path class="cls-1" d="M203.78,112.48h-24.79l-32.22-36.35h-20.06v36.35h-20.84V3.57c17.53,0,35.06.16,52.59.16,26.06.16,39.79,17.25,39.79,36.04,0,14.91-6.95,29.98-27.95,34.18l33.48,37.13v1.4ZM126.71,22.84v34.8h31.74c13.27,0,18.95-8.7,18.95-17.4s-5.84-17.4-18.95-17.4h-31.74Z"/>
        <path class="cls-1" d="M292.55,112.48h-82.75V3.73h82.75v19.89h-62.06v25.01h59.85v19.11h-59.85v24.55h62.06v20.2Z"/>
        <path class="cls-1" d="M382.78,112.64h-82.75V3.88h82.75v19.89h-62.06v25.01h59.85v19.11h-59.85v24.55h62.06v20.2Z"/>
        <path class="cls-1" d="M487.15,33.71l-36,47.23h-4.11l-35.21-47.39v79.08h-20.84V3.88h24l34.58,46.76L484.15,3.88h23.85v108.75h-20.85V33.71Z"/>
        <path class="cls-1" d="M627.48,58.73c-.32,28.12-17.84,56.24-56.69,56.24s-56.85-27.5-56.85-56.09S532.57,1.55,570.78,1.55s57.01,28.74,56.69,57.17ZM534.46,59.19c.47,17.87,10.26,36.98,36.32,36.98s35.85-19.26,36.16-37.13c.32-18.33-10.11-38.84-36.16-38.84s-36.79,20.66-36.32,39Z"/>
        <path class="cls-1" d="M699.95,29.98c-3.79-6.21-14.21-12.12-26.21-12.12-15.48,0-22.9,6.37-22.9,14.45,0,9.48,11.37,12.12,24.63,13.67,23.06,2.8,44.53,8.7,44.53,34.65,0,24.24-21.79,34.65-46.43,34.65-22.58,0-39.95-6.84-48.16-26.72l17.37-8.86c4.9,11.96,17.69,17.25,31.11,17.25s25.42-4.51,25.42-16.31c0-10.25-10.9-14.45-25.58-16-22.58-2.64-43.43-8.54-43.43-32.94,0-22.37,22.42-31.54,42.79-31.69,17.21,0,35.06,4.82,43.43,21.6l-16.58,8.39Z"/>
      </g>
      <g>
        <path class="cls-1" d="M102.8,148.99c4.98,5.42,7.48,12.92,7.48,22.5v41.41h-6.04v-41.12c0-8.05-1.92-14.26-5.75-18.62-3.83-4.36-9.3-6.54-16.39-6.54-4.51,0-8.6,1.15-12.29,3.45-3.69,2.3-6.57,5.44-8.63,9.42-2.06,3.98-3.09,8.46-3.09,13.44v39.97h-6.04v-41.12c0-8.05-1.89-14.26-5.68-18.62-3.79-4.36-9.27-6.54-16.46-6.54-4.51,0-8.58,1.15-12.22,3.45-3.64,2.3-6.49,5.44-8.55,9.42-2.06,3.98-3.09,8.46-3.09,13.44v39.97H0v-71.02h5.75v13.37c2.59-4.5,6.01-8.03,10.28-10.57,4.26-2.54,8.94-3.81,14.02-3.81,6.42,0,11.86,1.51,16.32,4.53s7.59,7.36,9.42,13.01c2.49-5.46,6.06-9.75,10.71-12.87,4.65-3.11,9.9-4.67,15.74-4.67,8.72,0,15.57,2.71,20.56,8.12Z"/>
        <path class="cls-1" d="M146,209.45c-5.51-3.16-9.83-7.55-12.94-13.15-3.12-5.61-4.67-11.91-4.67-18.91s1.56-13.3,4.67-18.91c3.11-5.61,7.43-9.99,12.94-13.15,5.51-3.16,11.72-4.74,18.62-4.74s13.25,1.58,18.76,4.74c5.51,3.16,9.82,7.55,12.94,13.15,3.11,5.61,4.67,11.91,4.67,18.91s-1.56,13.3-4.67,18.91c-3.12,5.61-7.43,9.99-12.94,13.15-5.51,3.16-11.77,4.74-18.76,4.74s-13.11-1.58-18.62-4.74ZM180.14,204.42c4.6-2.68,8.22-6.4,10.85-11.14,2.64-4.74,3.95-10.04,3.95-15.89s-1.32-11.14-3.95-15.89c-2.64-4.74-6.25-8.46-10.85-11.14-4.6-2.68-9.78-4.03-15.53-4.03s-10.93,1.34-15.53,4.03c-4.6,2.68-8.19,6.4-10.78,11.14s-3.88,10.04-3.88,15.89,1.29,11.14,3.88,15.89c2.59,4.74,6.18,8.46,10.78,11.14,4.6,2.68,9.78,4.03,15.53,4.03s10.93-1.34,15.53-4.03Z"/>
        <path class="cls-1" d="M322.91,148.99c4.98,5.42,7.48,12.92,7.48,22.5v41.41h-6.04v-41.12c0-8.05-1.92-14.26-5.75-18.62-3.83-4.36-9.3-6.54-16.39-6.54-4.51,0-8.6,1.15-12.29,3.45-3.69,2.3-6.57,5.44-8.63,9.42-2.06,3.98-3.09,8.46-3.09,13.44v39.97h-6.04v-41.12c0-8.05-1.89-14.26-5.68-18.62-3.79-4.36-9.27-6.54-16.46-6.54-4.51,0-8.58,1.15-12.22,3.45-3.64,2.3-6.49,5.44-8.55,9.42-2.06,3.98-3.09,8.46-3.09,13.44v39.97h-6.04v-71.02h5.75v13.37c2.59-4.5,6.01-8.03,10.28-10.57,4.26-2.54,8.94-3.81,14.02-3.81,6.42,0,11.86,1.51,16.32,4.53s7.59,7.36,9.42,13.01c2.49-5.46,6.06-9.75,10.71-12.87,4.65-3.11,9.9-4.67,15.74-4.67,8.72,0,15.57,2.71,20.56,8.12Z"/>
        <path class="cls-1" d="M402.91,144.97c5.41,2.92,9.58,7.02,12.51,12.29,2.92,5.27,4.38,11.36,4.38,18.26,0,1.82-.05,3.21-.14,4.17h-65.13c.67,8.91,3.69,15.96,9.06,21.13,5.37,5.18,12.31,7.76,20.85,7.76,5.27,0,10.3-1.05,15.1-3.16,4.79-2.11,8.48-4.89,11.07-8.34l4.31,3.59c-3.36,4.22-7.72,7.55-13.08,9.99-5.37,2.44-11.17,3.67-17.4,3.67-6.9,0-13.08-1.58-18.55-4.74-5.46-3.16-9.73-7.55-12.8-13.15-3.07-5.61-4.6-11.96-4.6-19.05s1.51-13.42,4.53-18.98c3.02-5.56,7.24-9.92,12.65-13.08,5.41-3.16,11.57-4.74,18.47-4.74s13.35,1.46,18.76,4.39ZM363.59,153.88c-5.37,5.13-8.39,11.86-9.06,20.2h59.38c0-5.46-1.27-10.3-3.81-14.52-2.54-4.22-6.04-7.5-10.5-9.85-4.46-2.35-9.61-3.52-15.46-3.52-8.34,0-15.19,2.57-20.56,7.69Z"/>
        <path class="cls-1" d="M493.34,149.07c5.32,5.46,7.98,13.08,7.98,22.86v40.97h-6.04v-40.69c0-8.24-2.11-14.57-6.33-18.98-4.22-4.41-10.21-6.61-17.97-6.61-5.27,0-9.99,1.18-14.16,3.52-4.17,2.35-7.4,5.56-9.7,9.63-2.3,4.07-3.45,8.6-3.45,13.59v39.54h-6.04v-71.02h5.75v13.95c2.78-4.6,6.61-8.24,11.5-10.93,4.89-2.68,10.35-4.03,16.39-4.03,9.39,0,16.75,2.73,22.07,8.19Z"/>
        <path class="cls-1" d="M566.45,210.31c-5.18,2.59-10.02,3.88-14.52,3.88-7.19,0-12.22-1.87-15.1-5.61-2.88-3.74-4.31-9.39-4.31-16.96v-44.14h-15.24v-5.61h15.24v-20.99l6.04-.57v21.57h24.59v5.61h-24.59v44.14c0,5.66.91,9.92,2.73,12.8,1.82,2.88,5.37,4.31,10.64,4.31,1.63,0,3.59-.33,5.89-1.01,2.3-.67,4.41-1.48,6.33-2.44l2.3,5.03Z"/>
        <path class="cls-1" d="M592.69,209.45c-5.51-3.16-9.83-7.55-12.94-13.15-3.12-5.61-4.67-11.91-4.67-18.91s1.56-13.3,4.67-18.91c3.11-5.61,7.43-9.99,12.94-13.15,5.51-3.16,11.72-4.74,18.62-4.74s13.25,1.58,18.76,4.74c5.51,3.16,9.82,7.55,12.94,13.15,3.11,5.61,4.67,11.91,4.67,18.91s-1.56,13.3-4.67,18.91c-3.12,5.61-7.43,9.99-12.94,13.15-5.51,3.16-11.77,4.74-18.76,4.74s-13.11-1.58-18.62-4.74ZM626.84,204.42c4.6-2.68,8.22-6.4,10.85-11.14,2.64-4.74,3.95-10.04,3.95-15.89s-1.32-11.14-3.95-15.89c-2.64-4.74-6.25-8.46-10.85-11.14-4.6-2.68-9.78-4.03-15.53-4.03s-10.93,1.34-15.53,4.03c-4.6,2.68-8.19,6.4-10.78,11.14-2.59,4.74-3.88,10.04-3.88,15.89s1.29,11.14,3.88,15.89c2.59,4.74,6.18,8.46,10.78,11.14,4.6,2.68,9.78,4.03,15.53,4.03s10.93-1.34,15.53-4.03Z"/>
        <path class="cls-1" d="M672.99,210.6c-5.56-2.39-9.87-5.46-12.94-9.2l3.74-4.03c2.97,3.36,6.85,6.04,11.65,8.05,4.79,2.01,9.97,3.02,15.53,3.02,7,0,12.6-1.32,16.82-3.95,4.22-2.64,6.33-6.16,6.33-10.57,0-2.68-.72-4.89-2.16-6.61-1.44-1.73-3.86-3.21-7.26-4.46-3.4-1.24-8.32-2.49-14.74-3.74-7-1.34-12.46-2.8-16.39-4.39-3.93-1.58-6.76-3.54-8.48-5.89-1.73-2.35-2.59-5.34-2.59-8.99,0-5.94,2.59-10.64,7.76-14.09,5.18-3.45,12.17-5.18,20.99-5.18,5.65,0,10.66.77,15.02,2.3,4.36,1.53,8.46,3.88,12.29,7.04l-3.45,4.31c-3.45-2.78-7.02-4.82-10.71-6.11-3.69-1.29-8.03-1.94-13.01-1.94-7.28,0-12.92,1.2-16.89,3.59-3.98,2.4-5.97,5.75-5.97,10.06,0,2.59.67,4.67,2.01,6.25,1.34,1.58,3.57,2.95,6.69,4.1,3.11,1.15,7.64,2.3,13.59,3.45,7.38,1.34,13.15,2.85,17.32,4.53,4.17,1.68,7.19,3.79,9.06,6.33,1.87,2.54,2.8,5.73,2.8,9.56,0,6.04-2.66,10.9-7.98,14.59-5.32,3.69-12.34,5.54-21.06,5.54-6.42,0-12.41-1.2-17.97-3.59Z"/>
      </g>
      <g>
        <path class="cls-1" d="M46.48,308.38c5.08-14.19,15.23-32.77,25.73-46.84-4.73,3.69-11.42,9.58-15,11.08-4.5,2.08-6.58-1.96-4.5-6.11,3.12-6.11,17.19-16.15,22.15-8.42,1.04-1.38,2.08-2.65,3.12-3.81,1.15-1.38,3.46.23,2.19,1.73-6,7.5-10.38,14.42-14.77,21.69,9.81.46,27.11-11.42,32.53-16.61.92-.92,2.08.23,1.15,1.15-6.35,6.23-24.34,17.88-34.61,17.65-.92,12-3,22.15-8.77,33.57-3.92,7.5-7.85,11.54-10.38,10.96-2.65-.69-2.65-5.42,1.15-16.04ZM54.21,312.99c5.77-11.19,7.15-19.27,8.42-31.15-4.5,7.61-12.58,23.77-15.23,33.8-2.42,9,1.5,7.38,6.81-2.65ZM73.47,258.65c-4.15-7.85-21.69,10.96-18.92,12.46,2.42,1.27,16.15-10.5,18.92-12.46Z"/>
        <path class="cls-1" d="M139.7,261.08c.92-.92,2.08.23,1.15,1.15-7.96,7.73-20.54,17.65-30,20.31-5.77,1.73-8.77-1.15-8.77-5.31,0-4.38,6.46-14.08,8.88-17.88-3.46,3.69-9.58,10.73-13.73,13.27-3.23,2.08-6.11-.92-4.5-4.27,1.5-3,5.65-7.61,7.15-9.23,1.15-1.38,4.15.69,2.65,2.19-2.19,2.08-8.54,9.69-7.38,10.38,2.08,1.27,16.61-15.46,18.69-17.65,1.62-1.85,4.62.35,3.35,2.19-2.54,3.46-16.04,22.5-10.96,24.69,6.81,3,27.8-14.42,33.46-19.84Z"/>
        <path class="cls-1" d="M134.16,273.65c-.58-7.5,7.85-17.65,15.92-20.42,4.5-1.5,7.15.69,6,3.81-1.04,3.11-6.92,7.73-15.69,8.54-1.85,2.08-5.19,9.92-1.62,12.46,4.04,2.88,13.84-1.73,17.54-3.81,6.23-3.35,12.46-8.31,17.42-13.15.92-.92,2.19.23,1.27,1.15-5.08,4.96-11.65,9.92-18.11,13.5-5.08,2.77-14.54,6.92-19.61,3.69-2.08-1.38-3-3.46-3.11-5.77ZM141.31,264.31c7.27-1.96,13.84-7.38,13.73-8.88-.23-1.62-6.58.35-13.73,8.88Z"/>
        <path class="cls-1" d="M291.41,204.2c-3.23,6-8.65,12.69-15,19.38,17.31-2.31,49.15-8.88,60.57-3.69.92,1.04-1.5,2.88-2.08,1.62-9.92-4.73-35.77.35-60.34,4.15-12.92,13.27-29.19,26.65-39.8,35.3-8.08,17.65-8.08,27.23-4.04,28.96,7.04,2.88,25.73-11.31,42.8-28.96.92-.81,2.08.35,1.15,1.27-14.08,13.84-35.07,33.8-45.57,29.54-10.15-4.04-.23-26.77,3.69-34.73,4.5-8.77,10.15-18.69,16.5-28.15-15.58,1.96-29.42,3.35-36.92,2.08-2.65-.46-4.15-1.15-5.31-2.42-.81-1.15,1.73-3.11,2.42-1.62,2.08,4.38,19.84,2.65,41.19,0,8.42-12.23,18-23.54,27.34-30.69,11.31-8.65,20.54-5.65,13.38,7.96ZM271.79,226c-5.54.69-11.08,1.38-16.5,2.19-7.15,10.04-13.61,20.42-18.23,28.73,9.92-8.31,23.42-19.38,34.73-30.92ZM280.68,199.12c-7.73,6.11-16.15,16.27-24,27,5.65-.69,11.42-1.5,17.07-2.19,6.35-6.58,11.88-13.27,15.58-19.61,6.46-11.31,1.04-13.04-8.65-5.19Z"/>
        <path class="cls-1" d="M276.87,265c-.23-2.08-5.19-4.04-5.08-6.35.12-3.69,12.46-12.58,15-9.35.69,1.04.23,3.69-9.81,12,2.65,1.73,3.69,3.92,1.96,7.96-1.62,3.46-8.19,13.73-6,16.73,4.61,6.46,34.61-21.11,39-25.04.92-.81,2.08.46,1.04,1.27-5.42,4.38-26.88,24.81-36.8,26.65-3.92.69-7.38-1.5-7.15-6.11.58-6.23,8.08-15.34,7.85-17.77ZM285.06,250.46c-.69-.58-12.69,7.61-9.58,9.69,8.42-6.92,9.81-9.46,9.58-9.69Z"/>
        <path class="cls-1" d="M359.36,262.58c-6.23,5.42-26.54,24.46-37.15,22.38-8.88-1.73-4.61-14.08.23-19.96-1.27,1.15-3.92,3.58-6.69,5.31-5.54,3.58-9.23-.92-5.77-7.15,4.04-7.04,15.92-13.96,24.11-9.35,2.42,1.27-.58,3.92-1.38,2.19-2.31-5.08-10.73-.69-16.38,4.62-4.04,3.92-6.23,8.31-4.61,9.23,2.54,1.38,12.46-8.42,14.77-10.5,1.04-.92,3.35.81,2.54,1.85-3.12,3.58-14.88,19.96-5.77,21.81,9.46,1.85,29.77-17.08,34.84-22.15,1.04-.69,2.19.92,1.27,1.73Z"/>
        <path class="cls-1" d="M351.63,275.73c1.85-.92,4.04-1.73,6.35-2.54,1.15-8.31-3.58-18.23,7.38-22.38,1.62-.69,1.73,2.77.35,3-1.73.23-3.69.69-4.38,2.31-1.85,3.92.35,9,.12,16.04,6.23-2.19,14.65-5.65,22.15-11.31,1.04-.69,1.96.69.92,1.5-6.92,4.85-13.73,8.19-23.19,11.77-.92,5.19-4.85,9.69-10.73,11.08-6.81,1.73-10.96-4.04,1.04-9.46ZM357.63,275.15c-1.62.58-3.81,1.38-5.77,2.31-15.23,7.38,2.19,8.88,5.77-2.31Z"/>
        <path class="cls-1" d="M395.7,259.69c1.73-1.96,2.42-3.11,1.27-3.46-3.46-1.15-12,7.38-15.34,14.42-2.65,5.42-1.27,10.04,4.96,9.58,10.38-.58,28.84-13.61,36-19.04.46-.23,1.38-.92,1.85-.12.46.81-.58,1.38-.92,1.62-8.54,6.11-26.65,18.69-37.26,19.5-7.38.46-11.08-4.85-8.54-12.34,2.88-7.96,11.88-15.34,17.88-15.58,4.38-.12,5.08,3.92,2.31,7.15-.81.92-3-.81-2.19-1.73Z"/>
        <path class="cls-1" d="M428.24,259.34c-7.96,9.11-10.04,16.15-7.85,18.92,3.58,4.61,19.15-1.15,36-17.31,1.04-.81,1.96.69.92,1.38-19.04,17.77-33.92,22.15-38.76,17.65-3.23-3-3.12-10.5,6.92-22.27,1.38-1.61,3.81.46,2.77,1.62ZM434.35,250.35c-1.15,0-1.96-.92-1.85-2.08.23-1.15,1.27-2.19,2.42-2.19s1.96,1.04,1.85,2.19c-.23,1.15-1.27,2.08-2.42,2.08Z"/>
        <path class="cls-1" d="M452.35,281.38c-3.81-1.85-4.61-6.46-3.35-10.5,1.96-6.46,8.65-13.27,14.65-15.46,9-3.23,8.08,9.11-9,11.54-1.85,2.08-5.19,9.92-1.62,12.46,5.88,4.15,16.5-4.27,25.84-12.11,8.65-7.38,15.11-14.31,18.46-11.88,3.69,2.54-5.19,15.46-7.04,18.81,8.77-11.31,14.54-16.96,18.69-15.69,3.81,1.15,4.5,10.5,9,12.23,3.46,1.27,9.58-.35,22.5-8.54,1.15-.69,1.96.81.81,1.5-11.77,7.5-19.5,9.92-24.11,8.88-7.5-1.73-6.58-10.38-10.15-11.08-3.12-.58-9.69,6-18,17.65-1.73,2.31-5.77.58-4.38-2.08,1.15-2.42,11.31-19.04,9.69-19.96-3-1.85-29.19,30.34-42,24.23ZM455.58,265.69c7.27-1.96,12.34-6.46,12.23-7.96-.23-1.61-4.96-.58-12.23,7.96Z"/>
        <path class="cls-1" d="M562.99,258.77c-8.08,17.65-8.08,27.23-4.04,29.07,6.92,3.46,24.57-10.27,41.07-26.77.92-.92,2.08.35,1.15,1.15-13.15,12.46-33.34,31.84-43.96,27.46-4.85-2.08-7.38-10.15.58-28.38-2.88,3.23-10.5,10.73-14.19,12.23-5.65,2.42-8.19-3.81-4.73-9.11,5.08-7.61,13.27-13.5,19.96-11.65.92.23.12,1.85-.58,1.62-9.34-1.85-21.8,17.19-16.61,17.77,3.35.35,15.34-12.11,18.11-14.65,10.38-21.34,28.61-49.84,46.5-63.45,11.19-8.65,20.54-5.54,13.27,7.96-9.69,18.46-40.03,43.26-56.53,56.76ZM565.18,254.73c16.38-13.61,41.88-34.5,52.26-52.61,6.58-11.31,1.15-13.04-8.54-5.19-15.46,12.34-33.69,40.15-43.73,57.8Z"/>
        <path class="cls-1" d="M645.36,263.84c1.85-3.46,3.23-6.23,2.42-6.69-3.58-2.19-32.3,33.23-42.46,28.04-5.88-3-1.5-13.61,2.88-18.81-2.08,1.85-6.34,5.42-8.88,6.35-4.62,1.62-6.12-2.77-4.04-6.69,4.15-8.08,18.92-18,27.34-12.34,1.27.81-.92,2.88-1.62,1.96-6.23-8.42-26.65,12.58-23.88,15.46,2.08,2.08,14.54-10.5,16.61-12.23,1.04-.92,3.69,1.15,2.77,2.19-3.81,4.38-14.19,19.04-9.81,22.27,5.88,4.27,28.15-19.04,34.96-24.69,4.5-3.58,7.27-4.5,9.11-3.23,3.69,2.54-5.31,15.46-7.04,18.81,8.77-11.31,14.42-16.96,18.69-15.69,3.81,1.15,4.38,10.5,9,12.23,3.46,1.27,9.58-.35,22.5-8.54,1.04-.69,1.85.81.81,1.5-11.77,7.5-19.61,9.92-24.11,8.88-7.5-1.73-6.58-10.38-10.27-11.08-3.12-.58-9.69,6-18,17.65-1.62,2.31-5.65.58-4.27-2.08,1.15-2.42,4.73-8.54,7.27-13.27Z"/>
      </g>
      <g>
        <path class="cls-1" d="M44.38,329.67c4.42,2.39,7.82,5.73,10.2,10.03,2.38,4.3,3.58,9.26,3.58,14.89,0,1.49-.04,2.62-.12,3.4H4.93c.55,7.27,3.01,13.02,7.39,17.24,4.38,4.22,10.04,6.33,17,6.33,4.3,0,8.4-.86,12.31-2.58,3.91-1.72,6.92-3.99,9.03-6.8l3.52,2.93c-2.74,3.44-6.29,6.16-10.67,8.15-4.38,1.99-9.11,2.99-14.19,2.99-5.63,0-10.67-1.29-15.13-3.87-4.46-2.58-7.94-6.16-10.44-10.73C1.25,367.08,0,361.9,0,356.12s1.23-10.94,3.69-15.48c2.46-4.53,5.9-8.09,10.32-10.67,4.42-2.58,9.44-3.87,15.07-3.87s10.89,1.19,15.3,3.58ZM12.31,336.94c-4.38,4.18-6.84,9.67-7.39,16.48h48.43c0-4.46-1.04-8.4-3.11-11.84-2.07-3.44-4.93-6.12-8.56-8.03-3.63-1.91-7.84-2.87-12.61-2.87-6.8,0-12.39,2.09-16.77,6.27Z"/>
        <path class="cls-1" d="M118.14,333.02c4.34,4.46,6.51,10.67,6.51,18.65v33.42h-4.92v-33.19c0-6.72-1.72-11.88-5.16-15.48-3.44-3.6-8.33-5.39-14.66-5.39-4.3,0-8.15.96-11.55,2.87-3.4,1.92-6.04,4.53-7.92,7.86-1.88,3.32-2.81,7.02-2.81,11.08v32.25h-4.93v-57.93h4.69v11.37c2.27-3.75,5.39-6.72,9.38-8.91,3.99-2.19,8.44-3.28,13.37-3.28,7.66,0,13.66,2.23,18,6.68Z"/>
        <path class="cls-1" d="M211.07,329.73l-2.23,4.22c-2.89-1.72-6.14-2.58-9.73-2.58s-6.9,1.06-9.91,3.17c-3.01,2.11-5.38,5-7.1,8.68-1.72,3.68-2.58,7.7-2.58,12.08v29.79h-4.93v-57.93h4.69v12.9c2.03-4.22,4.79-7.52,8.27-9.91,3.48-2.38,7.37-3.58,11.67-3.58,4.61,0,8.56,1.06,11.84,3.17Z"/>
        <path class="cls-1" d="M258.74,329.67c4.42,2.39,7.82,5.73,10.2,10.03,2.38,4.3,3.58,9.26,3.58,14.89,0,1.49-.04,2.62-.12,3.4h-53.12c.55,7.27,3.01,13.02,7.39,17.24,4.38,4.22,10.04,6.33,17,6.33,4.3,0,8.4-.86,12.31-2.58,3.91-1.72,6.92-3.99,9.03-6.8l3.52,2.93c-2.74,3.44-6.29,6.16-10.67,8.15-4.38,1.99-9.11,2.99-14.19,2.99-5.63,0-10.67-1.29-15.13-3.87-4.46-2.58-7.94-6.16-10.44-10.73-2.5-4.57-3.75-9.75-3.75-15.54s1.23-10.94,3.69-15.48c2.46-4.53,5.9-8.09,10.32-10.67,4.42-2.58,9.44-3.87,15.07-3.87s10.89,1.19,15.3,3.58ZM226.67,336.94c-4.38,4.18-6.84,9.67-7.39,16.48h48.43c0-4.46-1.04-8.4-3.11-11.84-2.07-3.44-4.93-6.12-8.56-8.03-3.63-1.91-7.84-2.87-12.61-2.87-6.8,0-12.39,2.09-16.77,6.27Z"/>
        <path class="cls-1" d="M297.91,382.32c-4.57-2.54-8.17-6.1-10.79-10.67-2.62-4.57-3.93-9.75-3.93-15.54s1.31-11.18,3.93-15.71c2.62-4.53,6.19-8.05,10.73-10.55,4.53-2.5,9.65-3.75,15.36-3.75,8.05,0,14.93,2.85,20.64,8.56l-3.28,3.28c-2.27-2.42-4.91-4.22-7.92-5.39-3.01-1.17-6.2-1.76-9.56-1.76-4.61,0-8.82,1-12.61,2.99-3.79,1.99-6.8,4.91-9.03,8.74-2.23,3.83-3.34,8.37-3.34,13.6s1.11,9.54,3.34,13.37c2.23,3.83,5.26,6.78,9.09,8.85,3.83,2.07,8.05,3.11,12.66,3.11,3.36,0,6.59-.6,9.67-1.82,3.09-1.21,5.84-3.03,8.27-5.45l3.28,3.52c-2.89,2.74-6.18,4.83-9.85,6.27-3.68,1.45-7.47,2.17-11.38,2.17-5.63,0-10.73-1.27-15.3-3.81Z"/>
        <path class="cls-1" d="M399.52,327.15v57.93h-4.69v-11.61c-2.27,3.83-5.36,6.86-9.26,9.09-3.91,2.23-8.29,3.34-13.13,3.34-7.5,0-13.41-2.23-17.71-6.68-4.3-4.46-6.45-10.67-6.45-18.65v-33.42h4.93v33.19c0,6.72,1.7,11.88,5.1,15.48,3.4,3.6,8.23,5.39,14.48,5.39,4.22,0,7.99-.96,11.32-2.87,3.32-1.91,5.9-4.53,7.74-7.86,1.84-3.32,2.75-7.02,2.75-11.08v-32.25h4.93Z"/>
        <path class="cls-1" d="M459.5,329.67c4.42,2.39,7.82,5.73,10.2,10.03,2.38,4.3,3.58,9.26,3.58,14.89,0,1.49-.04,2.62-.12,3.4h-53.12c.55,7.27,3.01,13.02,7.39,17.24,4.38,4.22,10.04,6.33,17,6.33,4.3,0,8.4-.86,12.31-2.58,3.91-1.72,6.92-3.99,9.03-6.8l3.52,2.93c-2.74,3.44-6.29,6.16-10.67,8.15-4.38,1.99-9.11,2.99-14.19,2.99-5.63,0-10.67-1.29-15.13-3.87s-7.94-6.16-10.44-10.73c-2.5-4.57-3.75-9.75-3.75-15.54s1.23-10.94,3.69-15.48c2.46-4.53,5.9-8.09,10.32-10.67,4.42-2.58,9.44-3.87,15.07-3.87s10.89,1.19,15.3,3.58ZM427.43,336.94c-4.38,4.18-6.84,9.67-7.39,16.48h48.43c0-4.46-1.04-8.4-3.11-11.84-2.07-3.44-4.93-6.12-8.56-8.03-3.64-1.91-7.84-2.87-12.61-2.87-6.8,0-12.39,2.09-16.77,6.27Z"/>
        <path class="cls-1" d="M524.29,329.73l-2.23,4.22c-2.89-1.72-6.14-2.58-9.73-2.58s-6.9,1.06-9.91,3.17c-3.01,2.11-5.38,5-7.09,8.68-1.72,3.68-2.58,7.7-2.58,12.08v29.79h-4.93v-57.93h4.69v12.9c2.03-4.22,4.79-7.52,8.27-9.91,3.48-2.38,7.37-3.58,11.67-3.58,4.61,0,8.56,1.06,11.84,3.17Z"/>
        <path class="cls-1" d="M586.2,303v82.09h-4.69l-.12-12.78c-2.19,4.22-5.49,7.56-9.91,10.03-4.42,2.46-9.4,3.69-14.95,3.69s-10.54-1.27-14.95-3.81c-4.42-2.54-7.86-6.08-10.32-10.61-2.46-4.53-3.69-9.69-3.69-15.48s1.23-10.94,3.69-15.48c2.46-4.53,5.9-8.07,10.32-10.61,4.42-2.54,9.4-3.81,14.95-3.81s10.51,1.21,14.89,3.64c4.38,2.42,7.66,5.75,9.85,9.97v-36.82h4.93ZM569.49,378.28c3.71-2.11,6.61-5.08,8.68-8.91,2.07-3.83,3.11-8.25,3.11-13.25s-1.04-9.42-3.11-13.25c-2.07-3.83-4.96-6.8-8.68-8.91-3.71-2.11-7.92-3.17-12.61-3.17s-8.99,1.06-12.66,3.17c-3.68,2.11-6.55,5.08-8.62,8.91-2.07,3.83-3.11,8.25-3.11,13.25s1.03,9.42,3.11,13.25c2.07,3.83,4.94,6.8,8.62,8.91,3.67,2.11,7.89,3.17,12.66,3.17s8.89-1.06,12.61-3.17Z"/>
        <path class="cls-1" d="M616.16,382.27c-4.5-2.58-8.01-6.16-10.55-10.73-2.54-4.57-3.81-9.71-3.81-15.42s1.27-10.85,3.81-15.42c2.54-4.57,6.06-8.15,10.55-10.73,4.49-2.58,9.56-3.87,15.19-3.87s10.81,1.29,15.3,3.87c4.49,2.58,8.01,6.16,10.55,10.73,2.54,4.57,3.81,9.71,3.81,15.42s-1.27,10.85-3.81,15.42c-2.54,4.57-6.06,8.15-10.55,10.73-4.5,2.58-9.6,3.87-15.3,3.87s-10.69-1.29-15.19-3.87ZM644.01,378.16c3.75-2.19,6.7-5.22,8.85-9.09,2.15-3.87,3.22-8.19,3.22-12.96s-1.08-9.09-3.22-12.96c-2.15-3.87-5.1-6.9-8.85-9.09-3.75-2.19-7.97-3.28-12.66-3.28s-8.91,1.1-12.67,3.28c-3.75,2.19-6.68,5.22-8.79,9.09-2.11,3.87-3.17,8.19-3.17,12.96s1.06,9.09,3.17,12.96c2.11,3.87,5.04,6.9,8.79,9.09,3.75,2.19,7.97,3.28,12.67,3.28s8.91-1.09,12.66-3.28Z"/>
        <path class="cls-1" d="M681.65,383.2c-4.53-1.95-8.05-4.46-10.55-7.5l3.05-3.28c2.42,2.74,5.59,4.93,9.5,6.57,3.91,1.64,8.13,2.46,12.66,2.46,5.71,0,10.28-1.07,13.72-3.23,3.44-2.15,5.16-5.02,5.16-8.62,0-2.19-.59-3.99-1.76-5.39-1.17-1.41-3.15-2.62-5.92-3.64-2.78-1.01-6.78-2.03-12.02-3.05-5.71-1.09-10.16-2.29-13.37-3.58-3.21-1.29-5.51-2.89-6.92-4.81-1.41-1.91-2.11-4.36-2.11-7.33,0-4.85,2.11-8.68,6.33-11.49s9.93-4.22,17.12-4.22c4.61,0,8.7.63,12.25,1.88,3.56,1.25,6.9,3.17,10.03,5.75l-2.81,3.52c-2.81-2.27-5.73-3.93-8.74-4.98-3.01-1.06-6.55-1.58-10.61-1.58-5.94,0-10.54.98-13.78,2.93-3.24,1.95-4.87,4.69-4.87,8.21,0,2.11.55,3.81,1.64,5.1,1.09,1.29,2.91,2.4,5.45,3.34,2.54.94,6.23,1.88,11.08,2.81,6.02,1.1,10.73,2.33,14.13,3.69,3.4,1.37,5.86,3.09,7.39,5.16,1.52,2.07,2.29,4.67,2.29,7.8,0,4.93-2.17,8.89-6.51,11.9-4.34,3.01-10.07,4.51-17.18,4.51-5.24,0-10.13-.98-14.66-2.93Z"/>
      </g>
      <g>
        <path class="cls-1" d="M0,473.46v-64.81h13.14v64.81H0Z"/>
        <path class="cls-1" d="M71.74,408.56h13.24v64.9h-8.23v.09l-36.92-43.79v43.7h-13.24v-64.81h10.74l34.41,40.18v-40.27Z"/>
        <path class="cls-1" d="M167.15,441.43c-.2,16.76-11.34,33.52-36.02,33.52s-36.12-16.39-36.12-33.42,11.84-34.16,36.12-34.16,36.22,17.13,36.02,34.07ZM108.06,441.7c.3,10.65,6.52,22.03,23.08,22.03s22.77-11.48,22.98-22.13c.2-10.92-6.42-23.15-22.98-23.15s-23.38,12.31-23.08,23.24Z"/>
        <path class="cls-1" d="M190.13,408.65v53.51h36.12v11.3h-49.36v-64.81h13.24Z"/>
        <path class="cls-1" d="M263.28,473.74h-13.75l-29.2-65.09h14.85l21.17,50.46,21.27-50.46h14.85l-29.2,65.09Z"/>
        <path class="cls-1" d="M300.7,473.46v-64.81h13.14v64.81h-13.14Z"/>
        <path class="cls-1" d="M388.09,440.5c.3,16.39-10.54,32.96-35.12,32.96h-27.59v-64.81h27.59c24.08,0,34.81,15.83,35.12,31.85ZM338.53,461.7h14.45c15.95,0,22.27-10.74,21.97-21.29-.3-10.09-6.72-20.18-21.97-20.18h-14.45v41.48Z"/>
        <path class="cls-1" d="M446.69,461.24h-36.72l-6.02,12.22h-14.35l31.5-64.81h14.45l31.5,64.81h-14.45l-5.92-12.22ZM428.33,422.26l-13.04,27.59h26.09l-13.04-27.59Z"/>
        <path class="cls-1" d="M529.06,427.45c0,5-2.61,9.81-9.13,12.5,8.23,2.31,11.24,10.37,11.24,14.44,0,14.44-11.74,19.07-26.29,19.07h-33.31v-64.81h33.31c13.85,0,24.18,5.74,24.18,18.79ZM484.62,434.67h20.27c8.33,0,11.04-3.24,11.04-6.94,0-2.96-2.61-7.96-11.04-7.96h-20.27v14.91ZM484.62,462.07h20.27c5.42,0,13.14-1.67,13.14-7.78s-7.72-8.89-13.14-8.89h-20.27v16.67Z"/>
        <path class="cls-1" d="M553.75,408.65v53.51h36.12v11.3h-49.36v-64.81h13.24Z"/>
        <path class="cls-1" d="M651.57,473.46h-52.57v-64.81h52.57v11.85h-39.43v14.91h38.02v11.39h-38.02v14.63h39.43v12.04Z"/>
        <path class="cls-1" d="M707.26,424.3c-2.41-3.7-9.03-7.22-16.65-7.22-9.83,0-14.55,3.8-14.55,8.61,0,5.65,7.22,7.22,15.65,8.15,14.65,1.67,28.29,5.18,28.29,20.65,0,14.44-13.84,20.65-29.5,20.65-14.35,0-25.38-4.07-30.6-15.92l11.04-5.28c3.11,7.13,11.24,10.28,19.76,10.28s16.15-2.68,16.15-9.72c0-6.11-6.92-8.61-16.25-9.54-14.35-1.57-27.59-5.09-27.59-19.63,0-13.33,14.25-18.79,27.19-18.89,10.94,0,22.27,2.87,27.59,12.87l-10.54,5Z"/>
      </g>
      <path class="cls-1" d="M589.06,33.69c-2.14,1.05-4.14,2.33-5.97,3.86-2.63,2.2-4.46,5.05-6.22,7.95-.1.17-.19.32-.39.43,0-.09-.01-.16,0-.24.12-2.72.7-5.39.76-8.12.05-2.36-.26-4.64-1.63-6.65-1-1.46-2.43-2.18-4.12-2.49-.42.79-.51,1.57-.48,2.37.04,1.05.28,2.06.69,3.02,1.09,2.55,1.82,5.2,2.44,7.89.24,1.06.41,2.23.99,3.11,1.27,1.94.92,3.74.05,5.65-.47,1.04-.78,2.15-1.18,3.27-1.46-1.32-1.64-1.59-1.31-3.33.56-2.95-.13-5.7-1.16-8.4-.74-1.93-2.01-3.42-3.91-4.33-.93-.45-1.85-.93-2.79-1.42-.06.26-.17.52-.17.78.03,3.83,1.09,7.39,2.95,10.71,1,1.79,2.32,3.32,4.14,4.33.87.49,1.41,1.23,1.91,2.04.11.18.06.33.01.52-.51,1.85-1.36,3.57-1.98,5.38-.41,1.2-.89,2.38-1.59,3.68-.28-1.24-.41-2.31-.75-3.31.11-.1.21-.2.29-.3.06-.04.12-.09.18-.15.67-.65.69-1.71.05-2.39s-1.71-.69-2.39-.05-.69,1.71-.05,2.39c.42.44,1.01.6,1.56.48.05.06.1.13.12.23.34,1.39.83,2.77.54,4.15-.11.36-.35.8-.8,1.71-.36.73-1.53,2.71-2.66,4.59-.02,0-.05,0-.07,0-.57-1.62-.95-3.31-1.82-4.81-.27-.46-.25-.83-.05-1.3.59-1.36.99-2.78,1.08-4.26.17-2.88-.81-5.22-3.16-6.98-2.67-2-6.03-2.79-8.71-5.11.35,1.93.51,3.66,1.17,5.31.78,1.98,1.6,3.97,2.8,5.69,1.3,1.86,2.77,3.69,4.7,4.98,1.7,1.14,2.55,2.73,3.07,4.61.09.32.2.62.31.93.17.49.37.99.35,1.47-1.12,1.86-2.11,3.48-2.12,3.49-.39.6-.73,1.12-1.06,1.64-.37.6-.71,1.21-1.16,1.98-.27-1.22-.49-2.24-.73-3.26-.03-.12-.05-.23-.06-.33.2-.09.39-.22.56-.38.81-.78.84-2.07.06-2.89s-2.07-.84-2.89-.06-.84,2.07-.06,2.89c.54.56,1.32.75,2.02.55.11.22.17.49.22.76.19.91.35,1.82.55,2.73.09.4,0,.73-.19,1.09-.93,1.72-1.78,3.48-2.39,5.35-.06.18-.16.25-.26.25-2.65-7.55-8.74-11.97-14.67-16.59-.21.35-.1.59-.06.82.26,1.61.69,3.17,1.2,4.72,1.54,4.6,4.27,8.44,7.47,12.02,2.8,3.13,5.5,6.37,5.87,10.88,1.18-.84,2.53-1.19,3.89-1.48,2.32-.49,4.65-.94,6.97-1.45,2.97-.66,5.87-1.51,8.59-2.92,2.05-1.06,3.88-2.4,5.38-4.15-.03-.07-.05-.14-.08-.21-.14.02-.27.05-.41.06-5.6.3-11.06,1.29-16.33,3.25-3.02,1.12-5.46,2.95-7.25,5.63-.12.18-.23.42-.47.43-.16-2.97.12-5.9.14-8.83,0-.27-.04-.51.29-.68,1.39-.71,2.76-1.45,4.27-1.94.08.13.17.25.28.37.78.81,2.07.84,2.89.06s.84-2.07.06-2.89-2.07-.84-2.89-.06c-.62.6-.78,1.5-.47,2.25-1.49.48-2.85,1.28-4.29,1.94-.1-.45.06-.84.17-1.23.96-3.3,2.72-6.22,4.41-9.17.04-.05.08-.1.12-.17.14-.13.31-.18.49-.21,1.26-.26,2.52-.49,3.81-.52.32,0,.65-.06.93.2,1.02.9,2.27,1.28,3.56,1.56,2.66.58,5.22.09,7.72-.8,3.51-1.24,6.76-3.12,10.33-4.23.06-.02.1-.11.16-.18-.23-.29-.56-.21-.84-.23-4.87-.42-9.73-.51-14.57.42-1.21.23-2.41.46-3.6.76-1.18.3-2.28.76-3,1.83-.18.26-.42.45-.81.44-1.21-.05-2.38.23-3.58.47-.02-.1-.04-.19-.06-.31.57-.86,1.21-1.89,1.85-2.86.19-.25.36-.5.52-.77,0,0,0,0,0,0,.49-.7,1.33-2.31,2.09-3.79.37-.3.86-.34,3.03-.87.13-.03.25-.06.38-.1.09.25.24.49.44.7.78.81,2.07.84,2.89.06s.84-2.07.06-2.89-2.07-.84-2.89-.06c-.53.51-.73,1.24-.58,1.91-.66.17-1.31.34-1.97.5-.23.05-.5.12-.67-.13-.15-.22,0-.41.1-.6.25-.52.5-1.05.74-1.57,0,0,0,0,0,0,0,.02,0,.01,0,0,.7-1.53,1.35-3.08,1.96-4.65.14-.35.35-.51.69-.6,1.06-.3,2.13-.58,3.17-.94.61-.21,1.12-.17,1.7.13,2.26,1.17,4.62,1.01,6.77-.1,2.83-1.45,5.41-3.32,7.92-5.28.92-.72,1.83-1.44,2.75-2.15-.6-.07-1.17-.02-1.73.06-4.6.64-8.89,2.23-13,4.33-1.26.64-2.38,1.5-3.53,2.31-1.17.83-2.83.98-4.38,1.46.94-2.63,1.82-5.11,2.7-7.59.06-.16.14-.26.31-.33.87-.38,1.73-.8,2.59-1.2.21-.1.41-.18.61-.2.07.14.16.27.27.38.61.63,1.62.65,2.25.05s.65-1.62.05-2.25-1.62-.65-2.25-.05c-.42.41-.57.99-.44,1.52-1.02.47-2.03.94-3.1,1.44.29-1.28.82-2.42,1.19-3.61.09-.28.33-.24.52-.32,3.85-1.43,7.21-3.56,9.99-6.64,2.05-2.27,3.08-5.18,5-7.56-1.02.14-2.01.24-2.92.69Z"/>
      <path class="cls-1" d="M119.92,427.95c1.21.59,2.33,1.31,3.36,2.17,1.48,1.24,2.51,2.85,3.5,4.47.06.09.11.18.22.24,0-.05,0-.09,0-.13-.07-1.53-.4-3.04-.43-4.57-.03-1.33.15-2.61.92-3.74.56-.82,1.37-1.23,2.32-1.4.24.45.29.89.27,1.33-.02.59-.15,1.16-.39,1.7-.61,1.43-1.03,2.93-1.37,4.44-.14.6-.23,1.25-.56,1.75-.71,1.09-.52,2.1-.03,3.18.27.58.44,1.21.66,1.84.82-.74.93-.89.74-1.88-.31-1.66.07-3.21.66-4.73.42-1.09,1.13-1.93,2.2-2.44.53-.25,1.04-.53,1.57-.8.03.15.1.29.1.44-.02,2.16-.61,4.16-1.66,6.03-.57,1.01-1.31,1.87-2.33,2.44-.49.27-.79.69-1.07,1.15-.06.1-.04.18,0,.29.29,1.04.77,2.01,1.11,3.03.23.67.5,1.34.9,2.07.16-.7.23-1.3.42-1.86-.06-.06-.12-.11-.17-.17-.03-.03-.07-.05-.1-.08-.38-.36-.39-.97-.03-1.34s.97-.39,1.34-.03.39.97.03,1.34c-.24.25-.57.34-.88.27-.03.03-.05.07-.07.13-.19.78-.47,1.56-.31,2.33.06.2.2.45.45.96.21.41.86,1.53,1.5,2.58.01,0,.03,0,.04,0,.32-.91.53-1.87,1.02-2.71.15-.26.14-.47.03-.73-.33-.77-.56-1.56-.61-2.4-.1-1.62.45-2.94,1.78-3.93,1.51-1.13,3.39-1.57,4.9-2.88-.2,1.08-.29,2.06-.66,2.99-.44,1.12-.9,2.23-1.58,3.2-.73,1.05-1.56,2.08-2.64,2.8-.96.64-1.44,1.54-1.73,2.6-.05.18-.11.35-.18.52-.1.28-.21.56-.2.83.63,1.05,1.19,1.96,1.19,1.97.22.34.41.63.6.93.21.34.4.68.65,1.11.15-.68.28-1.26.41-1.84.01-.07.03-.13.04-.19-.11-.05-.22-.12-.31-.21-.46-.44-.47-1.17-.03-1.63s1.17-.47,1.63-.03.47,1.17.03,1.63c-.3.32-.74.42-1.14.31-.06.12-.09.28-.13.43-.11.51-.2,1.03-.31,1.54-.05.23,0,.41.11.61.52.97,1,1.96,1.35,3.01.03.1.09.14.15.14,1.49-4.25,4.92-6.74,8.26-9.34.12.2.05.33.03.46-.15.91-.39,1.79-.68,2.66-.87,2.59-2.4,4.75-4.2,6.77-1.58,1.76-3.1,3.58-3.3,6.12-.66-.47-1.42-.67-2.19-.83-1.31-.28-2.62-.53-3.92-.82-1.67-.37-3.31-.85-4.83-1.64-1.15-.6-2.18-1.35-3.03-2.34.01-.04.03-.08.04-.12.08.01.15.03.23.03,3.15.17,6.22.73,9.19,1.83,1.7.63,3.07,1.66,4.08,3.17.07.1.13.24.26.24.09-1.67-.07-3.32-.08-4.97,0-.15.02-.29-.16-.38-.78-.4-1.55-.82-2.4-1.09-.04.07-.1.14-.16.21-.44.46-1.17.47-1.63.03s-.47-1.17-.03-1.63,1.17-.47,1.63-.03c.35.34.44.84.27,1.27.84.27,1.6.72,2.41,1.09.06-.26-.04-.47-.1-.69-.54-1.86-1.53-3.5-2.48-5.16-.02-.03-.04-.06-.07-.09-.08-.08-.17-.1-.28-.12-.71-.14-1.42-.27-2.15-.3-.18,0-.36-.03-.52.11-.57.51-1.28.72-2,.88-1.5.32-2.94.05-4.35-.45-1.98-.7-3.81-1.76-5.82-2.38-.03-.01-.06-.06-.09-.1.13-.16.32-.12.47-.13,2.74-.24,5.48-.29,8.2.23.68.13,1.36.26,2.03.43.66.17,1.28.43,1.69,1.03.1.15.24.26.46.25.68-.03,1.34.13,2.01.27.01-.05.02-.11.03-.17-.32-.48-.68-1.06-1.04-1.61-.11-.14-.2-.28-.29-.43,0,0,0,0,0,0-.28-.4-.75-1.3-1.17-2.13-.21-.17-.48-.19-1.71-.49-.07-.02-.14-.04-.21-.06-.05.14-.14.28-.25.39-.44.46-1.17.47-1.63.03s-.47-1.17-.03-1.63,1.17-.47,1.63-.03c.3.29.41.7.33,1.08.37.1.74.19,1.11.28.13.03.28.07.38-.08.09-.13,0-.23-.06-.34-.14-.29-.28-.59-.42-.89,0,0,0,0,0,0,0,0,0,0,0,0-.4-.86-.76-1.74-1.11-2.62-.08-.2-.2-.28-.39-.34-.6-.17-1.2-.33-1.79-.53-.35-.12-.63-.1-.96.07-1.27.66-2.6.57-3.81-.05-1.59-.82-3.05-1.87-4.46-2.97-.52-.4-1.03-.81-1.55-1.21.34-.04.66-.01.97.03,2.59.36,5,1.25,7.32,2.44.71.36,1.34.84,1.99,1.3.66.47,1.59.55,2.47.82-.53-1.48-1.02-2.88-1.52-4.28-.03-.09-.08-.14-.18-.19-.49-.22-.97-.45-1.46-.67-.12-.05-.23-.1-.34-.11-.04.08-.09.15-.15.22-.34.36-.91.37-1.27.03s-.37-.91-.03-1.27.91-.37,1.27-.03c.24.23.32.56.25.86.57.27,1.14.53,1.75.81-.16-.72-.46-1.36-.67-2.03-.05-.16-.18-.14-.29-.18-2.17-.81-4.06-2.01-5.63-3.74-1.15-1.28-1.73-2.92-2.82-4.26.57.08,1.13.14,1.64.39Z"/>
    </g>
  </g>
</svg>