<?xml version="1.0" encoding="utf-8"?>
<!-- Generator: Adobe Illustrator 28.3.0, SVG Export Plug-In . SVG Version: 6.00 Build 0)  -->
<svg version="1.1" id="Capa_2_00000059291926221138479560000006295554900064581780_"
	 xmlns="http://www.w3.org/2000/svg" xmlns:xlink="http://www.w3.org/1999/xlink" x="0px" y="0px" viewBox="0 0 1080 1080"
	 style="enable-background:new 0 0 1080 1080;" xml:space="preserve">
<style type="text/css">
	.st0{fill:#F8F8F8;}
	.st1{fill:#FF8484;}
</style>
<g>
	<circle class="st0" cx="539.2" cy="616.3" r="34.7"/>
	
		<ellipse transform="matrix(0.1602 -0.9871 0.9871 0.1602 5.2244 913.1061)" class="st0" cx="539.2" cy="453.5" rx="39.1" ry="39.1"/>
	
		<ellipse transform="matrix(0.9239 -0.3827 0.3827 0.9239 -257.106 265.6606)" class="st0" cx="539.2" cy="779.1" rx="30.4" ry="30.4"/>
	<g>
		<path class="st0" d="M853.5,482.3C767.3,428.4,678,380.1,586.1,337.7c4.4-2,8.7-4,13-6C686.7,376.6,771.7,426.9,853.5,482.3
			L853.5,482.3L853.5,482.3z"/>
		<path class="st0" d="M839.7,284.7c-0.6-6.1-1.8-13.5-2.9-19.6c-3.7-19.5-9.7-38.4-18.1-56.5c-4.6-9.9-15.8-14.9-26.1-11
			c-85.7,29.8-169.6,65.1-251.1,105.6c0,0,0,0,0,0L526,311h-0.2c-42.5,21.5-84.3,44.4-125.5,68.6c-41.1,24.2-81.4,49.8-121,76.8
			c-3.9,2.6-9.1,0.7-10.5-4c-4.1-13.9-7.6-27.9-10.5-42.1c-12.6-61.8-13.2-126.2-1.8-188.2c0.7-4.2,4.8-6.8,8.7-5.6
			c46.5,13.8,92.7,29.1,138.4,45.7c33.2,12.1,71.3,27.9,104.2,41.7l17.4-8.7C492.1,280,443.3,258.5,410,245
			c-51.8-21.1-104.3-40.3-157.3-57.8c-6.4-2.1-13.4,1.9-14.9,8.8c-5.6,24-9.5,48.4-11.7,72.9c-6.4,74,2.6,150,28,219.6
			c0.2,0.6,0.5,1.2,0.9,1.8c3.9,5.4,11.3,7,16.9,3.4c41.7-27.2,84.3-52.9,127.6-77.1c29.2-16.3,58.8-32,88.7-46.9
			c27.3-13.6,54.8-26.6,82.5-39c4.7-2.1,9.3-4.2,14-6.2c5.6-2.5,11.3-4.9,17-7.4c59.4-25.5,119.9-48.3,181.2-68.2
			c3.4-1.1,7,0.7,8.4,4c4.7,10.9,8.3,22.3,11,33.8c6.7,29.2,6.6,60,0,89.3c-1,4.8-6.2,7.1-10.3,4.6c-43.9-26.9-89.3-50.8-135.9-71.7
			c-2.1-0.8-4.1-0.8-5.7-0.1c-2.9,1.2-4.8,4.3-4.8,7.5c0,2.5,1.3,5.2,4.2,6.8c52.8,27.4,103.2,59.3,151.4,94.1
			c0.3,0.2,0.7,0.4,1,0.6c6.4,3,13.8-0.3,16.5-7.1c3.6-7.7,6.8-15.5,9.6-23.6C839.5,354.5,843.5,319.1,839.7,284.7L839.7,284.7
			L839.7,284.7z"/>
	</g>
	<path class="st0" d="M929.8,433.4c25.2-36.9,47.9-70.1,71.7-104.9c-54.1-49.7-115.7-95.1-175.5-150c46,87.8,48.6,165.8,3.8,264.6
		c45,33.2,50.5,74.2,50.5,74.2c-5.4-4.3-20.1-16.1-36.3-27.1c-11.1-7.6-19.5-12.5-28.9-17l0,0c-2.7,5.2-5.6,10.5-8.6,15.8
		c-32.9-18.8-32.5-18.5-64.3-36.6c-61.8,188.9-122.4,374.3-186,569C724.5,854.1,886.1,693.6,1049,531.7
		C1008,497.9,969.2,465.9,929.8,433.4L929.8,433.4L929.8,433.4z"/>
	<path class="st0" d="M523.7,1021.4c-22.1-67.6-139.8-428-179.6-550.1c-31.6,17.6-55.5,35.3-89.7,54.4
		c-14.8-32.3-47.3-109.1-50.3-183.1c-2.8-69.8,11.7-125.4,22.9-158.5c-57.9,53.2-95,95.4-148.5,144.6c24.5,35.7,47.3,69,71.9,104.8
		c-40,32.9-79.1,65-119.3,98.2C73.1,573.6,398.8,897.3,523.7,1021.4L523.7,1021.4L523.7,1021.4z"/>
	<path class="st0" d="M617.7,252.4c-13.7-27.6-41.3-46.4-73.2-46.4S483.2,226,470,255c24.1,10.2,48.2,21.1,71.9,32.4
		C566.8,275.1,592.1,263.4,617.7,252.4L617.7,252.4L617.7,252.4z"/>
</g>
<g>
	<path class="st1" d="M540,20c70.2,0,138.3,13.7,202.4,40.9c61.9,26.2,117.5,63.7,165.3,111.4c47.8,47.8,85.3,103.4,111.4,165.3
		c27.1,64.1,40.9,132.2,40.9,202.4s-13.7,138.3-40.9,202.4c-26.2,61.9-63.7,117.5-111.4,165.3c-47.8,47.8-103.4,85.3-165.3,111.4
		c-64.1,27.1-132.2,40.9-202.4,40.9s-138.3-13.7-202.4-40.9c-61.9-26.2-117.5-63.7-165.3-111.4C124.5,859.9,87,804.3,60.9,742.4
		C33.7,678.3,20,610.2,20,540s13.7-138.3,40.9-202.4c26.2-61.9,63.7-117.5,111.4-165.3C220.1,124.5,275.7,87,337.6,60.9
		C401.7,33.7,469.8,20,540,20 M540,0C241.8,0,0,241.8,0,540s241.8,540,540,540s540-241.8,540-540S838.2,0,540,0L540,0z"/>
</g>
</svg>
