<?xml version="1.0" encoding="UTF-8"?>
<svg id="Capa_2" data-name="Capa 2" xmlns="http://www.w3.org/2000/svg" viewBox="0 0 1080 1080">
  <defs>
    <style>
      .cls-1 {
        fill: #f8f8f8;
        stroke: #ff8484;
        stroke-miterlimit: 10;
      }

      .cls-2 {
        fill: #ff8484;
        stroke-width: 0px;
      }
    </style>
  </defs>
  <g id="Capa_2-2" data-name="Capa 2">
    <g>
      <g>
        <circle class="cls-1" cx="539.23" cy="616.29" r="34.74"/>
        <circle class="cls-1" cx="539.23" cy="453.46" r="39.08" transform="translate(5.25 913.09) rotate(-80.78)"/>
        <circle class="cls-1" cx="539.23" cy="779.11" r="30.4"/>
        <g>
          <path class="cls-1" d="M853.54,482.26c-86.2-53.85-175.57-102.17-267.43-144.58,4.39-2.03,8.73-4.02,12.95-5.95,87.6,44.86,172.64,95.15,254.49,150.52h-.01Z"/>
          <path class="cls-1" d="M839.74,284.71c-.6-6.09-1.76-13.55-2.9-19.58-3.72-19.47-9.7-38.38-18.1-56.48-4.61-9.93-15.84-14.86-26.1-10.97-85.71,29.83-169.61,65.09-251.14,105.55,0-.05-.05-.05-.05-.05l-15.41,7.83h-.16c-42.5,21.5-84.34,44.36-125.47,68.65-41.07,24.24-81.43,49.84-120.97,76.82-3.9,2.63-9.1.66-10.47-3.95-4.11-13.87-7.62-27.91-10.47-42.06-12.62-61.8-13.16-126.18-1.76-188.2.71-4.17,4.77-6.75,8.72-5.59,46.55,13.81,92.67,29.07,138.36,45.73,33.18,12.07,71.29,27.91,104.24,41.67l17.44-8.67c-33.45-15.41-82.25-36.9-115.48-50.45-51.76-21.11-104.29-40.35-157.32-57.8-6.41-2.14-13.38,1.92-14.92,8.77-5.59,23.96-9.49,48.36-11.68,72.93-6.36,74.03,2.58,150.03,28.02,219.56.22.6.5,1.21.87,1.76,3.9,5.43,11.25,6.96,16.89,3.35,41.72-27.2,84.28-52.92,127.55-77.09,29.23-16.34,58.78-31.97,88.66-46.88,27.25-13.6,54.79-26.59,82.52-38.98,4.66-2.08,9.33-4.17,13.99-6.19,5.64-2.47,11.3-4.93,16.95-7.35,59.44-25.49,119.92-48.26,181.24-68.16,3.4-1.1,7.01.66,8.44,4,4.66,10.91,8.33,22.27,10.97,33.78,6.69,29.23,6.58,60.04.05,89.32-1.05,4.77-6.25,7.07-10.31,4.61-43.87-26.86-89.32-50.84-135.94-71.66-2.14-.82-4.11-.77-5.7-.11-2.9,1.21-4.77,4.27-4.77,7.46,0,2.53,1.26,5.16,4.17,6.8,52.76,27.41,103.15,59.33,151.4,94.15.32.22.66.44,1.05.6,6.36,2.96,13.81-.32,16.5-7.07,3.56-7.67,6.8-15.52,9.59-23.58,11.25-32.63,15.24-68.05,11.52-102.49h-.03Z"/>
        </g>
        <path class="cls-1" d="M929.76,433.44c25.21-36.86,47.92-70.08,71.73-104.9-54.1-49.67-115.7-95.06-175.52-149.98,45.96,87.79,48.59,165.76,3.82,264.59,44.99,33.25,50.49,74.15,50.49,74.15-5.38-4.34-20.09-16.06-36.32-27.14-11.11-7.58-19.51-12.54-28.88-16.97h0c-2.74,5.21-5.6,10.49-8.59,15.84-32.91-18.76-32.48-18.52-64.27-36.64-61.75,188.87-122.36,374.31-186.03,569.04,168.35-167.3,329.87-327.82,492.81-489.74-41.04-33.82-79.82-65.79-119.21-98.26h-.01Z"/>
        <path class="cls-1" d="M523.69,1021.44c-22.09-67.58-139.81-428.02-179.65-550.09-31.62,17.63-55.48,35.3-89.71,54.37-14.77-32.33-47.27-109.13-50.27-183.13-2.82-69.8,11.66-125.42,22.92-158.47-57.89,53.2-95.03,95.44-148.53,144.59,24.47,35.66,47.3,68.95,71.92,104.84-40.02,32.92-79.05,65.03-119.35,98.18,42.09,41.83,367.74,365.58,492.64,489.71h.03Z"/>
        <path class="cls-1" d="M617.68,252.36c-13.71-27.59-41.35-46.44-73.22-46.44s-61.25,20.06-74.47,49.09c24.13,10.23,48.21,21.07,71.89,32.36,24.91-12.3,50.22-23.97,75.8-34.99h0Z"/>
      </g>
      <path class="cls-2" d="M540,10c71.55,0,140.96,14.01,206.3,41.65,63.11,26.69,119.79,64.91,168.47,113.59,48.68,48.68,86.89,105.36,113.59,168.47,27.63,65.33,41.65,134.74,41.65,206.3s-14.01,140.96-41.65,206.3c-26.69,63.11-64.91,119.79-113.59,168.47-48.68,48.68-105.36,86.89-168.47,113.59-65.33,27.63-134.74,41.65-206.3,41.65s-140.96-14.01-206.3-41.65c-63.11-26.69-119.79-64.91-168.47-113.59-48.68-48.68-86.89-105.36-113.59-168.47-27.63-65.33-41.65-134.74-41.65-206.3s14.01-140.96,41.65-206.3c26.69-63.11,64.91-119.79,113.59-168.47,48.68-48.68,105.36-86.89,168.47-113.59,65.33-27.63,134.74-41.65,206.3-41.65h0M540,0h0C241.77,0,0,241.77,0,540h0c0,298.23,241.77,540,540,540h0c298.23,0,540-241.77,540-540h0C1080,241.77,838.23,0,540,0h0Z"/>
    </g>
  </g>
</svg>